<svg width="155" height="52" viewBox="0 0 155 52" fill="none" xmlns="http://www.w3.org/2000/svg">
<rect x="0.548428" y="0.534268" width="153.869" height="50.5774" rx="4.46573" fill="black"/>
<rect x="0.548428" y="0.534268" width="153.869" height="50.5774" rx="4.46573" stroke="#A6A6A6" stroke-width="1.06854"/>
<path d="M105.276 24.7877V27.7457H103.422V29.6856H105.276V36.2769C105.276 38.5276 106.294 39.4278 108.856 39.4278C109.306 39.4278 109.734 39.3743 110.11 39.3099V37.3915C109.788 37.4237 109.584 37.4451 109.231 37.4451C108.084 37.4451 107.58 36.9092 107.58 35.6874V29.6856H110.11V27.7457H107.58V24.7877H105.276Z" fill="white"/>
<path d="M116.635 39.5886C120.043 39.5886 122.133 37.3058 122.133 33.5225C122.133 29.7606 120.032 27.4671 116.635 27.4671C113.227 27.4671 111.126 29.7606 111.126 33.5225C111.126 37.3058 113.216 39.5886 116.635 39.5886ZM116.635 37.5416C114.631 37.5416 113.505 36.0733 113.505 33.5225C113.505 30.9931 114.631 29.5141 116.635 29.5141C118.628 29.5141 119.764 30.9931 119.764 33.5225C119.764 36.0625 118.628 37.5416 116.635 37.5416Z" fill="white"/>
<path d="M123.921 39.3635H126.225V32.4722C126.225 30.8324 127.458 29.7285 129.205 29.7285C129.612 29.7285 130.298 29.8035 130.491 29.8678V27.5957C130.244 27.5314 129.805 27.4992 129.462 27.4992C127.94 27.4992 126.643 28.3352 126.311 29.482H126.14V27.6921H123.921V39.3635Z" fill="white"/>
<path d="M136.212 29.4284C137.916 29.4284 139.031 30.618 139.085 32.4507H133.19C133.319 30.6287 134.508 29.4284 136.212 29.4284ZM139.074 36.2126C138.645 37.1236 137.691 37.6273 136.298 37.6273C134.455 37.6273 133.265 36.3305 133.19 34.2834V34.1548H141.432V33.351C141.432 29.6856 139.47 27.4671 136.223 27.4671C132.933 27.4671 130.843 29.8357 130.843 33.5654C130.843 37.2951 132.89 39.5886 136.234 39.5886C138.902 39.5886 140.767 38.3025 141.292 36.2126H139.074Z" fill="white"/>
<path d="M90.1649 35.0535C90.3426 37.9194 92.7309 39.7523 96.2856 39.7523C100.085 39.7523 102.462 37.8306 102.462 34.7647C102.462 32.3541 101.107 31.0211 97.8186 30.2546L96.0523 29.8214C93.964 29.3326 93.1197 28.6772 93.1197 27.5331C93.1197 26.089 94.4305 25.1448 96.3967 25.1448C98.2629 25.1448 99.5515 26.0668 99.7848 27.5442H102.206C102.062 24.8448 99.6848 22.9453 96.43 22.9453C92.9309 22.9453 90.5981 24.8448 90.5981 27.6997C90.5981 30.0547 91.92 31.4544 94.8193 32.132L96.8855 32.6318C99.0072 33.1317 99.9403 33.8649 99.9403 35.0868C99.9403 36.5087 98.474 37.5418 96.4745 37.5418C94.3305 37.5418 92.842 36.5753 92.6309 35.0535H90.1649Z" fill="white"/>
<path d="M66.295 27.4992C64.7088 27.4992 63.337 28.2923 62.6296 29.6213H62.4581V27.6921H60.2396V43.2433H62.5439V37.5951H62.7261C63.337 38.8277 64.6552 39.5565 66.3164 39.5565C69.2638 39.5565 71.1393 37.2307 71.1393 33.5225C71.1393 29.8142 69.2638 27.4992 66.295 27.4992ZM65.6412 37.488C63.7121 37.488 62.501 35.9661 62.501 33.5332C62.501 31.0896 63.7121 29.5677 65.652 29.5677C67.6026 29.5677 68.7708 31.0575 68.7708 33.5225C68.7708 35.9982 67.6026 37.488 65.6412 37.488Z" fill="white"/>
<path d="M79.2023 27.4992C77.6162 27.4992 76.2443 28.2923 75.537 29.6213H75.3655V27.6921H73.1469V43.2433H75.4512V37.5951H75.6334C76.2443 38.8277 77.5626 39.5565 79.2238 39.5565C82.1711 39.5565 84.0467 37.2307 84.0467 33.5225C84.0467 29.8142 82.1711 27.4992 79.2023 27.4992ZM78.5486 37.488C76.6194 37.488 75.4083 35.9661 75.4083 33.5332C75.4083 31.0896 76.6194 29.5677 78.5593 29.5677C80.5099 29.5677 81.6781 31.0575 81.6781 33.5225C81.6781 35.9982 80.5099 37.488 78.5486 37.488Z" fill="white"/>
<path d="M56.1054 39.3635H58.7492L52.9617 23.3341H50.2845L44.4971 39.3635H47.052L48.5294 35.109H54.639L56.1054 39.3635ZM51.4954 26.2445H51.6842L54.0059 33.0206H49.1626L51.4954 26.2445Z" fill="white"/>
<path d="M46.0449 11.2477V18.9804H48.8368C51.1411 18.9804 52.4754 17.5603 52.4754 15.0899C52.4754 12.657 51.1304 11.2477 48.8368 11.2477H46.0449ZM47.2453 12.3408H48.7029C50.3051 12.3408 51.2536 13.359 51.2536 15.106C51.2536 16.8797 50.3212 17.8872 48.7029 17.8872H47.2453V12.3408Z" fill="white"/>
<path d="M56.562 19.0929C58.2661 19.0929 59.3111 17.9515 59.3111 16.0598C59.3111 14.1789 58.2608 13.0321 56.562 13.0321C54.8579 13.0321 53.8076 14.1789 53.8076 16.0598C53.8076 17.9515 54.8526 19.0929 56.562 19.0929ZM56.562 18.0694C55.5599 18.0694 54.9973 17.3352 54.9973 16.0598C54.9973 14.7952 55.5599 14.0557 56.562 14.0557C57.5588 14.0557 58.1268 14.7952 58.1268 16.0598C58.1268 17.3299 57.5588 18.0694 56.562 18.0694Z" fill="white"/>
<path d="M68.2098 13.1447H67.0577L66.0181 17.5978H65.927L64.7266 13.1447H63.6227L62.4224 17.5978H62.3366L61.2917 13.1447H60.1235L61.7311 18.9804H62.9154L64.1157 14.6826H64.2068L65.4126 18.9804H66.6076L68.2098 13.1447Z" fill="white"/>
<path d="M69.5367 18.9804H70.6888V15.5668C70.6888 14.6558 71.23 14.0878 72.0821 14.0878C72.9341 14.0878 73.3414 14.554 73.3414 15.4918V18.9804H74.4935V15.2024C74.4935 13.8145 73.7755 13.0321 72.4733 13.0321C71.5944 13.0321 71.0157 13.4233 70.7317 14.0717H70.6459V13.1447H69.5367V18.9804Z" fill="white"/>
<path d="M76.308 18.9804H77.4601V10.8672H76.308V18.9804Z" fill="white"/>
<path d="M81.7932 19.0929C83.4973 19.0929 84.5423 17.9515 84.5423 16.0598C84.5423 14.1789 83.492 13.0321 81.7932 13.0321C80.0892 13.0321 79.0388 14.1789 79.0388 16.0598C79.0388 17.9515 80.0838 19.0929 81.7932 19.0929ZM81.7932 18.0694C80.7912 18.0694 80.2285 17.3352 80.2285 16.0598C80.2285 14.7952 80.7912 14.0557 81.7932 14.0557C82.79 14.0557 83.358 14.7952 83.358 16.0598C83.358 17.3299 82.79 18.0694 81.7932 18.0694Z" fill="white"/>
<path d="M87.9751 18.1069C87.3481 18.1069 86.8926 17.8014 86.8926 17.2763C86.8926 16.7618 87.257 16.4885 88.0608 16.4349L89.4863 16.3438V16.8315C89.4863 17.5549 88.8432 18.1069 87.9751 18.1069ZM87.6804 19.0768C88.4467 19.0768 89.0844 18.7446 89.4327 18.1605H89.5238V18.9804H90.6331V14.9934C90.6331 13.7609 89.8078 13.0321 88.3449 13.0321C87.0212 13.0321 86.0781 13.6752 85.9602 14.6773H87.0748C87.2034 14.2646 87.6482 14.0289 88.2913 14.0289C89.079 14.0289 89.4863 14.3772 89.4863 14.9934V15.4972L87.9054 15.5883C86.5175 15.674 85.7351 16.2795 85.7351 17.3299C85.7351 18.3963 86.555 19.0768 87.6804 19.0768Z" fill="white"/>
<path d="M94.5428 19.0768C95.3466 19.0768 96.0272 18.6963 96.3755 18.0586H96.4666V18.9804H97.5705V10.8672H96.4184V14.0717H96.3326C96.0165 13.4287 95.3413 13.0482 94.5428 13.0482C93.0692 13.0482 92.1207 14.2164 92.1207 16.0598C92.1207 17.9086 93.0584 19.0768 94.5428 19.0768ZM94.8697 14.0824C95.8343 14.0824 96.4398 14.8487 96.4398 16.0652C96.4398 17.287 95.8396 18.0426 94.8697 18.0426C93.8944 18.0426 93.3103 17.2977 93.3103 16.0598C93.3103 14.8327 93.8998 14.0824 94.8697 14.0824Z" fill="white"/>
<path d="M105.042 19.0929C106.746 19.0929 107.791 17.9515 107.791 16.0598C107.791 14.1789 106.74 13.0321 105.042 13.0321C103.338 13.0321 102.287 14.1789 102.287 16.0598C102.287 17.9515 103.332 19.0929 105.042 19.0929ZM105.042 18.0694C104.04 18.0694 103.477 17.3352 103.477 16.0598C103.477 14.7952 104.04 14.0557 105.042 14.0557C106.038 14.0557 106.606 14.7952 106.606 16.0598C106.606 17.3299 106.038 18.0694 105.042 18.0694Z" fill="white"/>
<path d="M109.316 18.9804H110.468V15.5668C110.468 14.6558 111.009 14.0878 111.861 14.0878C112.713 14.0878 113.121 14.554 113.121 15.4918V18.9804H114.273V15.2024C114.273 13.8145 113.555 13.0321 112.252 13.0321C111.374 13.0321 110.795 13.4233 110.511 14.0717H110.425V13.1447H109.316V18.9804Z" fill="white"/>
<path d="M119.579 11.6924V13.1715H118.652V14.1414H119.579V17.437C119.579 18.5624 120.088 19.0125 121.369 19.0125C121.594 19.0125 121.808 18.9857 121.996 18.9536V17.9943C121.835 18.0104 121.733 18.0211 121.556 18.0211C120.983 18.0211 120.731 17.7532 120.731 17.1423V14.1414H121.996V13.1715H120.731V11.6924H119.579Z" fill="white"/>
<path d="M123.542 18.9804H124.694V15.5722C124.694 14.688 125.22 14.0932 126.163 14.0932C126.977 14.0932 127.411 14.5647 127.411 15.4972V18.9804H128.563V15.2131C128.563 13.8252 127.797 13.0375 126.554 13.0375C125.675 13.0375 125.059 13.4287 124.775 14.0824H124.684V10.8672H123.542V18.9804Z" fill="white"/>
<path d="M132.72 14.0128C133.572 14.0128 134.129 14.6076 134.156 15.524H131.209C131.273 14.613 131.868 14.0128 132.72 14.0128ZM134.151 17.4049C133.936 17.8604 133.459 18.1122 132.763 18.1122C131.841 18.1122 131.246 17.4638 131.209 16.4403V16.376H135.329V15.9741C135.329 14.1414 134.349 13.0321 132.725 13.0321C131.08 13.0321 130.035 14.2164 130.035 16.0813C130.035 17.9461 131.059 19.0929 132.73 19.0929C134.065 19.0929 134.997 18.4498 135.26 17.4049H134.151Z" fill="white"/>
<path d="M31.9944 26.2098C32.0224 24.0393 33.188 21.9856 35.0371 20.8488C33.8706 19.1828 31.9167 18.1266 29.8839 18.063C27.7158 17.8354 25.6138 19.3603 24.509 19.3603C23.3828 19.3603 21.6817 18.0856 19.8499 18.1232C17.4622 18.2004 15.2363 19.5579 14.0747 21.6453C11.5776 25.9686 13.4402 32.3224 15.8322 35.8171C17.029 37.5283 18.4276 39.4398 20.2578 39.372C22.0487 39.2977 22.7175 38.23 24.8793 38.23C27.021 38.23 27.6486 39.372 29.5158 39.3289C31.4375 39.2977 32.6483 37.61 33.8031 35.8826C34.663 34.6633 35.3246 33.3157 35.7636 31.8897C33.5052 30.9346 31.9971 28.6618 31.9944 26.2098Z" fill="white"/>
<path d="M28.4674 15.7647C29.5152 14.5069 30.0315 12.8901 29.9065 11.2578C28.3056 11.4259 26.827 12.191 25.765 13.4006C24.7265 14.5824 24.1861 16.1707 24.2883 17.7407C25.8897 17.7572 27.464 17.0128 28.4674 15.7647Z" fill="white"/>
</svg>
