<svg width="16" height="16" viewBox="0 0 16 16" fill="none" xmlns="http://www.w3.org/2000/svg">
<g id="Group">
<g id="Group_2">
<path id="Path" d="M2.66659 12V6" stroke="#323232" stroke-linecap="round" stroke-linejoin="round"/>
<path id="Path_2" d="M13.3333 6V12" stroke="#323232" stroke-linecap="round" stroke-linejoin="round"/>
<path id="Path_3" d="M5.33333 6V12" stroke="#323232" stroke-linecap="round" stroke-linejoin="round"/>
<path id="Path_4" d="M7.99984 6V12" stroke="#323232" stroke-linecap="round" stroke-linejoin="round"/>
<path id="Path_5" d="M10.6666 6V12" stroke="#323232" stroke-linecap="round" stroke-linejoin="round"/>
<path id="Path_6" d="M7.99991 4.18335C7.95391 4.18335 7.91657 4.22068 7.91724 4.26668C7.91724 4.31268 7.95457 4.35002 8.00057 4.35002C8.04657 4.35002 8.08391 4.31268 8.08391 4.26668C8.08324 4.22068 8.04591 4.18335 7.99991 4.18335" stroke="#323232" stroke-linecap="round" stroke-linejoin="round"/>
<path id="Path_7" fill-rule="evenodd" clip-rule="evenodd" d="M14.3332 6H1.6665V4.24067L7.99984 2L14.3332 4.24067V6Z" stroke="#323232" stroke-linecap="round" stroke-linejoin="round"/>
<path id="Path_8" fill-rule="evenodd" clip-rule="evenodd" d="M13.9999 12H1.99992L1.33325 12.6667V14H14.6666V12.6667L13.9999 12Z" stroke="#323232" stroke-linecap="round" stroke-linejoin="round"/>
</g>
</g>
</svg>
