<svg width="18" height="18" viewBox="0 0 18 18" fill="none" xmlns="http://www.w3.org/2000/svg">
<g id="vuesax/outline/book">
<g id="book">
<path id="Vector" d="M9 16.5587C8.775 16.5587 8.55 16.5062 8.3625 16.4012C6.96 15.6362 4.4925 14.8262 2.9475 14.6237L2.73 14.5937C1.7475 14.4737 0.9375 13.5512 0.9375 12.5537V3.49366C0.9375 2.90116 1.17 2.36116 1.5975 1.97116C2.025 1.58116 2.58 1.39366 3.165 1.44616C4.815 1.57366 7.305 2.39866 8.715 3.28366L8.895 3.38866C8.9475 3.41866 9.06 3.41866 9.105 3.39616L9.225 3.32116C10.635 2.43616 13.125 1.59616 14.7825 1.45366C14.7975 1.45366 14.8575 1.45366 14.8725 1.45366C15.42 1.40116 15.9825 1.59616 16.4025 1.98616C16.83 2.37616 17.0625 2.91616 17.0625 3.50866V12.5612C17.0625 13.5662 16.2525 14.4812 15.2625 14.6012L15.015 14.6312C13.47 14.8337 10.995 15.6512 9.6225 16.4087C9.4425 16.5137 9.225 16.5587 9 16.5587ZM2.985 2.56366C2.745 2.56366 2.5275 2.64616 2.355 2.80366C2.1675 2.97616 2.0625 3.22366 2.0625 3.49366V12.5537C2.0625 12.9962 2.445 13.4237 2.8725 13.4837L3.0975 13.5137C4.785 13.7387 7.3725 14.5862 8.8725 15.4037C8.94 15.4337 9.0375 15.4412 9.075 15.4262C10.575 14.5937 13.1775 13.7387 14.8725 13.5137L15.1275 13.4837C15.555 13.4312 15.9375 12.9962 15.9375 12.5537V3.50116C15.9375 3.22366 15.8325 2.98366 15.645 2.80366C15.45 2.63116 15.2025 2.54866 14.925 2.56366C14.91 2.56366 14.85 2.56366 14.835 2.56366C13.4025 2.69116 11.0925 3.46366 9.8325 4.25116L9.7125 4.33366C9.3 4.58866 8.715 4.58866 8.3175 4.34116L8.1375 4.23616C6.855 3.44866 4.545 2.68366 3.075 2.56366C3.045 2.56366 3.015 2.56366 2.985 2.56366Z" fill="#6C7E8E"/>
<path id="Vector_2" d="M9 15.9297C8.6925 15.9297 8.4375 15.6747 8.4375 15.3672V4.11719C8.4375 3.80969 8.6925 3.55469 9 3.55469C9.3075 3.55469 9.5625 3.80969 9.5625 4.11719V15.3672C9.5625 15.6822 9.3075 15.9297 9 15.9297Z" fill="#6C7E8E"/>
<path id="Vector_3" d="M5.8125 6.92969H4.125C3.8175 6.92969 3.5625 6.67469 3.5625 6.36719C3.5625 6.05969 3.8175 5.80469 4.125 5.80469H5.8125C6.12 5.80469 6.375 6.05969 6.375 6.36719C6.375 6.67469 6.12 6.92969 5.8125 6.92969Z" fill="#6C7E8E"/>
<path id="Vector_4" d="M6.375 9.17969H4.125C3.8175 9.17969 3.5625 8.92469 3.5625 8.61719C3.5625 8.30969 3.8175 8.05469 4.125 8.05469H6.375C6.6825 8.05469 6.9375 8.30969 6.9375 8.61719C6.9375 8.92469 6.6825 9.17969 6.375 9.17969Z" fill="#6C7E8E"/>
</g>
</g>
</svg>
