<svg width="16" height="16" viewBox="0 0 16 16" fill="none" xmlns="http://www.w3.org/2000/svg">
<g id="Frame" opacity="0.5" clip-path="url(#clip0_3529_15398)">
<path id="Vector" d="M11.3333 2.00008H13.9999C14.1767 2.00008 14.3463 2.07032 14.4713 2.19534C14.5963 2.32037 14.6666 2.48994 14.6666 2.66675V13.3334C14.6666 13.5102 14.5963 13.6798 14.4713 13.8048C14.3463 13.9298 14.1767 14.0001 13.9999 14.0001H1.99992C1.82311 14.0001 1.65354 13.9298 1.52851 13.8048C1.40349 13.6798 1.33325 13.5102 1.33325 13.3334V2.66675C1.33325 2.48994 1.40349 2.32037 1.52851 2.19534C1.65354 2.07032 1.82311 2.00008 1.99992 2.00008H4.66659V0.666748H5.99992V2.00008H9.99992V0.666748H11.3333V2.00008ZM9.99992 3.33341H5.99992V4.66675H4.66659V3.33341H2.66659V6.00008H13.3333V3.33341H11.3333V4.66675H9.99992V3.33341ZM13.3333 7.33341H2.66659V12.6667H13.3333V7.33341Z" fill="#3F3F44"/>
</g>
<defs>
<clipPath id="clip0_3529_15398">
<rect width="16" height="16" fill="white"/>
</clipPath>
</defs>
</svg>
