<svg width="24" height="24" viewBox="0 0 24 24" fill="none" xmlns="http://www.w3.org/2000/svg">
<g id="vuesax/linear/card-tick">
<path id="Vector" d="M2 10H22" stroke="#9C9CA4" stroke-width="1.5" stroke-miterlimit="10" stroke-linecap="round" stroke-linejoin="round"/>
<path id="Vector_2" d="M11.5483 20.4978H6.43829C2.88829 20.4978 1.98828 19.6178 1.98828 16.1078V7.88782C1.98828 4.70782 2.72831 3.68782 5.51831 3.52782C5.79831 3.51782 6.10829 3.50781 6.43829 3.50781H17.5483C21.0983 3.50781 21.9983 4.38781 21.9983 7.89781V12.3078" stroke="#9C9CA4" stroke-width="1.5" stroke-linecap="round" stroke-linejoin="round"/>
<path id="Vector_3" d="M6 16H10" stroke="#9C9CA4" stroke-width="1.5" stroke-miterlimit="10" stroke-linecap="round" stroke-linejoin="round"/>
<path id="Vector_4" d="M22 18C22 18.75 21.79 19.46 21.42 20.06C20.73 21.22 19.46 22 18 22C16.54 22 15.27 21.22 14.58 20.06C14.21 19.46 14 18.75 14 18C14 15.79 15.79 14 18 14C20.21 14 22 15.79 22 18Z" stroke="#9C9CA4" stroke-width="1.5" stroke-miterlimit="10" stroke-linecap="round" stroke-linejoin="round"/>
<path id="Vector_5" d="M16.4414 17.9956L17.4314 18.9856L19.5614 17.0156" stroke="#9C9CA4" stroke-width="1.5" stroke-linecap="round" stroke-linejoin="round"/>
</g>
</svg>
