<svg width="573" height="587" viewBox="0 0 573 587" fill="none" xmlns="http://www.w3.org/2000/svg">
<rect x="83" width="461" height="426" rx="17.9911" fill="#581959"/>
<g opacity="0.3" filter="url(#filter0_f_1736_31187)">
<rect x="144.384" y="359.82" width="284.259" height="82.7589" fill="#581959"/>
</g>
<path d="M161.033 68.3406C159.328 68.3406 157.741 68.0491 156.273 67.4662C154.826 66.8617 153.552 66.0197 152.451 64.9403C151.372 63.8608 150.53 62.6086 149.925 61.1837C149.321 59.7373 149.019 58.1828 149.019 56.5205C149.019 54.8581 149.321 53.3145 149.925 51.8896C150.53 50.4431 151.372 49.1909 152.451 48.133C153.531 47.0751 154.794 46.2548 156.24 45.6718C157.708 45.0673 159.295 44.7651 161.001 44.7651C162.814 44.7651 164.423 45.0566 165.826 45.6395C167.251 46.2224 168.492 47.0212 169.55 48.0359L166.15 51.4686C165.545 50.8209 164.811 50.3135 163.948 49.9465C163.106 49.5795 162.123 49.396 161.001 49.396C160.008 49.396 159.09 49.5687 158.248 49.9141C157.428 50.238 156.715 50.7129 156.111 51.339C155.528 51.9651 155.064 52.7207 154.718 53.6059C154.394 54.4911 154.233 55.4626 154.233 56.5205C154.233 57.5999 154.394 58.5822 154.718 59.4674C155.064 60.3526 155.528 61.1082 156.111 61.7343C156.715 62.3604 157.428 62.8461 158.248 63.1916C159.09 63.537 160.008 63.7097 161.001 63.7097C162.167 63.7097 163.181 63.5262 164.045 63.1592C164.908 62.7922 165.653 62.2848 166.279 61.6371L169.712 65.0698C168.611 66.0845 167.348 66.8833 165.923 67.4662C164.52 68.0491 162.89 68.3406 161.033 68.3406ZM179.617 68.3406C177.997 68.3406 176.529 67.9844 175.212 67.2719C173.917 66.5379 172.891 65.5448 172.136 64.2926C171.38 63.0404 171.002 61.6371 171.002 60.0827C171.002 58.5283 171.38 57.1358 172.136 55.9052C172.891 54.6746 173.917 53.7031 175.212 52.9906C176.508 52.2566 177.976 51.8896 179.617 51.8896C181.257 51.8896 182.725 52.2458 184.021 52.9582C185.316 53.6707 186.342 54.653 187.097 55.9052C187.853 57.1358 188.231 58.5283 188.231 60.0827C188.231 61.6371 187.853 63.0404 187.097 64.2926C186.342 65.5448 185.316 66.5379 184.021 67.2719C182.725 67.9844 181.257 68.3406 179.617 68.3406ZM179.617 63.8392C180.329 63.8392 180.955 63.6881 181.495 63.3859C182.035 63.062 182.445 62.6194 182.725 62.0581C183.028 61.4752 183.179 60.8167 183.179 60.0827C183.179 59.3487 183.028 58.7118 182.725 58.172C182.423 57.6107 182.002 57.1789 181.462 56.8767C180.944 56.5528 180.329 56.3909 179.617 56.3909C178.926 56.3909 178.31 56.5528 177.771 56.8767C177.231 57.1789 176.81 57.6107 176.508 58.172C176.205 58.7334 176.054 59.381 176.054 60.1151C176.054 60.8275 176.205 61.4752 176.508 62.0581C176.81 62.6194 177.231 63.062 177.771 63.3859C178.31 63.6881 178.926 63.8392 179.617 63.8392ZM201.452 67.9844V59.014C201.452 58.1936 201.193 57.5352 200.675 57.0386C200.179 56.5205 199.542 56.2614 198.765 56.2614C198.225 56.2614 197.75 56.3801 197.34 56.6176C196.929 56.8335 196.606 57.1573 196.368 57.5891C196.131 57.9993 196.012 58.4743 196.012 59.014L194.101 58.0749C194.101 56.8443 194.371 55.7648 194.911 54.8365C195.451 53.9082 196.195 53.1957 197.145 52.6992C198.117 52.181 199.207 51.9219 200.416 51.9219C201.582 51.9219 202.607 52.2026 203.493 52.7639C204.399 53.3037 205.112 54.0269 205.63 54.9337C206.148 55.8404 206.407 56.8335 206.407 57.913V67.9844H201.452ZM191.057 67.9844V52.2458H196.012V67.9844H191.057ZM211.994 67.9844V45.7366H216.949V67.9844H211.994ZM208.432 56.4557V52.2458H220.511V56.4557H208.432ZM223.054 67.9844V52.2458H228.009V67.9844H223.054ZM225.547 50.0761C224.77 50.0761 224.123 49.817 223.604 49.2988C223.108 48.7591 222.86 48.1114 222.86 47.3558C222.86 46.5786 223.108 45.9309 223.604 45.4128C224.123 44.8946 224.77 44.6356 225.547 44.6356C226.325 44.6356 226.962 44.8946 227.458 45.4128C227.955 45.9309 228.203 46.5786 228.203 47.3558C228.203 48.1114 227.955 48.7591 227.458 49.2988C226.962 49.817 226.325 50.0761 225.547 50.0761ZM242.253 67.9844V59.014C242.253 58.1936 241.994 57.5352 241.476 57.0386C240.979 56.5205 240.342 56.2614 239.565 56.2614C239.025 56.2614 238.55 56.3801 238.14 56.6176C237.73 56.8335 237.406 57.1573 237.169 57.5891C236.931 57.9993 236.812 58.4743 236.812 59.014L234.902 58.0749C234.902 56.8443 235.172 55.7648 235.711 54.8365C236.251 53.9082 236.996 53.1957 237.946 52.6992C238.917 52.181 240.008 51.9219 241.217 51.9219C242.382 51.9219 243.408 52.2026 244.293 52.7639C245.2 53.3037 245.912 54.0269 246.43 54.9337C246.948 55.8404 247.208 56.8335 247.208 57.913V67.9844H242.253ZM231.858 67.9844V52.2458H236.812V67.9844H231.858ZM257.745 68.3406C256.298 68.3406 255.014 68.0491 253.891 67.4662C252.79 66.8617 251.926 66.0413 251.3 65.0051C250.674 63.9472 250.361 62.7382 250.361 61.3781V52.2458H255.316V61.3133C255.316 61.853 255.402 62.3172 255.575 62.7058C255.769 63.0944 256.05 63.3967 256.417 63.6125C256.784 63.8284 257.226 63.9364 257.745 63.9364C258.479 63.9364 259.061 63.7097 259.493 63.2563C259.925 62.7814 260.141 62.1337 260.141 61.3133V52.2458H265.096V61.3457C265.096 62.7274 264.783 63.9472 264.157 65.0051C263.53 66.0413 262.667 66.8617 261.566 67.4662C260.465 68.0491 259.191 68.3406 257.745 68.3406ZM276.339 68.3406C274.633 68.3406 273.111 67.9952 271.772 67.3043C270.455 66.5919 269.419 65.6096 268.664 64.3574C267.908 63.1052 267.53 61.6911 267.53 60.1151C267.53 58.5391 267.897 57.1358 268.631 55.9052C269.387 54.653 270.401 53.6707 271.675 52.9582C272.949 52.2458 274.385 51.8896 275.982 51.8896C277.537 51.8896 278.908 52.2242 280.095 52.8935C281.282 53.5627 282.211 54.4911 282.88 55.6785C283.571 56.8659 283.916 58.226 283.916 59.7589C283.916 60.0395 283.895 60.3418 283.852 60.6656C283.83 60.9679 283.776 61.3241 283.69 61.7343L270.121 61.7667V58.3663L281.585 58.334L279.447 59.7589C279.426 58.8521 279.285 58.1073 279.026 57.5244C278.767 56.9199 278.379 56.4665 277.861 56.1642C277.364 55.8404 276.749 55.6785 276.015 55.6785C275.237 55.6785 274.557 55.862 273.975 56.229C273.413 56.5744 272.971 57.071 272.647 57.7187C272.345 58.3663 272.193 59.1544 272.193 60.0827C272.193 61.011 272.355 61.8098 272.679 62.4791C273.025 63.1268 273.5 63.6341 274.104 64.0012C274.73 64.3466 275.464 64.5193 276.306 64.5193C277.083 64.5193 277.785 64.3898 278.411 64.1307C279.037 63.85 279.588 63.4398 280.063 62.9001L282.783 65.6203C282.006 66.5271 281.067 67.2072 279.966 67.6605C278.864 68.1139 277.655 68.3406 276.339 68.3406ZM298.052 68.0491L291.575 52.2458H296.919L301.031 64.7784H299.056L303.266 52.2458H308.609L301.873 68.0491H298.052ZM294.004 74.6231L298.732 64.4221L301.873 68.0491L299.088 74.6231H294.004ZM317.83 68.3406C316.211 68.3406 314.743 67.9844 313.426 67.2719C312.131 66.5379 311.105 65.5448 310.349 64.2926C309.594 63.0404 309.216 61.6371 309.216 60.0827C309.216 58.5283 309.594 57.1358 310.349 55.9052C311.105 54.6746 312.131 53.7031 313.426 52.9906C314.721 52.2566 316.189 51.8896 317.83 51.8896C319.471 51.8896 320.939 52.2458 322.234 52.9582C323.53 53.6707 324.555 54.653 325.311 55.9052C326.066 57.1358 326.444 58.5283 326.444 60.0827C326.444 61.6371 326.066 63.0404 325.311 64.2926C324.555 65.5448 323.53 66.5379 322.234 67.2719C320.939 67.9844 319.471 68.3406 317.83 68.3406ZM317.83 63.8392C318.543 63.8392 319.169 63.6881 319.708 63.3859C320.248 63.062 320.658 62.6194 320.939 62.0581C321.241 61.4752 321.392 60.8167 321.392 60.0827C321.392 59.3487 321.241 58.7118 320.939 58.172C320.637 57.6107 320.216 57.1789 319.676 56.8767C319.158 56.5528 318.543 56.3909 317.83 56.3909C317.139 56.3909 316.524 56.5528 315.984 56.8767C315.445 57.1789 315.024 57.6107 314.721 58.172C314.419 58.7334 314.268 59.381 314.268 60.1151C314.268 60.8275 314.419 61.4752 314.721 62.0581C315.024 62.6194 315.445 63.062 315.984 63.3859C316.524 63.6881 317.139 63.8392 317.83 63.8392ZM336.266 68.3406C334.819 68.3406 333.535 68.0491 332.412 67.4662C331.311 66.8617 330.447 66.0413 329.821 65.0051C329.195 63.9472 328.882 62.7382 328.882 61.3781V52.2458H333.837V61.3133C333.837 61.853 333.923 62.3172 334.096 62.7058C334.29 63.0944 334.571 63.3967 334.938 63.6125C335.305 63.8284 335.748 63.9364 336.266 63.9364C337 63.9364 337.583 63.7097 338.014 63.2563C338.446 62.7814 338.662 62.1337 338.662 61.3133V52.2458H343.617V61.3457C343.617 62.7274 343.304 63.9472 342.678 65.0051C342.052 66.0413 341.188 66.8617 340.087 67.4662C338.986 68.0491 337.712 68.3406 336.266 68.3406ZM347.088 67.9844V52.2458H352.042V67.9844H347.088ZM352.042 59.3379L349.97 57.7187C350.38 55.8836 351.071 54.4587 352.042 53.444C353.014 52.4293 354.363 51.9219 356.09 51.9219C356.846 51.9219 357.504 52.0407 358.066 52.2782C358.649 52.4941 359.156 52.8395 359.588 53.3145L356.641 57.0386C356.425 56.8011 356.155 56.6176 355.831 56.4881C355.507 56.3585 355.14 56.2938 354.73 56.2938C353.91 56.2938 353.251 56.5528 352.755 57.071C352.28 57.5675 352.042 58.3232 352.042 59.3379ZM375.974 68.3406C374.354 68.3406 372.886 67.9844 371.569 67.2719C370.253 66.5595 369.216 65.5772 368.461 64.325C367.705 63.0728 367.327 61.6695 367.327 60.1151C367.327 58.5391 367.705 57.1358 368.461 55.9052C369.238 54.653 370.285 53.6707 371.602 52.9582C372.919 52.2458 374.398 51.8896 376.038 51.8896C377.269 51.8896 378.392 52.1055 379.406 52.5372C380.443 52.9474 381.36 53.5735 382.159 54.4155L378.985 57.5891C378.618 57.1789 378.187 56.8767 377.69 56.6824C377.215 56.4881 376.665 56.3909 376.038 56.3909C375.326 56.3909 374.689 56.5528 374.128 56.8767C373.588 57.1789 373.156 57.6107 372.832 58.172C372.53 58.7118 372.379 59.3487 372.379 60.0827C372.379 60.8167 372.53 61.4644 372.832 62.0257C373.156 62.5871 373.599 63.0296 374.16 63.3535C374.721 63.6773 375.348 63.8392 376.038 63.8392C376.686 63.8392 377.258 63.7313 377.755 63.5154C378.273 63.2779 378.716 62.9541 379.083 62.5439L382.224 65.7175C381.403 66.5811 380.475 67.2395 379.439 67.6929C378.402 68.1247 377.247 68.3406 375.974 68.3406ZM391.987 68.3406C390.368 68.3406 388.9 67.9844 387.583 67.2719C386.288 66.5379 385.262 65.5448 384.506 64.2926C383.751 63.0404 383.373 61.6371 383.373 60.0827C383.373 58.5283 383.751 57.1358 384.506 55.9052C385.262 54.6746 386.288 53.7031 387.583 52.9906C388.878 52.2566 390.346 51.8896 391.987 51.8896C393.628 51.8896 395.096 52.2458 396.391 52.9582C397.687 53.6707 398.712 54.653 399.468 55.9052C400.223 57.1358 400.601 58.5283 400.601 60.0827C400.601 61.6371 400.223 63.0404 399.468 64.2926C398.712 65.5448 397.687 66.5379 396.391 67.2719C395.096 67.9844 393.628 68.3406 391.987 68.3406ZM391.987 63.8392C392.7 63.8392 393.326 63.6881 393.865 63.3859C394.405 63.062 394.815 62.6194 395.096 62.0581C395.398 61.4752 395.549 60.8167 395.549 60.0827C395.549 59.3487 395.398 58.7118 395.096 58.172C394.794 57.6107 394.373 57.1789 393.833 56.8767C393.315 56.5528 392.7 56.3909 391.987 56.3909C391.296 56.3909 390.681 56.5528 390.141 56.8767C389.601 57.1789 389.18 57.6107 388.878 58.172C388.576 58.7334 388.425 59.381 388.425 60.1151C388.425 60.8275 388.576 61.4752 388.878 62.0581C389.18 62.6194 389.601 63.062 390.141 63.3859C390.681 63.6881 391.296 63.8392 391.987 63.8392ZM410.423 68.3406C408.976 68.3406 407.692 68.0491 406.569 67.4662C405.468 66.8617 404.604 66.0413 403.978 65.0051C403.352 63.9472 403.039 62.7382 403.039 61.3781V52.2458H407.994V61.3133C407.994 61.853 408.08 62.3172 408.253 62.7058C408.447 63.0944 408.728 63.3967 409.095 63.6125C409.462 63.8284 409.905 63.9364 410.423 63.9364C411.157 63.9364 411.74 63.7097 412.171 63.2563C412.603 62.7814 412.819 62.1337 412.819 61.3133V52.2458H417.774V61.3457C417.774 62.7274 417.461 63.9472 416.835 65.0051C416.209 66.0413 415.345 66.8617 414.244 67.4662C413.143 68.0491 411.869 68.3406 410.423 68.3406ZM421.245 67.9844V52.2458H426.199V67.9844H421.245ZM426.199 59.3379L424.127 57.7187C424.537 55.8836 425.228 54.4587 426.199 53.444C427.171 52.4293 428.52 51.9219 430.247 51.9219C431.003 51.9219 431.661 52.0407 432.223 52.2782C432.806 52.4941 433.313 52.8395 433.745 53.3145L430.798 57.0386C430.582 56.8011 430.312 56.6176 429.988 56.4881C429.664 56.3585 429.297 56.2938 428.887 56.2938C428.067 56.2938 427.408 56.5528 426.912 57.071C426.437 57.5675 426.199 58.3232 426.199 59.3379ZM440.809 68.373C439.88 68.373 438.963 68.2542 438.056 68.0168C437.171 67.7793 436.34 67.4446 435.562 67.0129C434.807 66.5595 434.159 66.0413 433.619 65.4584L436.437 62.6086C436.955 63.17 437.57 63.6125 438.283 63.9364C438.995 64.2386 439.772 64.3898 440.614 64.3898C441.197 64.3898 441.64 64.3034 441.942 64.1307C442.266 63.958 442.428 63.7205 442.428 63.4182C442.428 63.0296 442.233 62.7382 441.845 62.5439C441.478 62.328 441.003 62.1445 440.42 61.9933C439.837 61.8206 439.222 61.6371 438.574 61.4428C437.926 61.2485 437.311 60.9787 436.728 60.6332C436.145 60.2878 435.67 59.8128 435.303 59.2083C434.936 58.5822 434.753 57.7942 434.753 56.8443C434.753 55.8296 435.012 54.9552 435.53 54.2212C436.048 53.4656 436.782 52.8719 437.732 52.4401C438.682 52.0083 439.794 51.7924 441.068 51.7924C442.406 51.7924 443.637 52.0299 444.759 52.5049C445.904 52.9582 446.832 53.6383 447.544 54.545L444.727 57.3948C444.23 56.8119 443.669 56.4017 443.043 56.1642C442.439 55.9268 441.845 55.808 441.262 55.808C440.701 55.808 440.28 55.8944 439.999 56.0671C439.718 56.2182 439.578 56.4449 439.578 56.7472C439.578 57.071 439.761 57.3301 440.128 57.5244C440.495 57.7187 440.97 57.8914 441.553 58.0425C442.136 58.1936 442.752 58.3771 443.399 58.593C444.047 58.8089 444.662 59.1004 445.245 59.4674C445.828 59.8344 446.303 60.331 446.67 60.9571C447.037 61.5616 447.221 62.3604 447.221 63.3535C447.221 64.8863 446.638 66.1061 445.472 67.0129C444.328 67.9196 442.773 68.373 440.809 68.373ZM458.041 68.3406C456.335 68.3406 454.813 67.9952 453.475 67.3043C452.158 66.5919 451.121 65.6096 450.366 64.3574C449.61 63.1052 449.232 61.6911 449.232 60.1151C449.232 58.5391 449.599 57.1358 450.333 55.9052C451.089 54.653 452.104 53.6707 453.377 52.9582C454.651 52.2458 456.087 51.8896 457.684 51.8896C459.239 51.8896 460.61 52.2242 461.797 52.8935C462.985 53.5627 463.913 54.4911 464.582 55.6785C465.273 56.8659 465.618 58.226 465.618 59.7589C465.618 60.0395 465.597 60.3418 465.554 60.6656C465.532 60.9679 465.478 61.3241 465.392 61.7343L451.823 61.7667V58.3663L463.287 58.334L461.15 59.7589C461.128 58.8521 460.988 58.1073 460.729 57.5244C460.469 56.9199 460.081 56.4665 459.563 56.1642C459.066 55.8404 458.451 55.6785 457.717 55.6785C456.94 55.6785 456.26 55.862 455.677 56.229C455.115 56.5744 454.673 57.071 454.349 57.7187C454.047 58.3663 453.896 59.1544 453.896 60.0827C453.896 61.011 454.057 61.8098 454.381 62.4791C454.727 63.1268 455.202 63.6341 455.806 64.0012C456.432 64.3466 457.166 64.5193 458.008 64.5193C458.785 64.5193 459.487 64.3898 460.113 64.1307C460.739 63.85 461.29 63.4398 461.765 62.9001L464.485 65.6203C463.708 66.5271 462.769 67.2072 461.668 67.6605C460.567 68.1139 459.358 68.3406 458.041 68.3406ZM474.102 68.373C473.174 68.373 472.256 68.2542 471.349 68.0168C470.464 67.7793 469.633 67.4446 468.856 67.0129C468.1 66.5595 467.452 66.0413 466.913 65.4584L469.73 62.6086C470.248 63.17 470.863 63.6125 471.576 63.9364C472.288 64.2386 473.066 64.3898 473.908 64.3898C474.49 64.3898 474.933 64.3034 475.235 64.1307C475.559 63.958 475.721 63.7205 475.721 63.4182C475.721 63.0296 475.527 62.7382 475.138 62.5439C474.771 62.328 474.296 62.1445 473.713 61.9933C473.13 61.8206 472.515 61.6371 471.867 61.4428C471.22 61.2485 470.604 60.9787 470.021 60.6332C469.439 60.2878 468.964 59.8128 468.597 59.2083C468.23 58.5822 468.046 57.7942 468.046 56.8443C468.046 55.8296 468.305 54.9552 468.823 54.2212C469.341 53.4656 470.075 52.8719 471.025 52.4401C471.975 52.0083 473.087 51.7924 474.361 51.7924C475.699 51.7924 476.93 52.0299 478.053 52.5049C479.197 52.9582 480.125 53.6383 480.838 54.545L478.02 57.3948C477.524 56.8119 476.962 56.4017 476.336 56.1642C475.732 55.9268 475.138 55.808 474.555 55.808C473.994 55.808 473.573 55.8944 473.292 56.0671C473.012 56.2182 472.871 56.4449 472.871 56.7472C472.871 57.071 473.055 57.3301 473.422 57.5244C473.789 57.7187 474.264 57.8914 474.847 58.0425C475.43 58.1936 476.045 58.3771 476.693 58.593C477.34 58.8089 477.956 59.1004 478.538 59.4674C479.121 59.8344 479.596 60.331 479.963 60.9571C480.33 61.5616 480.514 62.3604 480.514 63.3535C480.514 64.8863 479.931 66.1061 478.765 67.0129C477.621 67.9196 476.066 68.373 474.102 68.373Z" fill="white"/>
<path d="M154.502 100.896L148.609 92.0014H150.962L155.711 99.277H154.654L159.425 92.0014H161.735L155.798 100.896H154.502ZM154.157 106.984V99.5577H156.186V106.984H154.157ZM165.626 107.2C164.619 107.2 163.712 106.963 162.906 106.488C162.1 106.013 161.459 105.372 160.984 104.566C160.509 103.746 160.272 102.832 160.272 101.825C160.272 100.831 160.509 99.9391 160.984 99.1475C161.459 98.3415 162.1 97.701 162.906 97.226C163.712 96.7511 164.619 96.5136 165.626 96.5136C166.619 96.5136 167.519 96.7511 168.325 97.226C169.145 97.6866 169.793 98.3199 170.268 99.1259C170.743 99.9319 170.98 100.831 170.98 101.825C170.98 102.832 170.743 103.746 170.268 104.566C169.793 105.372 169.145 106.013 168.325 106.488C167.519 106.963 166.619 107.2 165.626 107.2ZM165.626 105.322C166.274 105.322 166.85 105.171 167.353 104.869C167.857 104.566 168.253 104.156 168.541 103.638C168.829 103.105 168.972 102.501 168.972 101.825C168.972 101.162 168.821 100.572 168.519 100.054C168.231 99.5361 167.835 99.1331 167.332 98.8452C166.842 98.543 166.274 98.3918 165.626 98.3918C164.978 98.3918 164.403 98.543 163.899 98.8452C163.395 99.1331 162.999 99.5361 162.712 100.054C162.424 100.572 162.28 101.162 162.28 101.825C162.28 102.501 162.424 103.105 162.712 103.638C162.999 104.156 163.395 104.566 163.899 104.869C164.403 105.171 164.978 105.322 165.626 105.322ZM177.653 107.2C176.818 107.2 176.063 107.013 175.386 106.639C174.724 106.25 174.206 105.718 173.832 105.041C173.457 104.365 173.27 103.58 173.27 102.688V96.7295H175.213V102.602C175.213 103.163 175.307 103.652 175.494 104.07C175.696 104.473 175.983 104.782 176.358 104.998C176.732 105.214 177.171 105.322 177.675 105.322C178.437 105.322 179.035 105.085 179.466 104.61C179.898 104.12 180.114 103.451 180.114 102.602V96.7295H182.057V102.688C182.057 103.58 181.87 104.365 181.496 105.041C181.122 105.718 180.603 106.25 179.941 106.639C179.294 107.013 178.531 107.2 177.653 107.2ZM197.126 106.984V101.004C197.126 100.227 196.881 99.5864 196.392 99.0827C195.902 98.5789 195.269 98.3271 194.492 98.3271C193.974 98.3271 193.513 98.4422 193.11 98.6725C192.707 98.9028 192.391 99.2194 192.16 99.6224C191.93 100.025 191.815 100.486 191.815 101.004L191.016 100.551C191.016 99.7736 191.189 99.0827 191.534 98.4782C191.88 97.8737 192.362 97.3987 192.981 97.0533C193.6 96.6935 194.298 96.5136 195.075 96.5136C195.852 96.5136 196.536 96.6863 197.126 97.0317C197.73 97.3771 198.205 97.8593 198.551 98.4782C198.896 99.0971 199.069 99.8095 199.069 100.616V106.984H197.126ZM189.872 106.984V91.5696H191.815V106.984H189.872ZM206.42 107.2C205.485 107.2 204.636 106.97 203.873 106.509C203.11 106.034 202.505 105.394 202.059 104.588C201.628 103.782 201.412 102.875 201.412 101.868C201.412 100.86 201.628 99.9535 202.059 99.1475C202.505 98.3415 203.103 97.701 203.851 97.226C204.614 96.7511 205.47 96.5136 206.42 96.5136C207.198 96.5136 207.888 96.6791 208.493 97.0101C209.112 97.3268 209.608 97.7729 209.983 98.3487C210.357 98.91 210.565 99.5649 210.609 100.313V103.401C210.565 104.135 210.357 104.789 209.983 105.365C209.623 105.941 209.133 106.394 208.515 106.725C207.91 107.042 207.212 107.2 206.42 107.2ZM206.744 105.365C207.709 105.365 208.486 105.041 209.076 104.394C209.666 103.732 209.961 102.89 209.961 101.868C209.961 101.162 209.824 100.551 209.551 100.033C209.292 99.5001 208.918 99.0899 208.428 98.802C207.939 98.4998 207.37 98.3487 206.723 98.3487C206.075 98.3487 205.499 98.4998 204.995 98.802C204.506 99.1043 204.117 99.5217 203.83 100.054C203.556 100.572 203.419 101.17 203.419 101.846C203.419 102.537 203.556 103.149 203.83 103.681C204.117 104.199 204.513 104.61 205.017 104.912C205.521 105.214 206.097 105.365 206.744 105.365ZM209.831 106.984V104.221L210.198 101.717L209.831 99.2338V96.7295H211.796V106.984H209.831ZM218.504 106.984L213.797 96.7295H215.956L219.734 105.387H218.482L222.282 96.7295H224.355L219.648 106.984H218.504ZM230.72 107.2C229.698 107.2 228.777 106.97 227.957 106.509C227.136 106.034 226.489 105.394 226.014 104.588C225.539 103.782 225.301 102.868 225.301 101.846C225.301 100.839 225.532 99.9319 225.992 99.1259C226.467 98.3199 227.1 97.6866 227.892 97.226C228.698 96.7511 229.598 96.5136 230.591 96.5136C231.541 96.5136 232.375 96.7295 233.095 97.1612C233.829 97.593 234.398 98.1903 234.801 98.9532C235.218 99.716 235.427 100.58 235.427 101.544C235.427 101.688 235.419 101.846 235.405 102.019C235.391 102.177 235.362 102.364 235.319 102.58H226.661V100.961H234.282L233.57 101.587C233.57 100.896 233.448 100.313 233.203 99.8383C232.958 99.349 232.613 98.9747 232.167 98.7157C231.721 98.4422 231.181 98.3055 230.547 98.3055C229.885 98.3055 229.303 98.4494 228.799 98.7373C228.295 99.0251 227.906 99.4281 227.633 99.9463C227.359 100.464 227.223 101.076 227.223 101.781C227.223 102.501 227.367 103.134 227.655 103.681C227.942 104.214 228.353 104.631 228.885 104.933C229.418 105.221 230.029 105.365 230.72 105.365C231.296 105.365 231.821 105.264 232.296 105.063C232.786 104.861 233.203 104.559 233.548 104.156L234.801 105.43C234.311 106.006 233.707 106.445 232.987 106.747C232.282 107.049 231.526 107.2 230.72 107.2ZM247.441 107.2C246.433 107.2 245.519 106.963 244.699 106.488C243.893 106.013 243.252 105.372 242.777 104.566C242.317 103.746 242.086 102.839 242.086 101.846C242.086 100.839 242.317 99.9319 242.777 99.1259C243.252 98.3199 243.893 97.6866 244.699 97.226C245.519 96.7511 246.433 96.5136 247.441 96.5136C248.232 96.5136 248.966 96.6647 249.643 96.9669C250.319 97.2548 250.902 97.6794 251.391 98.2407L250.096 99.5361C249.779 99.1619 249.391 98.8812 248.93 98.6941C248.484 98.4926 247.987 98.3918 247.441 98.3918C246.793 98.3918 246.217 98.543 245.713 98.8452C245.21 99.1331 244.814 99.5361 244.526 100.054C244.238 100.572 244.094 101.17 244.094 101.846C244.094 102.523 244.238 103.12 244.526 103.638C244.814 104.156 245.21 104.566 245.713 104.869C246.217 105.171 246.793 105.322 247.441 105.322C247.987 105.322 248.484 105.228 248.93 105.041C249.391 104.84 249.787 104.552 250.118 104.178L251.391 105.473C250.916 106.02 250.334 106.445 249.643 106.747C248.966 107.049 248.232 107.2 247.441 107.2ZM258.152 107.2C257.145 107.2 256.238 106.963 255.432 106.488C254.626 106.013 253.986 105.372 253.511 104.566C253.036 103.746 252.798 102.832 252.798 101.825C252.798 100.831 253.036 99.9391 253.511 99.1475C253.986 98.3415 254.626 97.701 255.432 97.226C256.238 96.7511 257.145 96.5136 258.152 96.5136C259.145 96.5136 260.045 96.7511 260.851 97.226C261.671 97.6866 262.319 98.3199 262.794 99.1259C263.269 99.9319 263.506 100.831 263.506 101.825C263.506 102.832 263.269 103.746 262.794 104.566C262.319 105.372 261.671 106.013 260.851 106.488C260.045 106.963 259.145 107.2 258.152 107.2ZM258.152 105.322C258.8 105.322 259.376 105.171 259.879 104.869C260.383 104.566 260.779 104.156 261.067 103.638C261.355 103.105 261.499 102.501 261.499 101.825C261.499 101.162 261.347 100.572 261.045 100.054C260.757 99.5361 260.362 99.1331 259.858 98.8452C259.368 98.543 258.8 98.3918 258.152 98.3918C257.505 98.3918 256.929 98.543 256.425 98.8452C255.921 99.1331 255.526 99.5361 255.238 100.054C254.95 100.572 254.806 101.162 254.806 101.825C254.806 102.501 254.95 103.105 255.238 103.638C255.526 104.156 255.921 104.566 256.425 104.869C256.929 105.171 257.505 105.322 258.152 105.322ZM266.056 106.984V96.7295H267.999V106.984H266.056ZM272.986 106.984V100.788C272.986 100.025 272.748 99.4281 272.273 98.9963C271.813 98.5502 271.23 98.3271 270.525 98.3271C270.05 98.3271 269.625 98.4278 269.251 98.6293C268.877 98.8308 268.574 99.1115 268.344 99.4713C268.114 99.8311 267.999 100.263 267.999 100.767L267.2 100.378C267.2 99.6008 267.365 98.9244 267.696 98.3487C268.042 97.7729 268.51 97.3268 269.1 97.0101C269.69 96.6791 270.352 96.5136 271.086 96.5136C271.805 96.5136 272.453 96.6719 273.029 96.9885C273.619 97.3052 274.08 97.7514 274.411 98.3271C274.756 98.9028 274.929 99.5864 274.929 100.378V106.984H272.986ZM279.916 106.984V100.788C279.916 100.025 279.678 99.4281 279.203 98.9963C278.743 98.5502 278.167 98.3271 277.476 98.3271C277.001 98.3271 276.57 98.4278 276.181 98.6293C275.807 98.8308 275.504 99.1115 275.274 99.4713C275.044 99.8311 274.929 100.263 274.929 100.767L273.828 100.378C273.871 99.5864 274.08 98.91 274.454 98.3487C274.842 97.7729 275.339 97.3268 275.943 97.0101C276.548 96.6791 277.21 96.5136 277.93 96.5136C278.678 96.5136 279.347 96.6719 279.937 96.9885C280.528 97.3052 280.995 97.7514 281.341 98.3271C281.701 98.9028 281.88 99.5936 281.88 100.4V106.984H279.916ZM290.282 107.2C289.504 107.2 288.799 107.042 288.166 106.725C287.547 106.394 287.05 105.941 286.676 105.365C286.302 104.789 286.093 104.135 286.05 103.401V100.313C286.093 99.5649 286.302 98.91 286.676 98.3487C287.065 97.7729 287.569 97.3268 288.187 97.0101C288.821 96.6791 289.519 96.5136 290.282 96.5136C291.217 96.5136 292.059 96.7511 292.808 97.226C293.57 97.701 294.168 98.3415 294.599 99.1475C295.031 99.9535 295.247 100.86 295.247 101.868C295.247 102.875 295.031 103.782 294.599 104.588C294.168 105.394 293.57 106.034 292.808 106.509C292.059 106.97 291.217 107.2 290.282 107.2ZM289.958 105.365C290.605 105.365 291.174 105.214 291.663 104.912C292.153 104.61 292.541 104.199 292.829 103.681C293.117 103.149 293.261 102.537 293.261 101.846C293.261 101.17 293.117 100.565 292.829 100.033C292.541 99.5001 292.153 99.0899 291.663 98.802C291.174 98.4998 290.613 98.3487 289.979 98.3487C289.332 98.3487 288.763 98.4998 288.274 98.802C287.784 99.0899 287.403 99.5001 287.13 100.033C286.856 100.565 286.719 101.177 286.719 101.868C286.719 102.544 286.849 103.149 287.108 103.681C287.381 104.199 287.763 104.61 288.252 104.912C288.756 105.214 289.325 105.365 289.958 105.365ZM284.884 111.281V96.7295H286.827V99.4281L286.46 101.911L286.827 104.415V111.281H284.884ZM297.81 106.984V91.5696H299.753V106.984H297.81ZM307.705 107.2C306.683 107.2 305.762 106.97 304.942 106.509C304.121 106.034 303.474 105.394 302.999 104.588C302.524 103.782 302.286 102.868 302.286 101.846C302.286 100.839 302.517 99.9319 302.977 99.1259C303.452 98.3199 304.085 97.6866 304.877 97.226C305.683 96.7511 306.583 96.5136 307.576 96.5136C308.526 96.5136 309.36 96.7295 310.08 97.1612C310.814 97.593 311.383 98.1903 311.786 98.9532C312.203 99.716 312.412 100.58 312.412 101.544C312.412 101.688 312.404 101.846 312.39 102.019C312.376 102.177 312.347 102.364 312.304 102.58H303.646V100.961H311.267L310.555 101.587C310.555 100.896 310.433 100.313 310.188 99.8383C309.943 99.349 309.598 98.9747 309.152 98.7157C308.705 98.4422 308.166 98.3055 307.532 98.3055C306.87 98.3055 306.287 98.4494 305.784 98.7373C305.28 99.0251 304.891 99.4281 304.618 99.9463C304.344 100.464 304.208 101.076 304.208 101.781C304.208 102.501 304.352 103.134 304.639 103.681C304.927 104.214 305.338 104.631 305.87 104.933C306.403 105.221 307.014 105.365 307.705 105.365C308.281 105.365 308.806 105.264 309.281 105.063C309.771 104.861 310.188 104.559 310.533 104.156L311.786 105.43C311.296 106.006 310.692 106.445 309.972 106.747C309.267 107.049 308.511 107.2 307.705 107.2ZM316.15 106.984V92.4332H318.093V106.984H316.15ZM313.624 98.4998V96.7295H320.619V98.4998H313.624ZM327.315 107.2C326.294 107.2 325.372 106.97 324.552 106.509C323.732 106.034 323.084 105.394 322.609 104.588C322.134 103.782 321.896 102.868 321.896 101.846C321.896 100.839 322.127 99.9319 322.587 99.1259C323.062 98.3199 323.696 97.6866 324.487 97.226C325.293 96.7511 326.193 96.5136 327.186 96.5136C328.136 96.5136 328.971 96.7295 329.69 97.1612C330.424 97.593 330.993 98.1903 331.396 98.9532C331.813 99.716 332.022 100.58 332.022 101.544C332.022 101.688 332.015 101.846 332 102.019C331.986 102.177 331.957 102.364 331.914 102.58H323.257V100.961H330.878L330.165 101.587C330.165 100.896 330.043 100.313 329.798 99.8383C329.553 99.349 329.208 98.9747 328.762 98.7157C328.316 98.4422 327.776 98.3055 327.143 98.3055C326.481 98.3055 325.898 98.4494 325.394 98.7373C324.89 99.0251 324.502 99.4281 324.228 99.9463C323.955 100.464 323.818 101.076 323.818 101.781C323.818 102.501 323.962 103.134 324.25 103.681C324.538 104.214 324.948 104.631 325.48 104.933C326.013 105.221 326.625 105.365 327.315 105.365C327.891 105.365 328.416 105.264 328.891 105.063C329.381 104.861 329.798 104.559 330.144 104.156L331.396 105.43C330.906 106.006 330.302 106.445 329.582 106.747C328.877 107.049 328.121 107.2 327.315 107.2ZM338.84 107.2C337.89 107.2 337.041 106.97 336.292 106.509C335.544 106.034 334.946 105.394 334.5 104.588C334.069 103.782 333.853 102.875 333.853 101.868C333.853 100.86 334.069 99.9535 334.5 99.1475C334.946 98.3415 335.544 97.701 336.292 97.226C337.041 96.7511 337.89 96.5136 338.84 96.5136C339.603 96.5136 340.293 96.6791 340.912 97.0101C341.531 97.3268 342.028 97.7729 342.402 98.3487C342.791 98.91 343.006 99.5649 343.05 100.313V103.401C343.006 104.135 342.798 104.789 342.424 105.365C342.049 105.941 341.553 106.394 340.934 106.725C340.315 107.042 339.617 107.2 338.84 107.2ZM339.164 105.365C339.811 105.365 340.373 105.214 340.848 104.912C341.337 104.61 341.718 104.199 341.992 103.681C342.265 103.149 342.402 102.544 342.402 101.868C342.402 101.162 342.258 100.551 341.97 100.033C341.697 99.5145 341.315 99.1043 340.826 98.802C340.351 98.4998 339.79 98.3487 339.142 98.3487C338.494 98.3487 337.926 98.4998 337.436 98.802C336.947 99.1043 336.558 99.5217 336.271 100.054C335.997 100.572 335.86 101.17 335.86 101.846C335.86 102.537 335.997 103.149 336.271 103.681C336.558 104.199 336.947 104.61 337.436 104.912C337.94 105.214 338.516 105.365 339.164 105.365ZM344.237 106.984H342.272V104.221L342.639 101.717L342.272 99.2338V91.5696H344.237V106.984ZM356.94 107.2C355.947 107.2 355.054 106.97 354.263 106.509C353.485 106.049 352.866 105.43 352.406 104.653C351.945 103.876 351.715 103.012 351.715 102.062C351.715 100.738 352.176 99.4209 353.097 98.1112L357.501 92.0014H359.854L355.342 98.1544L354.608 98.543C354.781 98.2407 354.989 97.9888 355.234 97.7873C355.479 97.5714 355.781 97.4059 356.141 97.2908C356.501 97.1756 356.925 97.1181 357.415 97.1181C358.293 97.1181 359.084 97.3268 359.789 97.7442C360.509 98.1616 361.085 98.7373 361.517 99.4713C361.963 100.191 362.186 101.033 362.186 101.997C362.186 102.947 361.948 103.818 361.473 104.61C361.013 105.401 360.38 106.034 359.574 106.509C358.782 106.97 357.904 107.2 356.94 107.2ZM356.94 105.3C357.544 105.3 358.084 105.156 358.559 104.869C359.048 104.566 359.43 104.171 359.703 103.681C359.991 103.177 360.135 102.616 360.135 101.997C360.135 101.378 359.991 100.824 359.703 100.335C359.43 99.8311 359.048 99.4353 358.559 99.1475C358.084 98.8596 357.544 98.7157 356.94 98.7157C356.335 98.7157 355.788 98.8596 355.299 99.1475C354.824 99.4353 354.442 99.8311 354.155 100.335C353.881 100.824 353.744 101.378 353.744 101.997C353.744 102.616 353.881 103.177 354.155 103.681C354.442 104.185 354.824 104.581 355.299 104.869C355.788 105.156 356.335 105.3 356.94 105.3ZM368.752 107.2C367.73 107.2 366.816 107.02 366.01 106.661C365.218 106.286 364.549 105.747 364.002 105.041L365.384 103.66C365.715 104.163 366.168 104.566 366.744 104.869C367.334 105.156 367.989 105.3 368.708 105.3C369.385 105.3 369.975 105.171 370.479 104.912C370.997 104.653 371.4 104.293 371.688 103.832C371.99 103.357 372.141 102.796 372.141 102.148C372.141 101.486 371.997 100.925 371.709 100.464C371.421 100.004 371.033 99.6584 370.543 99.4281C370.068 99.1834 369.543 99.0611 368.967 99.0611C368.377 99.0611 367.838 99.1331 367.348 99.277C366.873 99.4209 366.42 99.6656 365.988 100.011L366.01 98.7157C366.254 98.4134 366.535 98.1687 366.852 97.9816C367.168 97.7945 367.528 97.6506 367.931 97.5499C368.334 97.4491 368.802 97.3987 369.334 97.3987C370.371 97.3987 371.249 97.6146 371.968 98.0464C372.688 98.4782 373.235 99.0611 373.609 99.7951C373.998 100.529 374.192 101.35 374.192 102.256C374.192 103.206 373.955 104.055 373.48 104.804C373.019 105.552 372.379 106.142 371.558 106.574C370.738 106.992 369.802 107.2 368.752 107.2ZM365.988 100.011L364.887 98.91L365.556 92.0014H367.413L366.657 99.1043L365.988 100.011ZM365.967 93.8149L365.556 92.0014H373.436V93.8149H365.967ZM379.539 97.8521C378.992 97.8521 378.489 97.7154 378.028 97.4419C377.568 97.1684 377.2 96.8014 376.927 96.3409C376.654 95.8803 376.517 95.3693 376.517 94.808C376.517 94.2323 376.646 93.7214 376.905 93.2752C377.179 92.829 377.546 92.4692 378.006 92.1957C378.467 91.9222 378.978 91.7855 379.539 91.7855C380.115 91.7855 380.633 91.9222 381.094 92.1957C381.554 92.4692 381.921 92.829 382.195 93.2752C382.468 93.7214 382.605 94.2323 382.605 94.808C382.605 95.3693 382.468 95.8803 382.195 96.3409C381.921 96.8014 381.554 97.1684 381.094 97.4419C380.648 97.7154 380.129 97.8521 379.539 97.8521ZM379.539 96.3193C379.971 96.3193 380.324 96.1825 380.597 95.9091C380.871 95.6212 381.007 95.2542 381.007 94.808C381.007 94.3618 380.863 94.002 380.576 93.7286C380.302 93.4551 379.957 93.3184 379.539 93.3184C379.122 93.3184 378.777 93.4551 378.503 93.7286C378.244 94.002 378.114 94.3618 378.114 94.808C378.114 95.2542 378.244 95.6212 378.503 95.9091C378.777 96.1825 379.122 96.3193 379.539 96.3193ZM385.563 107.2C385.001 107.2 384.49 107.064 384.03 106.79C383.569 106.517 383.202 106.157 382.929 105.711C382.655 105.25 382.519 104.732 382.519 104.156C382.519 103.595 382.655 103.091 382.929 102.645C383.202 102.184 383.569 101.817 384.03 101.544C384.49 101.27 385.001 101.134 385.563 101.134C386.124 101.134 386.635 101.27 387.096 101.544C387.571 101.817 387.945 102.184 388.218 102.645C388.492 103.091 388.628 103.595 388.628 104.156C388.628 104.732 388.492 105.25 388.218 105.711C387.945 106.157 387.578 106.517 387.117 106.79C386.657 107.064 386.138 107.2 385.563 107.2ZM385.563 105.667C385.995 105.667 386.347 105.531 386.621 105.257C386.894 104.969 387.031 104.602 387.031 104.156C387.031 103.724 386.887 103.372 386.599 103.098C386.326 102.81 385.98 102.667 385.563 102.667C385.145 102.667 384.8 102.81 384.526 103.098C384.253 103.372 384.116 103.724 384.116 104.156C384.116 104.602 384.253 104.969 384.526 105.257C384.8 105.531 385.145 105.667 385.563 105.667ZM376.776 106.984L386.383 92.0014H388.348L378.741 106.984H376.776ZM401.01 107.2C400.002 107.2 399.096 106.963 398.29 106.488C397.484 106.013 396.843 105.372 396.368 104.566C395.893 103.746 395.656 102.832 395.656 101.825C395.656 100.831 395.893 99.9391 396.368 99.1475C396.843 98.3415 397.484 97.701 398.29 97.226C399.096 96.7511 400.002 96.5136 401.01 96.5136C402.003 96.5136 402.902 96.7511 403.708 97.226C404.529 97.6866 405.177 98.3199 405.652 99.1259C406.126 99.9319 406.364 100.831 406.364 101.825C406.364 102.832 406.126 103.746 405.652 104.566C405.177 105.372 404.529 106.013 403.708 106.488C402.902 106.963 402.003 107.2 401.01 107.2ZM401.01 105.322C401.658 105.322 402.233 105.171 402.737 104.869C403.241 104.566 403.637 104.156 403.924 103.638C404.212 103.105 404.356 102.501 404.356 101.825C404.356 101.162 404.205 100.572 403.903 100.054C403.615 99.5361 403.219 99.1331 402.715 98.8452C402.226 98.543 401.658 98.3918 401.01 98.3918C400.362 98.3918 399.786 98.543 399.283 98.8452C398.779 99.1331 398.383 99.5361 398.095 100.054C397.807 100.572 397.663 101.162 397.663 101.825C397.663 102.501 397.807 103.105 398.095 103.638C398.383 104.156 398.779 104.566 399.283 104.869C399.786 105.171 400.362 105.322 401.01 105.322ZM410.065 106.984V95.1966C410.065 94.4338 410.23 93.7717 410.561 93.2104C410.892 92.6347 411.346 92.1813 411.922 91.8503C412.512 91.5192 413.195 91.3537 413.973 91.3537C414.563 91.3537 415.074 91.4545 415.505 91.656C415.937 91.8575 416.333 92.1525 416.693 92.5411L415.419 93.7933C415.232 93.5918 415.023 93.4407 414.793 93.3399C414.563 93.2248 414.282 93.1672 413.951 93.1672C413.332 93.1672 412.85 93.3471 412.504 93.707C412.173 94.0668 412.008 94.5633 412.008 95.1966V106.984H410.065ZM407.539 98.4998V96.7295H415.268V98.4998H407.539ZM425.798 107.071L421.351 96.7295H423.51L426.813 104.825H426.122L429.598 96.7295H431.757L426.964 107.071H425.798ZM422.862 111.281L425.885 105.085L426.964 107.071L425.021 111.281H422.862ZM437.996 107.2C436.988 107.2 436.081 106.963 435.275 106.488C434.469 106.013 433.829 105.372 433.354 104.566C432.879 103.746 432.641 102.832 432.641 101.825C432.641 100.831 432.879 99.9391 433.354 99.1475C433.829 98.3415 434.469 97.701 435.275 97.226C436.081 96.7511 436.988 96.5136 437.996 96.5136C438.989 96.5136 439.888 96.7511 440.694 97.226C441.515 97.6866 442.162 98.3199 442.637 99.1259C443.112 99.9319 443.35 100.831 443.35 101.825C443.35 102.832 443.112 103.746 442.637 104.566C442.162 105.372 441.515 106.013 440.694 106.488C439.888 106.963 438.989 107.2 437.996 107.2ZM437.996 105.322C438.643 105.322 439.219 105.171 439.723 104.869C440.226 104.566 440.622 104.156 440.91 103.638C441.198 103.105 441.342 102.501 441.342 101.825C441.342 101.162 441.191 100.572 440.889 100.054C440.601 99.5361 440.205 99.1331 439.701 98.8452C439.212 98.543 438.643 98.3918 437.996 98.3918C437.348 98.3918 436.772 98.543 436.268 98.8452C435.765 99.1331 435.369 99.5361 435.081 100.054C434.793 100.572 434.649 101.162 434.649 101.825C434.649 102.501 434.793 103.105 435.081 103.638C435.369 104.156 435.765 104.566 436.268 104.869C436.772 105.171 437.348 105.322 437.996 105.322ZM450.022 107.2C449.188 107.2 448.432 107.013 447.755 106.639C447.093 106.25 446.575 105.718 446.201 105.041C445.827 104.365 445.64 103.58 445.64 102.688V96.7295H447.583V102.602C447.583 103.163 447.676 103.652 447.863 104.07C448.065 104.473 448.353 104.782 448.727 104.998C449.101 105.214 449.54 105.322 450.044 105.322C450.807 105.322 451.404 105.085 451.836 104.61C452.268 104.12 452.484 103.451 452.484 102.602V96.7295H454.427V102.688C454.427 103.58 454.239 104.365 453.865 105.041C453.491 105.718 452.973 106.25 452.311 106.639C451.663 107.013 450.9 107.2 450.022 107.2ZM457.391 106.984V96.7295H459.334V106.984H457.391ZM459.334 101.134L458.6 100.81C458.6 99.5001 458.902 98.4566 459.506 97.6794C460.111 96.9022 460.982 96.5136 462.119 96.5136C462.637 96.5136 463.105 96.6071 463.522 96.7942C463.939 96.9669 464.328 97.262 464.688 97.6794L463.414 98.9963C463.198 98.7661 462.961 98.6005 462.702 98.4998C462.442 98.399 462.14 98.3487 461.795 98.3487C461.075 98.3487 460.485 98.5789 460.024 99.0395C459.564 99.5001 459.334 100.198 459.334 101.134ZM154.092 139.2C153.085 139.2 152.178 138.963 151.372 138.488C150.566 138.013 149.925 137.372 149.45 136.566C148.976 135.746 148.738 134.832 148.738 133.825C148.738 132.831 148.976 131.939 149.45 131.147C149.925 130.341 150.566 129.701 151.372 129.226C152.178 128.751 153.085 128.514 154.092 128.514C155.085 128.514 155.985 128.751 156.791 129.226C157.611 129.687 158.259 130.32 158.734 131.126C159.209 131.932 159.446 132.831 159.446 133.825C159.446 134.832 159.209 135.746 158.734 136.566C158.259 137.372 157.611 138.013 156.791 138.488C155.985 138.963 155.085 139.2 154.092 139.2ZM154.092 137.322C154.74 137.322 155.316 137.171 155.819 136.869C156.323 136.566 156.719 136.156 157.007 135.638C157.295 135.105 157.439 134.501 157.439 133.825C157.439 133.162 157.287 132.572 156.985 132.054C156.697 131.536 156.301 131.133 155.798 130.845C155.308 130.543 154.74 130.392 154.092 130.392C153.445 130.392 152.869 130.543 152.365 130.845C151.861 131.133 151.465 131.536 151.178 132.054C150.89 132.572 150.746 133.162 150.746 133.825C150.746 134.501 150.89 135.105 151.178 135.638C151.465 136.156 151.861 136.566 152.365 136.869C152.869 137.171 153.445 137.322 154.092 137.322ZM165.114 138.984L160.407 128.729H162.566L166.345 137.387H165.092L168.892 128.729H170.965L166.258 138.984H165.114ZM177.33 139.2C176.308 139.2 175.387 138.97 174.567 138.509C173.746 138.034 173.099 137.394 172.624 136.588C172.149 135.782 171.911 134.868 171.911 133.846C171.911 132.839 172.142 131.932 172.602 131.126C173.077 130.32 173.71 129.687 174.502 129.226C175.308 128.751 176.208 128.514 177.201 128.514C178.151 128.514 178.985 128.729 179.705 129.161C180.439 129.593 181.008 130.19 181.411 130.953C181.828 131.716 182.037 132.58 182.037 133.544C182.037 133.688 182.03 133.846 182.015 134.019C182.001 134.177 181.972 134.364 181.929 134.58H173.272V132.961H180.893L180.18 133.587C180.18 132.896 180.058 132.313 179.813 131.838C179.568 131.349 179.223 130.975 178.777 130.716C178.331 130.442 177.791 130.305 177.158 130.305C176.496 130.305 175.913 130.449 175.409 130.737C174.905 131.025 174.516 131.428 174.243 131.946C173.97 132.464 173.833 133.076 173.833 133.781C173.833 134.501 173.977 135.134 174.265 135.681C174.552 136.214 174.963 136.631 175.495 136.933C176.028 137.221 176.639 137.365 177.33 137.365C177.906 137.365 178.431 137.264 178.906 137.063C179.396 136.861 179.813 136.559 180.159 136.156L181.411 137.43C180.921 138.006 180.317 138.445 179.597 138.747C178.892 139.049 178.136 139.2 177.33 139.2ZM184.515 138.984V128.729H186.458V138.984H184.515ZM186.458 133.134L185.724 132.81C185.724 131.5 186.026 130.457 186.631 129.679C187.235 128.902 188.106 128.514 189.243 128.514C189.761 128.514 190.229 128.607 190.647 128.794C191.064 128.967 191.453 129.262 191.812 129.679L190.539 130.996C190.323 130.766 190.085 130.601 189.826 130.5C189.567 130.399 189.265 130.349 188.919 130.349C188.2 130.349 187.61 130.579 187.149 131.04C186.689 131.5 186.458 132.198 186.458 133.134ZM197.564 139.2C196.628 139.2 195.779 138.97 195.016 138.509C194.254 138.034 193.649 137.394 193.203 136.588C192.771 135.782 192.555 134.875 192.555 133.868C192.555 132.86 192.771 131.953 193.203 131.147C193.649 130.341 194.246 129.701 194.995 129.226C195.758 128.751 196.614 128.514 197.564 128.514C198.341 128.514 199.032 128.679 199.637 129.01C200.255 129.327 200.752 129.773 201.126 130.349C201.5 130.91 201.709 131.565 201.752 132.313V135.401C201.709 136.135 201.5 136.789 201.126 137.365C200.766 137.941 200.277 138.394 199.658 138.725C199.054 139.042 198.356 139.2 197.564 139.2ZM197.888 137.365C198.852 137.365 199.629 137.041 200.219 136.394C200.81 135.732 201.105 134.89 201.105 133.868C201.105 133.162 200.968 132.551 200.694 132.033C200.435 131.5 200.061 131.09 199.572 130.802C199.082 130.5 198.514 130.349 197.866 130.349C197.219 130.349 196.643 130.5 196.139 130.802C195.65 131.104 195.261 131.522 194.973 132.054C194.7 132.572 194.563 133.17 194.563 133.846C194.563 134.537 194.7 135.149 194.973 135.681C195.261 136.199 195.657 136.61 196.161 136.912C196.664 137.214 197.24 137.365 197.888 137.365ZM200.975 138.984V136.221L201.342 133.717L200.975 131.234V128.729H202.94V138.984H200.975ZM206.128 138.984V123.57H208.071V138.984H206.128ZM211.274 138.984V123.57H213.217V138.984H211.274ZM225.955 139.2C224.948 139.2 224.034 138.963 223.213 138.488C222.407 138.013 221.767 137.372 221.292 136.566C220.831 135.746 220.601 134.839 220.601 133.846C220.601 132.839 220.831 131.932 221.292 131.126C221.767 130.32 222.407 129.687 223.213 129.226C224.034 128.751 224.948 128.514 225.955 128.514C226.747 128.514 227.481 128.665 228.157 128.967C228.834 129.255 229.417 129.679 229.906 130.241L228.611 131.536C228.294 131.162 227.906 130.881 227.445 130.694C226.999 130.493 226.502 130.392 225.955 130.392C225.308 130.392 224.732 130.543 224.228 130.845C223.724 131.133 223.329 131.536 223.041 132.054C222.753 132.572 222.609 133.17 222.609 133.846C222.609 134.523 222.753 135.12 223.041 135.638C223.329 136.156 223.724 136.566 224.228 136.869C224.732 137.171 225.308 137.322 225.955 137.322C226.502 137.322 226.999 137.228 227.445 137.041C227.906 136.84 228.301 136.552 228.632 136.178L229.906 137.473C229.431 138.02 228.848 138.445 228.157 138.747C227.481 139.049 226.747 139.2 225.955 139.2ZM236.667 139.2C235.659 139.2 234.753 138.963 233.947 138.488C233.141 138.013 232.5 137.372 232.025 136.566C231.55 135.746 231.313 134.832 231.313 133.825C231.313 132.831 231.55 131.939 232.025 131.147C232.5 130.341 233.141 129.701 233.947 129.226C234.753 128.751 235.659 128.514 236.667 128.514C237.66 128.514 238.56 128.751 239.366 129.226C240.186 129.687 240.834 130.32 241.309 131.126C241.784 131.932 242.021 132.831 242.021 133.825C242.021 134.832 241.784 135.746 241.309 136.566C240.834 137.372 240.186 138.013 239.366 138.488C238.56 138.963 237.66 139.2 236.667 139.2ZM236.667 137.322C237.315 137.322 237.89 137.171 238.394 136.869C238.898 136.566 239.294 136.156 239.582 135.638C239.869 135.105 240.013 134.501 240.013 133.825C240.013 133.162 239.862 132.572 239.56 132.054C239.272 131.536 238.876 131.133 238.373 130.845C237.883 130.543 237.315 130.392 236.667 130.392C236.019 130.392 235.444 130.543 234.94 130.845C234.436 131.133 234.04 131.536 233.752 132.054C233.465 132.572 233.321 133.162 233.321 133.825C233.321 134.501 233.465 135.105 233.752 135.638C234.04 136.156 234.436 136.566 234.94 136.869C235.444 137.171 236.019 137.322 236.667 137.322ZM248.694 139.2C247.859 139.2 247.103 139.013 246.427 138.639C245.765 138.25 245.247 137.718 244.872 137.041C244.498 136.365 244.311 135.58 244.311 134.688V128.729H246.254V134.602C246.254 135.163 246.348 135.652 246.535 136.07C246.736 136.473 247.024 136.782 247.398 136.998C247.773 137.214 248.212 137.322 248.715 137.322C249.478 137.322 250.076 137.085 250.507 136.61C250.939 136.12 251.155 135.451 251.155 134.602V128.729H253.098V134.688C253.098 135.58 252.911 136.365 252.537 137.041C252.162 137.718 251.644 138.25 250.982 138.639C250.335 139.013 249.572 139.2 248.694 139.2ZM256.062 138.984V128.729H258.005V138.984H256.062ZM258.005 133.134L257.271 132.81C257.271 131.5 257.573 130.457 258.178 129.679C258.782 128.902 259.653 128.514 260.79 128.514C261.308 128.514 261.776 128.607 262.193 128.794C262.611 128.967 262.999 129.262 263.359 129.679L262.085 130.996C261.87 130.766 261.632 130.601 261.373 130.5C261.114 130.399 260.812 130.349 260.466 130.349C259.747 130.349 259.157 130.579 258.696 131.04C258.235 131.5 258.005 132.198 258.005 133.134ZM268.115 139.2C267.539 139.2 266.993 139.128 266.474 138.984C265.971 138.826 265.503 138.61 265.071 138.337C264.639 138.049 264.265 137.711 263.948 137.322L265.201 136.07C265.575 136.53 266.007 136.876 266.496 137.106C266.985 137.322 267.532 137.43 268.137 137.43C268.741 137.43 269.209 137.329 269.54 137.128C269.871 136.912 270.037 136.617 270.037 136.243C270.037 135.868 269.9 135.58 269.626 135.379C269.367 135.163 269.029 134.99 268.612 134.861C268.194 134.717 267.748 134.58 267.273 134.451C266.813 134.307 266.374 134.127 265.956 133.911C265.539 133.695 265.193 133.4 264.92 133.026C264.661 132.652 264.531 132.155 264.531 131.536C264.531 130.917 264.682 130.385 264.985 129.938C265.287 129.478 265.704 129.125 266.237 128.881C266.784 128.636 267.439 128.514 268.202 128.514C269.008 128.514 269.72 128.657 270.339 128.945C270.972 129.219 271.49 129.636 271.893 130.198L270.641 131.45C270.353 131.075 269.993 130.788 269.562 130.586C269.144 130.385 268.669 130.284 268.137 130.284C267.575 130.284 267.144 130.385 266.841 130.586C266.554 130.773 266.41 131.04 266.41 131.385C266.41 131.73 266.539 131.997 266.798 132.184C267.057 132.371 267.396 132.529 267.813 132.659C268.245 132.788 268.691 132.925 269.151 133.069C269.612 133.198 270.051 133.378 270.468 133.609C270.886 133.839 271.224 134.148 271.483 134.537C271.757 134.926 271.893 135.437 271.893 136.07C271.893 137.034 271.548 137.797 270.857 138.358C270.181 138.92 269.267 139.2 268.115 139.2ZM279.178 139.2C278.156 139.2 277.235 138.97 276.415 138.509C275.594 138.034 274.947 137.394 274.472 136.588C273.997 135.782 273.759 134.868 273.759 133.846C273.759 132.839 273.989 131.932 274.45 131.126C274.925 130.32 275.558 129.687 276.35 129.226C277.156 128.751 278.055 128.514 279.049 128.514C279.998 128.514 280.833 128.729 281.553 129.161C282.287 129.593 282.855 130.19 283.258 130.953C283.676 131.716 283.885 132.58 283.885 133.544C283.885 133.688 283.877 133.846 283.863 134.019C283.849 134.177 283.82 134.364 283.777 134.58H275.119V132.961H282.74L282.028 133.587C282.028 132.896 281.905 132.313 281.661 131.838C281.416 131.349 281.071 130.975 280.625 130.716C280.178 130.442 279.639 130.305 279.005 130.305C278.343 130.305 277.76 130.449 277.257 130.737C276.753 131.025 276.364 131.428 276.091 131.946C275.817 132.464 275.681 133.076 275.681 133.781C275.681 134.501 275.825 135.134 276.112 135.681C276.4 136.214 276.81 136.631 277.343 136.933C277.875 137.221 278.487 137.365 279.178 137.365C279.754 137.365 280.279 137.264 280.754 137.063C281.243 136.861 281.661 136.559 282.006 136.156L283.258 137.43C282.769 138.006 282.165 138.445 281.445 138.747C280.74 139.049 279.984 139.2 279.178 139.2ZM289.623 139.2C289.047 139.2 288.5 139.128 287.982 138.984C287.478 138.826 287.011 138.61 286.579 138.337C286.147 138.049 285.773 137.711 285.456 137.322L286.708 136.07C287.083 136.53 287.514 136.876 288.004 137.106C288.493 137.322 289.04 137.43 289.645 137.43C290.249 137.43 290.717 137.329 291.048 137.128C291.379 136.912 291.544 136.617 291.544 136.243C291.544 135.868 291.408 135.58 291.134 135.379C290.875 135.163 290.537 134.99 290.119 134.861C289.702 134.717 289.256 134.58 288.781 134.451C288.32 134.307 287.881 134.127 287.464 133.911C287.047 133.695 286.701 133.4 286.428 133.026C286.169 132.652 286.039 132.155 286.039 131.536C286.039 130.917 286.19 130.385 286.492 129.938C286.795 129.478 287.212 129.125 287.745 128.881C288.292 128.636 288.946 128.514 289.709 128.514C290.515 128.514 291.228 128.657 291.847 128.945C292.48 129.219 292.998 129.636 293.401 130.198L292.149 131.45C291.861 131.075 291.501 130.788 291.069 130.586C290.652 130.385 290.177 130.284 289.645 130.284C289.083 130.284 288.651 130.385 288.349 130.586C288.061 130.773 287.917 131.04 287.917 131.385C287.917 131.73 288.047 131.997 288.306 132.184C288.565 132.371 288.903 132.529 289.321 132.659C289.752 132.788 290.199 132.925 290.659 133.069C291.12 133.198 291.559 133.378 291.976 133.609C292.394 133.839 292.732 134.148 292.991 134.537C293.264 134.926 293.401 135.437 293.401 136.07C293.401 137.034 293.056 137.797 292.365 138.358C291.688 138.92 290.774 139.2 289.623 139.2Z" fill="white"/>
<path d="M488.712 387.352C496.005 361.963 496.968 335.332 491.526 309.535C486.085 283.739 474.385 259.473 457.339 238.63C440.294 217.787 418.363 200.93 393.256 189.373C368.15 177.816 340.546 171.871 312.597 172.002C284.647 172.133 257.108 178.336 232.125 190.128C207.142 201.92 185.39 218.981 168.566 239.983C151.742 260.985 140.3 285.359 135.131 311.205C129.963 337.052 131.208 363.673 138.769 388.992L195.657 373.949C190.557 356.873 189.717 338.919 193.203 321.488C196.689 304.056 204.406 287.618 215.753 273.453C227.099 259.289 241.769 247.782 258.618 239.83C275.468 231.877 294.041 227.693 312.891 227.605C331.741 227.517 350.357 231.526 367.29 239.321C384.223 247.115 399.013 258.484 410.509 272.541C422.005 286.598 429.896 302.963 433.566 320.362C437.236 337.76 436.587 355.72 431.668 372.843L488.712 387.352Z" fill="white" fill-opacity="0.28"/>
<path d="M380.983 184.244C349.494 172.376 315.101 169.049 281.704 174.641C248.308 180.233 217.245 194.519 192.039 215.88C166.834 237.24 148.494 264.82 139.1 295.491C129.706 326.161 129.634 358.696 138.892 389.403L195.74 374.226C189.496 353.516 189.544 331.575 195.88 310.889C202.215 290.204 214.584 271.604 231.584 257.198C248.583 242.791 269.533 233.156 292.056 229.385C314.58 225.614 337.776 227.857 359.013 235.861L380.983 184.244Z" fill="#FB6E3A"/>
<path d="M272.582 341.763C270.334 341.763 268.312 341.249 266.514 340.222C264.716 339.162 263.287 337.749 262.227 335.984C261.2 334.218 260.686 332.259 260.686 330.108C260.686 327.026 261.762 323.911 263.913 320.765L273.112 307.569H279.517L269.692 321.391L267.67 322.595C267.991 321.856 268.392 321.23 268.874 320.717C269.387 320.171 270.046 319.753 270.848 319.464C271.683 319.175 272.71 319.031 273.93 319.031C275.889 319.031 277.655 319.497 279.228 320.428C280.834 321.327 282.118 322.595 283.081 324.232C284.044 325.838 284.526 327.732 284.526 329.915C284.526 332.099 283.996 334.089 282.937 335.887C281.877 337.685 280.432 339.114 278.602 340.174C276.804 341.233 274.797 341.763 272.582 341.763ZM272.582 336.561C273.802 336.561 274.894 336.273 275.857 335.695C276.82 335.117 277.575 334.33 278.12 333.335C278.698 332.307 278.987 331.167 278.987 329.915C278.987 328.663 278.698 327.539 278.12 326.544C277.575 325.549 276.82 324.778 275.857 324.232C274.894 323.654 273.802 323.365 272.582 323.365C271.362 323.365 270.27 323.654 269.307 324.232C268.344 324.81 267.589 325.597 267.044 326.592C266.498 327.555 266.225 328.663 266.225 329.915C266.225 331.167 266.498 332.307 267.044 333.335C267.589 334.33 268.344 335.117 269.307 335.695C270.27 336.273 271.362 336.561 272.582 336.561ZM298.791 341.763C296.447 341.763 294.36 341.362 292.53 340.559C290.7 339.724 289.158 338.52 287.906 336.947L291.663 333.19C292.337 334.218 293.284 335.036 294.504 335.646C295.756 336.256 297.153 336.561 298.694 336.561C300.107 336.561 301.343 336.305 302.403 335.791C303.462 335.277 304.297 334.539 304.907 333.576C305.517 332.612 305.822 331.473 305.822 330.156C305.822 328.776 305.517 327.636 304.907 326.737C304.329 325.806 303.542 325.115 302.547 324.666C301.584 324.184 300.54 323.943 299.417 323.943C298.132 323.943 296.977 324.088 295.949 324.377C294.954 324.666 293.975 325.18 293.011 325.918L293.156 322.45C293.669 321.776 294.263 321.23 294.938 320.813C295.612 320.363 296.399 320.026 297.298 319.802C298.197 319.577 299.256 319.464 300.476 319.464C302.852 319.464 304.843 319.962 306.448 320.957C308.086 321.953 309.322 323.285 310.157 324.955C310.991 326.592 311.409 328.422 311.409 330.445C311.409 332.628 310.863 334.571 309.771 336.273C308.712 337.974 307.235 339.323 305.34 340.318C303.446 341.281 301.263 341.763 298.791 341.763ZM293.011 325.918L289.977 322.884L291.47 307.569H296.527L294.793 323.51L293.011 325.918ZM292.433 312.529L291.47 307.569H309.53V312.529H292.433ZM322.707 320.717C321.454 320.717 320.299 320.412 319.239 319.802C318.212 319.192 317.393 318.373 316.783 317.345C316.173 316.318 315.868 315.162 315.868 313.878C315.868 312.594 316.173 311.454 316.783 310.458C317.393 309.431 318.212 308.612 319.239 308.002C320.266 307.392 321.422 307.087 322.707 307.087C323.991 307.087 325.147 307.392 326.174 308.002C327.234 308.612 328.069 309.431 328.679 310.458C329.289 311.454 329.594 312.594 329.594 313.878C329.594 315.162 329.289 316.318 328.679 317.345C328.069 318.373 327.25 319.192 326.222 319.802C325.195 320.412 324.023 320.717 322.707 320.717ZM322.707 316.623C323.509 316.623 324.151 316.366 324.633 315.852C325.115 315.339 325.355 314.68 325.355 313.878C325.355 313.075 325.099 312.433 324.585 311.951C324.103 311.438 323.477 311.181 322.707 311.181C321.936 311.181 321.31 311.438 320.828 311.951C320.347 312.433 320.106 313.075 320.106 313.878C320.106 314.68 320.347 315.339 320.828 315.852C321.31 316.366 321.936 316.623 322.707 316.623ZM336.818 341.763C335.566 341.763 334.41 341.458 333.35 340.848C332.323 340.238 331.504 339.419 330.894 338.392C330.284 337.364 329.979 336.208 329.979 334.924C329.979 333.64 330.284 332.5 330.894 331.505C331.504 330.477 332.323 329.658 333.35 329.048C334.378 328.438 335.533 328.133 336.818 328.133C338.102 328.133 339.258 328.438 340.285 329.048C341.345 329.658 342.18 330.477 342.79 331.505C343.4 332.5 343.705 333.64 343.705 334.924C343.705 336.208 343.4 337.364 342.79 338.392C342.18 339.419 341.361 340.238 340.333 340.848C339.306 341.458 338.134 341.763 336.818 341.763ZM336.818 337.669C337.62 337.669 338.263 337.412 338.744 336.899C339.258 336.385 339.515 335.727 339.515 334.924C339.515 334.153 339.258 333.511 338.744 332.998C338.23 332.484 337.588 332.227 336.818 332.227C336.047 332.227 335.421 332.484 334.939 332.998C334.458 333.511 334.217 334.153 334.217 334.924C334.217 335.727 334.458 336.385 334.939 336.899C335.421 337.412 336.047 337.669 336.818 337.669ZM316.349 341.281L337.974 307.569H343.223L321.599 341.281H316.349Z" fill="white"/>
<defs>
<filter id="filter0_f_1736_31187" x="0.455215" y="215.892" width="572.116" height="370.615" filterUnits="userSpaceOnUse" color-interpolation-filters="sRGB">
<feFlood flood-opacity="0" result="BackgroundImageFix"/>
<feBlend mode="normal" in="SourceGraphic" in2="BackgroundImageFix" result="shape"/>
<feGaussianBlur stdDeviation="71.9643" result="effect1_foregroundBlur_1736_31187"/>
</filter>
</defs>
</svg>
