<svg width="542" height="503" viewBox="0 0 542 503" fill="none" xmlns="http://www.w3.org/2000/svg">
<g filter="url(#filter0_f_1736_31150)">
<path d="M64 80C64 71.1634 71.1634 64 80 64H462C470.837 64 478 71.1634 478 80V423C478 431.837 470.837 439 462 439H80C71.1634 439 64 431.837 64 423V80Z" fill="#3F3F44" fill-opacity="0.1"/>
</g>
<rect x="42.5" y="24.5" width="463" height="401" rx="15.5" fill="white" stroke="#B8DAFF"/>
<path d="M359.783 179.535C359.579 180.079 359.287 180.551 358.908 180.95C358.529 181.339 358.082 181.635 357.566 181.84C357.061 182.044 356.506 182.146 355.903 182.146C354.989 182.146 354.197 181.947 353.526 181.548C352.865 181.139 352.349 180.566 351.98 179.827C351.62 179.088 351.44 178.208 351.44 177.187C351.44 176.166 351.62 175.285 351.98 174.546C352.349 173.807 352.865 173.239 353.526 172.84C354.197 172.431 354.98 172.227 355.874 172.227C356.497 172.227 357.051 172.315 357.537 172.49C358.023 172.655 358.437 172.908 358.777 173.248C359.127 173.579 359.404 173.987 359.608 174.474L358.456 175.013C358.242 174.459 357.931 174.041 357.523 173.759C357.124 173.467 356.604 173.321 355.962 173.321C355.31 173.321 354.737 173.477 354.241 173.788C353.745 174.089 353.356 174.527 353.074 175.101C352.801 175.674 352.665 176.37 352.665 177.187C352.665 177.994 352.797 178.689 353.059 179.272C353.322 179.846 353.696 180.289 354.182 180.6C354.669 180.901 355.242 181.052 355.903 181.052C356.545 181.052 357.104 180.891 357.581 180.571C358.057 180.24 358.403 179.749 358.617 179.097L359.783 179.535ZM364.824 174.561C365.514 174.561 366.122 174.712 366.647 175.013C367.182 175.315 367.6 175.752 367.901 176.326C368.203 176.89 368.353 177.566 368.353 178.353C368.353 179.141 368.203 179.822 367.901 180.396C367.6 180.96 367.182 181.392 366.647 181.694C366.122 181.995 365.514 182.146 364.824 182.146C364.143 182.146 363.535 181.995 363 181.694C362.466 181.392 362.047 180.96 361.746 180.396C361.444 179.822 361.294 179.141 361.294 178.353C361.294 177.566 361.444 176.89 361.746 176.326C362.047 175.752 362.466 175.315 363 175.013C363.535 174.712 364.143 174.561 364.824 174.561ZM364.824 175.567C364.328 175.567 363.905 175.679 363.555 175.903C363.205 176.127 362.932 176.448 362.738 176.866C362.553 177.274 362.461 177.77 362.461 178.353C362.461 178.927 362.553 179.423 362.738 179.841C362.932 180.259 363.205 180.58 363.555 180.804C363.905 181.028 364.328 181.139 364.824 181.139C365.32 181.139 365.743 181.028 366.093 180.804C366.443 180.58 366.71 180.259 366.895 179.841C367.089 179.423 367.187 178.927 367.187 178.353C367.187 177.77 367.089 177.274 366.895 176.866C366.71 176.448 366.443 176.127 366.093 175.903C365.743 175.679 365.32 175.567 364.824 175.567ZM373.19 182.146C372.724 182.146 372.281 182.058 371.863 181.883C371.455 181.708 371.119 181.426 370.857 181.037C370.604 180.639 370.477 180.123 370.477 179.491V174.707H371.644V179.185C371.644 179.924 371.805 180.434 372.126 180.716C372.447 180.989 372.899 181.125 373.482 181.125C373.754 181.125 374.022 181.081 374.284 180.994C374.547 180.896 374.78 180.75 374.985 180.556C375.198 180.352 375.364 180.094 375.48 179.783C375.607 179.472 375.67 179.102 375.67 178.674V174.707H376.837V182H375.816L375.743 180.891C375.49 181.329 375.145 181.65 374.707 181.854C374.28 182.049 373.774 182.146 373.19 182.146ZM379.553 182V174.707H380.501L380.661 175.903C380.866 175.456 381.162 175.12 381.551 174.897C381.95 174.673 382.431 174.561 382.995 174.561C383.122 174.561 383.258 174.571 383.404 174.59C383.559 174.61 383.69 174.649 383.797 174.707L383.593 175.772C383.486 175.733 383.369 175.704 383.243 175.684C383.117 175.665 382.937 175.655 382.703 175.655C382.402 175.655 382.096 175.743 381.784 175.918C381.483 176.093 381.23 176.36 381.026 176.72C380.822 177.07 380.72 177.517 380.72 178.062V182H379.553ZM387.819 182.146C387.109 182.146 386.453 181.995 385.85 181.694C385.257 181.392 384.8 180.964 384.479 180.41L385.471 179.695C385.685 180.143 385.996 180.493 386.404 180.746C386.822 180.998 387.323 181.125 387.907 181.125C388.422 181.125 388.825 181.028 389.117 180.833C389.409 180.629 389.555 180.366 389.555 180.045C389.555 179.841 389.487 179.656 389.351 179.491C389.224 179.316 388.976 179.19 388.607 179.112L386.856 178.747C386.146 178.601 385.636 178.358 385.325 178.018C385.023 177.678 384.873 177.255 384.873 176.749C384.873 176.35 384.984 175.986 385.208 175.655C385.441 175.324 385.767 175.062 386.185 174.867C386.613 174.663 387.114 174.561 387.688 174.561C388.407 174.561 389.015 174.702 389.511 174.984C390.007 175.266 390.376 175.665 390.62 176.18L389.642 176.822C389.477 176.394 389.21 176.083 388.84 175.888C388.471 175.684 388.086 175.582 387.688 175.582C387.338 175.582 387.036 175.631 386.783 175.728C386.54 175.825 386.351 175.961 386.215 176.136C386.088 176.302 386.025 176.491 386.025 176.705C386.025 176.919 386.098 177.118 386.244 177.303C386.39 177.478 386.662 177.605 387.061 177.682L388.884 178.062C389.565 178.198 390.041 178.422 390.313 178.733C390.586 179.044 390.722 179.423 390.722 179.87C390.722 180.327 390.6 180.731 390.357 181.081C390.114 181.421 389.774 181.684 389.336 181.869C388.898 182.053 388.393 182.146 387.819 182.146ZM395.934 182.146C395.244 182.146 394.626 181.995 394.082 181.694C393.547 181.392 393.129 180.96 392.827 180.396C392.526 179.822 392.375 179.141 392.375 178.353C392.375 177.566 392.526 176.89 392.827 176.326C393.129 175.752 393.542 175.315 394.067 175.013C394.592 174.712 395.19 174.561 395.861 174.561C396.542 174.561 397.12 174.707 397.597 174.999C398.083 175.29 398.453 175.689 398.705 176.195C398.958 176.691 399.085 177.25 399.085 177.872C399.085 178.037 399.08 178.188 399.07 178.324C399.06 178.46 399.046 178.582 399.026 178.689H393.133V177.653H398.516L397.918 177.77C397.918 177.07 397.723 176.53 397.334 176.151C396.955 175.772 396.454 175.582 395.832 175.582C395.355 175.582 394.942 175.694 394.592 175.918C394.252 176.131 393.984 176.448 393.79 176.866C393.605 177.274 393.513 177.77 393.513 178.353C393.513 178.927 393.61 179.423 393.804 179.841C393.999 180.259 394.271 180.58 394.621 180.804C394.981 181.018 395.409 181.125 395.905 181.125C396.44 181.125 396.872 181.023 397.203 180.819C397.543 180.614 397.816 180.337 398.02 179.987L398.939 180.527C398.754 180.857 398.516 181.144 398.224 181.387C397.942 181.63 397.607 181.82 397.218 181.956C396.838 182.083 396.41 182.146 395.934 182.146ZM409.586 172.227C410.432 172.227 411.162 172.402 411.774 172.752C412.387 173.093 412.897 173.598 413.306 174.269L412.328 175.028C411.969 174.405 411.56 173.968 411.103 173.715C410.656 173.452 410.111 173.321 409.47 173.321C408.954 173.321 408.526 173.394 408.186 173.54C407.855 173.686 407.612 173.88 407.457 174.123C407.301 174.357 407.223 174.624 407.223 174.926C407.223 175.266 407.33 175.567 407.544 175.83C407.758 176.083 408.186 176.282 408.828 176.428L410.914 176.895C411.837 177.099 412.479 177.41 412.839 177.828C413.208 178.237 413.393 178.747 413.393 179.36C413.393 179.904 413.238 180.391 412.926 180.819C412.625 181.237 412.197 181.562 411.643 181.796C411.089 182.029 410.437 182.146 409.688 182.146C408.988 182.146 408.371 182.053 407.836 181.869C407.311 181.674 406.859 181.417 406.479 181.096C406.1 180.775 405.789 180.415 405.546 180.016L406.567 179.185C406.752 179.554 406.99 179.88 407.282 180.162C407.573 180.444 407.923 180.663 408.332 180.819C408.75 180.974 409.226 181.052 409.761 181.052C410.257 181.052 410.685 180.994 411.045 180.877C411.414 180.75 411.696 180.571 411.891 180.337C412.085 180.094 412.183 179.802 412.183 179.462C412.183 179.151 412.08 178.874 411.876 178.631C411.672 178.378 411.288 178.188 410.724 178.062L408.463 177.551C407.87 177.415 407.389 177.23 407.019 176.997C406.659 176.754 406.397 176.472 406.231 176.151C406.076 175.82 405.998 175.465 405.998 175.086C405.998 174.571 406.139 174.099 406.421 173.671C406.713 173.234 407.126 172.884 407.661 172.621C408.205 172.359 408.847 172.227 409.586 172.227ZM419.736 177.289C419.736 176.744 419.59 176.326 419.299 176.034C419.007 175.733 418.594 175.582 418.059 175.582C417.553 175.582 417.125 175.694 416.775 175.918C416.425 176.131 416.167 176.482 416.002 176.968L415.054 176.384C415.248 175.84 415.608 175.402 416.133 175.072C416.658 174.731 417.31 174.561 418.088 174.561C418.613 174.561 419.089 174.653 419.517 174.838C419.945 175.013 420.281 175.285 420.524 175.655C420.777 176.015 420.903 176.482 420.903 177.055V180.585C420.903 180.935 421.088 181.11 421.457 181.11C421.642 181.11 421.822 181.086 421.997 181.037L421.939 181.956C421.744 182.053 421.491 182.102 421.18 182.102C420.898 182.102 420.645 182.049 420.422 181.942C420.198 181.835 420.023 181.674 419.897 181.46C419.77 181.237 419.707 180.96 419.707 180.629V180.483L419.999 180.527C419.882 180.906 419.683 181.217 419.401 181.46C419.119 181.694 418.803 181.869 418.453 181.985C418.102 182.092 417.757 182.146 417.417 182.146C416.989 182.146 416.59 182.073 416.221 181.927C415.851 181.781 415.555 181.562 415.331 181.271C415.117 180.969 415.01 180.6 415.01 180.162C415.01 179.618 415.19 179.17 415.55 178.82C415.919 178.46 416.43 178.217 417.081 178.091L419.97 177.522V178.485L417.621 178.966C417.145 179.063 416.79 179.199 416.556 179.374C416.323 179.55 416.206 179.793 416.206 180.104C416.206 180.405 416.323 180.653 416.556 180.848C416.799 181.032 417.14 181.125 417.577 181.125C417.859 181.125 418.127 181.091 418.38 181.023C418.642 180.945 418.876 180.833 419.08 180.687C419.284 180.532 419.444 180.342 419.561 180.118C419.678 179.885 419.736 179.613 419.736 179.302V177.289ZM424.847 171.352V180.148C424.847 180.517 424.915 180.775 425.051 180.921C425.188 181.057 425.406 181.125 425.708 181.125C425.902 181.125 426.063 181.11 426.189 181.081C426.316 181.052 426.486 180.998 426.7 180.921L426.51 181.942C426.354 182.01 426.184 182.058 426 182.088C425.815 182.126 425.625 182.146 425.431 182.146C424.838 182.146 424.395 181.985 424.103 181.665C423.821 181.344 423.68 180.853 423.68 180.191V171.352H424.847ZM431.246 182.146C430.555 182.146 429.938 181.995 429.393 181.694C428.858 181.392 428.44 180.96 428.139 180.396C427.837 179.822 427.687 179.141 427.687 178.353C427.687 177.566 427.837 176.89 428.139 176.326C428.44 175.752 428.854 175.315 429.379 175.013C429.904 174.712 430.502 174.561 431.173 174.561C431.853 174.561 432.432 174.707 432.909 174.999C433.395 175.29 433.764 175.689 434.017 176.195C434.27 176.691 434.396 177.25 434.396 177.872C434.396 178.037 434.391 178.188 434.382 178.324C434.372 178.46 434.357 178.582 434.338 178.689H428.445V177.653H433.827L433.229 177.77C433.229 177.07 433.035 176.53 432.646 176.151C432.267 175.772 431.766 175.582 431.144 175.582C430.667 175.582 430.254 175.694 429.904 175.918C429.563 176.131 429.296 176.448 429.102 176.866C428.917 177.274 428.824 177.77 428.824 178.353C428.824 178.927 428.922 179.423 429.116 179.841C429.311 180.259 429.583 180.58 429.933 180.804C430.293 181.018 430.721 181.125 431.217 181.125C431.751 181.125 432.184 181.023 432.515 180.819C432.855 180.614 433.127 180.337 433.332 179.987L434.25 180.527C434.066 180.857 433.827 181.144 433.536 181.387C433.254 181.63 432.918 181.82 432.529 181.956C432.15 182.083 431.722 182.146 431.246 182.146ZM358.434 208V204.827H351.389V202.465C351.52 202.231 351.688 201.947 351.892 201.611C352.111 201.276 352.366 200.889 352.658 200.452L357.362 193.56H361.76V202.246H363.97V204.827H361.76V208H358.434ZM354.408 202.246H358.478V197.87C358.478 197.578 358.485 197.279 358.5 196.973C358.514 196.652 358.529 196.331 358.544 196.01H358.5C358.354 196.316 358.179 196.637 357.975 196.973C357.785 197.294 357.603 197.585 357.428 197.848L354.868 201.589C354.795 201.706 354.722 201.815 354.649 201.918C354.576 202.02 354.496 202.129 354.408 202.246ZM371.638 208.219C369.669 208.219 368.174 207.592 367.153 206.337C366.146 205.083 365.643 203.23 365.643 200.78C365.643 198.329 366.146 196.477 367.153 195.222C368.174 193.968 369.669 193.341 371.638 193.341C373.607 193.341 375.095 193.968 376.101 195.222C377.122 196.477 377.633 198.329 377.633 200.78C377.633 203.23 377.122 205.083 376.101 206.337C375.095 207.592 373.607 208.219 371.638 208.219ZM371.638 205.287C372.178 205.287 372.615 205.141 372.951 204.849C373.286 204.543 373.527 204.062 373.673 203.405C373.833 202.734 373.913 201.859 373.913 200.78C373.913 199.7 373.833 198.833 373.673 198.176C373.527 197.505 373.286 197.024 372.951 196.732C372.615 196.426 372.178 196.273 371.638 196.273C371.113 196.273 370.675 196.426 370.325 196.732C369.99 197.024 369.742 197.505 369.581 198.176C369.435 198.833 369.363 199.7 369.363 200.78C369.363 201.859 369.435 202.734 369.581 203.405C369.742 204.062 369.99 204.543 370.325 204.849C370.675 205.141 371.113 205.287 371.638 205.287ZM382.502 208L392.545 193.538H395.389L385.347 208H382.502ZM383.399 193.341C384.231 193.341 384.945 193.516 385.544 193.866C386.156 194.201 386.63 194.675 386.966 195.288C387.301 195.901 387.469 196.623 387.469 197.454C387.469 198.286 387.301 199.008 386.966 199.62C386.63 200.233 386.156 200.714 385.544 201.064C384.945 201.4 384.231 201.567 383.399 201.567C382.583 201.567 381.868 201.4 381.255 201.064C380.657 200.714 380.183 200.233 379.833 199.62C379.498 199.008 379.33 198.286 379.33 197.454C379.33 196.623 379.498 195.901 379.833 195.288C380.183 194.675 380.657 194.201 381.255 193.866C381.868 193.516 382.583 193.341 383.399 193.341ZM383.399 195.835C383.122 195.835 382.889 195.901 382.699 196.032C382.51 196.149 382.364 196.331 382.262 196.579C382.16 196.812 382.108 197.104 382.108 197.454C382.108 197.79 382.16 198.081 382.262 198.329C382.364 198.577 382.51 198.767 382.699 198.898C382.889 199.015 383.122 199.073 383.399 199.073C383.691 199.073 383.932 199.015 384.121 198.898C384.311 198.767 384.457 198.577 384.559 198.329C384.661 198.081 384.712 197.79 384.712 197.454C384.712 197.104 384.661 196.812 384.559 196.579C384.457 196.331 384.311 196.149 384.121 196.032C383.932 195.901 383.691 195.835 383.399 195.835ZM394.448 199.992C395.265 199.992 395.98 200.167 396.593 200.517C397.205 200.853 397.679 201.327 398.015 201.939C398.35 202.552 398.518 203.274 398.518 204.105C398.518 204.937 398.35 205.659 398.015 206.272C397.679 206.884 397.205 207.365 396.593 207.716C395.98 208.051 395.265 208.219 394.448 208.219C393.632 208.219 392.917 208.051 392.304 207.716C391.692 207.365 391.218 206.884 390.882 206.272C390.547 205.659 390.379 204.937 390.379 204.105C390.379 203.274 390.547 202.552 390.882 201.939C391.218 201.327 391.692 200.853 392.304 200.517C392.917 200.167 393.632 199.992 394.448 199.992ZM394.448 202.486C394.171 202.486 393.931 202.552 393.726 202.683C393.537 202.8 393.391 202.982 393.289 203.23C393.187 203.464 393.136 203.755 393.136 204.105C393.136 204.441 393.187 204.733 393.289 204.981C393.391 205.229 393.537 205.418 393.726 205.55C393.931 205.666 394.171 205.725 394.448 205.725C394.74 205.725 394.981 205.666 395.17 205.55C395.36 205.418 395.506 205.229 395.608 204.981C395.71 204.733 395.761 204.441 395.761 204.105C395.761 203.755 395.71 203.464 395.608 203.23C395.506 202.982 395.36 202.8 395.17 202.683C394.981 202.552 394.74 202.486 394.448 202.486Z" fill="#3F3F44"/>
<circle cx="335.862" cy="176.511" r="4.86207" fill="#581959"/>
<path d="M359.783 247.605C359.579 248.15 359.287 248.621 358.908 249.02C358.529 249.409 358.082 249.706 357.566 249.91C357.061 250.114 356.506 250.216 355.903 250.216C354.989 250.216 354.197 250.017 353.526 249.618C352.865 249.21 352.349 248.636 351.98 247.897C351.62 247.158 351.44 246.278 351.44 245.257C351.44 244.236 351.62 243.356 351.98 242.617C352.349 241.878 352.865 241.309 353.526 240.91C354.197 240.502 354.98 240.298 355.874 240.298C356.497 240.298 357.051 240.385 357.537 240.56C358.023 240.725 358.437 240.978 358.777 241.319C359.127 241.649 359.404 242.058 359.608 242.544L358.456 243.084C358.242 242.529 357.931 242.111 357.523 241.829C357.124 241.537 356.604 241.392 355.962 241.392C355.31 241.392 354.737 241.547 354.241 241.858C353.745 242.16 353.356 242.597 353.074 243.171C352.801 243.745 352.665 244.44 352.665 245.257C352.665 246.064 352.797 246.759 353.059 247.343C353.322 247.916 353.696 248.359 354.182 248.67C354.669 248.971 355.242 249.122 355.903 249.122C356.545 249.122 357.104 248.962 357.581 248.641C358.057 248.31 358.403 247.819 358.617 247.168L359.783 247.605ZM364.824 242.631C365.514 242.631 366.122 242.782 366.647 243.084C367.182 243.385 367.6 243.823 367.901 244.396C368.203 244.96 368.353 245.636 368.353 246.424C368.353 247.211 368.203 247.892 367.901 248.466C367.6 249.03 367.182 249.463 366.647 249.764C366.122 250.065 365.514 250.216 364.824 250.216C364.143 250.216 363.535 250.065 363 249.764C362.466 249.463 362.047 249.03 361.746 248.466C361.444 247.892 361.294 247.211 361.294 246.424C361.294 245.636 361.444 244.96 361.746 244.396C362.047 243.823 362.466 243.385 363 243.084C363.535 242.782 364.143 242.631 364.824 242.631ZM364.824 243.638C364.328 243.638 363.905 243.75 363.555 243.973C363.205 244.197 362.932 244.518 362.738 244.936C362.553 245.344 362.461 245.84 362.461 246.424C362.461 246.997 362.553 247.493 362.738 247.912C362.932 248.33 363.205 248.651 363.555 248.874C363.905 249.098 364.328 249.21 364.824 249.21C365.32 249.21 365.743 249.098 366.093 248.874C366.443 248.651 366.71 248.33 366.895 247.912C367.089 247.493 367.187 246.997 367.187 246.424C367.187 245.84 367.089 245.344 366.895 244.936C366.71 244.518 366.443 244.197 366.093 243.973C365.743 243.75 365.32 243.638 364.824 243.638ZM373.19 250.216C372.724 250.216 372.281 250.129 371.863 249.954C371.455 249.779 371.119 249.497 370.857 249.108C370.604 248.709 370.477 248.194 370.477 247.561V242.777H371.644V247.255C371.644 247.994 371.805 248.505 372.126 248.787C372.447 249.059 372.899 249.195 373.482 249.195C373.754 249.195 374.022 249.151 374.284 249.064C374.547 248.967 374.78 248.821 374.985 248.626C375.198 248.422 375.364 248.164 375.48 247.853C375.607 247.542 375.67 247.173 375.67 246.745V242.777H376.837V250.07H375.816L375.743 248.962C375.49 249.399 375.145 249.72 374.707 249.924C374.28 250.119 373.774 250.216 373.19 250.216ZM379.553 250.07V242.777H380.501L380.661 243.973C380.866 243.526 381.162 243.19 381.551 242.967C381.95 242.743 382.431 242.631 382.995 242.631C383.122 242.631 383.258 242.641 383.404 242.661C383.559 242.68 383.69 242.719 383.797 242.777L383.593 243.842C383.486 243.803 383.369 243.774 383.243 243.754C383.117 243.735 382.937 243.725 382.703 243.725C382.402 243.725 382.096 243.813 381.784 243.988C381.483 244.163 381.23 244.43 381.026 244.79C380.822 245.14 380.72 245.587 380.72 246.132V250.07H379.553ZM387.819 250.216C387.109 250.216 386.453 250.065 385.85 249.764C385.257 249.463 384.8 249.035 384.479 248.48L385.471 247.766C385.685 248.213 385.996 248.563 386.404 248.816C386.822 249.069 387.323 249.195 387.907 249.195C388.422 249.195 388.825 249.098 389.117 248.903C389.409 248.699 389.555 248.437 389.555 248.116C389.555 247.912 389.487 247.727 389.351 247.561C389.224 247.386 388.976 247.26 388.607 247.182L386.856 246.818C386.146 246.672 385.636 246.429 385.325 246.088C385.023 245.748 384.873 245.325 384.873 244.819C384.873 244.421 384.984 244.056 385.208 243.725C385.441 243.395 385.767 243.132 386.185 242.938C386.613 242.733 387.114 242.631 387.688 242.631C388.407 242.631 389.015 242.772 389.511 243.054C390.007 243.336 390.376 243.735 390.62 244.25L389.642 244.892C389.477 244.464 389.21 244.153 388.84 243.959C388.471 243.754 388.086 243.652 387.688 243.652C387.338 243.652 387.036 243.701 386.783 243.798C386.54 243.895 386.351 244.032 386.215 244.207C386.088 244.372 386.025 244.562 386.025 244.776C386.025 244.989 386.098 245.189 386.244 245.374C386.39 245.549 386.662 245.675 387.061 245.753L388.884 246.132C389.565 246.268 390.041 246.492 390.313 246.803C390.586 247.114 390.722 247.493 390.722 247.941C390.722 248.398 390.6 248.801 390.357 249.151C390.114 249.492 389.774 249.754 389.336 249.939C388.898 250.124 388.393 250.216 387.819 250.216ZM395.934 250.216C395.244 250.216 394.626 250.065 394.082 249.764C393.547 249.463 393.129 249.03 392.827 248.466C392.526 247.892 392.375 247.211 392.375 246.424C392.375 245.636 392.526 244.96 392.827 244.396C393.129 243.823 393.542 243.385 394.067 243.084C394.592 242.782 395.19 242.631 395.861 242.631C396.542 242.631 397.12 242.777 397.597 243.069C398.083 243.361 398.453 243.759 398.705 244.265C398.958 244.761 399.085 245.32 399.085 245.942C399.085 246.108 399.08 246.258 399.07 246.395C399.06 246.531 399.046 246.652 399.026 246.759H393.133V245.724H398.516L397.918 245.84C397.918 245.14 397.723 244.6 397.334 244.221C396.955 243.842 396.454 243.652 395.832 243.652C395.355 243.652 394.942 243.764 394.592 243.988C394.252 244.202 393.984 244.518 393.79 244.936C393.605 245.344 393.513 245.84 393.513 246.424C393.513 246.997 393.61 247.493 393.804 247.912C393.999 248.33 394.271 248.651 394.621 248.874C394.981 249.088 395.409 249.195 395.905 249.195C396.44 249.195 396.872 249.093 397.203 248.889C397.543 248.685 397.816 248.407 398.02 248.057L398.939 248.597C398.754 248.928 398.516 249.215 398.224 249.458C397.942 249.701 397.607 249.89 397.218 250.027C396.838 250.153 396.41 250.216 395.934 250.216ZM407.932 250.07L405.088 240.443H406.298L408.676 249.006L410.937 240.443H412.264L414.525 249.035L416.902 240.443H418.055L415.225 250.07H413.781L412.074 243.827L411.578 241.654H411.564L411.068 243.827L409.376 250.07H407.932ZM423.611 245.359C423.611 244.814 423.465 244.396 423.173 244.105C422.881 243.803 422.468 243.652 421.933 243.652C421.428 243.652 421 243.764 420.65 243.988C420.3 244.202 420.042 244.552 419.877 245.038L418.928 244.455C419.123 243.91 419.483 243.472 420.008 243.142C420.533 242.802 421.184 242.631 421.962 242.631C422.487 242.631 422.964 242.724 423.392 242.908C423.82 243.084 424.155 243.356 424.398 243.725C424.651 244.085 424.778 244.552 424.778 245.126V248.655C424.778 249.006 424.962 249.181 425.332 249.181C425.517 249.181 425.696 249.156 425.871 249.108L425.813 250.027C425.619 250.124 425.366 250.172 425.055 250.172C424.773 250.172 424.52 250.119 424.296 250.012C424.073 249.905 423.897 249.745 423.771 249.531C423.645 249.307 423.581 249.03 423.581 248.699V248.553L423.873 248.597C423.756 248.976 423.557 249.288 423.275 249.531C422.993 249.764 422.677 249.939 422.327 250.056C421.977 250.163 421.632 250.216 421.291 250.216C420.864 250.216 420.465 250.143 420.095 249.997C419.726 249.852 419.429 249.633 419.206 249.341C418.992 249.04 418.885 248.67 418.885 248.232C418.885 247.688 419.065 247.241 419.424 246.891C419.794 246.531 420.304 246.288 420.956 246.161L423.844 245.592V246.555L421.496 247.036C421.019 247.134 420.664 247.27 420.431 247.445C420.197 247.62 420.081 247.863 420.081 248.174C420.081 248.476 420.197 248.724 420.431 248.918C420.674 249.103 421.014 249.195 421.452 249.195C421.734 249.195 422.001 249.161 422.254 249.093C422.517 249.015 422.75 248.903 422.954 248.758C423.158 248.602 423.319 248.412 423.436 248.189C423.552 247.955 423.611 247.683 423.611 247.372V245.359ZM429.049 240.706V248.057C429.049 248.417 429.152 248.685 429.356 248.86C429.56 249.035 429.823 249.122 430.143 249.122C430.425 249.122 430.669 249.074 430.873 248.976C431.077 248.879 431.262 248.748 431.427 248.583L431.835 249.56C431.612 249.764 431.344 249.924 431.033 250.041C430.732 250.158 430.382 250.216 429.983 250.216C429.613 250.216 429.268 250.153 428.947 250.027C428.626 249.89 428.369 249.681 428.174 249.399C427.99 249.108 427.892 248.728 427.883 248.262V241.027L429.049 240.706ZM431.704 242.777V243.784H426.424V242.777H431.704ZM436.458 242.631C436.964 242.631 437.407 242.709 437.786 242.865C438.175 243.02 438.51 243.244 438.792 243.536C439.074 243.827 439.303 244.173 439.478 244.571L438.369 245.096C438.214 244.63 437.975 244.275 437.655 244.032C437.343 243.779 436.935 243.652 436.429 243.652C435.943 243.652 435.525 243.764 435.175 243.988C434.825 244.202 434.557 244.518 434.373 244.936C434.188 245.344 434.095 245.84 434.095 246.424C434.095 246.997 434.188 247.493 434.373 247.912C434.557 248.33 434.825 248.651 435.175 248.874C435.525 249.088 435.943 249.195 436.429 249.195C436.809 249.195 437.134 249.137 437.407 249.02C437.689 248.903 437.917 248.733 438.092 248.51C438.277 248.286 438.403 248.014 438.471 247.693L439.551 248.072C439.385 248.519 439.157 248.903 438.865 249.224C438.583 249.545 438.238 249.793 437.83 249.968C437.431 250.134 436.974 250.216 436.458 250.216C435.778 250.216 435.17 250.065 434.635 249.764C434.1 249.463 433.682 249.03 433.381 248.466C433.079 247.892 432.929 247.211 432.929 246.424C432.929 245.636 433.079 244.96 433.381 244.396C433.682 243.823 434.1 243.385 434.635 243.084C435.17 242.782 435.778 242.631 436.458 242.631ZM441.601 250.07V239.422H442.768V243.871C443.021 243.434 443.356 243.118 443.774 242.923C444.193 242.729 444.65 242.631 445.146 242.631C445.671 242.631 446.147 242.733 446.575 242.938C447.003 243.132 447.343 243.434 447.596 243.842C447.859 244.25 447.99 244.771 447.99 245.403V250.07H446.823V245.811C446.823 245.004 446.648 244.445 446.298 244.134C445.958 243.813 445.535 243.652 445.029 243.652C444.679 243.652 444.329 243.735 443.979 243.9C443.629 244.066 443.337 244.338 443.103 244.717C442.88 245.087 442.768 245.583 442.768 246.205V250.07H441.601ZM453.681 250.216C452.99 250.216 452.373 250.065 451.828 249.764C451.293 249.463 450.875 249.03 450.574 248.466C450.272 247.892 450.121 247.211 450.121 246.424C450.121 245.636 450.272 244.96 450.574 244.396C450.875 243.823 451.288 243.385 451.813 243.084C452.339 242.782 452.937 242.631 453.608 242.631C454.288 242.631 454.867 242.777 455.343 243.069C455.83 243.361 456.199 243.759 456.452 244.265C456.705 244.761 456.831 245.32 456.831 245.942C456.831 246.108 456.826 246.258 456.817 246.395C456.807 246.531 456.792 246.652 456.773 246.759H450.88V245.724H456.262L455.664 245.84C455.664 245.14 455.47 244.6 455.081 244.221C454.702 243.842 454.201 243.652 453.578 243.652C453.102 243.652 452.689 243.764 452.339 243.988C451.998 244.202 451.731 244.518 451.536 244.936C451.352 245.344 451.259 245.84 451.259 246.424C451.259 246.997 451.356 247.493 451.551 247.912C451.745 248.33 452.018 248.651 452.368 248.874C452.728 249.088 453.155 249.195 453.651 249.195C454.186 249.195 454.619 249.093 454.95 248.889C455.29 248.685 455.562 248.407 455.766 248.057L456.685 248.597C456.501 248.928 456.262 249.215 455.971 249.458C455.689 249.701 455.353 249.89 454.964 250.027C454.585 250.153 454.157 250.216 453.681 250.216ZM461.895 250.216C461.292 250.216 460.738 250.065 460.232 249.764C459.726 249.463 459.323 249.03 459.021 248.466C458.72 247.892 458.569 247.211 458.569 246.424C458.569 245.617 458.73 244.931 459.05 244.367C459.371 243.803 459.794 243.375 460.319 243.084C460.845 242.782 461.409 242.631 462.011 242.631C462.614 242.631 463.135 242.787 463.572 243.098C464.019 243.409 464.316 243.823 464.462 244.338L464.316 244.44V239.422H465.483V250.07H464.462L464.36 248.305L464.52 248.218C464.452 248.646 464.287 249.01 464.024 249.312C463.771 249.604 463.455 249.827 463.076 249.983C462.707 250.138 462.313 250.216 461.895 250.216ZM462.011 249.195C462.478 249.195 462.882 249.078 463.222 248.845C463.572 248.612 463.84 248.281 464.024 247.853C464.219 247.416 464.316 246.905 464.316 246.322C464.316 245.767 464.219 245.291 464.024 244.892C463.84 244.494 463.577 244.187 463.237 243.973C462.906 243.759 462.517 243.652 462.07 243.652C461.331 243.652 460.757 243.905 460.349 244.411C459.94 244.917 459.736 245.587 459.736 246.424C459.736 247.26 459.935 247.931 460.334 248.437C460.733 248.942 461.292 249.195 462.011 249.195ZM357.034 276.289C355.488 276.289 354.197 275.99 353.161 275.392C352.14 274.779 351.433 273.89 351.039 272.723L354.496 271.235C354.569 271.76 354.7 272.183 354.89 272.504C355.094 272.81 355.364 273.036 355.699 273.182C356.035 273.314 356.429 273.379 356.881 273.379C357.289 273.379 357.632 273.314 357.909 273.182C358.201 273.036 358.427 272.832 358.587 272.57C358.748 272.307 358.828 271.993 358.828 271.629C358.828 271.25 358.748 270.943 358.587 270.71C358.441 270.477 358.223 270.309 357.931 270.207C357.654 270.105 357.311 270.054 356.903 270.054C356.713 270.054 356.538 270.061 356.378 270.075C356.217 270.075 356.035 270.09 355.831 270.119V267.669C355.947 267.683 356.064 267.698 356.181 267.712C356.297 267.712 356.436 267.712 356.596 267.712C357.282 267.712 357.771 267.574 358.062 267.297C358.369 267.005 358.522 266.553 358.522 265.94C358.522 265.415 358.369 265.014 358.062 264.737C357.771 264.46 357.355 264.321 356.815 264.321C356.246 264.321 355.78 264.474 355.415 264.781C355.05 265.072 354.817 265.576 354.715 266.29L351.411 265.153C351.571 264.35 351.914 263.672 352.439 263.118C352.964 262.563 353.621 262.14 354.408 261.849C355.211 261.557 356.093 261.411 357.056 261.411C358.164 261.411 359.098 261.572 359.856 261.893C360.615 262.213 361.191 262.673 361.585 263.271C361.979 263.869 362.176 264.569 362.176 265.371C362.176 265.999 362.073 266.524 361.869 266.947C361.68 267.37 361.432 267.712 361.125 267.975C360.834 268.238 360.535 268.434 360.228 268.566C359.922 268.682 359.667 268.755 359.463 268.785V268.85C359.725 268.85 360.024 268.901 360.36 269.003C360.695 269.105 361.023 269.273 361.344 269.507C361.665 269.725 361.928 270.032 362.132 270.425C362.351 270.819 362.46 271.308 362.46 271.891C362.46 272.796 362.219 273.576 361.738 274.232C361.271 274.889 360.629 275.399 359.813 275.764C358.996 276.114 358.07 276.289 357.034 276.289ZM370.463 276.289C368.494 276.289 366.999 275.662 365.978 274.407C364.971 273.153 364.468 271.301 364.468 268.85C364.468 266.4 364.971 264.547 365.978 263.293C366.999 262.038 368.494 261.411 370.463 261.411C372.432 261.411 373.92 262.038 374.926 263.293C375.947 264.547 376.458 266.4 376.458 268.85C376.458 271.301 375.947 273.153 374.926 274.407C373.92 275.662 372.432 276.289 370.463 276.289ZM370.463 273.357C371.003 273.357 371.44 273.211 371.776 272.92C372.111 272.613 372.352 272.132 372.498 271.476C372.658 270.805 372.738 269.93 372.738 268.85C372.738 267.771 372.658 266.903 372.498 266.247C372.352 265.576 372.111 265.094 371.776 264.802C371.44 264.496 371.003 264.343 370.463 264.343C369.938 264.343 369.5 264.496 369.15 264.802C368.815 265.094 368.567 265.576 368.406 266.247C368.26 266.903 368.187 267.771 368.187 268.85C368.187 269.93 368.26 270.805 368.406 271.476C368.567 272.132 368.815 272.613 369.15 272.92C369.5 273.211 369.938 273.357 370.463 273.357ZM381.327 276.07L391.37 261.608H394.214L384.171 276.07H381.327ZM382.224 261.411C383.056 261.411 383.77 261.586 384.368 261.936C384.981 262.272 385.455 262.746 385.791 263.358C386.126 263.971 386.294 264.693 386.294 265.524C386.294 266.356 386.126 267.078 385.791 267.691C385.455 268.303 384.981 268.785 384.368 269.135C383.77 269.47 383.056 269.638 382.224 269.638C381.407 269.638 380.693 269.47 380.08 269.135C379.482 268.785 379.008 268.303 378.658 267.691C378.322 267.078 378.155 266.356 378.155 265.524C378.155 264.693 378.322 263.971 378.658 263.358C379.008 262.746 379.482 262.272 380.08 261.936C380.693 261.586 381.407 261.411 382.224 261.411ZM382.224 263.905C381.947 263.905 381.714 263.971 381.524 264.102C381.334 264.219 381.189 264.401 381.086 264.649C380.984 264.883 380.933 265.174 380.933 265.524C380.933 265.86 380.984 266.152 381.086 266.4C381.189 266.648 381.334 266.837 381.524 266.969C381.714 267.085 381.947 267.144 382.224 267.144C382.516 267.144 382.757 267.085 382.946 266.969C383.136 266.837 383.282 266.648 383.384 266.4C383.486 266.152 383.537 265.86 383.537 265.524C383.537 265.174 383.486 264.883 383.384 264.649C383.282 264.401 383.136 264.219 382.946 264.102C382.757 263.971 382.516 263.905 382.224 263.905ZM393.273 268.062C394.09 268.062 394.805 268.238 395.417 268.588C396.03 268.923 396.504 269.397 396.84 270.01C397.175 270.622 397.343 271.344 397.343 272.176C397.343 273.007 397.175 273.729 396.84 274.342C396.504 274.954 396.03 275.436 395.417 275.786C394.805 276.121 394.09 276.289 393.273 276.289C392.456 276.289 391.742 276.121 391.129 275.786C390.516 275.436 390.042 274.954 389.707 274.342C389.371 273.729 389.204 273.007 389.204 272.176C389.204 271.344 389.371 270.622 389.707 270.01C390.042 269.397 390.516 268.923 391.129 268.588C391.742 268.238 392.456 268.062 393.273 268.062ZM393.273 270.557C392.996 270.557 392.755 270.622 392.551 270.754C392.362 270.87 392.216 271.053 392.114 271.301C392.012 271.534 391.96 271.826 391.96 272.176C391.96 272.511 392.012 272.803 392.114 273.051C392.216 273.299 392.362 273.489 392.551 273.62C392.755 273.737 392.996 273.795 393.273 273.795C393.565 273.795 393.806 273.737 393.995 273.62C394.185 273.489 394.331 273.299 394.433 273.051C394.535 272.803 394.586 272.511 394.586 272.176C394.586 271.826 394.535 271.534 394.433 271.301C394.331 271.053 394.185 270.87 393.995 270.754C393.806 270.622 393.565 270.557 393.273 270.557Z" fill="#3F3F44"/>
<circle cx="335.862" cy="244.581" r="4.86207" fill="#FDAB62"/>
<path d="M76.416 63.088C76.096 64.1227 75.536 64.896 74.736 65.408C73.936 65.9093 73.0027 66.16 71.936 66.16C70.8907 66.16 69.984 65.9413 69.216 65.504C68.4587 65.0667 67.872 64.4427 67.456 63.632C67.0507 62.8213 66.848 61.8507 66.848 60.72C66.848 59.5893 67.056 58.6187 67.472 57.808C67.888 56.9973 68.4747 56.3733 69.232 55.936C69.9893 55.4987 70.88 55.28 71.904 55.28C72.9813 55.28 73.904 55.5093 74.672 55.968C75.4507 56.416 75.984 57.0987 76.272 58.016L74.272 58.864C74.0907 58.224 73.8133 57.7707 73.44 57.504C73.0667 57.2267 72.5867 57.088 72 57.088C71.1253 57.088 70.4267 57.4027 69.904 58.032C69.392 58.6507 69.136 59.5467 69.136 60.72C69.136 61.8827 69.3813 62.7787 69.872 63.408C70.3627 64.0373 71.072 64.352 72 64.352C72.576 64.352 73.072 64.1973 73.488 63.888C73.9147 63.5787 74.2133 63.1093 74.384 62.48L76.416 63.088ZM81.7219 57.84C82.5219 57.84 83.2312 58.0053 83.8499 58.336C84.4685 58.6667 84.9485 59.1413 85.2899 59.76C85.6419 60.3787 85.8179 61.1253 85.8179 62C85.8179 62.8747 85.6419 63.6213 85.2899 64.24C84.9485 64.8587 84.4685 65.3333 83.8499 65.664C83.2312 65.9947 82.5219 66.16 81.7219 66.16C80.9112 66.16 80.1965 65.9947 79.5779 65.664C78.9699 65.3333 78.4899 64.8587 78.1379 64.24C77.7965 63.6213 77.6259 62.8747 77.6259 62C77.6259 61.1253 77.7965 60.3787 78.1379 59.76C78.4899 59.1413 78.9699 58.6667 79.5779 58.336C80.1965 58.0053 80.9112 57.84 81.7219 57.84ZM81.7219 59.472C81.1245 59.472 80.6552 59.6853 80.3139 60.112C79.9832 60.528 79.8179 61.1573 79.8179 62C79.8179 62.8427 79.9832 63.4773 80.3139 63.904C80.6552 64.32 81.1245 64.528 81.7219 64.528C82.3085 64.528 82.7672 64.32 83.0979 63.904C83.4392 63.4773 83.6099 62.8427 83.6099 62C83.6099 61.1573 83.4392 60.528 83.0979 60.112C82.7672 59.6853 82.3085 59.472 81.7219 59.472ZM90.436 66.16C89.9027 66.16 89.4227 66.064 88.996 65.872C88.5693 65.68 88.228 65.376 87.972 64.96C87.7267 64.544 87.604 63.9947 87.604 63.312V58H89.796V62.784C89.796 63.4027 89.924 63.8347 90.18 64.08C90.436 64.3147 90.804 64.432 91.284 64.432C91.7427 64.432 92.148 64.2667 92.5 63.936C92.8627 63.5947 93.044 63.0507 93.044 62.304V58H95.236V66H93.284L93.204 64.608C92.9373 65.1307 92.5693 65.52 92.1 65.776C91.6307 66.032 91.076 66.16 90.436 66.16ZM97.5426 66V58H99.4466L99.5906 59.568C99.7933 59.024 100.097 58.6027 100.503 58.304C100.919 57.9947 101.441 57.84 102.071 57.84C102.444 57.84 102.732 57.8987 102.935 58.016L102.679 59.856C102.572 59.824 102.439 59.7973 102.279 59.776C102.129 59.744 101.932 59.728 101.687 59.728C101.356 59.728 101.041 59.808 100.743 59.968C100.455 60.1173 100.215 60.352 100.023 60.672C99.8306 60.9813 99.7346 61.376 99.7346 61.856V66H97.5426ZM107.29 66.16C106.479 66.16 105.738 66.016 105.066 65.728C104.404 65.44 103.866 65.0347 103.45 64.512L104.714 63.232C104.97 63.616 105.311 63.9307 105.738 64.176C106.164 64.4213 106.671 64.544 107.258 64.544C107.674 64.544 108.004 64.4853 108.25 64.368C108.506 64.24 108.634 64.0427 108.634 63.776C108.634 63.6053 108.575 63.4613 108.458 63.344C108.34 63.216 108.106 63.1147 107.754 63.04L106.346 62.752C105.418 62.56 104.756 62.272 104.362 61.888C103.978 61.4933 103.786 60.9867 103.786 60.368C103.786 59.9307 103.914 59.52 104.17 59.136C104.436 58.752 104.831 58.4427 105.354 58.208C105.876 57.9627 106.527 57.84 107.306 57.84C108.927 57.84 110.09 58.336 110.794 59.328L109.482 60.608C109.247 60.2347 108.938 59.952 108.554 59.76C108.18 59.5573 107.786 59.456 107.37 59.456C106.431 59.456 105.962 59.7173 105.962 60.24C105.962 60.4107 106.036 60.56 106.186 60.688C106.335 60.8053 106.607 60.9067 107.002 60.992L108.634 61.328C109.423 61.488 109.988 61.76 110.33 62.144C110.671 62.5173 110.842 62.9707 110.842 63.504C110.842 64.272 110.532 64.9067 109.914 65.408C109.306 65.9093 108.431 66.16 107.29 66.16ZM116.27 66.16C115.012 66.16 114.004 65.7973 113.246 65.072C112.489 64.336 112.11 63.312 112.11 62C112.11 61.1253 112.281 60.3787 112.622 59.76C112.964 59.1413 113.438 58.6667 114.046 58.336C114.665 58.0053 115.369 57.84 116.158 57.84C116.969 57.84 117.657 58.0053 118.222 58.336C118.788 58.656 119.22 59.0987 119.518 59.664C119.817 60.2187 119.966 60.8533 119.966 61.568C119.966 61.7813 119.961 61.984 119.95 62.176C119.94 62.368 119.924 62.5387 119.902 62.688H114.254C114.34 63.3067 114.553 63.7707 114.894 64.08C115.246 64.3787 115.7 64.528 116.254 64.528C116.724 64.528 117.102 64.4373 117.39 64.256C117.678 64.0747 117.902 63.824 118.062 63.504L119.806 64.176C119.55 64.8053 119.102 65.296 118.462 65.648C117.822 65.9893 117.092 66.16 116.27 66.16ZM116.142 59.456C115.108 59.456 114.484 60.0267 114.27 61.168H117.87C117.806 60.6133 117.625 60.192 117.326 59.904C117.038 59.6053 116.644 59.456 116.142 59.456ZM130.795 55.28C131.755 55.28 132.597 55.4453 133.323 55.776C134.048 56.1067 134.667 56.5973 135.179 57.248L133.947 58.672C133.509 58.1173 133.029 57.712 132.507 57.456C131.995 57.1893 131.397 57.056 130.715 57.056C130.032 57.056 129.536 57.184 129.227 57.44C128.917 57.6853 128.763 57.984 128.763 58.336C128.763 58.624 128.869 58.8693 129.083 59.072C129.307 59.264 129.696 59.424 130.251 59.552L132.219 60C133.253 60.2347 134 60.5867 134.459 61.056C134.917 61.5147 135.147 62.112 135.147 62.848C135.147 63.5413 134.965 64.1387 134.602 64.64C134.24 65.1307 133.733 65.5093 133.083 65.776C132.432 66.032 131.685 66.16 130.843 66.16C129.744 66.16 128.779 65.968 127.947 65.584C127.115 65.2 126.459 64.704 125.979 64.096L127.227 62.608C127.589 63.12 128.085 63.5467 128.715 63.888C129.355 64.2187 130.064 64.384 130.843 64.384C131.493 64.384 131.995 64.2773 132.347 64.064C132.699 63.84 132.875 63.5253 132.875 63.12C132.875 62.8533 132.779 62.6187 132.587 62.416C132.405 62.2133 132.064 62.0587 131.563 61.952L129.419 61.472C128.48 61.2693 127.755 60.9387 127.243 60.48C126.731 60.0213 126.475 59.3973 126.475 58.608C126.475 57.9787 126.645 57.4133 126.987 56.912C127.328 56.4107 127.819 56.016 128.459 55.728C129.109 55.4293 129.888 55.28 130.795 55.28ZM142.403 58V59.632H139.843V63.392C139.843 63.776 139.939 64.0587 140.131 64.24C140.334 64.4107 140.606 64.496 140.947 64.496C141.225 64.496 141.459 64.4587 141.651 64.384C141.854 64.2987 142.035 64.1867 142.195 64.048L142.547 65.504C142.281 65.7067 141.955 65.8667 141.571 65.984C141.198 66.1013 140.798 66.16 140.371 66.16C139.571 66.16 138.915 65.9787 138.403 65.616C137.902 65.2427 137.651 64.6187 137.651 63.744V59.632H136.179V58H137.651V56.16L139.843 55.552V58H142.403ZM148.525 60.896C148.525 60.4373 148.391 60.08 148.125 59.824C147.869 59.568 147.527 59.44 147.101 59.44C146.706 59.44 146.359 59.5413 146.061 59.744C145.762 59.9467 145.543 60.2827 145.405 60.752L143.533 60.176C143.714 59.472 144.109 58.9067 144.717 58.48C145.335 58.0533 146.162 57.84 147.197 57.84C148.242 57.84 149.085 58.0907 149.725 58.592C150.375 59.0827 150.701 59.8187 150.701 60.8V64.048C150.701 64.4533 150.893 64.656 151.277 64.656C151.458 64.656 151.629 64.6293 151.789 64.576L151.661 65.936C151.383 66.0747 151.037 66.144 150.621 66.144C150.162 66.144 149.762 66.048 149.421 65.856C149.09 65.664 148.866 65.376 148.749 64.992C148.493 65.376 148.125 65.6693 147.645 65.872C147.175 66.064 146.69 66.16 146.189 66.16C145.378 66.16 144.733 65.9787 144.253 65.616C143.783 65.2427 143.549 64.704 143.549 64C143.549 63.4027 143.741 62.9173 144.125 62.544C144.509 62.16 145.058 61.8987 145.773 61.76L148.525 61.2V60.896ZM145.741 63.792C145.741 64.0587 145.837 64.2613 146.029 64.4C146.231 64.5387 146.471 64.608 146.749 64.608C147.058 64.608 147.346 64.56 147.613 64.464C147.879 64.368 148.098 64.208 148.269 63.984C148.439 63.7493 148.525 63.44 148.525 63.056V62.56L146.845 62.896C146.482 62.9707 146.205 63.072 146.013 63.2C145.831 63.3173 145.741 63.5147 145.741 63.792ZM158.232 58V59.632H155.672V63.392C155.672 63.776 155.768 64.0587 155.96 64.24C156.162 64.4107 156.434 64.496 156.776 64.496C157.053 64.496 157.288 64.4587 157.48 64.384C157.682 64.2987 157.864 64.1867 158.024 64.048L158.376 65.504C158.109 65.7067 157.784 65.8667 157.4 65.984C157.026 66.1013 156.626 66.16 156.2 66.16C155.4 66.16 154.744 65.9787 154.232 65.616C153.73 65.2427 153.48 64.6187 153.48 63.744V59.632H152.008V58H153.48V56.16L155.672 55.552V58H158.232Z" fill="#3F3F44"/>
<path d="M154.55 231.448H172.243V234.179C170.229 236.315 168.579 238.511 167.292 240.768C166.03 243.001 165.108 245.331 164.525 247.758C163.943 250.186 163.652 252.758 163.652 255.477H160.666C160.666 252.782 160.994 250.149 161.649 247.576C162.329 244.979 163.348 242.492 164.707 240.113C166.067 237.735 167.753 235.514 169.768 233.451L170.241 234.179H154.55V231.448ZM184.112 255.841C181.394 255.841 179.222 254.785 177.596 252.673C175.97 250.562 175.157 247.491 175.157 243.462C175.157 239.434 175.97 236.363 177.596 234.252C179.222 232.14 181.394 231.084 184.112 231.084C186.855 231.084 189.027 232.14 190.629 234.252C192.255 236.363 193.068 239.434 193.068 243.462C193.068 247.491 192.255 250.562 190.629 252.673C189.027 254.785 186.855 255.841 184.112 255.841ZM184.112 253.219C185.399 253.219 186.479 252.855 187.353 252.127C188.251 251.375 188.918 250.27 189.355 248.814C189.816 247.358 190.047 245.574 190.047 243.462C190.047 241.351 189.816 239.567 189.355 238.111C188.918 236.655 188.251 235.562 187.353 234.834C186.479 234.082 185.399 233.706 184.112 233.706C182.826 233.706 181.734 234.082 180.836 234.834C179.962 235.562 179.295 236.655 178.834 238.111C178.397 239.567 178.178 241.351 178.178 243.462C178.178 245.574 178.397 247.358 178.834 248.814C179.295 250.27 179.962 251.375 180.836 252.127C181.734 252.855 182.826 253.219 184.112 253.219ZM201.99 255.477L217.281 231.448H220.048L204.757 255.477H201.99ZM202.682 231.084C203.871 231.084 204.891 231.363 205.74 231.922C206.614 232.456 207.282 233.22 207.743 234.215C208.228 235.21 208.471 236.375 208.471 237.71C208.471 239.045 208.228 240.21 207.743 241.205C207.282 242.2 206.614 242.977 205.74 243.535C204.891 244.069 203.871 244.336 202.682 244.336C201.517 244.336 200.498 244.069 199.624 243.535C198.75 242.977 198.071 242.2 197.585 241.205C197.124 240.21 196.894 239.045 196.894 237.71C196.894 236.375 197.124 235.21 197.585 234.215C198.071 233.22 198.75 232.456 199.624 231.922C200.498 231.363 201.517 231.084 202.682 231.084ZM202.682 233.378C202.003 233.378 201.42 233.548 200.935 233.888C200.449 234.227 200.085 234.725 199.843 235.38C199.6 236.011 199.478 236.788 199.478 237.71C199.478 238.608 199.6 239.385 199.843 240.04C200.085 240.696 200.449 241.193 200.935 241.533C201.42 241.873 202.003 242.043 202.682 242.043C203.386 242.043 203.969 241.873 204.43 241.533C204.915 241.193 205.279 240.696 205.522 240.04C205.765 239.385 205.886 238.608 205.886 237.71C205.886 236.788 205.765 236.011 205.522 235.38C205.279 234.725 204.915 234.227 204.43 233.888C203.969 233.548 203.386 233.378 202.682 233.378ZM219.356 242.589C220.546 242.589 221.565 242.868 222.414 243.426C223.288 243.96 223.956 244.725 224.417 245.72C224.902 246.715 225.145 247.88 225.145 249.215C225.145 250.55 224.902 251.715 224.417 252.71C223.956 253.705 223.288 254.481 222.414 255.04C221.565 255.574 220.546 255.841 219.356 255.841C218.191 255.841 217.172 255.574 216.298 255.04C215.424 254.481 214.745 253.705 214.259 252.71C213.798 251.715 213.568 250.55 213.568 249.215C213.568 247.88 213.798 246.715 214.259 245.72C214.745 244.725 215.424 243.96 216.298 243.426C217.172 242.868 218.191 242.589 219.356 242.589ZM219.356 244.882C218.677 244.882 218.094 245.052 217.609 245.392C217.123 245.732 216.759 246.229 216.517 246.885C216.274 247.516 216.153 248.292 216.153 249.215C216.153 250.113 216.274 250.889 216.517 251.545C216.759 252.2 217.123 252.698 217.609 253.037C218.094 253.377 218.677 253.547 219.356 253.547C220.06 253.547 220.643 253.377 221.104 253.037C221.589 252.698 221.953 252.2 222.196 251.545C222.439 250.889 222.56 250.113 222.56 249.215C222.56 248.292 222.439 247.516 222.196 246.885C221.953 246.229 221.589 245.732 221.104 245.392C220.643 245.052 220.06 244.882 219.356 244.882Z" fill="#3F3F44"/>
<circle cx="189.5" cy="241.5" r="101.938" stroke="#3F3F44" stroke-opacity="0.05" stroke-width="29.125"/>
<mask id="path-10-inside-1_1736_31150" fill="white">
<path d="M189.5 125C214.102 125 238.073 132.789 257.977 147.25C277.881 161.711 292.696 182.101 300.298 205.5C307.901 228.898 307.901 254.103 300.298 277.501C292.695 300.899 277.88 321.29 257.977 335.751L232.298 300.407C244.738 291.369 253.997 278.624 258.749 264.001C263.5 249.377 263.5 233.624 258.749 219C253.997 204.376 244.738 191.632 232.298 182.594C219.858 173.555 204.877 168.688 189.5 168.688V125Z"/>
</mask>
<path d="M189.5 125C214.102 125 238.073 132.789 257.977 147.25C277.881 161.711 292.696 182.101 300.298 205.5C307.901 228.898 307.901 254.103 300.298 277.501C292.695 300.899 277.88 321.29 257.977 335.751L232.298 300.407C244.738 291.369 253.997 278.624 258.749 264.001C263.5 249.377 263.5 233.624 258.749 219C253.997 204.376 244.738 191.632 232.298 182.594C219.858 173.555 204.877 168.688 189.5 168.688V125Z" stroke="#581959" stroke-width="87.375" mask="url(#path-10-inside-1_1736_31150)"/>
<mask id="path-11-inside-2_1736_31150" fill="white">
<path d="M257.977 335.75C243.103 346.557 225.883 353.69 207.724 356.566C189.566 359.442 170.984 357.979 153.499 352.298C136.014 346.617 120.122 336.878 107.122 323.877C94.1215 310.877 84.3827 294.985 78.7016 277.5L112.495 266.52C116.444 278.672 123.212 289.717 132.247 298.752C141.282 307.787 152.327 314.556 164.479 318.505C176.632 322.453 189.546 323.47 202.166 321.471C214.786 319.472 226.754 314.515 237.092 307.004L257.977 335.75Z"/>
</mask>
<path d="M257.977 335.75C243.103 346.557 225.883 353.69 207.724 356.566C189.566 359.442 170.984 357.979 153.499 352.298C136.014 346.617 120.122 336.878 107.122 323.877C94.1215 310.877 84.3827 294.985 78.7016 277.5L112.495 266.52C116.444 278.672 123.212 289.717 132.247 298.752C141.282 307.787 152.327 314.556 164.479 318.505C176.632 322.453 189.546 323.47 202.166 321.471C214.786 319.472 226.754 314.515 237.092 307.004L257.977 335.75Z" stroke="#FDAB62" stroke-width="87.375" mask="url(#path-11-inside-2_1736_31150)"/>
<g clip-path="url(#clip0_1736_31150)">
<path d="M460 55C459.175 55 458.5 55.675 458.5 56.5C458.5 57.325 459.175 58 460 58C460.825 58 461.5 57.325 461.5 56.5C461.5 55.675 460.825 55 460 55ZM460 70C459.175 70 458.5 70.675 458.5 71.5C458.5 72.325 459.175 73 460 73C460.825 73 461.5 72.325 461.5 71.5C461.5 70.675 460.825 70 460 70ZM460 62.5C459.175 62.5 458.5 63.175 458.5 64C458.5 64.825 459.175 65.5 460 65.5C460.825 65.5 461.5 64.825 461.5 64C461.5 63.175 460.825 62.5 460 62.5Z" fill="#3F3F44" fill-opacity="0.3"/>
</g>
<defs>
<filter id="filter0_f_1736_31150" x="0" y="0" width="542" height="503" filterUnits="userSpaceOnUse" color-interpolation-filters="sRGB">
<feFlood flood-opacity="0" result="BackgroundImageFix"/>
<feBlend mode="normal" in="SourceGraphic" in2="BackgroundImageFix" result="shape"/>
<feGaussianBlur stdDeviation="32" result="effect1_foregroundBlur_1736_31150"/>
</filter>
<clipPath id="clip0_1736_31150">
<rect width="24" height="24" fill="white" transform="translate(448 52)"/>
</clipPath>
</defs>
</svg>
