<svg width="40" height="40" viewBox="0 0 40 40" fill="none" xmlns="http://www.w3.org/2000/svg">
<path opacity="0.2" d="M31.25 7.5H8.75C8.58585 7.5 8.4233 7.53233 8.27164 7.59515C8.11999 7.65797 7.98219 7.75004 7.86611 7.86611C7.75004 7.98219 7.65797 8.11999 7.59515 8.27164C7.53233 8.4233 7.5 8.58585 7.5 8.75V31.25C7.5 31.4142 7.53233 31.5767 7.59515 31.7284C7.65797 31.88 7.75004 32.0178 7.86611 32.1339C7.98219 32.25 8.11999 32.342 8.27164 32.4049C8.4233 32.4677 8.58585 32.5 8.75 32.5H31.25C31.4142 32.5 31.5767 32.4677 31.7284 32.4049C31.88 32.342 32.0178 32.25 32.1339 32.1339C32.25 32.0178 32.342 31.88 32.4049 31.7284C32.4677 31.5767 32.5 31.4142 32.5 31.25V8.75C32.5 8.58585 32.4677 8.4233 32.4049 8.27164C32.342 8.11999 32.25 7.98219 32.1339 7.86611C32.0178 7.75004 31.88 7.65797 31.7284 7.59515C31.5767 7.53233 31.4142 7.5 31.25 7.5ZM24.375 24.375H15.625V15.625H24.375V24.375Z" fill="#7534FF"/>
<path d="M24.375 15.625H15.625V24.375H24.375V15.625Z" stroke="#7534FF" stroke-width="2.5" stroke-linecap="round" stroke-linejoin="round"/>
<path d="M31.25 7.5H8.75C8.05964 7.5 7.5 8.05964 7.5 8.75V31.25C7.5 31.9404 8.05964 32.5 8.75 32.5H31.25C31.9404 32.5 32.5 31.9404 32.5 31.25V8.75C32.5 8.05964 31.9404 7.5 31.25 7.5Z" stroke="#7534FF" stroke-width="2.5" stroke-linecap="round" stroke-linejoin="round"/>
<path d="M32.5 16.25H36.25" stroke="#7534FF" stroke-width="2.5" stroke-linecap="round" stroke-linejoin="round"/>
<path d="M32.5 23.75H36.25" stroke="#7534FF" stroke-width="2.5" stroke-linecap="round" stroke-linejoin="round"/>
<path d="M3.75 16.25H7.5" stroke="#7534FF" stroke-width="2.5" stroke-linecap="round" stroke-linejoin="round"/>
<path d="M3.75 23.75H7.5" stroke="#7534FF" stroke-width="2.5" stroke-linecap="round" stroke-linejoin="round"/>
<path d="M23.75 32.5V36.25" stroke="#7534FF" stroke-width="2.5" stroke-linecap="round" stroke-linejoin="round"/>
<path d="M16.25 32.5V36.25" stroke="#7534FF" stroke-width="2.5" stroke-linecap="round" stroke-linejoin="round"/>
<path d="M23.75 3.75V7.5" stroke="#7534FF" stroke-width="2.5" stroke-linecap="round" stroke-linejoin="round"/>
<path d="M16.25 3.75V7.5" stroke="#7534FF" stroke-width="2.5" stroke-linecap="round" stroke-linejoin="round"/>
</svg>
