<svg width="19" height="18" viewBox="0 0 19 18" fill="none" xmlns="http://www.w3.org/2000/svg">
<path d="M15.5619 10.3125H12.5319C11.0244 10.3125 10.2969 9.615 10.2969 8.175V3.075C10.2969 1.635 11.0319 0.9375 12.5319 0.9375H15.5619C17.0694 0.9375 17.7969 1.635 17.7969 3.075V8.175C17.7969 9.615 17.0619 10.3125 15.5619 10.3125ZM12.5319 2.0625C11.5794 2.0625 11.4219 2.3175 11.4219 3.075V8.175C11.4219 8.9325 11.5794 9.1875 12.5319 9.1875H15.5619C16.5144 9.1875 16.6719 8.9325 16.6719 8.175V3.075C16.6719 2.3175 16.5144 2.0625 15.5619 2.0625H12.5319Z" fill="#9C9CA4"/>
<path d="M15.5619 17.0625H12.5319C11.0244 17.0625 10.2969 16.365 10.2969 14.925V13.575C10.2969 12.135 11.0319 11.4375 12.5319 11.4375H15.5619C17.0694 11.4375 17.7969 12.135 17.7969 13.575V14.925C17.7969 16.365 17.0619 17.0625 15.5619 17.0625ZM12.5319 12.5625C11.5794 12.5625 11.4219 12.8175 11.4219 13.575V14.925C11.4219 15.6825 11.5794 15.9375 12.5319 15.9375H15.5619C16.5144 15.9375 16.6719 15.6825 16.6719 14.925V13.575C16.6719 12.8175 16.5144 12.5625 15.5619 12.5625H12.5319Z" fill="#9C9CA4"/>
<path d="M6.93688 17.0625H3.90688C2.39938 17.0625 1.67188 16.365 1.67188 14.925V9.825C1.67188 8.385 2.40688 7.6875 3.90688 7.6875H6.93688C8.44438 7.6875 9.17188 8.385 9.17188 9.825V14.925C9.17188 16.365 8.43688 17.0625 6.93688 17.0625ZM3.90688 8.8125C2.95438 8.8125 2.79688 9.0675 2.79688 9.825V14.925C2.79688 15.6825 2.95438 15.9375 3.90688 15.9375H6.93688C7.88938 15.9375 8.04688 15.6825 8.04688 14.925V9.825C8.04688 9.0675 7.88938 8.8125 6.93688 8.8125H3.90688Z" fill="#9C9CA4"/>
<path d="M6.93688 6.5625H3.90688C2.39938 6.5625 1.67188 5.865 1.67188 4.425V3.075C1.67188 1.635 2.40688 0.9375 3.90688 0.9375H6.93688C8.44438 0.9375 9.17188 1.635 9.17188 3.075V4.425C9.17188 5.865 8.43688 6.5625 6.93688 6.5625ZM3.90688 2.0625C2.95438 2.0625 2.79688 2.3175 2.79688 3.075V4.425C2.79688 5.1825 2.95438 5.4375 3.90688 5.4375H6.93688C7.88938 5.4375 8.04688 5.1825 8.04688 4.425V3.075C8.04688 2.3175 7.88938 2.0625 6.93688 2.0625H3.90688Z" fill="#9C9CA4"/>
</svg>
