<svg width="12" height="15" viewBox="0 0 12 15" fill="none" xmlns="http://www.w3.org/2000/svg">
<path d="M2.74822 5.49972C2.74822 5.0855 2.41243 4.74972 1.99822 4.74972C1.58401 4.74972 1.24822 5.0855 1.24822 5.49972H2.74822ZM10.7516 5.49972C10.7516 5.0855 10.4158 4.74972 10.0016 4.74972C9.58734 4.74972 9.25155 5.0855 9.25155 5.49972H10.7516ZM8.08378 6.16666C8.08378 5.75245 7.74799 5.41666 7.33378 5.41666C6.91956 5.41666 6.58378 5.75245 6.58378 6.16666H8.08378ZM6.58378 10.8353C6.58378 11.2495 6.91956 11.5853 7.33378 11.5853C7.74799 11.5853 8.08378 11.2495 8.08378 10.8353H6.58378ZM5.416 6.16666C5.416 5.75245 5.08021 5.41666 4.666 5.41666C4.25178 5.41666 3.916 5.75245 3.916 6.16666H5.416ZM3.916 10.8353C3.916 11.2495 4.25178 11.5853 4.666 11.5853C5.08021 11.5853 5.416 11.2495 5.416 10.8353H3.916ZM0.997803 2.74888C0.583589 2.74888 0.247803 3.08467 0.247803 3.49888C0.247803 3.9131 0.583589 4.24888 0.997803 4.24888V2.74888ZM11.002 4.24888C11.4162 4.24888 11.752 3.9131 11.752 3.49888C11.752 3.08467 11.4162 2.74888 11.002 2.74888V4.24888ZM2.6206 3.26171C2.48961 3.65467 2.70198 4.07941 3.09494 4.21039C3.48789 4.34138 3.91263 4.12901 4.04362 3.73605L2.6206 3.26171ZM3.69493 2.41043L4.40644 2.6476L4.4065 2.64743L3.69493 2.41043ZM4.96079 1.49805L4.96061 2.24805H4.96079V1.49805ZM7.03899 1.49805V2.24805L7.03991 2.24805L7.03899 1.49805ZM8.30618 2.41043L9.01795 2.17404L9.01775 2.17343L8.30618 2.41043ZM7.95589 3.73527C8.08644 4.12837 8.51095 4.34121 8.90405 4.21066C9.29715 4.0801 9.50999 3.6556 9.37944 3.2625L7.95589 3.73527ZM1.24822 5.49972V12.1692H2.74822V5.49972H1.24822ZM1.24822 12.1692C1.24822 13.3201 2.18121 14.253 3.33211 14.253V12.753C3.00964 12.753 2.74822 12.4916 2.74822 12.1692H1.24822ZM3.33211 14.253H8.66766V12.753H3.33211V14.253ZM8.66766 14.253C9.81856 14.253 10.7516 13.3201 10.7516 12.1692H9.25155C9.25155 12.4916 8.99014 12.753 8.66766 12.753V14.253ZM10.7516 12.1692V5.49972H9.25155V12.1692H10.7516ZM6.58378 6.16666V10.8353H8.08378V6.16666H6.58378ZM3.916 6.16666V10.8353H5.416V6.16666H3.916ZM0.997803 4.24888H11.002V2.74888H0.997803V4.24888ZM4.04362 3.73605L4.40644 2.6476L2.98341 2.17326L2.6206 3.26171L4.04362 3.73605ZM4.4065 2.64743C4.48595 2.40889 4.70918 2.24799 4.96061 2.24805L4.96097 0.748048C4.06363 0.747833 3.26692 1.32207 2.98336 2.17343L4.4065 2.64743ZM4.96079 2.24805H7.03899V0.748048H4.96079V2.24805ZM7.03991 2.24805C7.29156 2.24774 7.51509 2.40868 7.59461 2.64743L9.01775 2.17343C8.73395 1.32134 7.93616 0.746936 7.03806 0.748048L7.03991 2.24805ZM7.59441 2.64681L7.95589 3.73527L9.37944 3.2625L9.01795 2.17404L7.59441 2.64681Z" fill="#6C7E8E"/>
</svg>
