<svg width="31" height="31" viewBox="0 0 31 31" fill="none" xmlns="http://www.w3.org/2000/svg">
<g clip-path="url(#clip0_4009_68009)">
<path d="M10.9576 1.24912C7.96018 2.28897 5.37517 4.26263 3.58232 6.88022C1.78946 9.4978 0.883255 12.6213 0.996812 15.792C1.11037 18.9627 2.2377 22.0134 4.21322 24.496C6.18874 26.9786 8.90832 28.7623 11.9725 29.5851C14.4567 30.2261 17.0594 30.2542 19.5569 29.6671C21.8193 29.1589 23.911 28.0718 25.6272 26.5124C27.4133 24.8398 28.7098 22.712 29.3772 20.3577C30.1024 17.7975 30.2315 15.1052 29.7545 12.4874H15.8045V18.2741H23.8834C23.722 19.1971 23.376 20.0779 22.8661 20.864C22.3563 21.6501 21.6931 22.3253 20.9162 22.8491C19.9298 23.5019 18.8177 23.941 17.6514 24.1382C16.4817 24.3557 15.282 24.3557 14.1123 24.1382C12.9268 23.8933 11.8052 23.404 10.8194 22.7015C9.23534 21.5802 8.04595 19.9872 7.42093 18.1499C6.78552 16.2781 6.78552 14.249 7.42093 12.3772C7.86584 11.0653 8.60132 9.87069 9.57249 8.88271C10.6839 7.73134 12.0909 6.90833 13.6393 6.50399C15.1876 6.09964 16.8174 6.12958 18.3498 6.59053C19.547 6.95785 20.6418 7.59993 21.5467 8.46553C22.4576 7.55928 23.367 6.65068 24.2748 5.73974C24.7436 5.2499 25.2545 4.78349 25.7162 4.28193C24.3347 2.99643 22.7131 1.99608 20.9444 1.33818C17.7234 0.168627 14.199 0.137196 10.9576 1.24912Z" fill="white"/>
<path d="M10.9572 1.24831C14.1983 0.135627 17.7227 0.16623 20.9439 1.33502C22.713 1.99739 24.3338 3.00256 25.7135 4.29284C25.2447 4.7944 24.7502 5.26315 24.2721 5.75065C23.3627 6.65846 22.4541 7.56315 21.5463 8.46471C20.6413 7.59911 19.5466 6.95703 18.3494 6.58971C16.8175 6.12715 15.1877 6.09548 13.639 6.49817C12.0902 6.90086 10.6823 7.72236 9.56973 8.87252C8.59855 9.8605 7.86307 11.0551 7.41816 12.3671L2.55957 8.60534C4.29865 5.15665 7.30976 2.51867 10.9572 1.24831Z" fill="#E33629"/>
<path d="M1.27109 12.332C1.53204 11.0377 1.9656 9.78436 2.56015 8.60547L7.41874 12.3766C6.78333 14.2483 6.78333 16.2775 7.41874 18.1492C5.79999 19.3992 4.18046 20.6555 2.56015 21.918C1.07222 18.9562 0.618429 15.5816 1.27109 12.332Z" fill="#F8BD00"/>
<path d="M15.8048 12.4844H29.7548C30.2317 15.1022 30.1026 17.7945 29.3774 20.3547C28.71 22.7089 27.4135 24.8368 25.6274 26.5094C24.0594 25.2859 22.4844 24.0719 20.9165 22.8484C21.6938 22.3241 22.3573 21.6482 22.8672 20.8612C23.3771 20.0743 23.7228 19.1925 23.8837 18.2688H15.8048C15.8024 16.3422 15.8048 14.4133 15.8048 12.4844Z" fill="#587DBD"/>
<path d="M2.55762 21.9172C4.17793 20.6672 5.79746 19.4109 7.41621 18.1484C8.04248 19.9864 9.23357 21.5794 10.8193 22.7C11.8083 23.3993 12.9322 23.8846 14.1193 24.125C15.289 24.3425 16.4887 24.3425 17.6584 24.125C18.8247 23.9279 19.9368 23.4888 20.9232 22.8359C22.4912 24.0594 24.0662 25.2734 25.6342 26.4969C23.9183 28.0572 21.8266 29.145 19.5639 29.6539C17.0664 30.241 14.4637 30.2129 11.9795 29.5719C10.0147 29.0473 8.17951 28.1225 6.58887 26.8555C4.90542 25.5186 3.53035 23.8342 2.55762 21.9172Z" fill="#319F43"/>
</g>
<defs>
<clipPath id="clip0_4009_68009">
<rect width="30" height="30" fill="white" transform="translate(0.506836 0.261719)"/>
</clipPath>
</defs>
</svg>
