<svg width="204" height="242" viewBox="0 0 204 242" fill="none" xmlns="http://www.w3.org/2000/svg">
<path d="M102.082 226.961C158.173 226.961 203.645 181.49 203.645 125.398C203.645 69.307 158.173 23.8359 102.082 23.8359C45.9906 23.8359 0.519531 69.307 0.519531 125.398C0.519531 181.49 45.9906 226.961 102.082 226.961Z" fill="url(#paint0_linear_1518_64437)"/>
<g filter="url(#filter0_d_1518_64437)">
<path d="M160.311 82.0625H43.8529C40.1134 82.0625 37.082 85.0939 37.082 88.8333V231.021C37.082 234.76 40.1134 237.792 43.8529 237.792H160.311C164.051 237.792 167.082 234.76 167.082 231.021V88.8333C167.082 85.0939 164.051 82.0625 160.311 82.0625Z" fill="white"/>
</g>
<path d="M88.5404 102.375H53.332C51.0884 102.375 49.2695 104.194 49.2695 106.438C49.2695 108.681 51.0884 110.5 53.332 110.5H88.5404C90.784 110.5 92.6029 108.681 92.6029 106.438C92.6029 104.194 90.784 102.375 88.5404 102.375Z" fill="#B4DAFF"/>
<path d="M112.915 119.977H53.332C51.0884 119.977 49.2695 121.795 49.2695 124.039C49.2695 126.283 51.0884 128.102 53.332 128.102H112.915C115.159 128.102 116.978 126.283 116.978 124.039C116.978 121.795 115.159 119.977 112.915 119.977Z" fill="#DFEAFB"/>
<path d="M88.5404 138.938H53.332C51.0884 138.938 49.2695 140.756 49.2695 143C49.2695 145.244 51.0884 147.062 53.332 147.062H88.5404C90.784 147.062 92.6029 145.244 92.6029 143C92.6029 140.756 90.784 138.938 88.5404 138.938Z" fill="#B4DAFF"/>
<path d="M112.915 156.539H53.332C51.0884 156.539 49.2695 158.358 49.2695 160.602C49.2695 162.845 51.0884 164.664 53.332 164.664H112.915C115.159 164.664 116.978 162.845 116.978 160.602C116.978 158.358 115.159 156.539 112.915 156.539Z" fill="#DFEAFB"/>
<path d="M88.5404 175.5H53.332C51.0884 175.5 49.2695 177.319 49.2695 179.562C49.2695 181.806 51.0884 183.625 53.332 183.625H88.5404C90.784 183.625 92.6029 181.806 92.6029 179.562C92.6029 177.319 90.784 175.5 88.5404 175.5Z" fill="#B4DAFF"/>
<path d="M112.915 193.102H53.332C51.0884 193.102 49.2695 194.92 49.2695 197.164C49.2695 199.408 51.0884 201.227 53.332 201.227H112.915C115.159 201.227 116.978 199.408 116.978 197.164C116.978 194.92 115.159 193.102 112.915 193.102Z" fill="#DFEAFB"/>
<g filter="url(#filter1_d_1518_64437)">
<path d="M160.311 13H43.8529C40.1134 13 37.082 16.0314 37.082 19.7708V60.3958C37.082 64.1353 40.1134 67.1667 43.8529 67.1667H160.311C164.051 67.1667 167.082 64.1353 167.082 60.3958V19.7708C167.082 16.0314 164.051 13 160.311 13Z" fill="#581959"/>
</g>
<path d="M88.5404 27.8984H53.332C51.0884 27.8984 49.2695 29.7173 49.2695 31.9609C49.2695 34.2046 51.0884 36.0234 53.332 36.0234H88.5404C90.784 36.0234 92.6029 34.2046 92.6029 31.9609C92.6029 29.7173 90.784 27.8984 88.5404 27.8984Z" fill="#B4DAFF"/>
<path d="M112.915 45.5H53.332C51.0884 45.5 49.2695 47.3188 49.2695 49.5625C49.2695 51.8062 51.0884 53.625 53.332 53.625H112.915C115.159 53.625 116.978 51.8062 116.978 49.5625C116.978 47.3188 115.159 45.5 112.915 45.5Z" fill="white"/>
<defs>
<filter id="filter0_d_1518_64437" x="28.957" y="69.875" width="146.25" height="171.977" filterUnits="userSpaceOnUse" color-interpolation-filters="sRGB">
<feFlood flood-opacity="0" result="BackgroundImageFix"/>
<feColorMatrix in="SourceAlpha" type="matrix" values="0 0 0 0 0 0 0 0 0 0 0 0 0 0 0 0 0 0 127 0" result="hardAlpha"/>
<feOffset dy="-4.0625"/>
<feGaussianBlur stdDeviation="4.0625"/>
<feColorMatrix type="matrix" values="0 0 0 0 0.788235 0 0 0 0 0.803922 0 0 0 0 0.85098 0 0 0 0.349 0"/>
<feBlend mode="normal" in2="BackgroundImageFix" result="effect1_dropShadow_1518_64437"/>
<feBlend mode="normal" in="SourceGraphic" in2="effect1_dropShadow_1518_64437" result="shape"/>
</filter>
<filter id="filter1_d_1518_64437" x="28.957" y="0.8125" width="146.25" height="70.4141" filterUnits="userSpaceOnUse" color-interpolation-filters="sRGB">
<feFlood flood-opacity="0" result="BackgroundImageFix"/>
<feColorMatrix in="SourceAlpha" type="matrix" values="0 0 0 0 0 0 0 0 0 0 0 0 0 0 0 0 0 0 127 0" result="hardAlpha"/>
<feOffset dy="-4.0625"/>
<feGaussianBlur stdDeviation="4.0625"/>
<feColorMatrix type="matrix" values="0 0 0 0 0.788235 0 0 0 0 0.803922 0 0 0 0 0.85098 0 0 0 0.349 0"/>
<feBlend mode="normal" in2="BackgroundImageFix" result="effect1_dropShadow_1518_64437"/>
<feBlend mode="normal" in="SourceGraphic" in2="effect1_dropShadow_1518_64437" result="shape"/>
</filter>
<linearGradient id="paint0_linear_1518_64437" x1="102.082" y1="23.8359" x2="102.082" y2="226.961" gradientUnits="userSpaceOnUse">
<stop stop-color="#E3ECFA"/>
<stop offset="1" stop-color="#DAE7FF"/>
</linearGradient>
</defs>
</svg>
