<svg width="24" height="24" viewBox="0 0 24 24" fill="none" xmlns="http://www.w3.org/2000/svg">
<g id="Group">
<g id="Group_2">
<path id="Path" d="M15 5.2C16.7 6.9 16.7 9.6 15 11.2C13.3 12.8 10.6 12.9 8.99999 11.2C7.39999 9.5 7.29999 6.8 8.99999 5.2C10.7 3.6 13.3 3.6 15 5.2" stroke="#401141" stroke-width="2" stroke-linecap="round" stroke-linejoin="round"/>
<path id="Path_2" d="M4 20C4 17.5 6 15.5 8.5 15.5H11.1" stroke="#401141" stroke-width="2" stroke-linecap="round" stroke-linejoin="round"/>
<path id="Path_3" fill-rule="evenodd" clip-rule="evenodd" d="M14 21H16.3L19.7 17.6C20.1 17.2 20.1 16.6 19.7 16.2L18.8 15.3C18.4 14.9 17.8 14.9 17.4 15.3L14 18.7V21V21H14Z" stroke="#401141" stroke-width="2" stroke-linecap="round" stroke-linejoin="round"/>
</g>
</g>
</svg>
