<svg width="16" height="16" viewBox="0 0 16 16" fill="none" xmlns="http://www.w3.org/2000/svg">
<path d="M14 8.71133V12.648C14 13.3947 13.3993 14 12.658 14H3.342C2.60067 14 2 13.3947 2 12.648V4.01867C2 3.272 2.60067 2.66667 3.342 2.66667H8" stroke="#506375" stroke-linecap="round" stroke-linejoin="round"/>
<path d="M5.21863 11.448L7.70596 10.826C7.82329 10.7967 7.92996 10.736 8.01596 10.6507L13.6093 5.05733C14.13 4.53667 14.13 3.69267 13.6093 3.172L13.4946 3.05733C12.974 2.53667 12.13 2.53667 11.6093 3.05733L6.01596 8.65067C5.93063 8.736 5.86996 8.84333 5.84063 8.96067L5.21863 11.448" stroke="#506375" stroke-linecap="round" stroke-linejoin="round"/>
<path d="M10.5533 4.11333L12.5533 6.11333" stroke="#506375" stroke-linecap="round" stroke-linejoin="round"/>
<path d="M7.69735 10.828C7.70668 10.7573 7.71868 10.6873 7.71868 10.614C7.71868 9.69333 6.97268 8.94733 6.05201 8.94733C5.97868 8.94733 5.90868 8.96 5.83801 8.96867" stroke="#506375" stroke-linecap="round" stroke-linejoin="round"/>
</svg>
