<svg width="20" height="20" viewBox="0 0 20 20" fill="none" xmlns="http://www.w3.org/2000/svg">
<g id="EnvelopeOpen">
<path id="Vector" opacity="0.2" d="M16.7699 7.63521L11.1676 11.6295H8.67754L3.0752 7.63521L9.92255 3.07031L16.7699 7.63521Z" fill="#0B63E5"/>
<path id="Vector_2" d="M3.0752 7.63521V15.0532C3.0752 15.2045 3.13531 15.3496 3.24232 15.4567C3.34933 15.5637 3.49447 15.6238 3.64581 15.6238H16.1993C16.3506 15.6238 16.4958 15.5637 16.6028 15.4567C16.7098 15.3496 16.7699 15.2045 16.7699 15.0532V7.63521L9.92255 3.07031L3.0752 7.63521Z" stroke="#0B63E5" stroke-width="1.14122" stroke-linecap="round" stroke-linejoin="round"/>
<path id="Vector_3" d="M8.6774 11.6328L3.25098 15.4658" stroke="#0B63E5" stroke-width="1.14122" stroke-linecap="round" stroke-linejoin="round"/>
<path id="Vector_4" d="M16.594 15.4659L11.1675 11.6328" stroke="#0B63E5" stroke-width="1.14122" stroke-linecap="round" stroke-linejoin="round"/>
<path id="Vector_5" d="M16.7699 7.63281L11.1676 11.6271H8.67754L3.0752 7.63281" stroke="#0B63E5" stroke-width="1.14122" stroke-linecap="round" stroke-linejoin="round"/>
</g>
</svg>
