<svg width="18" height="18" viewBox="0 0 18 18" fill="none" xmlns="http://www.w3.org/2000/svg">
<g id="ep:back">
<path id="Vector" d="M3.76204 8.39062H14.5107C14.6533 8.39062 14.79 8.44725 14.8907 8.54804C14.9915 8.64882 15.0481 8.78552 15.0481 8.92806C15.0481 9.07059 14.9915 9.20729 14.8907 9.30808C14.79 9.40887 14.6533 9.46549 14.5107 9.46549H3.76204C3.61951 9.46549 3.48281 9.40887 3.38202 9.30808C3.28123 9.20729 3.22461 9.07059 3.22461 8.92806C3.22461 8.78552 3.28123 8.64882 3.38202 8.54804C3.48281 8.44725 3.61951 8.39062 3.76204 8.39062Z" fill="black"/>
<path id="Vector_2" d="M3.98485 8.9297L8.44232 13.3861C8.54324 13.487 8.59993 13.6239 8.59993 13.7666C8.59993 13.9093 8.54324 14.0462 8.44232 14.1471C8.34141 14.248 8.20454 14.3047 8.06182 14.3047C7.9191 14.3047 7.78223 14.248 7.68132 14.1471L2.84441 9.31021C2.79437 9.26028 2.75466 9.20098 2.72756 9.13568C2.70047 9.07039 2.68652 9.00039 2.68652 8.9297C2.68652 8.85901 2.70047 8.78901 2.72756 8.72372C2.75466 8.65843 2.79437 8.59912 2.84441 8.5492L7.68132 3.7123C7.78223 3.61138 7.9191 3.55469 8.06182 3.55469C8.20454 3.55469 8.34141 3.61138 8.44232 3.7123C8.54324 3.81321 8.59993 3.95008 8.59993 4.0928C8.59993 4.23552 8.54324 4.37239 8.44232 4.4733L3.98485 8.9297Z" fill="black"/>
</g>
</svg>
