<svg width="24" height="24" viewBox="0 0 24 24" fill="none" xmlns="http://www.w3.org/2000/svg">
<path d="M21.0038 7.99826H2.99634" stroke="#AFBDCA" stroke-width="1.5" stroke-linecap="round" stroke-linejoin="round"/>
<path d="M7.99842 13.0007H2.99634" stroke="#AFBDCA" stroke-width="1.5" stroke-linecap="round" stroke-linejoin="round"/>
<path d="M7.99842 18.0026H2.99634" stroke="#AFBDCA" stroke-width="1.5" stroke-linecap="round" stroke-linejoin="round"/>
<path d="M21.0038 2.9963H2.99634" stroke="#AFBDCA" stroke-width="1.5" stroke-linecap="round" stroke-linejoin="round"/>
<path fill-rule="evenodd" clip-rule="evenodd" d="M15.4015 17.5204V20.1135C15.3993 20.4226 15.5581 20.7107 15.8206 20.874C16.0831 21.0373 16.4116 21.0524 16.688 20.9138L18.1126 20.2015C18.4159 20.0504 18.6068 19.74 18.6048 19.4012V17.5204L20.6587 15.9357C20.8759 15.7682 21.0036 15.5097 21.0048 15.2354V13.8899C21.0048 13.6538 20.911 13.4274 20.744 13.2606C20.577 13.0938 20.3505 13.0002 20.1145 13.0005H13.8899C13.3987 13.0005 13.0005 13.3987 13.0005 13.8899V15.2314C13.0018 15.5057 13.1295 15.7641 13.3466 15.9317L15.4015 17.5204Z" stroke="#AFBDCA" stroke-width="1.5" stroke-linecap="round" stroke-linejoin="round"/>
</svg>
