<svg width="176" height="40" viewBox="0 0 176 40" fill="none" xmlns="http://www.w3.org/2000/svg">
<path d="M34.6174 13.1875C34.2844 13.1875 26.6223 13.2353 19.7812 16.4976C12.9401 13.2353 5.27808 13.1875 4.94509 13.1875C4.50789 13.1875 4.0886 13.3612 3.77945 13.6703C3.47031 13.9795 3.29663 14.3988 3.29663 14.836V31.1277C3.29663 31.3489 3.34115 31.5678 3.42753 31.7714C3.5139 31.975 3.64038 32.1592 3.79941 32.3129C4.12086 32.6228 4.59067 32.8157 5.00114 32.7745L5.21049 32.7728C6.33639 32.7728 12.2923 32.9344 19.0839 36.111C19.1103 36.1242 19.14 36.1192 19.1663 36.1291C19.3625 36.2099 19.5686 36.2659 19.7812 36.2659C19.9939 36.2659 20.1999 36.2099 20.3977 36.1291C20.4241 36.1192 20.4538 36.1242 20.4802 36.111C27.2718 32.9327 33.2277 32.7728 34.3536 32.7728L34.563 32.7745C34.9553 32.8157 35.4416 32.6228 35.7647 32.3129C36.0845 32.0014 36.2658 31.5728 36.2658 31.1277V14.836C36.2658 14.3988 36.0921 13.9795 35.783 13.6703C35.4738 13.3612 35.0546 13.1875 34.6174 13.1875ZM6.59355 16.5652C9.04151 16.7482 13.8154 17.3565 18.1328 19.3544V32.1168C13.1874 30.1798 8.91788 29.654 6.59355 29.5188V16.5652ZM32.9689 29.5188C30.6446 29.654 26.3751 30.1798 21.4297 32.1168V19.3544C25.747 17.3565 30.5209 16.7482 32.9689 16.5652V29.5188Z" fill="white"/>
<path d="M19.7813 13.1876C22.5126 13.1876 24.7267 10.9735 24.7267 8.24225C24.7267 5.511 22.5126 3.29688 19.7813 3.29688C17.0501 3.29688 14.8359 5.511 14.8359 8.24225C14.8359 10.9735 17.0501 13.1876 19.7813 13.1876Z" fill="white"/>
<path d="M46.7649 30V11.4581H50.3519V30H46.7649ZM49.4024 30V26.8086H58.8448V30H49.4024ZM61.3811 30V17.2607H64.8627V30H61.3811ZM63.1219 15.2034C62.5592 15.2034 62.0933 15.0188 61.724 14.6495C61.3547 14.2627 61.1701 13.788 61.1701 13.2253C61.1701 12.6802 61.3547 12.2142 61.724 11.8274C62.0933 11.4405 62.5592 11.2471 63.1219 11.2471C63.7022 11.2471 64.1681 11.4405 64.5198 11.8274C64.889 12.2142 65.0737 12.6802 65.0737 13.2253C65.0737 13.788 64.889 14.2627 64.5198 14.6495C64.1681 15.0188 63.7022 15.2034 63.1219 15.2034ZM73.581 35.6443C72.227 35.6443 71.0313 35.3982 69.9939 34.9058C68.9565 34.4311 68.1301 33.7541 67.5146 32.8749L69.7038 30.6858C70.1961 31.266 70.7412 31.7056 71.3391 32.0045C71.9545 32.321 72.693 32.4793 73.5546 32.4793C74.6272 32.4793 75.4712 32.2067 76.0866 31.6616C76.7196 31.1166 77.0361 30.3605 77.0361 29.3934V26.2019L77.6164 23.4062L77.0625 20.6104V17.2607H80.4913V29.3406C80.4913 30.6066 80.1924 31.7056 79.5945 32.6375C79.0143 33.587 78.2054 34.3256 77.168 34.8531C76.1306 35.3806 74.9349 35.6443 73.581 35.6443ZM73.4227 29.6571C72.2798 29.6571 71.2511 29.3846 70.3368 28.8395C69.4224 28.2768 68.7015 27.5119 68.174 26.5448C67.6641 25.5777 67.4091 24.4963 67.4091 23.3007C67.4091 22.105 67.6641 21.0324 68.174 20.0829C68.7015 19.1334 69.4224 18.3861 70.3368 17.841C71.2511 17.2783 72.2798 16.997 73.4227 16.997C74.3722 16.997 75.2074 17.1816 75.9284 17.5508C76.6669 17.9201 77.2471 18.43 77.6691 19.0806C78.0911 19.7136 78.3197 20.4609 78.3549 21.3225V25.3316C78.3197 26.1756 78.0824 26.9317 77.6428 27.5998C77.2208 28.2504 76.6405 28.7604 75.902 29.1296C75.1811 29.4813 74.3546 29.6571 73.4227 29.6571ZM74.1085 26.5185C74.7415 26.5185 75.2866 26.3866 75.7437 26.1228C76.2185 25.8415 76.5877 25.4634 76.8515 24.9887C77.1153 24.4963 77.2471 23.9425 77.2471 23.327C77.2471 22.694 77.1153 22.1401 76.8515 21.6654C76.5877 21.1906 76.2185 20.8214 75.7437 20.5576C75.2866 20.2763 74.7415 20.1356 74.1085 20.1356C73.4755 20.1356 72.9216 20.2763 72.4468 20.5576C71.9721 20.8214 71.6028 21.1994 71.3391 21.6918C71.0753 22.1665 70.9434 22.7116 70.9434 23.327C70.9434 23.9249 71.0753 24.47 71.3391 24.9623C71.6028 25.4371 71.9721 25.8151 72.4468 26.0964C72.9216 26.3778 73.4755 26.5185 74.1085 26.5185ZM92.4288 30V22.694C92.4288 21.9379 92.1914 21.3225 91.7167 20.8478C91.2419 20.373 90.6265 20.1356 89.8704 20.1356C89.3781 20.1356 88.9385 20.2411 88.5516 20.4521C88.1648 20.6631 87.8571 20.962 87.6285 21.3489C87.4175 21.7357 87.312 22.1841 87.312 22.694L85.9669 22.0083C85.9669 21.006 86.1779 20.1356 86.5999 19.3971C87.0219 18.641 87.6021 18.052 88.3406 17.63C89.0967 17.208 89.9583 16.997 90.9254 16.997C91.8925 16.997 92.7453 17.208 93.4838 17.63C94.2399 18.052 94.829 18.6322 95.251 19.3707C95.673 20.1092 95.884 20.962 95.884 21.9291V30H92.4288ZM83.8568 30V10.9306H87.312V30H83.8568ZM100.715 30V11.9593H104.17V30H100.715ZM97.7346 20.2939V17.2607H107.151V20.2939H97.7346ZM109.793 30V11.4581H113.38V30H109.793ZM112.43 22.4039V19.2125H121.767V22.4039H112.43ZM112.43 14.6232V11.4581H122.215V14.6232H112.43ZM130.551 30.2638C129.267 30.2638 128.107 29.9736 127.069 29.3934C126.049 28.7955 125.232 27.9955 124.616 26.9932C124.018 25.9734 123.719 24.8392 123.719 23.5908C123.719 22.3424 124.018 21.2258 124.616 20.2411C125.214 19.2389 126.032 18.4476 127.069 17.8673C128.107 17.2695 129.258 16.9706 130.524 16.9706C131.825 16.9706 132.986 17.2695 134.006 17.8673C135.043 18.4476 135.861 19.2389 136.459 20.2411C137.057 21.2258 137.356 22.3424 137.356 23.5908C137.356 24.8392 137.057 25.9734 136.459 26.9932C135.861 27.9955 135.043 28.7955 134.006 29.3934C132.986 29.9736 131.834 30.2638 130.551 30.2638ZM130.524 27.046C131.175 27.046 131.746 26.9053 132.239 26.624C132.749 26.325 133.135 25.9206 133.399 25.4107C133.681 24.8832 133.821 24.2853 133.821 23.6172C133.821 22.949 133.681 22.3599 133.399 21.85C133.118 21.3401 132.731 20.9445 132.239 20.6631C131.746 20.3642 131.175 20.2147 130.524 20.2147C129.891 20.2147 129.329 20.3642 128.836 20.6631C128.344 20.9445 127.957 21.3401 127.676 21.85C127.394 22.3599 127.254 22.949 127.254 23.6172C127.254 24.2853 127.394 24.8832 127.676 25.4107C127.957 25.9206 128.344 26.325 128.836 26.624C129.329 26.9053 129.891 27.046 130.524 27.046ZM139.91 30V17.2607H143.365V30H139.91ZM143.365 22.9578L142.02 22.061C142.178 20.4961 142.635 19.2652 143.391 18.3685C144.147 17.4541 145.237 16.997 146.662 16.997C147.277 16.997 147.831 17.1025 148.323 17.3135C148.816 17.5069 149.264 17.8322 149.668 18.2893L147.506 20.7686C147.312 20.5576 147.075 20.3994 146.794 20.2939C146.53 20.1884 146.222 20.1356 145.87 20.1356C145.132 20.1356 144.525 20.373 144.051 20.8478C143.593 21.3049 143.365 22.0083 143.365 22.9578ZM153.162 30V11.9593H156.617V30H153.162ZM150.181 20.2939V17.2607H159.597V20.2939H150.181ZM170.442 30V22.694C170.442 21.9379 170.205 21.3225 169.73 20.8478C169.255 20.373 168.64 20.1356 167.884 20.1356C167.391 20.1356 166.952 20.2411 166.565 20.4521C166.178 20.6631 165.87 20.962 165.642 21.3489C165.431 21.7357 165.325 22.1841 165.325 22.694L163.98 22.0083C163.98 21.006 164.191 20.1356 164.613 19.3971C165.035 18.641 165.615 18.052 166.354 17.63C167.11 17.208 167.972 16.997 168.939 16.997C169.906 16.997 170.759 17.208 171.497 17.63C172.253 18.052 172.842 18.6322 173.264 19.3707C173.686 20.1092 173.897 20.962 173.897 21.9291V30H170.442ZM161.87 30V10.9306H165.325V30H161.87Z" fill="white"/>
</svg>
