<svg width="172" height="51" viewBox="0 0 172 51" fill="none" xmlns="http://www.w3.org/2000/svg">
<rect x="0.582608" y="0.534268" width="169.897" height="49.588" rx="4.46573" fill="black"/>
<rect x="0.582608" y="0.534268" width="169.897" height="49.588" rx="4.46573" stroke="#A6A6A6" stroke-width="1.06854"/>
<path d="M135.472 37.9941H137.835V22.1619H135.472V37.9941ZM156.756 27.8654L154.047 34.7292H153.966L151.155 27.8654H148.609L152.827 37.4584L150.422 42.7951H152.886L159.384 27.8654H156.756ZM143.354 36.196C142.581 36.196 141.501 35.8086 141.501 34.8514C141.501 33.6294 142.846 33.161 144.006 33.161C145.045 33.161 145.535 33.3846 146.165 33.6904C145.982 35.1571 144.719 36.196 143.354 36.196ZM143.64 27.519C141.929 27.519 140.157 28.2729 139.424 29.943L141.521 30.8186C141.97 29.943 142.804 29.6581 143.681 29.6581C144.903 29.6581 146.145 30.3907 146.165 31.6947V31.8575C145.737 31.6131 144.82 31.2466 143.701 31.2466C141.439 31.2466 139.138 32.4887 139.138 34.8108C139.138 36.9291 140.992 38.2939 143.069 38.2939C144.657 38.2939 145.535 37.581 146.083 36.7456H146.165V37.9684H148.447V31.898C148.447 29.0872 146.348 27.519 143.64 27.519ZM129.036 29.7926H125.675V24.3659H129.036C130.802 24.3659 131.805 25.8282 131.805 27.0792C131.805 28.3061 130.802 29.7926 129.036 29.7926ZM128.975 22.1619H123.313V37.9941H125.675V31.996H128.975C131.594 31.996 134.169 30.1003 134.169 27.0792C134.169 24.0587 131.594 22.1619 128.975 22.1619ZM98.0981 36.1989C96.4656 36.1989 95.0992 34.8315 95.0992 32.9552C95.0992 31.0571 96.4656 29.6704 98.0981 29.6704C99.7099 29.6704 100.975 31.0571 100.975 32.9552C100.975 34.8315 99.7099 36.1989 98.0981 36.1989ZM100.812 28.7519H100.73C100.2 28.1195 99.179 27.5483 97.8943 27.5483C95.2007 27.5483 92.7322 29.9153 92.7322 32.9552C92.7322 35.9743 95.2007 38.3206 97.8943 38.3206C99.179 38.3206 100.2 37.7492 100.73 37.0968H100.812V37.8714C100.812 39.9328 99.7099 41.034 97.9349 41.034C96.4869 41.034 95.5891 39.9937 95.2215 39.1166L93.1611 39.9734C93.7523 41.4011 95.3229 43.1562 97.9349 43.1562C100.71 43.1562 103.056 41.5238 103.056 37.5449V27.8747H100.812V28.7519ZM104.689 37.9941H107.055V22.1619H104.689V37.9941ZM110.544 32.7712C110.483 30.69 112.156 29.6294 113.359 29.6294C114.298 29.6294 115.093 30.0988 115.359 30.7717L110.544 32.7712ZM117.888 30.9754C117.44 29.7723 116.073 27.5483 113.278 27.5483C110.502 27.5483 108.197 29.7313 108.197 32.9344C108.197 35.9541 110.483 38.3206 113.542 38.3206C116.011 38.3206 117.44 36.8113 118.032 35.9337L116.195 34.7093C115.583 35.6072 114.747 36.1989 113.542 36.1989C112.339 36.1989 111.482 35.6479 110.932 34.5665L118.133 31.5879L117.888 30.9754ZM60.51 29.2009V31.4859H65.9777C65.8145 32.7712 65.386 33.7096 64.7331 34.3626C63.9371 35.158 62.6925 36.0356 60.51 36.0356C57.1435 36.0356 54.5117 33.3222 54.5117 29.9558C54.5117 26.5895 57.1435 23.8757 60.51 23.8757C62.3259 23.8757 63.6517 24.5899 64.6311 25.5081L66.2434 23.8959C64.8761 22.5904 63.0605 21.5907 60.51 21.5907C55.8983 21.5907 52.022 25.3448 52.022 29.9558C52.022 34.5665 55.8983 38.3206 60.51 38.3206C62.9987 38.3206 64.8761 37.5044 66.3448 35.9743C67.8547 34.4645 68.3241 32.3428 68.3241 30.6287C68.3241 30.0988 68.283 29.6091 68.2014 29.2009H60.51ZM74.5404 36.1989C72.9079 36.1989 71.5 34.8523 71.5 32.9344C71.5 30.9962 72.9079 29.6704 74.5404 29.6704C76.1723 29.6704 77.5802 30.9962 77.5802 32.9344C77.5802 34.8523 76.1723 36.1989 74.5404 36.1989ZM74.5404 27.5483C71.5608 27.5483 69.1334 29.8129 69.1334 32.9344C69.1334 36.0356 71.5608 38.3206 74.5404 38.3206C77.5189 38.3206 79.9469 36.0356 79.9469 32.9344C79.9469 29.8129 77.5189 27.5483 74.5404 27.5483ZM86.3343 36.1989C84.7029 36.1989 83.2945 34.8523 83.2945 32.9344C83.2945 30.9962 84.7029 29.6704 86.3343 29.6704C87.9668 29.6704 89.3742 30.9962 89.3742 32.9344C89.3742 34.8523 87.9668 36.1989 86.3343 36.1989ZM86.3343 27.5483C83.3558 27.5483 80.9283 29.8129 80.9283 32.9344C80.9283 36.0356 83.3558 38.3206 86.3343 38.3206C89.3139 38.3206 91.7414 36.0356 91.7414 32.9344C91.7414 29.8129 89.3139 27.5483 86.3343 27.5483Z" fill="white"/>
<path d="M56.3747 16.7578C55.2393 16.7578 54.2627 16.3583 53.4753 15.571C52.6876 14.7833 52.2886 13.7969 52.2886 12.6499C52.2886 11.5029 52.6878 10.5183 53.4753 9.72872C54.2627 8.94132 55.2394 8.54195 56.3747 8.54195C56.9532 8.54195 57.493 8.64186 58.0089 8.8499C58.5251 9.05796 58.9473 9.34679 59.2798 9.72476L59.3582 9.81405L58.4725 10.6996L58.3839 10.5907C58.1634 10.3198 57.883 10.1093 57.5276 9.95628C57.1735 9.80365 56.7857 9.73317 56.3747 9.73317C55.575 9.73317 54.9115 10.0047 54.3574 10.5568C54.3573 10.557 54.357 10.557 54.3569 10.5571C53.8154 11.1203 53.5431 11.8061 53.5431 12.6499C53.5431 13.4944 53.8157 14.1803 54.3579 14.7437C54.912 15.2955 55.5755 15.5686 56.3747 15.5686C57.1068 15.5686 57.7122 15.3642 58.1883 14.9596H58.1885C58.6316 14.5831 58.8976 14.0742 58.9917 13.4256H56.2481V12.2581H60.1774L60.1942 12.3649C60.2264 12.5702 60.2492 12.7683 60.2492 12.9586C60.2492 14.0479 59.9171 14.9371 59.2655 15.5913C58.5299 16.3711 57.5626 16.7578 56.3747 16.7578L56.3747 16.7578ZM90.4942 16.7578C89.357 16.7578 88.3918 16.3581 87.6146 15.571C87.6145 15.571 87.6144 15.5709 87.6143 15.5708C87.6142 15.5707 87.6142 15.5707 87.614 15.5705C86.8357 14.7919 86.4495 13.8053 86.4495 12.6499C86.4495 11.4944 86.8357 10.5078 87.614 9.7292C87.6141 9.72912 87.6142 9.72908 87.6143 9.72895L87.6146 9.7287C88.3919 8.94149 89.3571 8.54193 90.4942 8.54193C91.6291 8.54193 92.5946 8.94159 93.3718 9.74057C94.1504 10.519 94.5368 11.5038 94.5368 12.6499C94.5368 13.8053 94.1506 14.7919 93.3723 15.5705L93.372 15.5708C92.5943 16.3584 91.6198 16.7578 90.4942 16.7578L90.4942 16.7578ZM61.3736 16.5876V8.71213H61.5002H66.0771V9.90335H62.6064V12.0661H65.7368V13.2336H62.6064V15.3984H66.0771V16.5876H61.3736ZM68.9558 16.5876V9.90335H66.8266V8.71213H72.3177V9.90335H72.191H70.1885V16.5876H68.9558ZM75.827 16.5876V8.71213H77.0598V8.83877V16.5876H75.827ZM80.163 16.5876V9.90335H78.0339V8.71213H83.5249V9.90335H83.3983H81.3958V16.5876H80.163ZM95.6311 16.5876V8.71213H97.0211L100.559 14.3759L100.529 13.3006V8.71213H101.761V16.5876H100.541L96.8334 10.6377L96.8638 11.7122V11.7139V16.5876H95.6311ZM90.4942 15.5686C91.2939 15.5686 91.9467 15.2958 92.4789 14.7447L92.4796 14.7436L92.4804 14.7429C93.0201 14.203 93.2843 13.508 93.2843 12.6498C93.2843 11.7938 93.02 11.0964 92.4804 10.5568L92.4796 10.556L92.4789 10.5553C91.9468 10.0042 91.2941 9.73309 90.4942 9.73309C89.6929 9.73309 89.0402 10.0037 88.4981 10.5548L88.4976 10.5553C87.9678 11.108 87.7041 11.794 87.7041 12.6498C87.7041 13.5077 87.9677 14.1915 88.4976 14.7443L88.4981 14.7448C89.0403 15.296 89.6931 15.5685 90.4942 15.5685V15.5686Z" fill="white"/>
<path d="M26.2814 24.6002L12.7986 38.9107C12.7991 38.9137 12.8001 38.9162 12.8006 38.9191C13.2141 40.473 14.6334 41.6172 16.3178 41.6172C16.9912 41.6172 17.6234 41.4351 18.1655 41.1156L18.2086 41.0903L33.3853 32.3328L26.2814 24.6002Z" fill="#EA4335"/>
<path d="M39.922 22.1602L39.9091 22.1514L33.3569 18.353L25.9751 24.9216L33.3826 32.3281L39.9002 28.5675C41.0429 27.9506 41.8186 26.746 41.8186 25.3569C41.8186 23.9778 41.0533 22.7791 39.922 22.1602Z" fill="#FBBC04"/>
<path d="M12.798 11.7534C12.7169 12.0523 12.6743 12.3653 12.6743 12.6904V37.9777C12.6743 38.3021 12.7164 38.6163 12.7985 38.9141L26.7453 24.9697L12.798 11.7534Z" fill="#4285F4"/>
<path d="M26.3806 25.3281L33.3593 18.3515L18.1999 9.5623C17.6488 9.23227 17.0058 9.04181 16.3176 9.04181C14.6331 9.04181 13.212 10.188 12.7984 11.7438C12.7979 11.7453 12.7979 11.7464 12.7979 11.7478L26.3806 25.3281Z" fill="#34A853"/>
</svg>
