<svg width="20" height="21" viewBox="0 0 20 21" fill="none" xmlns="http://www.w3.org/2000/svg">
<g id="lets-icons:filter">
<g id="Group">
<path id="Vector" d="M9.99935 4.49219H16.666M3.33268 16.1589H5.83268M3.33268 4.49219H6.66602M9.16602 16.1589H16.666M14.166 10.3255H16.666M3.33268 10.3255H10.8327" stroke="black" stroke-width="1.3" stroke-linecap="round"/>
<path id="Vector_2" d="M6.66667 4.49479C6.66667 5.41527 7.41286 6.16146 8.33333 6.16146C9.25381 6.16146 10 5.41527 10 4.49479C10 3.57432 9.25381 2.82812 8.33333 2.82812C7.41286 2.82812 6.66667 3.57432 6.66667 4.49479Z" stroke="black" stroke-width="1.3" stroke-linecap="round"/>
<path id="Vector_3" d="M10.8327 10.3307C10.8327 11.2512 11.5789 11.9974 12.4993 11.9974C13.4198 11.9974 14.166 11.2512 14.166 10.3307C14.166 9.41025 13.4198 8.66406 12.4993 8.66406C11.5789 8.66406 10.8327 9.41025 10.8327 10.3307Z" stroke="black" stroke-width="1.3" stroke-linecap="round"/>
<path id="Vector_4" d="M5.83268 16.1589C5.83268 17.0793 6.57887 17.8255 7.49935 17.8255C8.41982 17.8255 9.16602 17.0793 9.16602 16.1589C9.16602 15.2384 8.41982 14.4922 7.49935 14.4922C6.57887 14.4922 5.83268 15.2384 5.83268 16.1589Z" stroke="black" stroke-width="1.3" stroke-linecap="round"/>
</g>
</g>
</svg>
