<svg width="24" height="24" viewBox="0 0 24 24" fill="none" xmlns="http://www.w3.org/2000/svg">
<g clip-path="url(#clip0_4944_106613)">
<path d="M11.0002 17.999H7.9412C7.6442 16.726 6.3042 15.685 5.7542 14.999C4.81239 13.8223 4.22215 12.4035 4.05147 10.906C3.88078 9.40846 4.1366 7.89321 4.78946 6.53474C5.44231 5.17628 6.46564 4.02987 7.74156 3.22758C9.01748 2.42529 10.4941 1.99976 12.0013 2C13.5085 2.00024 14.985 2.42625 16.2606 3.22895C17.5363 4.03164 18.5592 5.17838 19.2117 6.53705C19.8641 7.89573 20.1194 9.41106 19.9482 10.9085C19.7771 12.406 19.1864 13.8246 18.2442 15.001C17.6942 15.686 16.3562 16.727 16.0592 17.999H13.0002V12.999H11.0002V17.999ZM16.0002 19.999V20.999C16.0002 21.5294 15.7895 22.0381 15.4144 22.4132C15.0393 22.7883 14.5306 22.999 14.0002 22.999H10.0002C9.46977 22.999 8.96106 22.7883 8.58599 22.4132C8.21092 22.0381 8.0002 21.5294 8.0002 20.999V19.999H16.0002Z" fill="#401141"/>
</g>
<defs>
<clipPath id="clip0_4944_106613">
<rect width="24" height="24" fill="white"/>
</clipPath>
</defs>
</svg>
