<svg width="20" height="20" viewBox="0 0 20 20" fill="none" xmlns="http://www.w3.org/2000/svg">
<g id="Social" clip-path="url(#clip0_1597_78228)">
<path id="Vector" d="M19.995 20.0008V20H20V12.665C20 9.07667 19.2275 6.3125 15.0324 6.3125C13.0158 6.3125 11.6624 7.41917 11.1099 8.46833H11.0516V6.6475H7.0741V20H11.2158V13.3883C11.2158 11.6475 11.5458 9.96417 13.7016 9.96417C15.8258 9.96417 15.8574 11.9508 15.8574 13.5V20.0008H19.995Z" fill="white"/>
<path id="Vector_2" d="M0.329956 6.64844H4.47662V20.0009H0.329956V6.64844Z" fill="white"/>
<path id="Vector_3" d="M2.40167 0C1.07583 0 0 1.07583 0 2.40167C0 3.7275 1.07583 4.82583 2.40167 4.82583C3.7275 4.82583 4.80333 3.7275 4.80333 2.40167C4.8025 1.07583 3.72667 0 2.40167 0V0Z" fill="white"/>
</g>
<defs>
<clipPath id="clip0_1597_78228">
<rect width="20" height="20" fill="white"/>
</clipPath>
</defs>
</svg>
