<svg width="39" height="38" viewBox="0 0 39 38" fill="none" xmlns="http://www.w3.org/2000/svg">
<path d="M19.5 7.91667H32.1667" stroke="#323232" stroke-width="1.5" stroke-linecap="round" stroke-linejoin="round"/>
<ellipse cx="10.0002" cy="7.91667" rx="3.16667" ry="3.16667" stroke="#323232" stroke-width="1.5" stroke-linecap="round" stroke-linejoin="round"/>
<path d="M19.5 18.9999H32.1667" stroke="#323232" stroke-width="1.5" stroke-linecap="round" stroke-linejoin="round"/>
<path d="M19.5 30.0834H32.1667" stroke="#323232" stroke-width="1.5" stroke-linecap="round" stroke-linejoin="round"/>
<path d="M10.7918 19.0009C10.7913 19.4379 10.4368 19.7918 9.99983 19.7916C9.56286 19.7914 9.20868 19.4372 9.2085 19.0003C9.20831 18.5633 9.5622 18.2088 9.99916 18.2083C10.2095 18.208 10.4112 18.2914 10.56 18.4401C10.7087 18.5888 10.7921 18.7906 10.7918 19.0009" stroke="#323232" stroke-width="1.5" stroke-linecap="round" stroke-linejoin="round"/>
<path d="M10.7928 30.0844C10.7923 30.5214 10.4378 30.8753 10.0008 30.8751C9.56384 30.8749 9.20966 30.5207 9.20947 30.0837C9.20929 29.6468 9.56318 29.2923 10.0001 29.2917C10.2104 29.2915 10.4122 29.3749 10.5609 29.5236C10.7096 29.6723 10.7931 29.8741 10.7928 30.0844" stroke="#323232" stroke-width="1.5" stroke-linecap="round" stroke-linejoin="round"/>
</svg>
