<svg width="39" height="38" viewBox="0 0 39 38" fill="none" xmlns="http://www.w3.org/2000/svg">
<path d="M19.5 7.91667H32.1667" stroke="#323232" stroke-width="1.5" stroke-linecap="round" stroke-linejoin="round"/>
<path d="M19.5 18.9999H32.1667" stroke="#323232" stroke-width="1.5" stroke-linecap="round" stroke-linejoin="round"/>
<path d="M19.5 30.0834H32.1667" stroke="#323232" stroke-width="1.5" stroke-linecap="round" stroke-linejoin="round"/>
<ellipse cx="10.0002" cy="30.0834" rx="3.16667" ry="3.16667" stroke="#323232" stroke-width="1.5" stroke-linecap="round" stroke-linejoin="round"/>
<path d="M10.7918 7.91766C10.7913 8.35463 10.4368 8.70852 9.99983 8.70833C9.56286 8.70815 9.20868 8.35396 9.2085 7.917C9.20831 7.48003 9.5622 7.12555 9.99916 7.125C10.2095 7.12474 10.4112 7.20816 10.56 7.35687C10.7087 7.50558 10.7921 7.70736 10.7918 7.91766" stroke="#323232" stroke-width="1.5" stroke-linecap="round" stroke-linejoin="round"/>
<path d="M10.7918 19.0009C10.7913 19.4379 10.4368 19.7918 9.99983 19.7916C9.56286 19.7914 9.20868 19.4372 9.2085 19.0003C9.20831 18.5633 9.5622 18.2088 9.99916 18.2083C10.2095 18.208 10.4112 18.2914 10.56 18.4401C10.7087 18.5888 10.7921 18.7906 10.7918 19.0009" stroke="#323232" stroke-width="1.5" stroke-linecap="round" stroke-linejoin="round"/>
</svg>
