<svg width="30" height="30" viewBox="0 0 30 30" fill="none" xmlns="http://www.w3.org/2000/svg">
<g id="Lightforth 1" clip-path="url(#clip0_1690_3374)">
<g id="Group">
<g id="Layer 1">
<path id="Vector" d="M14.9837 29.9674C23.2589 29.9674 29.9674 23.2589 29.9674 14.9837C29.9674 6.70842 23.2589 0 14.9837 0C6.70842 0 0 6.70842 0 14.9837C0 23.2589 6.70842 29.9674 14.9837 29.9674Z" fill="#581959"/>
<path id="Vector_2" d="M11.3625 15.8281C11.3553 16.5909 11.5328 17.3441 11.8799 18.0234C12.227 18.7026 12.7333 19.2878 13.3556 19.7289L15.7852 19.7892C16.2442 19.7992 16.6889 19.6295 17.0245 19.3164C17.3602 19.0033 17.5603 18.5714 17.5823 18.1129C17.5931 17.8887 17.5588 17.6647 17.4816 17.4539C17.4044 17.2432 17.2858 17.0501 17.1327 16.886C16.9796 16.7218 16.7953 16.59 16.5904 16.4983C16.3856 16.4066 16.1645 16.3569 15.9401 16.3521L11.3947 16.2404L11.3625 15.8281Z" fill="white"/>
<path id="Vector_3" style="mix-blend-mode:multiply" opacity="0.57" d="M11.3625 15.8281C11.3553 16.5909 11.5328 17.3441 11.8799 18.0234C12.227 18.7026 12.7333 19.2878 13.3556 19.7289L15.7852 19.7892C16.2442 19.7992 16.6889 19.6295 17.0245 19.3164C17.3602 19.0033 17.5603 18.5714 17.5823 18.1129C17.5931 17.8887 17.5588 17.6647 17.4816 17.4539C17.4044 17.2432 17.2858 17.0501 17.1327 16.886C16.9796 16.7218 16.7953 16.59 16.5904 16.4983C16.3856 16.4066 16.1645 16.3569 15.9401 16.3521L11.3947 16.2404L11.3625 15.8281Z" fill="url(#paint0_linear_1690_3374)"/>
<path id="Vector_4" d="M7.24915 8.39741L7.99833 16.9612C8.06137 17.6886 8.39086 18.367 8.92354 18.8663C9.45622 19.3656 10.1545 19.6505 10.8844 19.6664L13.3552 19.7277C12.7329 19.2866 12.2266 18.7014 11.8795 18.0221C11.5324 17.3429 11.3549 16.5897 11.3621 15.8269L10.6793 8.03338C10.6604 7.8092 10.5968 7.59108 10.4921 7.39193C10.3874 7.19279 10.2439 7.01665 10.07 6.87395C9.89607 6.73125 9.69529 6.62488 9.47954 6.56114C9.26378 6.49739 9.03744 6.47756 8.81389 6.50283C8.35749 6.55216 7.93843 6.77787 7.64611 7.13182C7.35379 7.48576 7.21134 7.93992 7.24915 8.39741Z" fill="white"/>
<path id="Vector_5" d="M17.9822 14.5517C17.8477 13.359 17.2952 12.2524 16.4225 11.4283C16.1887 11.2024 15.9346 10.9988 15.6632 10.8199L13.3372 10.7595C13.1272 10.7494 12.9175 10.7843 12.7222 10.862C12.5268 10.9397 12.3503 11.0583 12.2047 11.2099C12.059 11.3615 11.9475 11.5425 11.8776 11.7408C11.8077 11.9391 11.7812 12.15 11.7996 12.3595C11.836 12.8069 12.0347 13.2256 12.3583 13.5367C12.6818 13.8479 13.108 14.03 13.5565 14.0489L17.9057 14.1615L17.9822 14.5517Z" fill="#FB6E3A"/>
<path id="Vector_6" style="mix-blend-mode:multiply" opacity="0.57" d="M17.9822 14.5517C17.8477 13.359 17.2952 12.2524 16.4225 11.4283C16.1887 11.2024 15.9346 10.9988 15.6632 10.8199L13.3372 10.7595C13.1272 10.7494 12.9175 10.7843 12.7222 10.862C12.5268 10.9397 12.3503 11.0583 12.2047 11.2099C12.059 11.3615 11.9475 11.5425 11.8776 11.7408C11.8077 11.9391 11.7812 12.15 11.7996 12.3595C11.836 12.8069 12.0347 13.2256 12.3583 13.5367C12.6818 13.8479 13.108 14.03 13.5565 14.0489L17.9057 14.1615L17.9822 14.5517Z" fill="url(#paint1_linear_1690_3374)"/>
<path id="Vector_7" d="M22.6932 21.6588L21.0742 13.4721C20.9265 12.764 20.5475 12.1251 19.9967 11.6561C19.446 11.1871 18.7548 10.9146 18.0322 10.8817L15.667 10.8203C15.9383 10.9992 16.1925 11.2029 16.4262 11.4287C17.2978 12.2533 17.8493 13.3598 17.9829 14.5522L19.4572 22.0058C19.6372 22.9108 20.505 23.5615 21.398 23.4669C22.291 23.3724 22.8712 22.5629 22.6932 21.6588Z" fill="#FB6E3A"/>
</g>
</g>
</g>
<defs>
<linearGradient id="paint0_linear_1690_3374" x1="15.8814" y1="16.8712" x2="10.8149" y2="18.8449" gradientUnits="userSpaceOnUse">
<stop stop-color="white" stop-opacity="0"/>
<stop offset="0.34" stop-color="#D3D3D3" stop-opacity="0.2"/>
<stop offset="0.82" stop-color="#5B5858" stop-opacity="0.75"/>
<stop offset="1" stop-color="#231F20"/>
</linearGradient>
<linearGradient id="paint1_linear_1690_3374" x1="13.5727" y1="13.6341" x2="18.0439" y2="11.4052" gradientUnits="userSpaceOnUse">
<stop stop-color="white" stop-opacity="0"/>
<stop offset="0.34" stop-color="#D3D3D3" stop-opacity="0.2"/>
<stop offset="0.82" stop-color="#5B5858" stop-opacity="0.75"/>
<stop offset="1" stop-color="#231F20"/>
</linearGradient>
<clipPath id="clip0_1690_3374">
<rect width="29.9674" height="29.9674" fill="white"/>
</clipPath>
</defs>
</svg>
