<svg width="30" height="31" viewBox="0 0 30 31" fill="none" xmlns="http://www.w3.org/2000/svg">
<g id="Lightforth 4" clip-path="url(#clip0_3649_5314)">
<g id="Group">
<g id="Layer 1">
<path id="Vector" d="M14.95 30.5406C23.2067 30.5406 29.9 23.8473 29.9 15.5906C29.9 7.33397 23.2067 0.640625 14.95 0.640625C6.69334 0.640625 0 7.33397 0 15.5906C0 23.8473 6.69334 30.5406 14.95 30.5406Z" fill="white"/>
<g id="Layer 1_2">
<path id="Vector_2" d="M11.3401 16.5078C11.3324 17.3146 11.5202 18.1112 11.8873 18.8296C12.2544 19.5481 12.7899 20.167 13.4481 20.6335L16.0178 20.6973C16.5032 20.7079 16.9735 20.5284 17.3286 20.1972C17.6836 19.866 17.8953 19.4093 17.9184 18.9243C17.9299 18.6872 17.8937 18.4502 17.812 18.2274C17.7303 18.0045 17.6049 17.8002 17.443 17.6266C17.2811 17.4531 17.0861 17.3137 16.8694 17.2167C16.6528 17.1197 16.4189 17.0671 16.1816 17.062L11.3741 16.9439L11.3401 16.5078Z" fill="white"/>
<path id="Vector_3" style="mix-blend-mode:multiply" d="M11.3401 16.5078C11.3324 17.3146 11.5202 18.1112 11.8873 18.8296C12.2544 19.5481 12.7899 20.167 13.4481 20.6335L16.0178 20.6973C16.5032 20.7079 16.9735 20.5284 17.3286 20.1972C17.6836 19.866 17.8953 19.4093 17.9184 18.9243C17.9299 18.6872 17.8937 18.4502 17.812 18.2274C17.7303 18.0045 17.6049 17.8002 17.443 17.6266C17.2811 17.4531 17.0861 17.3137 16.8694 17.2167C16.6528 17.1197 16.4189 17.0671 16.1816 17.062L11.3741 16.9439L11.3401 16.5078Z" fill="url(#paint0_linear_3649_5314)"/>
<path id="Vector_4" d="M6.9907 8.64008L7.78308 17.6977C7.84976 18.467 8.19825 19.1845 8.76164 19.7126C9.32503 20.2407 10.0636 20.542 10.8356 20.5588L13.4489 20.6237C12.7907 20.1571 12.2551 19.5382 11.888 18.8198C11.5209 18.1013 11.3332 17.3047 11.3408 16.498L10.6186 8.25506C10.5987 8.01795 10.5313 7.78726 10.4207 7.57663C10.31 7.366 10.1581 7.17971 9.9742 7.02878C9.79025 6.87785 9.57789 6.76534 9.3497 6.69792C9.1215 6.6305 8.88211 6.60953 8.64566 6.63626C8.16295 6.68843 7.71973 6.92716 7.41055 7.30151C7.10138 7.67586 6.95071 8.15621 6.9907 8.64008Z" fill="#581959"/>
<path id="Vector_5" d="M18.3439 15.1377C18.2017 13.8761 17.6172 12.7057 16.6942 11.8341C16.447 11.5953 16.1782 11.3798 15.8912 11.1906L13.4311 11.1268C13.209 11.1161 12.9872 11.153 12.7806 11.2352C12.5739 11.3174 12.3873 11.4428 12.2332 11.6032C12.0792 11.7635 11.9612 11.9549 11.8873 12.1647C11.8134 12.3744 11.7853 12.5975 11.8049 12.819C11.8434 13.2922 12.0535 13.735 12.3957 14.0641C12.7379 14.3932 13.1886 14.5859 13.663 14.6058L18.263 14.725L18.3439 15.1377Z" fill="#FB6E3A"/>
<path id="Vector_6" style="mix-blend-mode:multiply" opacity="0.57" d="M18.3439 15.1377C18.2017 13.8761 17.6172 12.7057 16.6942 11.8341C16.447 11.5953 16.1782 11.3798 15.8912 11.1906L13.4311 11.1268C13.209 11.1161 12.9872 11.153 12.7806 11.2352C12.5739 11.3174 12.3873 11.4428 12.2332 11.6032C12.0792 11.7635 11.9612 11.9549 11.8873 12.1647C11.8134 12.3744 11.7853 12.5975 11.8049 12.819C11.8434 13.2922 12.0535 13.735 12.3957 14.0641C12.7379 14.3932 13.1886 14.5859 13.663 14.6058L18.263 14.725L18.3439 15.1377Z" fill="url(#paint1_linear_3649_5314)"/>
<path id="Vector_7" d="M23.324 22.6666L21.6116 14.0078C21.4554 13.2589 21.0544 12.5831 20.4719 12.0871C19.8894 11.591 19.1585 11.3029 18.3942 11.268L15.8926 11.2031C16.1796 11.3923 16.4484 11.6077 16.6956 11.8466C17.6174 12.7187 18.2007 13.889 18.3421 15.1501L19.9013 23.0335C20.0917 23.9908 21.0096 24.6789 21.954 24.579C22.8985 24.479 23.5122 23.6228 23.324 22.6666Z" fill="#FB6E3A"/>
</g>
</g>
</g>
</g>
<defs>
<linearGradient id="paint0_linear_3649_5314" x1="16.1195" y1="17.6111" x2="10.9509" y2="20.3448" gradientUnits="userSpaceOnUse">
<stop stop-color="#581959"/>
<stop offset="0.608249" stop-color="#581959"/>
<stop offset="1" stop-color="#5B5858" stop-opacity="0.75"/>
</linearGradient>
<linearGradient id="paint1_linear_3649_5314" x1="13.6802" y1="14.1671" x2="18.4092" y2="11.8097" gradientUnits="userSpaceOnUse">
<stop stop-color="white" stop-opacity="0"/>
<stop offset="0.34" stop-color="#D3D3D3" stop-opacity="0.2"/>
<stop offset="0.82" stop-color="#5B5858" stop-opacity="0.75"/>
<stop offset="1" stop-color="#231F20"/>
</linearGradient>
<clipPath id="clip0_3649_5314">
<rect width="29.9" height="29.9" fill="white" transform="translate(0 0.648438)"/>
</clipPath>
</defs>
</svg>
