<svg width="126" height="31" viewBox="0 0 126 31" fill="none" xmlns="http://www.w3.org/2000/svg">
<g clip-path="url(#clip0_4963_2866)">
<path d="M14.949 30.5406C23.2057 30.5406 29.899 23.8473 29.899 15.5906C29.899 7.33397 23.2057 0.640625 14.949 0.640625C6.69237 0.640625 -0.000976562 7.33397 -0.000976562 15.5906C-0.000976562 23.8473 6.69237 30.5406 14.949 30.5406Z" fill="white"/>
<path d="M11.3401 16.5078C11.3324 17.3146 11.5202 18.1112 11.8873 18.8296C12.2544 19.5481 12.7899 20.167 13.4481 20.6335L16.0178 20.6973C16.5032 20.7079 16.9735 20.5284 17.3286 20.1972C17.6836 19.866 17.8953 19.4093 17.9184 18.9243C17.9299 18.6872 17.8937 18.4502 17.812 18.2274C17.7303 18.0045 17.6049 17.8002 17.443 17.6266C17.2811 17.4531 17.0861 17.3137 16.8694 17.2167C16.6528 17.1197 16.4189 17.0671 16.1816 17.062L11.3741 16.9439L11.3401 16.5078Z" fill="white"/>
<path style="mix-blend-mode:multiply" d="M11.3401 16.5078C11.3324 17.3146 11.5202 18.1112 11.8873 18.8296C12.2544 19.5481 12.7899 20.167 13.4481 20.6335L16.0178 20.6973C16.5032 20.7079 16.9735 20.5284 17.3286 20.1972C17.6836 19.866 17.8953 19.4093 17.9184 18.9243C17.9299 18.6872 17.8937 18.4502 17.812 18.2274C17.7303 18.0045 17.6049 17.8002 17.443 17.6266C17.2811 17.4531 17.0861 17.3137 16.8694 17.2167C16.6528 17.1197 16.4189 17.0671 16.1816 17.062L11.3741 16.9439L11.3401 16.5078Z" fill="url(#paint0_linear_4963_2866)"/>
<path d="M6.98973 8.64008L7.7821 17.6977C7.84878 18.467 8.19727 19.1845 8.76066 19.7126C9.32405 20.2407 10.0626 20.542 10.8346 20.5588L13.4479 20.6237C12.7897 20.1571 12.2541 19.5382 11.8871 18.8198C11.52 18.1013 11.3322 17.3047 11.3398 16.498L10.6177 8.25506C10.5977 8.01795 10.5304 7.78726 10.4197 7.57663C10.309 7.366 10.1572 7.17971 9.97322 7.02878C9.78927 6.87785 9.57691 6.76534 9.34872 6.69792C9.12052 6.6305 8.88113 6.60953 8.64469 6.63626C8.16198 6.68843 7.71876 6.92716 7.40958 7.30151C7.1004 7.67586 6.94974 8.15621 6.98973 8.64008Z" fill="#581959"/>
<path d="M18.3429 15.1377C18.2007 13.8761 17.6163 12.7057 16.6932 11.8341C16.446 11.5953 16.1772 11.3798 15.8902 11.1906L13.4301 11.1268C13.208 11.1161 12.9862 11.153 12.7796 11.2352C12.573 11.3174 12.3863 11.4428 12.2323 11.6032C12.0782 11.7635 11.9602 11.9549 11.8863 12.1647C11.8124 12.3744 11.7843 12.5975 11.8039 12.819C11.8424 13.2922 12.0525 13.735 12.3947 14.0641C12.7369 14.3932 13.1876 14.5859 13.662 14.6058L18.2621 14.725L18.3429 15.1377Z" fill="#FB6E3A"/>
<path style="mix-blend-mode:multiply" opacity="0.57" d="M18.3429 15.1377C18.2007 13.8761 17.6163 12.7057 16.6932 11.8341C16.446 11.5953 16.1772 11.3798 15.8902 11.1906L13.4301 11.1268C13.208 11.1161 12.9862 11.153 12.7796 11.2352C12.573 11.3174 12.3863 11.4428 12.2323 11.6032C12.0782 11.7635 11.9602 11.9549 11.8863 12.1647C11.8124 12.3744 11.7843 12.5975 11.8039 12.819C11.8424 13.2922 12.0525 13.735 12.3947 14.0641C12.7369 14.3932 13.1876 14.5859 13.662 14.6058L18.2621 14.725L18.3429 15.1377Z" fill="url(#paint1_linear_4963_2866)"/>
<path d="M23.324 22.6666L21.6116 14.0078C21.4554 13.2589 21.0544 12.5831 20.4719 12.0871C19.8894 11.591 19.1585 11.3029 18.3942 11.268L15.8926 11.2031C16.1796 11.3923 16.4484 11.6077 16.6956 11.8466C17.6174 12.7187 18.2007 13.889 18.3421 15.1501L19.9013 23.0335C20.0917 23.9908 21.0096 24.6789 21.954 24.579C22.8985 24.479 23.5122 23.6228 23.324 22.6666Z" fill="#FB6E3A"/>
</g>
<path d="M31.0686 19.7617H36.0158V21.3594H29.3448V10.3859H31.0686V19.7617ZM37.6387 21.3594V10.3859H39.3625V21.3594H37.6387ZM51.9654 13.4831L50.4378 14.1838C49.8632 12.7824 48.7421 11.8294 47.0042 11.8294C45.9251 11.8294 45.0282 12.2078 44.2994 12.9786C43.5847 13.7494 43.2203 14.7024 43.2203 15.8516C43.2203 17.0008 43.5706 17.9678 44.2854 18.7386C45.0001 19.5094 45.8971 19.9018 46.9902 19.9018C48.8402 19.9018 49.9894 18.8788 50.2557 17.4353H46.3175V15.8656H52.1196V16.4682C52.1196 17.8977 51.6571 19.089 50.7181 20.056C49.7932 21.009 48.5599 21.4855 47.0042 21.4855C45.3645 21.4855 44.0191 20.9529 42.982 19.9018C41.9449 18.8507 41.4264 17.5053 41.4264 15.8936C41.4264 14.2819 41.973 12.9365 43.0801 11.8574C44.1873 10.7783 45.4907 10.2317 47.0183 10.2317C48.2656 10.2317 49.3307 10.554 50.1996 11.1847C51.0685 11.8154 51.6571 12.5722 51.9654 13.4831ZM54.1032 21.3594V10.3859H55.827V14.9827H61.2507V10.3859H62.9745V21.3594H61.2507V16.6224H55.827V21.3594H54.1032ZM64.6564 11.9835V10.3859H73.3455V11.9835H69.8559V21.3594H68.1321V11.9835H64.6564ZM81.6164 16.7485H76.7533V21.3594H75.0295V10.3859H82.0228V11.9835H76.7533V15.1649H81.6164V16.7485ZM83.101 15.8936C83.101 14.31 83.6476 12.9646 84.7547 11.8714C85.8619 10.7783 87.1933 10.2317 88.7489 10.2317C90.3186 10.2317 91.65 10.7643 92.7291 11.8434C93.8222 12.9225 94.3688 14.2539 94.3688 15.8516C94.3688 17.4493 93.8222 18.7947 92.7151 19.8738C91.6079 20.9529 90.2765 21.4855 88.7069 21.4855C87.1372 21.4855 85.8058 20.9529 84.7267 19.9018C83.6476 18.8367 83.101 17.5053 83.101 15.8936ZM88.7349 19.8878C89.8 19.8878 90.697 19.4954 91.4397 18.7106C92.1825 17.9258 92.5609 16.9728 92.5609 15.8516C92.5609 14.7304 92.1825 13.7774 91.4397 13.0066C90.697 12.2218 89.8 11.8294 88.7349 11.8294C87.6558 11.8294 86.7588 12.2218 86.016 13.0066C85.2733 13.7774 84.9089 14.7304 84.9089 15.8516C84.9089 16.9728 85.2733 17.9258 86.016 18.7106C86.7588 19.4954 87.6558 19.8878 88.7349 19.8878ZM96.4485 21.3594V10.3859H100.569C101.844 10.3859 102.797 10.7082 103.4 11.3529C104.002 11.9975 104.311 12.7964 104.311 13.7634C104.311 15.291 103.456 16.4122 101.984 16.9027L104.591 21.3594H102.643L100.26 17.197H98.1723V21.3594H96.4485ZM98.1723 11.9835V15.6414H100.387C101.914 15.6414 102.559 14.8145 102.559 13.8054C102.559 12.9646 102.18 11.9835 100.387 11.9835H98.1723ZM105.195 11.9835V10.3859H113.884V11.9835H110.395V21.3594H108.671V11.9835H105.195ZM115.568 21.3594V10.3859H117.292V14.9827H122.716V10.3859H124.439V21.3594H122.716V16.6224H117.292V21.3594H115.568Z" fill="#1F2D3B"/>
<defs>
<linearGradient id="paint0_linear_4963_2866" x1="16.1195" y1="17.6111" x2="10.9509" y2="20.3448" gradientUnits="userSpaceOnUse">
<stop stop-color="#581959"/>
<stop offset="0.608249" stop-color="#581959"/>
<stop offset="1" stop-color="#5B5858" stop-opacity="0.75"/>
</linearGradient>
<linearGradient id="paint1_linear_4963_2866" x1="13.6792" y1="14.1671" x2="18.4082" y2="11.8097" gradientUnits="userSpaceOnUse">
<stop stop-color="white" stop-opacity="0"/>
<stop offset="0.34" stop-color="#D3D3D3" stop-opacity="0.2"/>
<stop offset="0.82" stop-color="#5B5858" stop-opacity="0.75"/>
<stop offset="1" stop-color="#231F20"/>
</linearGradient>
<clipPath id="clip0_4963_2866">
<rect width="29.9" height="29.9" fill="white" transform="translate(0 0.648438)"/>
</clipPath>
</defs>
</svg>
