<svg width="44" height="27" viewBox="0 0 44 27" fill="none" xmlns="http://www.w3.org/2000/svg">
<g id="Ask Mastercard Logo" clip-path="url(#clip0_3529_14857)">
<g id="Components   Sprint 3">
<g id="assets / logo / mastercard / symbol">
<path id="Fill 1" fill-rule="evenodd" clip-rule="evenodd" d="M15.8872 24.0785H27.6635V2.88184H15.8872V24.0785Z" fill="#FF5F00"/>
<path id="Fill 2" fill-rule="evenodd" clip-rule="evenodd" d="M16.6345 13.4805C16.6345 9.18025 18.6447 5.35028 21.7749 2.88222C19.4854 1.07695 16.5971 0 13.4575 0C6.02497 0 0 6.03554 0 13.4805C0 20.9256 6.02497 26.9611 13.4575 26.9611C16.5971 26.9611 19.4854 25.8842 21.7749 24.0789C18.6447 21.6104 16.6345 17.7808 16.6345 13.4805Z" fill="#EB001B"/>
<path id="Fill 4" fill-rule="evenodd" clip-rule="evenodd" d="M43.1291 21.8333V21.3101H42.9926L42.836 21.67L42.679 21.3101H42.5425V21.8333H42.6386V21.4386L42.7859 21.779H42.8857L43.033 21.4378V21.8333H43.1291ZM42.2651 21.8333V21.3993H42.4401V21.3109H41.9952V21.3993H42.1698V21.8333H42.2651ZM43.5493 13.4798C43.5493 20.9248 37.524 26.9604 30.0918 26.9604C26.9522 26.9604 24.0635 25.8834 21.7744 24.0781C24.9047 21.6101 26.9149 17.7801 26.9149 13.4798C26.9149 9.1799 24.9047 5.34992 21.7744 2.88148C24.0635 1.07621 26.9522 -0.000732422 30.0918 -0.000732422C37.524 -0.000732422 43.5493 6.03481 43.5493 13.4798Z" fill="#F79E1B"/>
</g>
</g>
</g>
<defs>
<clipPath id="clip0_3529_14857">
<rect width="44" height="27" fill="white"/>
</clipPath>
</defs>
</svg>
