<svg width="14" height="15" viewBox="0 0 14 15" fill="none" xmlns="http://www.w3.org/2000/svg">
<g id="mobile">
<path id="Vector" d="M12.3327 4.16927V10.8359C12.3327 13.5026 11.666 14.1693 8.99935 14.1693H4.99935C2.33268 14.1693 1.66602 13.5026 1.66602 10.8359V4.16927C1.66602 1.5026 2.33268 0.835938 4.99935 0.835938H8.99935C11.666 0.835938 12.3327 1.5026 12.3327 4.16927Z" stroke="#727880" stroke-width="1.5" stroke-linecap="round" stroke-linejoin="round"/>
<path id="Vector_2" d="M8.33268 3.17188H5.66602" stroke="#727880" stroke-width="1.5" stroke-linecap="round" stroke-linejoin="round"/>
<path id="Vector_3" d="M7.00013 12.2385C7.57082 12.2385 8.03346 11.7759 8.03346 11.2052C8.03346 10.6345 7.57082 10.1719 7.00013 10.1719C6.42944 10.1719 5.9668 10.6345 5.9668 11.2052C5.9668 11.7759 6.42944 12.2385 7.00013 12.2385Z" stroke="#727880" stroke-width="1.5" stroke-linecap="round" stroke-linejoin="round"/>
</g>
</svg>
