<svg width="16" height="16" viewBox="0 0 16 16" fill="none" xmlns="http://www.w3.org/2000/svg">
<g id="more">
<path id="Vector" d="M3.33333 6.66406C2.6 6.66406 2 7.26406 2 7.9974C2 8.73073 2.6 9.33073 3.33333 9.33073C4.06667 9.33073 4.66667 8.73073 4.66667 7.9974C4.66667 7.26406 4.06667 6.66406 3.33333 6.66406Z" stroke="#9DA2A7"/>
<path id="Vector_2" d="M12.6673 6.66406C11.934 6.66406 11.334 7.26406 11.334 7.9974C11.334 8.73073 11.934 9.33073 12.6673 9.33073C13.4007 9.33073 14.0007 8.73073 14.0007 7.9974C14.0007 7.26406 13.4007 6.66406 12.6673 6.66406Z" stroke="#9DA2A7"/>
<path id="Vector_3" d="M7.99935 6.66406C7.26602 6.66406 6.66602 7.26406 6.66602 7.9974C6.66602 8.73073 7.26602 9.33073 7.99935 9.33073C8.73268 9.33073 9.33268 8.73073 9.33268 7.9974C9.33268 7.26406 8.73268 6.66406 7.99935 6.66406Z" stroke="#9DA2A7"/>
</g>
</svg>
