<svg width="10" height="10" viewBox="0 0 10 10" fill="none" xmlns="http://www.w3.org/2000/svg">
<path d="M9.99976 4.5V9C9.99976 9.13261 9.94708 9.25979 9.85331 9.35355C9.75954 9.44732 9.63236 9.5 9.49976 9.5H0.499756C0.367148 9.5 0.239971 9.44732 0.146202 9.35355C0.0524343 9.25979 -0.000244141 9.13261 -0.000244141 9V4.5H9.99976ZM9.99976 2.5H-0.000244141V1C-0.000244141 0.867392 0.0524343 0.740215 0.146202 0.646447C0.239971 0.552678 0.367148 0.5 0.499756 0.5H9.49976C9.63236 0.5 9.75954 0.552678 9.85331 0.646447C9.94708 0.740215 9.99976 0.867392 9.99976 1V2.5Z" fill="#3F3F44"/>
</svg>
