<svg width="24" height="24" viewBox="0 0 24 24" fill="none" xmlns="http://www.w3.org/2000/svg">
<g id="vuesax/linear/notification">
<g id="notification">
<path id="Vector" d="M12.0196 2.90625C8.7096 2.90625 6.0196 5.59625 6.0196 8.90625V11.7963C6.0196 12.4063 5.7596 13.3362 5.4496 13.8562L4.2996 15.7663C3.5896 16.9463 4.0796 18.2563 5.3796 18.6963C9.6896 20.1363 14.3396 20.1363 18.6496 18.6963C19.8596 18.2963 20.3896 16.8663 19.7296 15.7663L18.5796 13.8562C18.2796 13.3362 18.0196 12.4063 18.0196 11.7963V8.90625C18.0196 5.60625 15.3196 2.90625 12.0196 2.90625Z" stroke="#9C9CA4" stroke-width="1.5" stroke-miterlimit="10" stroke-linecap="round"/>
<path id="Vector_2" d="M13.8699 3.1975C13.5599 3.1075 13.2399 3.0375 12.9099 2.9975C11.9499 2.8775 11.0299 2.9475 10.1699 3.1975C10.4599 2.4575 11.1799 1.9375 12.0199 1.9375C12.8599 1.9375 13.5799 2.4575 13.8699 3.1975Z" stroke="#9C9CA4" stroke-width="1.5" stroke-miterlimit="10" stroke-linecap="round" stroke-linejoin="round"/>
<path id="Vector_3" d="M15.0195 19.0625C15.0195 20.7125 13.6695 22.0625 12.0195 22.0625C11.1995 22.0625 10.4395 21.7225 9.89953 21.1825C9.35953 20.6425 9.01953 19.8825 9.01953 19.0625" stroke="#9C9CA4" stroke-width="1.5" stroke-miterlimit="10"/>
</g>
</g>
</svg>
