<svg width="12" height="12" viewBox="0 0 12 12" fill="none" xmlns="http://www.w3.org/2000/svg">
<g clip-path="url(#clip0_4944_103139)">
<path d="M1.5 1.496C1.5 1.222 1.7235 1 1.9995 1H8L10.5 3.5V10.4965C10.5005 10.5622 10.488 10.6273 10.4633 10.6881C10.4386 10.749 10.4021 10.8043 10.356 10.8511C10.3099 10.8978 10.2551 10.9351 10.1946 10.9606C10.1341 10.9862 10.0692 10.9995 10.0035 11H1.9965C1.86519 10.9991 1.73951 10.9465 1.64661 10.8537C1.55371 10.7609 1.50105 10.6353 1.5 10.504V1.496ZM2.5 2V10H9.5V4H8V7H5V8H4V4H7.5V2H2.5ZM5 5V6H7V5H5Z" fill="#FDAB62"/>
</g>
<defs>
<clipPath id="clip0_4944_103139">
<rect width="12" height="12" fill="white"/>
</clipPath>
</defs>
</svg>
