<svg width="40" height="40" viewBox="0 0 40 40" fill="none" xmlns="http://www.w3.org/2000/svg">
<g id="Package">
<path id="Vector" opacity="0.2" d="M5.1731 11.6562C5.05973 11.8485 4.99996 12.0677 5 12.2909V27.7038C5 27.9256 5.05902 28.1434 5.17099 28.3348C5.28296 28.5263 5.44386 28.6845 5.63717 28.7933L19.3872 36.5276C19.5743 36.6329 19.7853 36.6882 20 36.6882L20.0016 36.6882L20.1483 19.9973L5.17313 11.6563L5.1731 11.6562Z" fill="#FFB23F"/>
<path id="Vector_2" d="M35 27.7098V12.2969C35 12.0751 34.941 11.8573 34.829 11.6658C34.717 11.4744 34.5561 11.3161 34.3628 11.2074L20.6128 3.47303C20.4257 3.36779 20.2147 3.3125 20 3.3125C19.7853 3.3125 19.5743 3.36779 19.3872 3.47303L5.63717 11.2074C5.44386 11.3161 5.28296 11.4744 5.17099 11.6658C5.05902 11.8573 5 12.0751 5 12.2969V27.7098C5 27.9315 5.05902 28.1494 5.17099 28.3408C5.28296 28.5323 5.44386 28.6905 5.63717 28.7992L19.3872 36.5336C19.5743 36.6388 19.7853 36.6941 20 36.6941C20.2147 36.6941 20.4257 36.6388 20.6128 36.5336L34.3628 28.7992C34.5561 28.6905 34.717 28.5323 34.829 28.3408C34.941 28.1494 35 27.9315 35 27.7098Z" stroke="#FFB23F" stroke-width="2.5" stroke-linecap="round" stroke-linejoin="round"/>
<path id="Vector_3" d="M27.6597 23.8298V15.7048L12.5 7.34375" stroke="#FFB23F" stroke-width="2.5" stroke-linecap="round" stroke-linejoin="round"/>
<path id="Vector_4" d="M34.8274 11.6578L20.148 19.9973L5.17285 11.6562" stroke="#FFB23F" stroke-width="2.5" stroke-linecap="round" stroke-linejoin="round"/>
<path id="Vector_5" d="M20.1481 20L20.0015 36.6908" stroke="#FFB23F" stroke-width="2.5" stroke-linecap="round" stroke-linejoin="round"/>
</g>
</svg>
