<svg width="24" height="24" viewBox="0 0 24 24" fill="none" xmlns="http://www.w3.org/2000/svg">
<path d="M10.1341 11.8649C10.1886 11.9195 10.2049 12.0015 10.1754 12.0727C10.1459 12.144 10.0764 12.1905 9.99923 12.1905C9.9221 12.1905 9.85257 12.144 9.82306 12.0727C9.79354 12.0015 9.80986 11.9195 9.8644 11.8649C9.93894 11.7906 10.0595 11.7906 10.1341 11.8649" stroke="#323232" stroke-width="1.5" stroke-linecap="round" stroke-linejoin="round"/>
<path d="M10.9996 17.0021H3.99668C3.46598 17.0022 2.95698 16.7915 2.58172 16.4162C2.20646 16.041 1.9957 15.532 1.99585 15.0013V8.99876C1.9957 8.46806 2.20646 7.95905 2.58172 7.58379C2.95698 7.20853 3.46598 6.99778 3.99668 6.99792H10.9996" stroke="#323232" stroke-width="1.5" stroke-linecap="round" stroke-linejoin="round"/>
<path d="M6.13236 11.8649C6.1869 11.9195 6.20321 12.0015 6.1737 12.0727C6.14418 12.144 6.07465 12.1905 5.99752 12.1905C5.9204 12.1905 5.85086 12.144 5.82135 12.0727C5.79183 12.0015 5.80815 11.9195 5.86269 11.8649C5.93723 11.7906 6.05782 11.7906 6.13236 11.8649" stroke="#323232" stroke-width="1.5" stroke-linecap="round" stroke-linejoin="round"/>
<rect x="14.001" y="10.4994" width="8.00333" height="6.50271" rx="1.65" stroke="#323232" stroke-width="1.5" stroke-linecap="round" stroke-linejoin="round"/>
<path d="M15.531 10.4994V8.46912C15.531 7.10408 16.6376 5.9975 18.0026 5.9975V5.9975C18.6581 5.9975 19.2868 6.2579 19.7503 6.72142C20.2138 7.18494 20.4742 7.8136 20.4742 8.46912V8.46912V10.5163" stroke="#323232" stroke-width="1.5" stroke-linecap="round" stroke-linejoin="round"/>
</svg>
