<svg width="24" height="24" viewBox="0 0 24 24" fill="none" xmlns="http://www.w3.org/2000/svg">
<g id="Group">
<path id="Path" d="M2.99658 7.99832H21.0041" stroke="#323232" stroke-width="1.5" stroke-linecap="round" stroke-linejoin="round"/>
<path id="Path_2" d="M9.49909 12H6.99805" stroke="#323232" stroke-width="1.5" stroke-linecap="round" stroke-linejoin="round"/>
<path id="Path_3" d="M9.9995 18.0025H5.99783C4.34029 18.0025 2.99658 16.6588 2.99658 15.0012V6.99789C2.99658 5.34035 4.34029 3.99664 5.99783 3.99664H18.0028C19.6604 3.99664 21.0041 5.34035 21.0041 6.99789V10.9996" stroke="#323232" stroke-width="1.5" stroke-linecap="round" stroke-linejoin="round"/>
<path id="Path_4" fill-rule="evenodd" clip-rule="evenodd" d="M13.4287 17.6354C13.4287 19.236 15.6776 20.4365 16.7111 20.8947C17.0323 21.0398 17.4003 21.0398 17.7215 20.8947C18.7549 20.4315 21.0039 19.242 21.0039 17.6354V15.0603C21.0034 14.5286 20.6697 14.0541 20.1695 13.8738L18.2417 13.1795C17.5783 12.9404 16.8523 12.9404 16.1889 13.1795L14.2631 13.8728C13.7623 14.053 13.4285 14.5281 13.4287 15.0603V17.6354Z" stroke="#323232" stroke-width="1.5" stroke-linecap="round" stroke-linejoin="round"/>
</g>
</svg>
