<svg width="63" height="16" viewBox="0 0 63 16" fill="none" xmlns="http://www.w3.org/2000/svg">
<g id="PayPal Logo">
<path id="Vector" d="M23.4782 3.27234H20.0035C19.8885 3.27227 19.7772 3.31141 19.6898 3.3827C19.6023 3.45399 19.5444 3.55275 19.5265 3.66119L18.1211 12.164C18.1147 12.2034 18.1173 12.2438 18.1287 12.2822C18.1401 12.3206 18.1602 12.3562 18.1874 12.3865C18.2146 12.4168 18.2484 12.4411 18.2865 12.4578C18.3245 12.4745 18.3658 12.4831 18.4077 12.483H20.0665C20.1816 12.4831 20.293 12.4439 20.3804 12.3725C20.4679 12.3011 20.5258 12.2022 20.5436 12.0937L20.9226 9.80034C20.9404 9.6919 20.9982 9.59309 21.0856 9.52171C21.173 9.45033 21.2842 9.41107 21.3992 9.41101H22.4991C24.788 9.41101 26.1089 8.35404 26.4539 6.25949C26.6094 5.34313 26.4605 4.62313 26.0109 4.11888C25.517 3.56519 24.6411 3.27234 23.4782 3.27234ZM23.879 6.37779C23.689 7.56761 22.7364 7.56761 21.8153 7.56761H21.291L21.6588 5.34555C21.6696 5.28054 21.7043 5.22133 21.7567 5.17858C21.8092 5.13583 21.8759 5.11234 21.9448 5.11234H22.1852C22.8126 5.11234 23.4045 5.11234 23.7104 5.45367C23.8928 5.65731 23.9486 5.95985 23.879 6.37779ZM33.8645 6.33949H32.2006C32.1317 6.33949 32.065 6.36298 32.0125 6.40573C31.9601 6.44849 31.9254 6.50769 31.9146 6.5727L31.8409 7.01682L31.7246 6.85585C31.3644 6.35695 30.5611 6.19016 29.7594 6.19016C27.9207 6.19016 26.3503 7.51913 26.0444 9.38337C25.8854 10.3133 26.1115 11.2025 26.6643 11.8226C27.1713 12.3928 27.8968 12.6304 28.76 12.6304C30.2415 12.6304 31.0631 11.7213 31.0631 11.7213L30.9889 12.1625C30.9823 12.202 30.9847 12.2423 30.996 12.2808C31.0073 12.3192 31.0272 12.3549 31.0544 12.3853C31.0815 12.4157 31.1152 12.4402 31.1532 12.457C31.1912 12.4737 31.2326 12.4825 31.2744 12.4825H32.7732C32.8883 12.4826 32.9997 12.4434 33.0871 12.372C33.1746 12.3006 33.2325 12.2017 33.2503 12.0932L34.1496 6.65852C34.1562 6.61916 34.1538 6.5789 34.1425 6.54052C34.1312 6.50213 34.1113 6.46655 34.0842 6.43621C34.0571 6.40588 34.0234 6.38152 33.9855 6.36482C33.9476 6.34812 33.9063 6.33948 33.8645 6.33949ZM31.5452 9.42991C31.3847 10.3371 30.6302 10.946 29.6679 10.946C29.1848 10.946 28.7986 10.7982 28.5507 10.5179C28.3048 10.2396 28.2113 9.84349 28.2895 9.40228C28.4394 8.50288 29.2066 7.87404 30.1541 7.87404C30.6266 7.87404 31.0107 8.02385 31.2638 8.30652C31.5173 8.5921 31.6179 8.99064 31.5452 9.42991ZM42.7262 6.33949H41.0542C40.9753 6.33961 40.8977 6.35809 40.828 6.39332C40.7583 6.42855 40.6987 6.47947 40.6543 6.54167L38.3482 9.78337L37.3707 6.66822C37.3407 6.57321 37.2794 6.48994 37.196 6.43073C37.1125 6.37153 37.0113 6.33954 36.9073 6.33949H35.2643C35.2181 6.33937 35.1727 6.34977 35.1316 6.36982C35.0905 6.38986 35.0551 6.41898 35.0282 6.45474C35.0013 6.4905 34.9838 6.53188 34.977 6.57542C34.9703 6.61896 34.9745 6.66341 34.9894 6.70507L36.8311 11.8629L35.0996 14.1955C35.0689 14.2368 35.0506 14.2855 35.0469 14.3361C35.0432 14.3867 35.0541 14.4373 35.0785 14.4823C35.1029 14.5274 35.1398 14.5652 35.1852 14.5916C35.2306 14.6179 35.2827 14.6319 35.3359 14.6319H37.0059C37.0839 14.632 37.1607 14.614 37.2298 14.5796C37.2989 14.5451 37.3582 14.4952 37.4027 14.434L42.964 6.77343C42.9941 6.73198 43.0118 6.68346 43.0151 6.6331C43.0184 6.58275 43.0072 6.5325 42.9827 6.48779C42.9582 6.44309 42.9213 6.40563 42.8761 6.37949C42.8309 6.35335 42.7791 6.33951 42.7262 6.33949Z" fill="#253B80"/>
<path id="Vector_2" d="M48.262 3.27221H44.7868C44.6719 3.27226 44.5607 3.31145 44.4733 3.38273C44.386 3.45402 44.3281 3.55271 44.3102 3.66106L42.9049 12.1639C42.8984 12.2032 42.9009 12.2435 42.9122 12.2819C42.9236 12.3203 42.9435 12.3559 42.9706 12.3862C42.9978 12.4165 43.0315 12.4408 43.0694 12.4575C43.1074 12.4742 43.1487 12.4829 43.1905 12.4829H44.9738C45.0542 12.4828 45.132 12.4553 45.1931 12.4053C45.2542 12.3554 45.2946 12.2862 45.3071 12.2104L45.7059 9.80021C45.7237 9.69177 45.7815 9.59296 45.8689 9.52158C45.9562 9.4502 46.0674 9.41094 46.1825 9.41088H47.2819C49.5712 9.41088 50.8917 8.35391 51.2372 6.25937C51.3932 5.343 51.2433 4.623 50.7936 4.11876C50.3003 3.56506 49.4249 3.27221 48.262 3.27221ZM48.6628 6.37767C48.4733 7.56749 47.5207 7.56749 46.5991 7.56749H46.0753L46.4436 5.34543C46.4542 5.28041 46.4888 5.22116 46.5411 5.17838C46.5935 5.1356 46.6602 5.11213 46.7291 5.11221H46.9694C47.5964 5.11221 48.1888 5.11221 48.4947 5.45355C48.677 5.65718 48.7324 5.95973 48.6628 6.37767ZM58.6478 6.33937H56.9849C56.916 6.33918 56.8492 6.36262 56.7968 6.40542C56.7444 6.44821 56.7099 6.50752 56.6994 6.57258L56.6257 7.0167L56.5089 6.85573C56.1487 6.35682 55.3459 6.19003 54.5442 6.19003C52.7055 6.19003 51.1356 7.519 50.8297 9.38324C50.6712 10.3132 50.8963 11.2024 51.4491 11.8225C51.9571 12.3927 52.6816 12.6303 53.5448 12.6303C55.0263 12.6303 55.8479 11.7212 55.8479 11.7212L55.7737 12.1624C55.7671 12.2019 55.7695 12.2424 55.7809 12.2809C55.7923 12.3194 55.8123 12.3551 55.8395 12.3856C55.8668 12.416 55.9006 12.4404 55.9387 12.4571C55.9768 12.4739 56.0183 12.4825 56.0602 12.4824H57.5585C57.6735 12.4823 57.7848 12.4431 57.8721 12.3717C57.9595 12.3003 58.0173 12.2015 58.0351 12.0931L58.9349 6.6584C58.9413 6.61891 58.9386 6.57858 58.9271 6.54017C58.9156 6.50175 58.8955 6.46617 58.8683 6.43586C58.841 6.40555 58.8072 6.38123 58.7691 6.36457C58.7311 6.34792 58.6897 6.33932 58.6478 6.33937ZM56.3285 9.42979C56.169 10.3369 55.4135 10.9459 54.4512 10.9459C53.9691 10.9459 53.5819 10.798 53.334 10.5178C53.0881 10.2395 52.9956 9.84337 53.0728 9.40215C53.2237 8.50276 53.9899 7.87391 54.9374 7.87391C55.4099 7.87391 55.794 8.02373 56.047 8.3064C56.3016 8.59197 56.4022 8.99052 56.3285 9.42979ZM60.6095 3.50543L59.1833 12.1639C59.1768 12.2032 59.1793 12.2435 59.1906 12.2819C59.202 12.3203 59.2219 12.3559 59.249 12.3862C59.2762 12.4165 59.3099 12.4408 59.3478 12.4575C59.3858 12.4742 59.4271 12.4829 59.4689 12.4829H60.9026C61.1409 12.4829 61.3431 12.318 61.3797 12.0935L62.786 3.59124C62.7925 3.55183 62.79 3.51154 62.7787 3.47313C62.7674 3.43473 62.7474 3.39912 62.7203 3.36876C62.6932 3.3384 62.6595 3.31401 62.6215 3.29726C62.5836 3.28051 62.5423 3.2718 62.5005 3.27173H60.895C60.8261 3.27196 60.7595 3.29561 60.7072 3.33843C60.6548 3.38125 60.6202 3.44045 60.6095 3.50543Z" fill="#179BD7"/>
<path id="Vector_3" d="M3.6916 14.1353L3.95732 12.5246L3.36543 12.5115H0.539062L2.50324 0.626401C2.50909 0.590087 2.52841 0.556987 2.5577 0.533135C2.58698 0.509284 2.62427 0.496268 2.66277 0.496462H7.42842C9.01053 0.496462 10.1024 0.810644 10.6724 1.43077C10.9396 1.72167 11.1099 2.02567 11.1922 2.36022C11.2785 2.71125 11.2801 3.13064 11.1957 3.64216L11.1896 3.67949V4.00725L11.4569 4.15173C11.6609 4.25037 11.8443 4.3838 11.9979 4.54543C12.2266 4.79416 12.3744 5.11028 12.4369 5.48507C12.5014 5.87052 12.4801 6.32919 12.3744 6.84846C12.2525 7.4458 12.0554 7.96604 11.7891 8.39174C11.5542 8.77309 11.2384 9.10338 10.8619 9.36143C10.5083 9.60095 10.0881 9.78277 9.61309 9.89913C9.15279 10.0136 8.62796 10.0712 8.05232 10.0712H7.68143C7.41622 10.0712 7.15863 10.1624 6.95642 10.3258C6.7545 10.4909 6.62055 10.7191 6.57842 10.9697L6.55048 11.1146L6.08103 13.9534L6.05969 14.0577C6.0541 14.0906 6.04445 14.1071 6.03022 14.1183C6.01644 14.129 5.99925 14.135 5.98145 14.1353H3.6916Z" fill="#253B80"/>
<path id="Vector_4" d="M11.7098 3.71729C11.6956 3.80407 11.6793 3.8928 11.6611 3.98395C11.0326 7.06322 8.88245 8.12698 6.13636 8.12698H4.73817C4.40234 8.12698 4.11935 8.35971 4.06702 8.67583L3.35115 13.0084L3.14844 14.2366C3.14036 14.2853 3.14344 14.3351 3.15747 14.3825C3.1715 14.43 3.19615 14.474 3.2297 14.5115C3.26326 14.549 3.30494 14.5792 3.35187 14.5998C3.3988 14.6205 3.44986 14.6312 3.50154 14.6312H5.9814C6.27506 14.6312 6.52452 14.4276 6.57076 14.1512L6.59515 14.031L7.06206 11.2033L7.09203 11.0482C7.13776 10.7709 7.38773 10.5672 7.68139 10.5672H8.05227C10.4549 10.5672 12.3358 9.63632 12.8855 6.9425C13.1151 5.81716 12.9963 4.87753 12.3886 4.21668C12.196 4.01225 11.966 3.84302 11.7098 3.71729Z" fill="#179BD7"/>
<path id="Vector_5" d="M11.0523 3.46728C10.8516 3.41188 10.6475 3.36864 10.4411 3.33782C10.0333 3.27801 9.6211 3.24932 9.20851 3.252H5.47322C5.33106 3.2519 5.19356 3.30033 5.08556 3.38854C4.97757 3.47675 4.9062 3.59893 4.88437 3.73297L4.08976 8.53588L4.06689 8.676C4.09165 8.52311 4.17293 8.38372 4.29603 8.28305C4.41914 8.18238 4.57593 8.12708 4.73805 8.12715H6.13624C8.88233 8.12715 11.0325 7.06291 11.6609 3.98413C11.6797 3.89297 11.6955 3.80425 11.7097 3.71746C11.5439 3.63447 11.371 3.56489 11.193 3.50946C11.1463 3.49468 11.0994 3.48062 11.0523 3.46728Z" fill="#222D65"/>
<path id="Vector_6" d="M4.88449 3.73285C4.90613 3.59876 4.97746 3.47653 5.08551 3.38837C5.19356 3.3002 5.33117 3.25194 5.47333 3.25236H9.20862C9.65115 3.25236 10.0642 3.28 10.4412 3.33818C10.6963 3.37644 10.9479 3.43367 11.1936 3.50933C11.3791 3.568 11.5513 3.63733 11.7103 3.71733C11.8973 2.57939 11.7088 1.80461 11.0641 1.10303C10.3533 0.330667 9.07043 0 7.42887 0H2.66323C2.32791 0 2.04187 0.232727 1.99004 0.549333L0.00503477 12.5566C-0.00421106 12.6124 -0.000693338 12.6694 0.015346 12.7237C0.0313853 12.778 0.0595655 12.8284 0.0979482 12.8713C0.136331 12.9142 0.184005 12.9487 0.237692 12.9724C0.291378 12.9961 0.349802 13.0084 0.408946 13.0085H3.35115L4.08987 8.53576L4.88449 3.73285Z" fill="#253B80"/>
</g>
</svg>
