<svg width="30" height="31" viewBox="0 0 30 31" fill="none" xmlns="http://www.w3.org/2000/svg">
<g id="pdf">
<g id="document">
<path id="Vector" d="M24.334 11.7559H20.4806C17.3207 11.7559 14.7473 9.1826 14.7473 6.0226V2.16927C14.7473 1.43594 14.1473 0.835938 13.414 0.835938H7.76065C3.65398 0.835938 0.333984 3.5026 0.333984 8.2626V20.0759C0.333984 24.8359 3.65398 27.5026 7.76065 27.5026H18.2407C22.3473 27.5026 25.6673 24.8359 25.6673 20.0759V13.0893C25.6673 12.3559 25.0673 11.7559 24.334 11.7559Z" fill="url(#paint0_linear_2175_458)"/>
<path id="Vector_2" d="M18.0676 1.11918C17.5209 0.572517 16.5742 0.94585 16.5742 1.70585V6.35918C16.5742 8.30585 18.2276 9.91918 20.2409 9.91918C21.5076 9.93252 23.2676 9.93252 24.7742 9.93252C25.5342 9.93252 25.9342 9.03918 25.4009 8.50585C23.4809 6.57252 20.0409 3.09252 18.0676 1.11918Z" fill="#E5646C"/>
</g>
<path id="Union" fill-rule="evenodd" clip-rule="evenodd" d="M5.4451 7.5C4.83145 7.5 4.33398 8.09695 4.33398 8.83333C4.33398 9.56971 4.83145 10.1667 5.4451 10.1667H9.88954C10.5032 10.1667 11.0007 9.56971 11.0007 8.83333C11.0007 8.09695 10.5032 7.5 9.88954 7.5H5.4451ZM5.4451 12.8328C4.83145 12.8328 4.33398 13.4298 4.33398 14.1661C4.33398 14.9025 4.83145 15.4995 5.4451 15.4995H13.2229C13.8365 15.4995 14.334 14.9025 14.334 14.1661C14.334 13.4298 13.8365 12.8328 13.2229 12.8328H5.4451Z" fill="white"/>
<path id="Rectangle 187" d="M7 24.8333C7 21.8878 9.38781 19.5 12.3333 19.5H24.3333C27.2789 19.5 29.6667 21.8878 29.6667 24.8333C29.6667 27.7789 27.2789 30.1667 24.3333 30.1667H12.3333C9.38781 30.1667 7 27.7789 7 24.8333Z" fill="#E5646C"/>
<g id=".PDF">
<path d="M11.7662 27.5052C11.5408 27.5052 11.3556 27.4401 11.2103 27.3099C11.0701 27.1747 11 27.0094 11 26.8141C11 26.6138 11.0701 26.4461 11.2103 26.3108C11.3556 26.1756 11.5408 26.108 11.7662 26.108C11.9865 26.108 12.1668 26.1756 12.307 26.3108C12.4523 26.4461 12.5249 26.6138 12.5249 26.8141C12.5249 27.0094 12.4523 27.1747 12.307 27.3099C12.1668 27.4401 11.9865 27.5052 11.7662 27.5052Z" fill="white"/>
<path d="M17.304 23.8695C17.304 24.175 17.2339 24.4554 17.0937 24.7108C16.9535 24.9612 16.7382 25.1641 16.4477 25.3193C16.1573 25.4745 15.7967 25.5522 15.366 25.5522H14.5698V27.4451H13.2853V22.1719H15.366C15.7867 22.1719 16.1422 22.2445 16.4327 22.3897C16.7231 22.5349 16.941 22.7353 17.0862 22.9907C17.2314 23.2461 17.304 23.539 17.304 23.8695ZM15.2684 24.5306C15.5138 24.5306 15.6965 24.473 15.8167 24.3578C15.9369 24.2426 15.997 24.0799 15.997 23.8695C15.997 23.6592 15.9369 23.4964 15.8167 23.3813C15.6965 23.2661 15.5138 23.2085 15.2684 23.2085H14.5698V24.5306H15.2684Z" fill="white"/>
<path d="M19.9484 22.1719C20.5042 22.1719 20.99 22.282 21.4056 22.5024C21.8213 22.7227 22.1418 23.0332 22.3671 23.4338C22.5975 23.8295 22.7127 24.2877 22.7127 24.8085C22.7127 25.3243 22.5975 25.7825 22.3671 26.1831C22.1418 26.5838 21.8188 26.8943 21.3981 27.1146C20.9825 27.3349 20.4992 27.4451 19.9484 27.4451H17.9728V22.1719H19.9484ZM19.8657 26.3334C20.3515 26.3334 20.7296 26.2007 21 25.9353C21.2704 25.6698 21.4056 25.2943 21.4056 24.8085C21.4056 24.3227 21.2704 23.9446 21 23.6742C20.7296 23.4038 20.3515 23.2686 19.8657 23.2686H19.2573V26.3334H19.8657Z" fill="white"/>
<path d="M26.8634 22.1719V23.201H24.715V24.3127H26.3225V25.3118H24.715V27.4451H23.4305V22.1719H26.8634Z" fill="white"/>
</g>
</g>
<defs>
<linearGradient id="paint0_linear_2175_458" x1="13.0007" y1="0.835937" x2="13.0007" y2="27.5026" gradientUnits="userSpaceOnUse">
<stop stop-color="#FFD8A0"/>
<stop offset="1" stop-color="#FFC48E"/>
</linearGradient>
</defs>
</svg>
