<svg width="16" height="16" viewBox="0 0 16 16" fill="none" xmlns="http://www.w3.org/2000/svg">
<path d="M14 8.71117V12.6478C14 13.3945 13.3993 13.9998 12.658 13.9998H3.342C2.60067 13.9998 2 13.3945 2 12.6478V4.0185C2 3.27184 2.60067 2.6665 3.342 2.6665H8" stroke="#AFBDCA" stroke-linecap="round" stroke-linejoin="round"/>
<path d="M5.21867 11.4482L7.70601 10.8262C7.82334 10.7968 7.93001 10.7362 8.01601 10.6508L13.6093 5.05749C14.13 4.53683 14.13 3.69283 13.6093 3.17216L13.4947 3.05749C12.974 2.53683 12.13 2.53683 11.6093 3.05749L6.01601 8.65083C5.93067 8.73616 5.87001 8.84349 5.84067 8.96083L5.21867 11.4482" stroke="#AFBDCA" stroke-linecap="round" stroke-linejoin="round"/>
<path d="M10.5533 4.11328L12.5533 6.11328" stroke="#AFBDCA" stroke-linecap="round" stroke-linejoin="round"/>
<path d="M7.69735 10.8279C7.70668 10.7573 7.71868 10.6873 7.71868 10.6139C7.71868 9.69327 6.97268 8.94727 6.05201 8.94727C5.97868 8.94727 5.90868 8.95993 5.83801 8.9686" stroke="#AFBDCA" stroke-linecap="round" stroke-linejoin="round"/>
</svg>
