<svg width="19" height="20" viewBox="0 0 19 20" fill="none" xmlns="http://www.w3.org/2000/svg">
<g id="PhoneCall">
<path id="Vector" opacity="0.2" d="M7.16117 9.69089C7.75306 10.901 8.73394 11.8774 9.94671 12.4638C10.0354 12.5058 10.1336 12.524 10.2315 12.5166C10.3294 12.5092 10.4237 12.4764 10.5051 12.4215L12.2908 11.2308C12.3698 11.1781 12.4607 11.146 12.5552 11.1373C12.6497 11.1286 12.7449 11.1437 12.8322 11.181L16.1729 12.6128C16.2864 12.661 16.3811 12.7448 16.4428 12.8515C16.5046 12.9582 16.5299 13.0822 16.5151 13.2046C16.4095 14.0308 16.0064 14.7902 15.3812 15.3407C14.756 15.8911 13.9516 16.1947 13.1186 16.1948C10.5459 16.1948 8.07858 15.1728 6.2594 13.3536C4.44022 11.5344 3.41821 9.06708 3.41821 6.49437C3.41826 5.6614 3.72192 4.85701 4.27233 4.2318C4.82275 3.6066 5.58219 3.20346 6.40844 3.09787C6.53084 3.08306 6.65475 3.10843 6.76148 3.17015C6.86822 3.23188 6.952 3.32663 7.00021 3.44011L8.4332 6.78375C8.47026 6.87023 8.48537 6.96454 8.47716 7.05828C8.46896 7.15202 8.4377 7.24227 8.38617 7.321L7.19955 9.1341C7.14555 9.21566 7.11362 9.30984 7.10689 9.40743C7.10016 9.50502 7.11886 9.60269 7.16117 9.69089Z" fill="#0B63E5"/>
<path id="Vector_2" d="M7.16117 9.69089C7.75306 10.901 8.73394 11.8774 9.94671 12.4638C10.0354 12.5058 10.1336 12.524 10.2315 12.5166C10.3294 12.5092 10.4237 12.4764 10.5051 12.4215L12.2908 11.2308C12.3698 11.1781 12.4607 11.146 12.5552 11.1373C12.6497 11.1286 12.7449 11.1437 12.8322 11.181L16.1729 12.6128C16.2864 12.661 16.3811 12.7448 16.4428 12.8515C16.5046 12.9582 16.5299 13.0822 16.5151 13.2046C16.4095 14.0308 16.0064 14.7902 15.3812 15.3407C14.756 15.8911 13.9516 16.1947 13.1186 16.1948C10.5459 16.1948 8.07858 15.1728 6.2594 13.3536C4.44022 11.5344 3.41821 9.06708 3.41821 6.49437C3.41826 5.6614 3.72192 4.85701 4.27234 4.2318C4.82275 3.6066 5.58219 3.20346 6.40844 3.09787C6.53084 3.08306 6.65475 3.10843 6.76148 3.17015C6.86822 3.23188 6.952 3.32663 7.00021 3.44011L8.4332 6.78375C8.47026 6.87023 8.48537 6.96454 8.47716 7.05828C8.46896 7.15202 8.4377 7.24227 8.38617 7.321L7.19955 9.1341C7.14555 9.21566 7.11362 9.30984 7.10689 9.40743C7.10016 9.50502 7.11886 9.60269 7.16117 9.69089V9.69089Z" stroke="#0B63E5" stroke-width="1.14122" stroke-linecap="round" stroke-linejoin="round"/>
<path id="Vector_3" d="M11.9358 3.64062C12.9031 3.90078 13.7851 4.41054 14.4934 5.11885C15.2017 5.82715 15.7115 6.70914 15.9716 7.67647" stroke="#0B63E5" stroke-width="1.14122" stroke-linecap="round" stroke-linejoin="round"/>
<path id="Vector_4" d="M11.345 5.84375C11.9254 5.99984 12.4546 6.3057 12.8795 6.73068C13.3045 7.15567 13.6104 7.68486 13.7665 8.26526" stroke="#0B63E5" stroke-width="1.14122" stroke-linecap="round" stroke-linejoin="round"/>
</g>
</svg>
