<svg width="16" height="17" viewBox="0 0 16 17" fill="none" xmlns="http://www.w3.org/2000/svg">
<g id="Group">
<g id="Group_2">
<path id="Path" fill-rule="evenodd" clip-rule="evenodd" d="M12.6667 14.1667H3.33333C2.59667 14.1667 2 13.57 2 12.8333V6.83333C2 6.09667 2.59667 5.5 3.33333 5.5H12.6667C13.4033 5.5 14 6.09667 14 6.83333V12.8333C14 13.57 13.4033 14.1667 12.6667 14.1667Z" stroke="#727880" stroke-width="1.5" stroke-linecap="round" stroke-linejoin="round"/>
<path id="Path_2" d="M10.7821 5.5026V4.16927C10.7821 3.4326 10.1855 2.83594 9.4488 2.83594H6.55013C5.81346 2.83594 5.2168 3.4326 5.2168 4.16927V5.5026" stroke="#727880" stroke-width="1.5" stroke-linecap="round" stroke-linejoin="round"/>
<path id="Path_3" d="M2 6.83594L6.234 9.62994C6.452 9.77394 6.70733 9.8506 6.96867 9.8506H9.03133C9.29267 9.8506 9.548 9.77394 9.766 9.62994L14 6.83594" stroke="#727880" stroke-width="1.5" stroke-linecap="round" stroke-linejoin="round"/>
</g>
</g>
</svg>
