<svg width="32" height="32" viewBox="0 0 32 32" fill="none" xmlns="http://www.w3.org/2000/svg">
<g id="Frame" clip-path="url(#clip0_3529_15922)">
<path id="Vector" d="M15.9998 29.3307C8.63584 29.3307 2.6665 23.3614 2.6665 15.9974C2.6665 8.6334 8.63584 2.66406 15.9998 2.66406C23.3638 2.66406 29.3332 8.6334 29.3332 15.9974C29.3332 23.3614 23.3638 29.3307 15.9998 29.3307ZM15.9998 26.6641C18.8288 26.6641 21.5419 25.5403 23.5423 23.5399C25.5427 21.5395 26.6665 18.8264 26.6665 15.9974C26.6665 13.1684 25.5427 10.4553 23.5423 8.45492C21.5419 6.45454 18.8288 5.33073 15.9998 5.33073C13.1709 5.33073 10.4578 6.45454 8.45737 8.45492C6.45698 10.4553 5.33317 13.1684 5.33317 15.9974C5.33317 18.8264 6.45698 21.5395 8.45737 23.5399C10.4578 25.5403 13.1709 26.6641 15.9998 26.6641ZM11.3332 18.6641H18.6665C18.8433 18.6641 19.0129 18.5938 19.1379 18.4688C19.2629 18.3438 19.3332 18.1742 19.3332 17.9974C19.3332 17.8206 19.2629 17.651 19.1379 17.526C19.0129 17.401 18.8433 17.3307 18.6665 17.3307H13.3332C12.4491 17.3307 11.6013 16.9795 10.9761 16.3544C10.351 15.7293 9.99984 14.8815 9.99984 13.9974C9.99984 13.1133 10.351 12.2655 10.9761 11.6404C11.6013 11.0153 12.4491 10.6641 13.3332 10.6641H14.6665V7.9974H17.3332V10.6641H20.6665V13.3307H13.3332C13.1564 13.3307 12.9868 13.401 12.8618 13.526C12.7367 13.651 12.6665 13.8206 12.6665 13.9974C12.6665 14.1742 12.7367 14.3438 12.8618 14.4688C12.9868 14.5938 13.1564 14.6641 13.3332 14.6641H18.6665C19.5506 14.6641 20.3984 15.0153 21.0235 15.6404C21.6486 16.2655 21.9998 17.1133 21.9998 17.9974C21.9998 18.8815 21.6486 19.7293 21.0235 20.3544C20.3984 20.9795 19.5506 21.3307 18.6665 21.3307H17.3332V23.9974H14.6665V21.3307H11.3332V18.6641Z" fill="#E3C7EF"/>
</g>
<defs>
<clipPath id="clip0_3529_15922">
<rect width="32" height="32" fill="white"/>
</clipPath>
</defs>
</svg>
