<svg width="32" height="32" viewBox="0 0 32 32" fill="none" xmlns="http://www.w3.org/2000/svg">
<g id="Frame" clip-path="url(#clip0_1599_16039)">
<path id="Vector" d="M16.0003 29.3307C8.63633 29.3307 2.66699 23.3614 2.66699 15.9974C2.66699 8.6334 8.63633 2.66406 16.0003 2.66406C23.3643 2.66406 29.3337 8.6334 29.3337 15.9974C29.3337 23.3614 23.3643 29.3307 16.0003 29.3307ZM16.0003 26.6641C18.8293 26.6641 21.5424 25.5403 23.5428 23.5399C25.5432 21.5395 26.667 18.8264 26.667 15.9974C26.667 13.1684 25.5432 10.4553 23.5428 8.45492C21.5424 6.45454 18.8293 5.33073 16.0003 5.33073C13.1713 5.33073 10.4582 6.45454 8.45785 8.45492C6.45747 10.4553 5.33366 13.1684 5.33366 15.9974C5.33366 18.8264 6.45747 21.5395 8.45785 23.5399C10.4582 25.5403 13.1713 26.6641 16.0003 26.6641ZM11.3337 18.6641H18.667C18.8438 18.6641 19.0134 18.5938 19.1384 18.4688C19.2634 18.3438 19.3337 18.1742 19.3337 17.9974C19.3337 17.8206 19.2634 17.651 19.1384 17.526C19.0134 17.401 18.8438 17.3307 18.667 17.3307H13.3337C12.4496 17.3307 11.6018 16.9795 10.9766 16.3544C10.3515 15.7293 10.0003 14.8815 10.0003 13.9974C10.0003 13.1133 10.3515 12.2655 10.9766 11.6404C11.6018 11.0153 12.4496 10.6641 13.3337 10.6641H14.667V7.9974H17.3337V10.6641H20.667V13.3307H13.3337C13.1568 13.3307 12.9873 13.401 12.8623 13.526C12.7372 13.651 12.667 13.8206 12.667 13.9974C12.667 14.1742 12.7372 14.3438 12.8623 14.4688C12.9873 14.5938 13.1568 14.6641 13.3337 14.6641H18.667C19.551 14.6641 20.3989 15.0153 21.024 15.6404C21.6491 16.2655 22.0003 17.1133 22.0003 17.9974C22.0003 18.8815 21.6491 19.7293 21.024 20.3544C20.3989 20.9795 19.551 21.3307 18.667 21.3307H17.3337V23.9974H14.667V21.3307H11.3337V18.6641Z" fill="#3F3F44"/>
</g>
<defs>
<clipPath id="clip0_1599_16039">
<rect width="32" height="32" fill="white"/>
</clipPath>
</defs>
</svg>
