<svg width="49" height="49" viewBox="0 0 49 49" fill="none" xmlns="http://www.w3.org/2000/svg">
<rect x="0.46875" y="0.5" width="48" height="48" rx="24" fill="#FFF3E0"/>
<path d="M16.7285 23.5195V28.4895C16.7285 30.3095 16.7285 30.3095 18.4485 31.4695L23.1785 34.1995C23.8885 34.6095 25.0485 34.6095 25.7585 34.1995L30.4885 31.4695C32.2085 30.3095 32.2085 30.3095 32.2085 28.4895V23.5195C32.2085 21.6995 32.2085 21.6995 30.4885 20.5395L25.7585 17.8095C25.0485 17.3995 23.8885 17.3995 23.1785 17.8095L18.4485 20.5395C16.7285 21.6995 16.7285 21.6995 16.7285 23.5195Z" stroke="#581959" stroke-width="1.5" stroke-linecap="round" stroke-linejoin="round"/>
<path d="M29.9688 20.13V17.5C29.9688 15.5 28.9688 14.5 26.9688 14.5H21.9688C19.9688 14.5 18.9688 15.5 18.9688 17.5V20.06" stroke="#581959" stroke-width="1.5" stroke-linecap="round" stroke-linejoin="round"/>
<path d="M25.0985 23.4909L25.6685 24.3809C25.7585 24.5209 25.9585 24.6609 26.1085 24.7009L27.1285 24.9609C27.7585 25.1209 27.9285 25.6609 27.5185 26.1609L26.8485 26.9709C26.7485 27.1009 26.6685 27.3309 26.6785 27.4909L26.7385 28.5409C26.7785 29.1909 26.3185 29.5209 25.7185 29.2809L24.7385 28.8909C24.5885 28.8309 24.3385 28.8309 24.1885 28.8909L23.2085 29.2809C22.6085 29.5209 22.1485 29.1809 22.1885 28.5409L22.2485 27.4909C22.2585 27.3309 22.1785 27.0909 22.0785 26.9709L21.4085 26.1609C20.9985 25.6609 21.1685 25.1209 21.7985 24.9609L22.8185 24.7009C22.9785 24.6609 23.1785 24.5109 23.2585 24.3809L23.8285 23.4909C24.1885 22.9509 24.7485 22.9509 25.0985 23.4909Z" stroke="#581959" stroke-width="1.5" stroke-linecap="round" stroke-linejoin="round"/>
</svg>
