<svg width="49" height="49" viewBox="0 0 49 49" fill="none" xmlns="http://www.w3.org/2000/svg">
<rect x="0.46875" y="0.5" width="48" height="48" rx="24" fill="#FFF3E0"/>
<path d="M22.9589 14.7305L17.9689 16.6105C16.8189 17.0405 15.8789 18.4005 15.8789 19.6205V27.0505C15.8789 28.2305 16.6589 29.7805 17.6089 30.4905L21.9089 33.7005C23.3189 34.7605 25.6389 34.7605 27.0489 33.7005L31.3489 30.4905C32.2989 29.7805 33.0789 28.2305 33.0789 27.0505V19.6205C33.0789 18.3905 32.1389 17.0305 30.9889 16.6005L25.9989 14.7305C25.1489 14.4205 23.7889 14.4205 22.9589 14.7305Z" stroke="#581959" stroke-width="1.5" stroke-linecap="round" stroke-linejoin="round"/>
<path d="M24.4688 25C25.5733 25 26.4688 24.1046 26.4688 23C26.4688 21.8954 25.5733 21 24.4688 21C23.3642 21 22.4688 21.8954 22.4688 23C22.4688 24.1046 23.3642 25 24.4688 25Z" stroke="#581959" stroke-width="1.5" stroke-miterlimit="10" stroke-linecap="round" stroke-linejoin="round"/>
<path d="M24.4688 25V28" stroke="#581959" stroke-width="1.5" stroke-miterlimit="10" stroke-linecap="round" stroke-linejoin="round"/>
</svg>
