<svg width="24" height="24" viewBox="0 0 24 24" fill="none" xmlns="http://www.w3.org/2000/svg">
<g id="Group">
<path id="Path" d="M20.0034 10.9996V7.55851C20.0034 7.05716 19.8043 6.57636 19.4498 6.22185L16.778 3.55009C16.4234 3.19547 15.9424 2.99625 15.4409 2.99625H4.99717C3.89214 2.99625 2.99634 3.89205 2.99634 4.99708V18.0025C2.99634 19.1075 3.89214 20.0033 4.99717 20.0033H10.9997" stroke="#401141" stroke-width="2" stroke-linecap="round" stroke-linejoin="round"/>
<path id="Path_2" d="M14.9949 2.99625V7.12296C14.9947 7.60634 14.6029 7.99815 14.1195 7.99833H8.86731C8.38393 7.99815 7.99212 7.60634 7.99194 7.12296V2.99625" stroke="#401141" stroke-width="2" stroke-linecap="round" stroke-linejoin="round"/>
<path id="Path_3" d="M6.99813 20.003V14.3267C6.99035 13.6335 7.52194 13.0532 8.21317 13.0004H12.0002" stroke="#401141" stroke-width="2" stroke-linecap="round" stroke-linejoin="round"/>
<circle id="Oval" cx="17.5024" cy="17.5023" r="4.50187" stroke="#401141" stroke-width="1.5" stroke-linecap="round" stroke-linejoin="round"/>
<path id="Path_4" d="M18.9024 16.8034L17.1511 18.5546L16.1011 17.5034" stroke="#401141" stroke-width="2" stroke-linecap="round" stroke-linejoin="round"/>
</g>
</svg>
