<svg width="16" height="17" viewBox="0 0 16 17" fill="none" xmlns="http://www.w3.org/2000/svg">
<path fill-rule="evenodd" clip-rule="evenodd" d="M12.6686 14.503H3.40076C2.66789 14.5032 2.07219 13.912 2.06687 13.1792L1.99747 3.84194C1.99487 3.48645 2.13423 3.14461 2.38467 2.89229C2.63511 2.63998 2.9759 2.49805 3.3314 2.49805H10.7825C11.1362 2.49805 11.4755 2.63864 11.7255 2.88888L13.6116 4.775C13.8618 5.02512 14.0024 5.36432 14.0025 5.71805V13.1692C14.0025 13.523 13.8621 13.8623 13.6119 14.1125C13.3617 14.3626 13.0224 14.503 12.6686 14.503Z" stroke="white" stroke-width="1.5" stroke-linecap="round" stroke-linejoin="round"/>
<path d="M10.6631 2.49805V5.16582C10.6629 5.53411 10.3644 5.83264 9.99613 5.83277H5.99446C5.62617 5.83264 5.32765 5.53411 5.32751 5.16582V2.49805" stroke="white" stroke-width="1.5" stroke-linecap="round" stroke-linejoin="round"/>
<ellipse cx="8" cy="10.1674" rx="1.66736" ry="1.66736" stroke="white" stroke-width="1.5" stroke-linecap="round" stroke-linejoin="round"/>
</svg>
