<svg width="16" height="16" viewBox="0 0 16 16" fill="none" xmlns="http://www.w3.org/2000/svg">
<g id="setting-5">
<path id="Vector" d="M12.4402 4.90313C12.4402 4.96032 12.3974 5.00313 12.3402 5.00313C12.3187 5.00313 12.2934 4.99415 12.2713 4.97207C12.2492 4.94999 12.2402 4.92469 12.2402 4.90313V1.80313C12.2402 1.74593 12.283 1.70312 12.3402 1.70312C12.3974 1.70312 12.4402 1.74593 12.4402 1.80313V4.90313Z" stroke="#727880"/>
<path id="Vector_2" d="M8.00039 10.5C7.66706 10.5 7.40039 10.7667 7.40039 11.1V14.2C7.40039 14.5333 7.66706 14.8 8.00039 14.8C8.33372 14.8 8.60039 14.5333 8.60039 14.2V11.1C8.60039 10.7733 8.33372 10.5 8.00039 10.5Z" fill="#727880"/>
<path id="Vector_3" d="M3.66055 5.50313C3.99388 5.50313 4.26055 5.23646 4.26055 4.90313V1.80313C4.26055 1.46979 3.99388 1.20312 3.66055 1.20312C3.32721 1.20312 3.06055 1.46979 3.06055 1.80313V4.90313C3.06055 5.22979 3.32721 5.50313 3.66055 5.50313Z" fill="#727880"/>
<path id="Vector_4" d="M4.90031 6.78125H2.42031C2.08698 6.78125 1.82031 7.04792 1.82031 7.38125C1.82031 7.71458 2.08698 7.98125 2.42031 7.98125H3.06031V14.2012C3.06031 14.5346 3.32698 14.8013 3.66031 14.8013C3.99365 14.8013 4.26031 14.5346 4.26031 14.2012V7.98125H4.90031C5.23365 7.98125 5.50031 7.71458 5.50031 7.38125C5.50031 7.04792 5.22698 6.78125 4.90031 6.78125Z" fill="#727880"/>
<path id="Vector_5" d="M13.58 6.78125H11.1C10.7667 6.78125 10.5 7.04792 10.5 7.38125C10.5 7.71458 10.7667 7.98125 11.1 7.98125H11.74V14.2012C11.74 14.5346 12.0067 14.8013 12.34 14.8013C12.6733 14.8013 12.94 14.5346 12.94 14.2012V7.98125H13.58C13.9133 7.98125 14.18 7.71458 14.18 7.38125C14.18 7.04792 13.9133 6.78125 13.58 6.78125Z" fill="#727880"/>
<path id="Vector_6" d="M9.24016 8.02312H8.60016V1.80313C8.60016 1.46979 8.33349 1.20312 8.00016 1.20312C7.66682 1.20312 7.40016 1.46979 7.40016 1.80313V8.02312H6.76016C6.42682 8.02312 6.16016 8.28979 6.16016 8.62312C6.16016 8.95646 6.42682 9.22312 6.76016 9.22312H9.24016C9.57349 9.22312 9.84016 8.95646 9.84016 8.62312C9.84016 8.28979 9.57349 8.02312 9.24016 8.02312Z" fill="#727880"/>
</g>
</svg>
