<svg width="16" height="17" viewBox="0 0 16 17" fill="none" xmlns="http://www.w3.org/2000/svg">
<g id="share">
<path id="Vector" d="M4.68047 5.14445C5.67725 3.76465 7.19911 2.94204 8.80893 2.79375" stroke="#727880" stroke-width="1.5" stroke-linecap="round" stroke-linejoin="round"/>
<path id="Vector_2" d="M4.53906 11.6562C5.01212 12.3836 5.66422 13.0141 6.46674 13.4774C7.24039 13.9241 8.06785 14.1709 8.90359 14.23" stroke="#727880" stroke-width="1.5" stroke-linecap="round" stroke-linejoin="round"/>
<path id="Vector_3" d="M11.1853 5.3008C12.0717 5.81258 13.2052 5.50887 13.717 4.62243C14.2288 3.73599 13.9251 2.60251 13.0386 2.09073C12.1522 1.57895 11.0187 1.88266 10.5069 2.7691C9.99514 3.65553 10.2989 4.78901 11.1853 5.3008Z" stroke="#727880" stroke-width="1.5" stroke-linecap="round" stroke-linejoin="round"/>
<path id="Vector_4" d="M2.9392 9.94923C3.82564 10.461 4.95912 10.1573 5.4709 9.27087C5.98269 8.38443 5.67897 7.25095 4.79253 6.73917C3.9061 6.22738 2.77262 6.5311 2.26083 7.41753C1.74905 8.30397 2.05276 9.43745 2.9392 9.94923Z" stroke="#727880" stroke-width="1.5" stroke-linecap="round" stroke-linejoin="round"/>
<path id="Vector_5" d="M11.2185 14.7305C12.1049 15.2423 13.2384 14.9386 13.7502 14.0521C14.262 13.1657 13.9583 12.0322 13.0718 11.5204C12.1854 11.0086 11.0519 11.3123 10.5401 12.1988C10.0283 13.0852 10.3321 14.2187 11.2185 14.7305Z" stroke="#727880" stroke-width="1.5" stroke-linecap="round" stroke-linejoin="round"/>
</g>
</svg>
