<svg width="47" height="25" viewBox="0 0 47 25" fill="none" xmlns="http://www.w3.org/2000/svg">
<g id="Stripe Logo">
<g id="Group">
<path id="Vector" fill-rule="evenodd" clip-rule="evenodd" d="M40.8845 12.7418C40.8845 9.86537 39.4803 7.5957 36.7963 7.5957C34.101 7.5957 32.4702 9.86537 32.4702 12.7193C32.4702 16.1013 34.3954 17.8092 37.1587 17.8092C38.5063 17.8092 39.5256 17.5058 40.2956 17.0788V14.8317C39.5256 15.2137 38.6422 15.4496 37.5211 15.4496C36.4226 15.4496 35.4486 15.0676 35.3241 13.7418H40.8619C40.8619 13.5957 40.8845 13.0114 40.8845 12.7418ZM35.2901 11.6744C35.2901 10.4047 36.0715 9.8766 36.785 9.8766C37.4758 9.8766 38.2119 10.4047 38.2119 11.6744H35.2901Z" fill="#32325D"/>
<path id="Vector_2" fill-rule="evenodd" clip-rule="evenodd" d="M28.0991 7.5957C26.9892 7.5957 26.2758 8.11256 25.8794 8.47211L25.7322 7.77548H23.2407V20.8766L26.0719 20.2811L26.0832 17.1013C26.4909 17.3935 27.0911 17.8092 28.0877 17.8092C30.1149 17.8092 31.9608 16.1912 31.9608 12.6294C31.9495 9.37098 30.0809 7.5957 28.0991 7.5957ZM27.4196 15.3373C26.7514 15.3373 26.355 15.1013 26.0832 14.8092L26.0719 10.6406C26.3664 10.3148 26.7741 10.0901 27.4196 10.0901C28.4501 10.0901 29.1636 11.2362 29.1636 12.7081C29.1636 14.2137 28.4614 15.3373 27.4196 15.3373Z" fill="#32325D"/>
<path id="Vector_3" fill-rule="evenodd" clip-rule="evenodd" d="M19.3452 6.93256L22.1877 6.32582V4.04492L19.3452 4.64043V6.93256Z" fill="#32325D"/>
<path id="Vector_4" d="M22.1877 7.78662H19.3452V17.6181H22.1877V7.78662Z" fill="#32325D"/>
<path id="Vector_5" fill-rule="evenodd" clip-rule="evenodd" d="M16.2982 8.61801L16.1171 7.78655H13.6709V17.618H16.5021V10.9551C17.1703 10.0899 18.3027 10.2472 18.6538 10.3708V7.78655C18.2914 7.65172 16.9664 7.40453 16.2982 8.61801Z" fill="#32325D"/>
<path id="Vector_6" fill-rule="evenodd" clip-rule="evenodd" d="M10.6359 5.34839L7.87265 5.93266L7.86133 14.9327C7.86133 16.5956 9.11838 17.8203 10.7944 17.8203C11.7231 17.8203 12.4026 17.6518 12.7763 17.4495V15.1686C12.4139 15.3147 10.6246 15.8315 10.6246 14.1686V10.1798H12.7763V7.78659H10.6246L10.6359 5.34839Z" fill="#32325D"/>
<path id="Vector_7" fill-rule="evenodd" clip-rule="evenodd" d="M2.98041 10.6406C2.98041 10.2024 3.3428 10.0339 3.94301 10.0339C4.8037 10.0339 5.89088 10.2923 6.75156 10.753V8.11256C5.8116 7.74177 4.88297 7.5957 3.94301 7.5957C1.64408 7.5957 0.115234 8.78671 0.115234 10.7755C0.115234 13.8766 4.41865 13.3822 4.41865 14.7193C4.41865 15.2362 3.96566 15.4047 3.33147 15.4047C2.39152 15.4047 1.19109 15.0227 0.239807 14.5058V17.18C1.29301 17.6294 2.35754 17.8204 3.33147 17.8204C5.68703 17.8204 7.30648 16.6631 7.30648 14.6519C7.29515 11.3036 2.98041 11.8991 2.98041 10.6406Z" fill="#32325D"/>
</g>
</g>
</svg>
