<svg width="32" height="32" viewBox="0 0 32 32" fill="none" xmlns="http://www.w3.org/2000/svg">
<g id="Frame" clip-path="url(#clip0_3529_15940)">
<path id="Vector" d="M15.9998 14.6641C17.7679 14.6641 19.4636 15.3664 20.7139 16.6167C21.9641 17.8669 22.6665 19.5626 22.6665 21.3307V29.3307H19.9998V21.3307C19.9999 20.3104 19.6101 19.3287 18.9101 18.5864C18.2102 17.8441 17.253 17.3973 16.2345 17.3374L15.9998 17.3307C14.9796 17.3307 13.9978 17.7205 13.2555 18.4204C12.5132 19.1204 12.0664 20.0775 12.0065 21.0961L11.9998 21.3307V29.3307H9.33317V21.3307C9.33317 19.5626 10.0355 17.8669 11.2858 16.6167C12.536 15.3664 14.2317 14.6641 15.9998 14.6641ZM7.33317 18.6641C7.70517 18.6641 8.0665 18.7081 8.41317 18.7894C8.1852 19.4681 8.0502 20.1745 8.01184 20.8894L7.99984 21.3307V21.4454C7.84658 21.3906 7.68716 21.3547 7.52517 21.3387L7.33317 21.3307C6.83599 21.3308 6.35665 21.516 5.98861 21.8502C5.62057 22.1845 5.39023 22.6439 5.3425 23.1387L5.33317 23.3307V29.3307H2.6665V23.3307C2.6665 22.0931 3.15817 20.9061 4.03334 20.0309C4.90851 19.1557 6.09549 18.6641 7.33317 18.6641ZM24.6665 18.6641C25.9042 18.6641 27.0912 19.1557 27.9663 20.0309C28.8415 20.9061 29.3332 22.0931 29.3332 23.3307V29.3307H26.6665V23.3307C26.6665 22.8336 26.4813 22.3542 26.147 21.9862C25.8127 21.6181 25.3534 21.3878 24.8585 21.3401L24.6665 21.3307C24.4332 21.3307 24.2092 21.3707 23.9998 21.4441V21.3307C23.9998 20.4427 23.8558 19.5894 23.5878 18.7921C23.9332 18.7081 24.2945 18.6641 24.6665 18.6641ZM7.33317 10.6641C8.21723 10.6641 9.06507 11.0153 9.69019 11.6404C10.3153 12.2655 10.6665 13.1133 10.6665 13.9974C10.6665 14.8815 10.3153 15.7293 9.69019 16.3544C9.06507 16.9795 8.21723 17.3307 7.33317 17.3307C6.44912 17.3307 5.60127 16.9795 4.97615 16.3544C4.35103 15.7293 3.99984 14.8815 3.99984 13.9974C3.99984 13.1133 4.35103 12.2655 4.97615 11.6404C5.60127 11.0153 6.44912 10.6641 7.33317 10.6641ZM24.6665 10.6641C25.5506 10.6641 26.3984 11.0153 27.0235 11.6404C27.6486 12.2655 27.9998 13.1133 27.9998 13.9974C27.9998 14.8815 27.6486 15.7293 27.0235 16.3544C26.3984 16.9795 25.5506 17.3307 24.6665 17.3307C23.7824 17.3307 22.9346 16.9795 22.3095 16.3544C21.6844 15.7293 21.3332 14.8815 21.3332 13.9974C21.3332 13.1133 21.6844 12.2655 22.3095 11.6404C22.9346 11.0153 23.7824 10.6641 24.6665 10.6641ZM7.33317 13.3307C7.15636 13.3307 6.98679 13.401 6.86177 13.526C6.73674 13.651 6.6665 13.8206 6.6665 13.9974C6.6665 14.1742 6.73674 14.3438 6.86177 14.4688C6.98679 14.5938 7.15636 14.6641 7.33317 14.6641C7.50998 14.6641 7.67955 14.5938 7.80457 14.4688C7.9296 14.3438 7.99984 14.1742 7.99984 13.9974C7.99984 13.8206 7.9296 13.651 7.80457 13.526C7.67955 13.401 7.50998 13.3307 7.33317 13.3307ZM24.6665 13.3307C24.4897 13.3307 24.3201 13.401 24.1951 13.526C24.0701 13.651 23.9998 13.8206 23.9998 13.9974C23.9998 14.1742 24.0701 14.3438 24.1951 14.4688C24.3201 14.5938 24.4897 14.6641 24.6665 14.6641C24.8433 14.6641 25.0129 14.5938 25.1379 14.4688C25.2629 14.3438 25.3332 14.1742 25.3332 13.9974C25.3332 13.8206 25.2629 13.651 25.1379 13.526C25.0129 13.401 24.8433 13.3307 24.6665 13.3307ZM15.9998 2.66406C17.4143 2.66406 18.7709 3.22597 19.7711 4.22616C20.7713 5.22635 21.3332 6.58291 21.3332 7.9974C21.3332 9.41188 20.7713 10.7684 19.7711 11.7686C18.7709 12.7688 17.4143 13.3307 15.9998 13.3307C14.5854 13.3307 13.2288 12.7688 12.2286 11.7686C11.2284 10.7684 10.6665 9.41188 10.6665 7.9974C10.6665 6.58291 11.2284 5.22635 12.2286 4.22616C13.2288 3.22597 14.5854 2.66406 15.9998 2.66406ZM15.9998 5.33073C15.2926 5.33073 14.6143 5.61168 14.1142 6.11178C13.6141 6.61187 13.3332 7.29015 13.3332 7.9974C13.3332 8.70464 13.6141 9.38292 14.1142 9.88301C14.6143 10.3831 15.2926 10.6641 15.9998 10.6641C16.7071 10.6641 17.3854 10.3831 17.8855 9.88301C18.3856 9.38292 18.6665 8.70464 18.6665 7.9974C18.6665 7.29015 18.3856 6.61187 17.8855 6.11178C17.3854 5.61168 16.7071 5.33073 15.9998 5.33073Z" fill="#E3C7EF"/>
</g>
<defs>
<clipPath id="clip0_3529_15940">
<rect width="32" height="32" fill="white"/>
</clipPath>
</defs>
</svg>
