<svg width="32" height="32" viewBox="0 0 32 32" fill="none" xmlns="http://www.w3.org/2000/svg">
<g id="Frame" clip-path="url(#clip0_1599_16057)">
<path id="Vector" d="M16.0003 14.6641C17.7684 14.6641 19.4641 15.3664 20.7144 16.6167C21.9646 17.8669 22.667 19.5626 22.667 21.3307V29.3307H20.0003V21.3307C20.0004 20.3104 19.6106 19.3287 18.9106 18.5864C18.2107 17.8441 17.2535 17.3973 16.235 17.3374L16.0003 17.3307C14.98 17.3307 13.9983 17.7205 13.256 18.4204C12.5136 19.1204 12.0668 20.0775 12.007 21.0961L12.0003 21.3307V29.3307H9.33366V21.3307C9.33366 19.5626 10.036 17.8669 11.2863 16.6167C12.5365 15.3664 14.2322 14.6641 16.0003 14.6641ZM7.33366 18.6641C7.70566 18.6641 8.06699 18.7081 8.41366 18.7894C8.18569 19.4681 8.05069 20.1745 8.01233 20.8894L8.00033 21.3307V21.4454C7.84706 21.3906 7.68765 21.3547 7.52566 21.3387L7.33366 21.3307C6.83648 21.3308 6.35714 21.516 5.9891 21.8502C5.62106 22.1845 5.39072 22.6439 5.34299 23.1387L5.33366 23.3307V29.3307H2.66699V23.3307C2.66699 22.0931 3.15866 20.9061 4.03383 20.0309C4.909 19.1557 6.09598 18.6641 7.33366 18.6641ZM24.667 18.6641C25.9047 18.6641 27.0917 19.1557 27.9668 20.0309C28.842 20.9061 29.3337 22.0931 29.3337 23.3307V29.3307H26.667V23.3307C26.667 22.8336 26.4818 22.3542 26.1475 21.9862C25.8132 21.6181 25.3539 21.3878 24.859 21.3401L24.667 21.3307C24.4337 21.3307 24.2097 21.3707 24.0003 21.4441V21.3307C24.0003 20.4427 23.8563 19.5894 23.5883 18.7921C23.9337 18.7081 24.295 18.6641 24.667 18.6641ZM7.33366 10.6641C8.21771 10.6641 9.06556 11.0153 9.69068 11.6404C10.3158 12.2655 10.667 13.1133 10.667 13.9974C10.667 14.8815 10.3158 15.7293 9.69068 16.3544C9.06556 16.9795 8.21771 17.3307 7.33366 17.3307C6.4496 17.3307 5.60176 16.9795 4.97664 16.3544C4.35152 15.7293 4.00033 14.8815 4.00033 13.9974C4.00033 13.1133 4.35152 12.2655 4.97664 11.6404C5.60176 11.0153 6.4496 10.6641 7.33366 10.6641ZM24.667 10.6641C25.551 10.6641 26.3989 11.0153 27.024 11.6404C27.6491 12.2655 28.0003 13.1133 28.0003 13.9974C28.0003 14.8815 27.6491 15.7293 27.024 16.3544C26.3989 16.9795 25.551 17.3307 24.667 17.3307C23.7829 17.3307 22.9351 16.9795 22.31 16.3544C21.6848 15.7293 21.3337 14.8815 21.3337 13.9974C21.3337 13.1133 21.6848 12.2655 22.31 11.6404C22.9351 11.0153 23.7829 10.6641 24.667 10.6641ZM7.33366 13.3307C7.15685 13.3307 6.98728 13.401 6.86225 13.526C6.73723 13.651 6.66699 13.8206 6.66699 13.9974C6.66699 14.1742 6.73723 14.3438 6.86225 14.4688C6.98728 14.5938 7.15685 14.6641 7.33366 14.6641C7.51047 14.6641 7.68004 14.5938 7.80506 14.4688C7.93009 14.3438 8.00033 14.1742 8.00033 13.9974C8.00033 13.8206 7.93009 13.651 7.80506 13.526C7.68004 13.401 7.51047 13.3307 7.33366 13.3307ZM24.667 13.3307C24.4902 13.3307 24.3206 13.401 24.1956 13.526C24.0706 13.651 24.0003 13.8206 24.0003 13.9974C24.0003 14.1742 24.0706 14.3438 24.1956 14.4688C24.3206 14.5938 24.4902 14.6641 24.667 14.6641C24.8438 14.6641 25.0134 14.5938 25.1384 14.4688C25.2634 14.3438 25.3337 14.1742 25.3337 13.9974C25.3337 13.8206 25.2634 13.651 25.1384 13.526C25.0134 13.401 24.8438 13.3307 24.667 13.3307ZM16.0003 2.66406C17.4148 2.66406 18.7714 3.22597 19.7716 4.22616C20.7718 5.22635 21.3337 6.58291 21.3337 7.9974C21.3337 9.41188 20.7718 10.7684 19.7716 11.7686C18.7714 12.7688 17.4148 13.3307 16.0003 13.3307C14.5858 13.3307 13.2293 12.7688 12.2291 11.7686C11.2289 10.7684 10.667 9.41188 10.667 7.9974C10.667 6.58291 11.2289 5.22635 12.2291 4.22616C13.2293 3.22597 14.5858 2.66406 16.0003 2.66406ZM16.0003 5.33073C15.2931 5.33073 14.6148 5.61168 14.1147 6.11178C13.6146 6.61187 13.3337 7.29015 13.3337 7.9974C13.3337 8.70464 13.6146 9.38292 14.1147 9.88301C14.6148 10.3831 15.2931 10.6641 16.0003 10.6641C16.7076 10.6641 17.3858 10.3831 17.8859 9.88301C18.386 9.38292 18.667 8.70464 18.667 7.9974C18.667 7.29015 18.386 6.61187 17.8859 6.11178C17.3858 5.61168 16.7076 5.33073 16.0003 5.33073Z" fill="#3F3F44"/>
</g>
<defs>
<clipPath id="clip0_1599_16057">
<rect width="32" height="32" fill="white"/>
</clipPath>
</defs>
</svg>
