<svg width="32" height="32" viewBox="0 0 32 32" fill="none" xmlns="http://www.w3.org/2000/svg">
<g clip-path="url(#clip0_4944_103069)">
<path d="M28 10.6641V27.9881C28.0012 28.1632 27.968 28.3368 27.9021 28.499C27.8362 28.6613 27.739 28.8089 27.6161 28.9336C27.4931 29.0583 27.3468 29.1575 27.1855 29.2257C27.0242 29.2938 26.8511 29.3295 26.676 29.3307H5.324C4.97308 29.3307 4.63652 29.1914 4.38826 28.9434C4.14 28.6954 4.00035 28.359 4 28.0081V3.98673C4 3.27073 4.59867 2.66406 5.336 2.66406H19.996L28 10.6641ZM25.3333 11.9974H18.6667V5.33073H6.66667V26.6641H25.3333V11.9974ZM10.6667 9.33073H14.6667V11.9974H10.6667V9.33073ZM10.6667 14.6641H21.3333V17.3307H10.6667V14.6641ZM10.6667 19.9974H21.3333V22.6641H10.6667V19.9974Z" fill="#3F3F44"/>
</g>
<defs>
<clipPath id="clip0_4944_103069">
<rect width="32" height="32" fill="white"/>
</clipPath>
</defs>
</svg>
