<svg width="39" height="38" viewBox="0 0 39 38" fill="none" xmlns="http://www.w3.org/2000/svg">
<path d="M22.4814 9.96558L18.7558 13.6912L16.5186 11.4571" stroke="#581959" stroke-width="1.5" stroke-linecap="round" stroke-linejoin="round"/>
<path fill-rule="evenodd" clip-rule="evenodd" d="M26.2054 11.4554C26.2054 15.1588 23.2034 18.1624 19.5 18.1624C15.795 18.1624 12.793 15.1588 12.793 11.4554C12.793 7.752 15.7966 4.75 19.5 4.75C23.2034 4.75 26.2054 7.752 26.2054 11.4554V11.4554V11.4554Z" stroke="#581959" stroke-width="1.5" stroke-linecap="round" stroke-linejoin="round"/>
<path d="M30.0737 24.6809L26.3481 28.4065" stroke="#581959" stroke-width="1.5" stroke-linecap="round" stroke-linejoin="round"/>
<path d="M26.3481 24.6809L30.0737 28.4065" stroke="#581959" stroke-width="1.5" stroke-linecap="round" stroke-linejoin="round"/>
<path fill-rule="evenodd" clip-rule="evenodd" d="M28.2114 19.8376C24.5064 19.8376 21.5044 22.8396 21.5044 26.5431C21.5044 30.2465 24.5064 33.2501 28.2114 33.2501C31.9148 33.2501 34.9168 30.2465 34.9168 26.5431C34.9168 22.8396 31.9148 19.8376 28.2114 19.8376Z" stroke="#581959" stroke-width="1.5" stroke-linecap="round" stroke-linejoin="round"/>
<path fill-rule="evenodd" clip-rule="evenodd" d="M10.7884 19.8391C7.08501 19.8391 4.08301 22.8411 4.08301 26.5445C4.08301 30.2464 7.08501 33.2499 10.7884 33.2499C14.4918 33.2499 17.4938 30.2479 17.4938 26.5445C17.4954 22.8395 14.4934 19.8391 10.7884 19.8391V19.8391Z" stroke="#581959" stroke-width="1.5" stroke-linecap="round" stroke-linejoin="round"/>
<path d="M10.7856 25.7512C10.3486 25.7544 9.99707 26.1091 9.99707 26.5461C9.99707 26.9831 10.3517 27.3377 10.7887 27.3346C11.2257 27.3346 11.5804 26.9799 11.5804 26.5429C11.5804 26.1059 11.2257 25.7512 10.7856 25.7512" stroke="#581959" stroke-width="1.5" stroke-linecap="round" stroke-linejoin="round"/>
</svg>
