<svg width="24" height="24" viewBox="0 0 24 24" fill="none" xmlns="http://www.w3.org/2000/svg">
<g id="Group">
<path id="Path" d="M15 15L12 12" stroke="#6C7E8E" stroke-width="1.5" stroke-linecap="round" stroke-linejoin="round"/>
<path id="Path_2" d="M12 12L9 15" stroke="#6C7E8E" stroke-width="1.5" stroke-linecap="round" stroke-linejoin="round"/>
<path id="Path_3" d="M12 20V12" stroke="#6C7E8E" stroke-width="1.5" stroke-linecap="round" stroke-linejoin="round"/>
<path id="Path_4" d="M8 19H6C3.79086 19 2 17.2091 2 15C2 12.7909 3.79086 11 6 11L5.99 10.9296C5.74111 9.18739 6.26051 7.42287 7.41362 6.09331C8.56673 4.76375 10.2401 4.00001 12 4C13.7599 4.00001 15.4333 4.76375 16.5864 6.09331C17.7395 7.42287 18.2589 9.18739 18.01 10.9296L18 11C20.2091 11 22 12.7909 22 15C22 17.2091 20.2091 19 18 19H16" stroke="#6C7E8E" stroke-width="1.5" stroke-linecap="round" stroke-linejoin="round"/>
</g>
</svg>
