<svg width="18" height="18" viewBox="0 0 18 18" fill="none" xmlns="http://www.w3.org/2000/svg">
<g id="vuesax/outline/user-octagon">
<g id="user-octagon">
<path id="Vector" d="M9.00109 17.0662C8.49859 17.0662 7.98859 16.9387 7.53859 16.6762L3.08359 14.1037C2.18359 13.5787 1.62109 12.6112 1.62109 11.5687V6.43875C1.62109 5.39625 2.18359 4.42874 3.08359 3.90374L7.53859 1.33125C8.43859 0.80625 9.55609 0.80625 10.4636 1.33125L14.9186 3.90374C15.8186 4.42874 16.3811 5.39625 16.3811 6.43875V11.5687C16.3811 12.6112 15.8186 13.5787 14.9186 14.1037L10.4636 16.6762C10.0136 16.9387 9.50359 17.0662 9.00109 17.0662ZM9.00109 2.06624C8.69359 2.06624 8.37859 2.14874 8.10109 2.30624L3.64609 4.87874C3.09109 5.20124 2.74609 5.79375 2.74609 6.43875V11.5687C2.74609 12.2062 3.09109 12.8062 3.64609 13.1287L8.10109 15.7012C8.65609 16.0237 9.34609 16.0237 9.90109 15.7012L14.3561 13.1287C14.9111 12.8062 15.2561 12.2137 15.2561 11.5687V6.43875C15.2561 5.80125 14.9111 5.20124 14.3561 4.87874L9.90109 2.30624C9.62359 2.14874 9.30859 2.06624 9.00109 2.06624Z" fill="#6C7E8E"/>
<path id="Vector_2" d="M8.99945 8.81529C7.72445 8.81529 6.68945 7.78028 6.68945 6.50528C6.68945 5.23028 7.72445 4.19531 8.99945 4.19531C10.2745 4.19531 11.3095 5.23028 11.3095 6.50528C11.3095 7.78028 10.2745 8.81529 8.99945 8.81529ZM8.99945 5.32031C8.34695 5.32031 7.81445 5.85278 7.81445 6.50528C7.81445 7.15778 8.34695 7.69029 8.99945 7.69029C9.65195 7.69029 10.1845 7.15778 10.1845 6.50528C10.1845 5.85278 9.65195 5.32031 8.99945 5.32031Z" fill="#6C7E8E"/>
<path id="Vector_3" d="M12 13.0543C11.6925 13.0543 11.4375 12.7993 11.4375 12.4918C11.4375 11.4568 10.3425 10.6094 9 10.6094C7.6575 10.6094 6.5625 11.4568 6.5625 12.4918C6.5625 12.7993 6.3075 13.0543 6 13.0543C5.6925 13.0543 5.4375 12.7993 5.4375 12.4918C5.4375 10.8343 7.035 9.48438 9 9.48438C10.965 9.48438 12.5625 10.8343 12.5625 12.4918C12.5625 12.7993 12.3075 13.0543 12 13.0543Z" fill="#6C7E8E"/>
</g>
</g>
</svg>
