<svg width="16" height="16" viewBox="0 0 16 16" fill="none" xmlns="http://www.w3.org/2000/svg">
<g clip-path="url(#clip0_3529_20512)">
<path d="M10.6665 2.66406C11.0345 2.66406 11.3332 2.96273 11.3332 3.33073V6.13073L14.8085 3.6974C14.9592 3.59206 15.1672 3.62873 15.2732 3.78006C15.3118 3.83606 15.3332 3.90273 15.3332 3.97073V12.0241C15.3332 12.2081 15.1838 12.3574 14.9998 12.3574C14.9312 12.3574 14.8645 12.3361 14.8085 12.2974L11.3332 9.86406V12.6641C11.3332 13.0321 11.0345 13.3307 10.6665 13.3307H1.33317C0.965171 13.3307 0.666504 13.0321 0.666504 12.6641V3.33073C0.666504 2.96273 0.965171 2.66406 1.33317 2.66406H10.6665ZM9.99984 3.9974H1.99984V11.9974H9.99984V3.9974ZM5.99984 5.33073L8.6665 7.9974H6.6665V10.6641H5.33317V7.9974H3.33317L5.99984 5.33073ZM13.9998 5.8914L11.3332 7.75806V8.23673L13.9998 10.1034V5.89073V5.8914Z" fill="#EAB585"/>
</g>
<defs>
<clipPath id="clip0_3529_20512">
<rect width="16" height="16" fill="white"/>
</clipPath>
</defs>
</svg>
