<svg width="39" height="13" viewBox="0 0 39 13" fill="none" xmlns="http://www.w3.org/2000/svg">
<g id="Visa Inc. Logo" clip-path="url(#clip0_3529_14808)">
<g id="g4158">
<path id="polygon9" d="M16.9 12.8124H13.7407L15.7168 0.228027H18.8759L16.9 12.8124Z" fill="#00579F"/>
<path id="path11" d="M28.3524 0.535766C27.7293 0.281139 26.7409 0 25.5188 0C22.3989 0 20.2019 1.71352 20.1885 4.16335C20.1626 5.97082 21.7615 6.97474 22.9573 7.5774C24.1796 8.19324 24.5951 8.5952 24.5951 9.14413C24.5826 9.98719 23.6074 10.3758 22.6978 10.3758C21.4365 10.3758 20.7607 10.1754 19.7336 9.70641L19.3176 9.50534L18.8755 12.3303C19.6165 12.6779 20.9816 12.9865 22.3989 13C25.7139 13 27.872 11.313 27.8976 8.70232C27.9102 7.26975 27.0659 6.17207 25.2457 5.27509C24.1407 4.69929 23.464 4.31103 23.464 3.72189C23.477 3.1863 24.0364 2.63772 25.2837 2.63772C26.3108 2.61085 27.0654 2.86513 27.637 3.11957L27.9228 3.2532L28.3524 0.535766Z" fill="#00579F"/>
<path id="path13" d="M32.5515 8.35419C32.8117 7.63123 33.8128 4.83319 33.8128 4.83319C33.7997 4.86006 34.0725 4.09689 34.2285 3.62838L34.4493 4.71273C34.4493 4.71273 35.0475 7.725 35.1774 8.35419C34.6837 8.35419 33.1755 8.35419 32.5515 8.35419ZM36.4512 0.228027H34.0075C33.2539 0.228027 32.6814 0.45543 32.3563 1.27216L27.6636 12.8122H30.9785C30.9785 12.8122 31.5243 11.259 31.6416 10.9245C32.0052 10.9245 35.23 10.9245 35.6978 10.9245C35.7885 11.3663 36.0748 12.8122 36.0748 12.8122H38.9999L36.4512 0.228027Z" fill="#00579F"/>
<path id="path15" d="M11.1022 0.228027L8.00825 8.80935L7.67015 7.06896C7.09814 5.06077 5.3042 2.87892 3.30225 1.79404L6.13621 12.799H9.47706L14.4429 0.228027H11.1022Z" fill="#00579F"/>
<path id="path17" d="M5.13496 0.228027H0.0520007L0 0.482298C3.96503 1.5266 6.59099 4.04386 7.66988 7.06949L6.5649 1.28586C6.38299 0.48212 5.82393 0.25454 5.13496 0.228027Z" fill="#FAA61A"/>
</g>
</g>
<defs>
<clipPath id="clip0_3529_14808">
<rect width="39" height="13" fill="white"/>
</clipPath>
</defs>
</svg>
