<svg width="29" height="29" viewBox="0 0 29 29" fill="none" xmlns="http://www.w3.org/2000/svg">
<g clip-path="url(#clip0_1597_76891)">
<path d="M21.9531 12.2292H28.9531L25.4531 7.5625L21.9531 12.2292ZM21.9531 16.8958H28.9531L25.4531 21.5625L21.9531 16.8958Z" fill="#401141"/>
<path d="M2.11979 0.5625H9.11979V28.5625H2.11979C1.81037 28.5625 1.51363 28.4396 1.29483 28.2208C1.07604 28.002 0.953125 27.7053 0.953125 27.3958V1.72917C0.953125 1.41975 1.07604 1.123 1.29483 0.904208C1.51363 0.685415 1.81037 0.5625 2.11979 0.5625Z" fill="#701872"/>
<path d="M11.4531 0.5625H18.4531C18.7625 0.5625 19.0593 0.685415 19.2781 0.904208C19.4969 1.123 19.6198 1.41975 19.6198 1.72917V27.3958C19.6198 27.7053 19.4969 28.002 19.2781 28.2208C19.0593 28.4396 18.7625 28.5625 18.4531 28.5625H11.4531V0.5625Z" fill="#00BF71"/>
</g>
<defs>
<clipPath id="clip0_1597_76891">
<rect width="28" height="28" fill="white" transform="translate(0.953125 0.5625)"/>
</clipPath>
</defs>
</svg>
