<svg width="29" height="29" viewBox="0 0 29 29" fill="none" xmlns="http://www.w3.org/2000/svg">
<g id="Base feature icon/03">
<g id="Group">
<path id="Vector" d="M27.7868 7.5599V2.89323C27.7868 2.58381 27.6639 2.28706 27.4451 2.06827C27.2263 1.84948 26.9295 1.72656 26.6201 1.72656H3.28678C2.97736 1.72656 2.68062 1.84948 2.46183 2.06827C2.24303 2.28706 2.12012 2.58381 2.12012 2.89323V7.5599H27.7868Z" fill="#00BF71"/>
<path id="Vector_2" d="M2.12012 9.89062V26.224C2.12012 26.5334 2.24303 26.8301 2.46183 27.0489C2.68062 27.2677 2.97736 27.3906 3.28678 27.3906H9.12012V9.89062H2.12012Z" fill="#401141"/>
<path id="Vector_3" d="M11.4531 27.3906H26.6198C26.9292 27.3906 27.226 27.2677 27.4447 27.0489C27.6635 26.8301 27.7865 26.5334 27.7865 26.224V9.89062H11.4531V27.3906Z" fill="#701872"/>
</g>
</g>
</svg>
