<svg width="29" height="29" viewBox="0 0 29 29" fill="none" xmlns="http://www.w3.org/2000/svg">
<g id="Base feature icon/04" clip-path="url(#clip0_1597_76931)">
<g id="Group">
<path id="Vector" d="M25.0524 28.5651H14.5524C14.243 28.5651 13.9462 28.4422 13.7275 28.2234C13.5087 28.0046 13.3857 27.7079 13.3857 27.3984V25.0651C13.3857 24.7557 13.5087 24.4589 13.7275 24.2401C13.9462 24.0214 14.243 23.8984 14.5524 23.8984H25.0524C25.3618 23.8984 25.6586 24.0214 25.8774 24.2401C26.0962 24.4589 26.2191 24.7557 26.2191 25.0651V27.3984C26.2191 27.7079 26.0962 28.0046 25.8774 28.2234C25.6586 28.4422 25.3618 28.5651 25.0524 28.5651Z" fill="#401141"/>
<path id="Vector_2" d="M25.0524 0.5625H4.05241C3.74299 0.5625 3.44624 0.685415 3.22745 0.904208C3.00866 1.123 2.88574 1.41975 2.88574 1.72917V4.0625C2.88574 4.37192 3.00866 4.66867 3.22745 4.88746C3.44624 5.10625 3.74299 5.22917 4.05241 5.22917H25.0524C25.3618 5.22917 25.6586 5.10625 25.8774 4.88746C26.0962 4.66867 26.2191 4.37192 26.2191 4.0625V1.72917C26.2191 1.41975 26.0962 1.123 25.8774 0.904208C25.6586 0.685415 25.3618 0.5625 25.0524 0.5625Z" fill="#00BF71"/>
<path id="Vector_3" d="M25.0524 7.5625H4.05241C3.74299 7.5625 3.44624 7.68542 3.22745 7.90421C3.00866 8.123 2.88574 8.41975 2.88574 8.72917V20.3958C2.88574 20.7053 3.00866 21.002 3.22745 21.2208C3.44624 21.4396 3.74299 21.5625 4.05241 21.5625H25.0524C25.3618 21.5625 25.6586 21.4396 25.8774 21.2208C26.0962 21.002 26.2191 20.7053 26.2191 20.3958V8.72917C26.2191 8.41975 26.0962 8.123 25.8774 7.90421C25.6586 7.68542 25.3618 7.5625 25.0524 7.5625Z" fill="#701872"/>
</g>
</g>
<defs>
<clipPath id="clip0_1597_76931">
<rect width="28" height="28" fill="white" transform="translate(0.552734 0.5625)"/>
</clipPath>
</defs>
</svg>
