<svg width="29" height="29" viewBox="0 0 29 29" fill="none" xmlns="http://www.w3.org/2000/svg">
<g id="Base feature icon/06" clip-path="url(#clip0_1597_76906)">
<g id="Group">
<path id="Vector" d="M28.4861 1.9599C28.2528 1.72656 27.7861 1.72656 27.4361 1.72656L20.7861 3.7099V27.1599L28.1361 25.0599C28.6028 24.9432 28.9528 24.4766 28.9528 23.8932V2.89323C28.9528 2.54323 28.8361 2.19323 28.4861 1.9599Z" fill="#401141"/>
<path id="Vector_2" d="M18.4531 3.71094L11.4531 1.96094V25.4109L18.4531 27.1609V3.71094Z" fill="#00BF71"/>
<path id="Vector_3" d="M9.11979 1.96094L1.76979 4.06094C1.30313 4.29427 0.953125 4.76094 0.953125 5.2276V26.2276C0.953125 26.5776 1.06979 26.9276 1.41979 27.1609C1.65312 27.2776 1.88646 27.3943 2.11979 27.3943H2.46979L9.11979 25.4109V1.96094Z" fill="#701872"/>
</g>
</g>
<defs>
<clipPath id="clip0_1597_76906">
<rect width="28" height="28" fill="white" transform="translate(0.953125 0.5625)"/>
</clipPath>
</defs>
</svg>
