<svg width="29" height="29" viewBox="0 0 29 29" fill="none" xmlns="http://www.w3.org/2000/svg">
<g id="Base feature icon/07">
<g id="Group">
<path id="Vector" d="M11.0531 12.2266H2.88639C2.57697 12.2266 2.28023 12.1036 2.06143 11.8849C1.84264 11.6661 1.71973 11.3693 1.71973 11.0599V2.89323C1.71973 2.58381 1.84264 2.28706 2.06143 2.06827C2.28023 1.84948 2.57697 1.72656 2.88639 1.72656H11.0531C11.3625 1.72656 11.6592 1.84948 11.878 2.06827C12.0968 2.28706 12.2197 2.58381 12.2197 2.89323V11.0599C12.2197 11.3693 12.0968 11.6661 11.878 11.8849C11.6592 12.1036 11.3625 12.2266 11.0531 12.2266Z" fill="#701872"/>
<path id="Vector_2" d="M11.0531 27.3906H2.88639C2.57697 27.3906 2.28023 27.2677 2.06143 27.0489C1.84264 26.8301 1.71973 26.5334 1.71973 26.224V18.0573C1.71973 17.7479 1.84264 17.4511 2.06143 17.2323C2.28023 17.0135 2.57697 16.8906 2.88639 16.8906H11.0531C11.3625 16.8906 11.6592 17.0135 11.878 17.2323C12.0968 17.4511 12.2197 17.7479 12.2197 18.0573V26.224C12.2197 26.5334 12.0968 26.8301 11.878 27.0489C11.6592 27.2677 11.3625 27.3906 11.0531 27.3906Z" fill="#701872"/>
<path id="Vector_3" d="M15.7197 2.89062H27.3864V5.22396H15.7197V2.89062Z" fill="#00BF71"/>
<path id="Vector_4" d="M27.3864 18.0625H15.7197V20.3958H27.3864V18.0625Z" fill="#00BF71"/>
<path id="Vector_5" d="M27.3864 23.8906H15.7197V26.224H27.3864V23.8906Z" fill="#401141"/>
<path id="Vector_6" d="M27.3864 8.72656H15.7197V11.0599H27.3864V8.72656Z" fill="#401141"/>
</g>
</g>
</svg>
