<svg width="29" height="29" viewBox="0 0 29 29" fill="none" xmlns="http://www.w3.org/2000/svg">
<g id="Base feature icon/08" clip-path="url(#clip0_1597_76914)">
<g id="Group">
<path id="Vector" d="M14.2606 0.71644L1.63731 6.61394C1.55194 6.65309 1.47963 6.71594 1.42897 6.79502C1.37831 6.8741 1.35144 6.96607 1.35156 7.05998C1.35169 7.15389 1.37879 7.24579 1.42966 7.32474C1.48053 7.40368 1.55301 7.46635 1.63848 7.50527L14.361 13.3596C14.7366 13.5323 15.1706 13.5323 15.5463 13.3596L28.2688 7.50527C28.3543 7.46646 28.4269 7.40389 28.4779 7.32501C28.5288 7.24613 28.5561 7.15427 28.5563 7.06036C28.5566 6.96644 28.5298 6.87443 28.4792 6.79529C28.4287 6.71615 28.3565 6.6532 28.2711 6.61394L15.6466 0.71644C15.4297 0.615049 15.1931 0.5625 14.9536 0.5625C14.7142 0.5625 14.4776 0.615049 14.2606 0.71644Z" fill="#701872"/>
<path id="Vector_2" opacity="0.64" d="M28.2708 14.1873L25.6633 12.9693C25.4765 12.8821 25.273 12.8365 25.0669 12.8359C24.8608 12.8353 24.657 12.8797 24.4698 12.9658L15.5459 17.0725C15.36 17.1579 15.1579 17.2022 14.9533 17.2022C14.7487 17.2022 14.5465 17.1579 14.3606 17.0725L5.43559 12.9658C5.2485 12.8798 5.04493 12.8356 4.83903 12.8362C4.63314 12.8368 4.42983 12.8822 4.24325 12.9693L1.63575 14.1873C1.55044 14.2266 1.4782 14.2895 1.42765 14.3687C1.37709 14.4478 1.35034 14.5398 1.35059 14.6337C1.35083 14.7276 1.37806 14.8195 1.42903 14.8984C1.48 14.9773 1.55257 15.0398 1.63809 15.0786L14.3606 20.9318C14.5464 21.0177 14.7486 21.0622 14.9533 21.0622C15.1579 21.0622 15.3602 21.0177 15.5459 20.9318L28.2684 15.0786C28.3539 15.0398 28.4265 14.9773 28.4775 14.8984C28.5284 14.8195 28.5557 14.7276 28.5559 14.6337C28.5562 14.5398 28.5294 14.4478 28.4789 14.3687C28.4283 14.2895 28.3561 14.2266 28.2708 14.1873Z" fill="#401141"/>
<path id="Vector_3" d="M28.2705 21.6882L25.663 20.4702C25.4762 20.383 25.2727 20.3374 25.0666 20.3368C24.8605 20.3362 24.6567 20.3806 24.4695 20.4667L15.5456 24.5722C15.3597 24.6577 15.1576 24.7019 14.953 24.7019C14.7484 24.7019 14.5462 24.6577 14.3603 24.5722L5.43529 20.4655C5.2482 20.3796 5.04464 20.3353 4.83874 20.3359C4.63284 20.3365 4.42954 20.382 4.24296 20.469L1.63546 21.6882C1.55047 21.7276 1.47856 21.7905 1.42825 21.8696C1.37793 21.9486 1.35132 22.0404 1.35156 22.134C1.35181 22.2277 1.3789 22.3194 1.42963 22.3981C1.48036 22.4769 1.5526 22.5394 1.63779 22.5784L14.3603 28.4327C14.736 28.6054 15.17 28.6054 15.5456 28.4327L28.2681 22.5784C28.3533 22.5394 28.4256 22.4769 28.4763 22.3981C28.527 22.3194 28.5541 22.2277 28.5544 22.134C28.5546 22.0404 28.528 21.9486 28.4777 21.8696C28.4274 21.7905 28.3554 21.7276 28.2705 21.6882Z" fill="#00BF71"/>
</g>
</g>
<defs>
<clipPath id="clip0_1597_76914">
<rect width="28" height="28" fill="white" transform="translate(0.953125 0.5625)"/>
</clipPath>
</defs>
</svg>
