<svg width="29" height="29" viewBox="0 0 29 29" fill="none" xmlns="http://www.w3.org/2000/svg">
<g id="Base feature icon/05">
<g id="Group">
<path id="Vector" d="M6.38639 1.72656H2.88639C2.57697 1.72656 2.28023 1.84948 2.06143 2.06827C1.84264 2.28706 1.71973 2.58381 1.71973 2.89323V26.2266C1.71973 26.536 1.84264 26.8327 2.06143 27.0515C2.28023 27.2703 2.57697 27.3932 2.88639 27.3932H6.38639V1.72656Z" fill="#401141"/>
<path id="Vector_2" d="M8.71973 27.3932H20.3864V1.72656H8.71973V27.3932ZM14.5531 22.7266C14.2436 22.7266 13.9469 22.6036 13.7281 22.3849C13.5093 22.1661 13.3864 21.8693 13.3864 21.5599C13.3864 21.2505 13.5093 20.9537 13.7281 20.7349C13.9469 20.5161 14.2436 20.3932 14.5531 20.3932C14.8625 20.3932 15.1592 20.5161 15.378 20.7349C15.5968 20.9537 15.7197 21.2505 15.7197 21.5599C15.7197 21.8693 15.5968 22.1661 15.378 22.3849C15.1592 22.6036 14.8625 22.7266 14.5531 22.7266ZM14.5531 6.39323C14.8625 6.39323 15.1592 6.51614 15.378 6.73494C15.5968 6.95373 15.7197 7.25048 15.7197 7.5599C15.7197 7.86931 15.5968 8.16606 15.378 8.38485C15.1592 8.60365 14.8625 8.72656 14.5531 8.72656C14.2436 8.72656 13.9469 8.60365 13.7281 8.38485C13.5093 8.16606 13.3864 7.86931 13.3864 7.5599C13.3864 7.25048 13.5093 6.95373 13.7281 6.73494C13.9469 6.51614 14.2436 6.39323 14.5531 6.39323ZM14.5531 13.3932C14.8625 13.3932 15.1592 13.5161 15.378 13.7349C15.5968 13.9537 15.7197 14.2505 15.7197 14.5599C15.7197 14.8693 15.5968 15.1661 15.378 15.3849C15.1592 15.6036 14.8625 15.7266 14.5531 15.7266C14.2436 15.7266 13.9469 15.6036 13.7281 15.3849C13.5093 15.1661 13.3864 14.8693 13.3864 14.5599C13.3864 14.2505 13.5093 13.9537 13.7281 13.7349C13.9469 13.5161 14.2436 13.3932 14.5531 13.3932Z" fill="#701872"/>
<path id="Vector_3" d="M26.2197 1.72656H22.7197V27.3932H26.2197C26.5291 27.3932 26.8259 27.2703 27.0447 27.0515C27.2635 26.8327 27.3864 26.536 27.3864 26.2266V2.89323C27.3864 2.58381 27.2635 2.28706 27.0447 2.06827C26.8259 1.84948 26.5291 1.72656 26.2197 1.72656Z" fill="#00BF71"/>
</g>
</g>
</svg>
