<svg width="30" height="30" viewBox="0 0 30 30" fill="none" xmlns="http://www.w3.org/2000/svg">
<g id="Group">
<path id="Vector" d="M5.66658 0.335938H1.66659C1.31296 0.335938 0.973824 0.476412 0.723775 0.726461C0.473727 0.976509 0.333252 1.31565 0.333252 1.66927V28.3359C0.333252 28.6896 0.473727 29.0287 0.723775 29.2787C0.973824 29.5288 1.31296 29.6693 1.66659 29.6693H5.66658V0.335938Z" fill="#C4B5FD"/>
<path id="Vector_2" d="M8.33325 29.6693H21.6666V0.335938H8.33325V29.6693ZM14.9999 24.3359C14.6463 24.3359 14.3072 24.1955 14.0571 23.9454C13.8071 23.6954 13.6666 23.3562 13.6666 23.0026C13.6666 22.649 13.8071 22.3098 14.0571 22.0598C14.3072 21.8097 14.6463 21.6693 14.9999 21.6693C15.3535 21.6693 15.6927 21.8097 15.9427 22.0598C16.1928 22.3098 16.3333 22.649 16.3333 23.0026C16.3333 23.3562 16.1928 23.6954 15.9427 23.9454C15.6927 24.1955 15.3535 24.3359 14.9999 24.3359ZM14.9999 5.66927C15.3535 5.66927 15.6927 5.80975 15.9427 6.05979C16.1928 6.30984 16.3333 6.64898 16.3333 7.0026C16.3333 7.35623 16.1928 7.69537 15.9427 7.94541C15.6927 8.19546 15.3535 8.33594 14.9999 8.33594C14.6463 8.33594 14.3072 8.19546 14.0571 7.94541C13.8071 7.69537 13.6666 7.35623 13.6666 7.0026C13.6666 6.64898 13.8071 6.30984 14.0571 6.05979C14.3072 5.80975 14.6463 5.66927 14.9999 5.66927ZM14.9999 13.6693C15.3535 13.6693 15.6927 13.8097 15.9427 14.0598C16.1928 14.3098 16.3333 14.649 16.3333 15.0026C16.3333 15.3562 16.1928 15.6954 15.9427 15.9454C15.6927 16.1955 15.3535 16.3359 14.9999 16.3359C14.6463 16.3359 14.3072 16.1955 14.0571 15.9454C13.8071 15.6954 13.6666 15.3562 13.6666 15.0026C13.6666 14.649 13.8071 14.3098 14.0571 14.0598C14.3072 13.8097 14.6463 13.6693 14.9999 13.6693Z" fill="#7C3AED"/>
<path id="Vector_3" d="M28.3333 0.335938H24.3333V29.6693H28.3333C28.6869 29.6693 29.026 29.5288 29.2761 29.2787C29.5261 29.0287 29.6666 28.6896 29.6666 28.3359V1.66927C29.6666 1.31565 29.5261 0.976509 29.2761 0.726461C29.026 0.476412 28.6869 0.335938 28.3333 0.335938Z" fill="#1DB5BE"/>
</g>
</svg>
