<svg width="30" height="30" viewBox="0 0 30 30" fill="none" xmlns="http://www.w3.org/2000/svg">
<g id="Group">
<path id="Vector" d="M29.6667 7.0026V1.66927C29.6667 1.31565 29.5262 0.976509 29.2762 0.726461C29.0261 0.476412 28.687 0.335938 28.3334 0.335938H1.66671C1.31309 0.335938 0.973946 0.476412 0.723897 0.726461C0.473849 0.976509 0.333374 1.31565 0.333374 1.66927V7.0026H29.6667Z" fill="#1DB5BE"/>
<path id="Vector_2" d="M0.333374 9.67188V28.3385C0.333374 28.6922 0.473849 29.0313 0.723897 29.2814C0.973946 29.5314 1.31309 29.6719 1.66671 29.6719H8.33337V9.67188H0.333374Z" fill="#C4B5FD"/>
<path id="Vector_3" d="M11 29.6719H28.3333C28.687 29.6719 29.0261 29.5314 29.2761 29.2814C29.5262 29.0313 29.6667 28.6922 29.6667 28.3385V9.67188H11V29.6719Z" fill="#7C3AED"/>
</g>
</svg>
