<svg width="32" height="32" viewBox="0 0 32 32" fill="none" xmlns="http://www.w3.org/2000/svg">
<g id="Group">
<path id="Vector" d="M15.2078 0.175931L0.781159 6.91593C0.683598 6.96067 0.60095 7.0325 0.543053 7.12288C0.485156 7.21325 0.45445 7.31836 0.45459 7.42569C0.454731 7.53302 0.485711 7.63805 0.543844 7.72827C0.601977 7.8185 0.684814 7.89011 0.782492 7.9346L15.3225 14.6253C15.7518 14.8226 16.2478 14.8226 16.6772 14.6253L31.2172 7.9346C31.3149 7.89024 31.3978 7.81873 31.4561 7.72859C31.5143 7.63844 31.5454 7.53345 31.5457 7.42612C31.546 7.31879 31.5154 7.21364 31.4577 7.12319C31.3999 7.03274 31.3173 6.9608 31.2198 6.91593L16.7918 0.175931C16.5439 0.0600563 16.2735 0 15.9998 0C15.7261 0 15.4558 0.0600563 15.2078 0.175931Z" fill="#7C3AED"/>
<path id="Vector_2" opacity="0.64" d="M31.22 15.5679L28.24 14.1759C28.0266 14.0761 27.794 14.0241 27.5584 14.0234C27.3229 14.0228 27.09 14.0734 26.876 14.1719L16.6773 18.8652C16.4649 18.9629 16.2338 19.0135 16 19.0135C15.7662 19.0135 15.5351 18.9629 15.3227 18.8652L5.12267 14.1719C4.90885 14.0736 4.67621 14.0231 4.4409 14.0237C4.20559 14.0244 3.97324 14.0763 3.76001 14.1759L0.780006 15.5679C0.682503 15.6127 0.599949 15.6847 0.54217 15.7751C0.48439 15.8656 0.453823 15.9707 0.454103 16.0781C0.454384 16.1854 0.485502 16.2904 0.543754 16.3805C0.602006 16.4707 0.684937 16.5422 0.782674 16.5865L15.3227 23.2759C15.535 23.3741 15.7661 23.4249 16 23.4249C16.2339 23.4249 16.465 23.3741 16.6773 23.2759L31.2173 16.5865C31.3151 16.5422 31.398 16.4707 31.4563 16.3805C31.5145 16.2904 31.5456 16.1854 31.5459 16.0781C31.5462 15.9707 31.5156 15.8656 31.4578 15.7751C31.4001 15.6847 31.3175 15.6127 31.22 15.5679Z" fill="#C4B5FD"/>
<path id="Vector_3" d="M31.22 24.147L28.24 22.755C28.0266 22.6553 27.794 22.6033 27.5585 22.6026C27.3229 22.6019 27.09 22.6526 26.876 22.751L16.6774 27.443C16.4649 27.5407 16.2338 27.5913 16 27.5913C15.7662 27.5913 15.5351 27.5407 15.3227 27.443L5.12269 22.7497C4.90887 22.6514 4.67623 22.6009 4.44091 22.6016C4.2056 22.6023 3.97326 22.6542 3.76002 22.7537L0.780019 24.147C0.682891 24.192 0.600708 24.264 0.543205 24.3543C0.485701 24.4446 0.455288 24.5495 0.455568 24.6565C0.455849 24.7636 0.486813 24.8683 0.544789 24.9583C0.602765 25.0483 0.685324 25.1198 0.782686 25.1643L15.3227 31.855C15.752 32.0523 16.248 32.0523 16.6774 31.855L31.2174 25.1643C31.3147 25.1198 31.3973 25.0483 31.4553 24.9583C31.5132 24.8683 31.5442 24.7636 31.5445 24.6565C31.5448 24.5495 31.5143 24.4446 31.4568 24.3543C31.3993 24.264 31.3172 24.192 31.22 24.147Z" fill="#1DB5BE"/>
</g>
</svg>
