<svg width="293" height="237" viewBox="0 0 293 237" fill="none" xmlns="http://www.w3.org/2000/svg">
<path d="M292.066 191.242H0V191.388H292.066V191.242Z" fill="#EBEBEB"/>
<path d="M101.184 194.969H87.6436V195.115H101.184V194.969Z" fill="#EBEBEB"/>
<path d="M267.983 198.102H234.88V198.248H267.983V198.102Z" fill="#EBEBEB"/>
<path d="M58.0569 198.102H24.9541V198.248H58.0569V198.102Z" fill="#EBEBEB"/>
<path d="M138.439 165.193H25.6489C24.7653 165.191 23.9184 164.839 23.2942 164.214C22.6699 163.588 22.3193 162.741 22.3193 161.857V3.30619C22.327 2.42767 22.681 1.58766 23.3044 0.968619C23.9279 0.349579 24.7703 0.00150495 25.6489 0H138.439C139.324 0 140.172 0.351407 140.798 0.976915C141.423 1.60242 141.774 2.45079 141.774 3.3354V161.857C141.774 162.742 141.423 163.59 140.798 164.216C140.172 164.841 139.324 165.193 138.439 165.193ZM25.6489 0.116827C24.804 0.118374 23.9943 0.455077 23.3974 1.05303C22.8006 1.65099 22.4654 2.46133 22.4654 3.30619V161.857C22.4654 162.702 22.8006 163.512 23.3974 164.11C23.9943 164.708 24.804 165.045 25.6489 165.047H138.439C139.284 165.044 140.093 164.707 140.691 164.109C141.288 163.512 141.625 162.702 141.628 161.857V3.30619C141.625 2.46127 141.288 1.65183 140.691 1.05437C140.093 0.456915 139.284 0.119905 138.439 0.116827H25.6489Z" fill="#EBEBEB"/>
<path d="M264.793 165.193H151.998C151.114 165.19 150.267 164.837 149.642 164.212C149.018 163.588 148.665 162.741 148.662 161.857V3.30619C148.671 2.42714 149.027 1.58713 149.651 0.968254C150.275 0.349375 151.118 0.00148854 151.998 0H264.793C265.671 0.00304012 266.512 0.351793 267.134 0.970669C267.756 1.58955 268.11 2.42868 268.117 3.30619V161.857C268.118 162.295 268.033 162.728 267.866 163.132C267.699 163.536 267.455 163.904 267.146 164.213C266.838 164.523 266.471 164.769 266.067 164.937C265.664 165.105 265.231 165.192 264.793 165.193ZM151.998 0.116827C151.153 0.119905 150.343 0.456915 149.746 1.05437C149.148 1.65183 148.811 2.46127 148.808 3.30619V161.857C148.811 162.702 149.148 163.512 149.746 164.109C150.343 164.707 151.153 165.044 151.998 165.047H264.793C265.638 165.044 266.448 164.707 267.045 164.109C267.643 163.512 267.98 162.702 267.983 161.857V3.30619C267.98 2.46127 267.643 1.65183 267.045 1.05437C266.448 0.456915 265.638 0.119905 264.793 0.116827H151.998Z" fill="#EBEBEB"/>
<path d="M88.6601 205.2C88.6601 205.2 100.127 198.775 100.892 189.61C101.657 180.445 92.6381 178.599 88.6601 175.392C84.6822 172.185 84.5361 169.276 84.3784 163.925C84.2207 158.575 82.5443 152.914 76.5861 147.57C70.628 142.225 70.0088 140.233 70.7448 133.048C71.4808 125.863 66.615 116.844 60.4991 118.375C54.3832 119.905 53.9276 129.532 55.1484 135.647C56.264 141.596 55.1383 147.747 51.9883 152.914C49.0676 157.506 47.8585 165.608 51.9883 170.806C56.1181 176.005 58.8694 180.591 56.8775 186.093C54.8856 191.596 48.7756 193.734 55.8085 205.2H88.6601Z" fill="#E6E6E6"/>
<path d="M189.698 205.095H209.418C209.418 205.095 211.252 188.891 210.949 175.742C210.645 162.593 209.88 141.804 201.603 142.411C193.325 143.019 183.892 164.276 189.698 205.095Z" fill="#F5F5F5"/>
<path d="M200.165 205.095C200.165 205.095 219.354 162.29 234.798 170.695C250.243 179.101 218.226 205.311 218.226 205.311L200.165 205.095Z" fill="#F0F0F0"/>
<path d="M197.857 205.308C197.857 205.308 199.119 191.376 193.879 177.129C188.64 162.882 182.144 154.348 174.807 157.1C167.471 159.851 168.102 178.356 177.95 205.092L197.857 205.308Z" fill="#E6E6E6"/>
<path d="M209.417 205.094C209.417 205.094 217.771 192.01 222.379 179.643C226.988 167.277 228.04 158.031 223.845 155.752C219.651 153.474 199.954 174.807 197.857 205.31L209.417 205.094Z" fill="#E6E6E6"/>
<path d="M183.926 205.095C183.926 205.095 173.132 163.329 154.691 169.603C136.249 175.877 169.294 205.311 169.294 205.311H184.855" fill="#F0F0F0"/>
<path d="M218.343 193.701C218.343 193.701 220.586 179.974 238.14 162.912C255.693 145.849 260.985 133.197 257.854 116C257.854 116 273.871 138.489 263.508 166.136C253.146 193.783 237.065 203.047 223.869 206.687C210.674 210.326 218.343 193.701 218.343 193.701Z" fill="#EBEBEB" stroke="#EBEBEB" stroke-width="0.313195" stroke-miterlimit="10"/>
<path d="M218.565 206.881C222.123 197.605 227.544 192.149 233.624 186.617C235.85 184.59 238.169 182.528 240.517 180.314C242.118 178.79 243.736 177.166 245.342 175.39C247.107 173.451 248.769 171.419 250.319 169.304C252.07 166.909 253.677 164.412 255.132 161.827C255.436 161.295 255.716 160.758 256.032 160.197C256.411 159.478 256.779 158.766 257.118 158.059C266.149 139.367 261.318 123.49 258.707 117.333C258.322 116.394 257.882 115.48 257.387 114.594" stroke="#E0E0E0" stroke-width="0.62639" stroke-miterlimit="10"/>
<path d="M251.457 147.43C254.544 150.186 256.552 153.95 257.123 158.049" stroke="#E0E0E0" stroke-width="0.62639" stroke-miterlimit="10"/>
<path d="M250.325 169.3C250.161 165.269 246.598 159.399 244.519 156.297" stroke="#E0E0E0" stroke-width="0.62639" stroke-miterlimit="10"/>
<path d="M234.705 166.406C236.335 168.982 239.729 174.853 240.517 180.314" stroke="#E0E0E0" stroke-width="0.62639" stroke-miterlimit="10"/>
<path d="M233.653 186.616C233.653 186.616 243.765 185.044 251.902 187.714" stroke="#E0E0E0" stroke-width="0.62639" stroke-miterlimit="10"/>
<path d="M260.879 172.503C254.009 171.72 245.586 175.295 245.347 175.388" stroke="#E0E0E0" stroke-width="0.62639" stroke-miterlimit="10"/>
<path d="M266.073 156.953C260.5 157.899 255.325 161.679 255.138 161.813" stroke="#E0E0E0" stroke-width="0.62639" stroke-miterlimit="10"/>
<path d="M146.034 236.998C208.584 236.998 259.291 234.038 259.291 230.386C259.291 226.734 208.584 223.773 146.034 223.773C83.4835 223.773 32.7764 226.734 32.7764 230.386C32.7764 234.038 83.4835 236.998 146.034 236.998Z" fill="#F5F5F5"/>
<path opacity="0.12" d="M136.465 72.7503C134.905 72.3239 134.876 70.3203 134.876 70.3203L136.371 70.6182C136.289 71.3294 136.321 72.049 136.465 72.7503Z" fill="black"/>
<path d="M218.618 18.1378V102.346C218.618 103.595 218.122 104.793 217.239 105.675C216.356 106.558 215.158 107.054 213.91 107.054H86.6565C85.4134 107.047 84.224 106.547 83.3483 105.665C82.4726 104.783 81.9818 103.589 81.9834 102.346V18.1378C81.9818 16.8947 82.4726 15.7016 83.3483 14.8193C84.224 13.937 85.4134 13.4374 86.6565 13.4297H213.91C214.528 13.4297 215.14 13.5515 215.711 13.7881C216.283 14.0247 216.802 14.3715 217.239 14.8087C217.676 15.2458 218.023 15.7649 218.259 16.3361C218.496 16.9073 218.618 17.5195 218.618 18.1378Z" fill="#581959"/>
<path opacity="0.7" d="M218.618 18.1378V102.346C218.618 103.595 218.122 104.793 217.239 105.675C216.356 106.558 215.158 107.054 213.91 107.054H86.6565C85.4134 107.047 84.224 106.547 83.3483 105.665C82.4726 104.783 81.9818 103.589 81.9834 102.346V18.1378C81.9818 16.8947 82.4726 15.7016 83.3483 14.8193C84.224 13.937 85.4134 13.4374 86.6565 13.4297H213.91C214.528 13.4297 215.14 13.5515 215.711 13.7881C216.283 14.0247 216.802 14.3715 217.239 14.8087C217.676 15.2458 218.023 15.7649 218.259 16.3361C218.496 16.9073 218.618 17.5195 218.618 18.1378Z" fill="white" stroke="white" stroke-width="0.313195" stroke-miterlimit="10"/>
<path d="M210.697 20.5039C211.397 20.5039 211.965 19.9364 211.965 19.2363C211.965 18.5363 211.397 17.9688 210.697 17.9688C209.997 17.9688 209.43 18.5363 209.43 19.2363C209.43 19.9364 209.997 20.5039 210.697 20.5039Z" fill="#581959"/>
<path d="M204.64 19.2363C204.641 19.4884 204.567 19.7352 204.428 19.9454C204.289 20.1555 204.09 20.3197 203.858 20.4169C203.625 20.5142 203.369 20.5403 203.121 20.4918C202.874 20.4433 202.647 20.3225 202.468 20.1447C202.289 19.9668 202.167 19.7399 202.118 19.4927C202.068 19.2456 202.093 18.9892 202.189 18.7562C202.285 18.5232 202.449 18.324 202.658 18.1838C202.868 18.0436 203.114 17.9688 203.366 17.9688C203.702 17.9703 204.025 18.1041 204.263 18.3413C204.501 18.5786 204.637 18.9001 204.64 19.2363Z" fill="#581959"/>
<path d="M197.309 19.2363C197.31 19.4884 197.236 19.7352 197.097 19.9454C196.958 20.1555 196.759 20.3197 196.526 20.4169C196.294 20.5142 196.038 20.5403 195.79 20.4918C195.543 20.4433 195.315 20.3225 195.137 20.1447C194.958 19.9668 194.836 19.7399 194.787 19.4927C194.737 19.2456 194.762 18.9892 194.858 18.7562C194.954 18.5232 195.118 18.324 195.327 18.1838C195.537 18.0436 195.783 17.9688 196.035 17.9688C196.371 17.9703 196.694 18.1041 196.932 18.3413C197.17 18.5786 197.305 18.9001 197.309 19.2363Z" fill="#581959"/>
<path d="M208.606 35.2315V119.44C208.598 120.682 208.099 121.871 207.218 122.746C206.337 123.622 205.146 124.113 203.904 124.113H76.6447C75.4026 124.113 74.2109 123.622 73.3299 122.746C72.4489 121.871 71.9501 120.682 71.9424 119.44V35.2315C71.9424 33.9839 72.4376 32.7872 73.3193 31.9045C74.201 31.0217 75.397 30.525 76.6447 30.5234H203.904C205.151 30.525 206.347 31.0217 207.229 31.9045C208.111 32.7872 208.606 33.9839 208.606 35.2315Z" fill="#581959"/>
<path opacity="0.8" d="M208.606 35.2315V119.44C208.598 120.682 208.099 121.871 207.218 122.746C206.337 123.622 205.146 124.113 203.904 124.113H76.6447C75.4026 124.113 74.2109 123.622 73.3299 122.746C72.4489 121.871 71.9501 120.682 71.9424 119.44V35.2315C71.9424 33.9839 72.4376 32.7872 73.3193 31.9045C74.201 31.0217 75.397 30.525 76.6447 30.5234H203.904C205.151 30.525 206.347 31.0217 207.229 31.9045C208.111 32.7872 208.606 33.9839 208.606 35.2315Z" fill="white"/>
<path d="M208.612 40.4062H178.126V117.442H208.612V40.4062Z" fill="#581959"/>
<path opacity="0.2" d="M208.612 40.4062H178.126V117.442H208.612V40.4062Z" fill="black"/>
<path d="M208.612 63.5391H178.126V64.5204H208.612V63.5391Z" fill="#FAFAFA"/>
<path d="M208.612 87.7188H178.126V88.7001H208.612V87.7188Z" fill="#FAFAFA"/>
<path d="M208.612 111.539H178.126V112.52H208.612V111.539Z" fill="#FAFAFA"/>
<path d="M191.421 70.2812V81.7887L200.113 76.0349L191.421 70.2812Z" fill="#FAFAFA"/>
<path d="M191.421 94.3594V105.873L200.113 100.119L191.421 94.3594Z" fill="#FAFAFA"/>
<path d="M191.421 45.7812V57.2945L200.113 51.535L191.421 45.7812Z" fill="#FAFAFA"/>
<path d="M116.64 87.7188C116.64 87.7188 108.847 99.3371 106.417 101.644C106.417 101.644 93.3561 102.813 87.9821 99.1385L86.6211 102.474C86.6211 102.474 99.0281 109.484 107.434 107.772C115.839 106.061 122.037 89.8333 122.037 89.8333L116.64 87.7188Z" fill="#B55B52"/>
<path d="M154.508 80.8072C154.508 80.8072 161.956 82.8458 166.6 83.2372C166.6 83.2372 170.105 75.1002 170.689 67.7109L173.329 67.857C173.329 67.857 175.759 82.25 169.386 88.0796C164.982 92.116 150.285 84.6391 150.285 84.6391L154.508 80.8072Z" fill="#B55B52"/>
<path d="M133.55 49.0668C133.55 49.0668 123.456 48.0913 122.411 58.3779C121.833 64.7617 122.866 71.1884 125.413 77.0701C125.413 77.0701 131.517 89.4946 138.918 87.7656C146.319 86.0365 152.593 82.0294 151.285 75.3236C149.976 68.6177 147.54 68.8981 147.628 59.552C147.715 50.2059 138.948 44.7793 133.55 49.0668Z" fill="#263238"/>
<path d="M144.567 63.8019C143.51 68.9598 141.156 71.0159 136.389 70.6187C136.307 71.3299 136.339 72.0496 136.483 72.7508C136.602 73.5912 136.991 74.3702 137.591 74.9698C138.192 75.5695 138.972 75.9573 139.812 76.0745C143.901 76.7813 141.664 82.0444 141.664 82.0444L137.575 84.0538L132.195 80.952L128.106 76.5886H129.538C129.538 76.5886 132.306 72.4003 129.538 65.3499C128.932 64.9953 128.422 64.4992 128.05 63.904C127.679 63.3088 127.458 62.6323 127.405 61.9327C127.289 59.5962 129.701 59.456 130.612 60.3322C130.612 60.3322 134.766 58.5213 134.146 51.5234C134.146 51.5234 138.235 54.596 143.492 53.7022C143.487 53.7431 145.619 58.6382 144.567 63.8019Z" fill="#B55B52"/>
<path d="M140.812 59.5078L140.864 63.1178C141.154 63.2296 141.465 63.2781 141.775 63.2599C142.085 63.2418 142.388 63.1575 142.663 63.0126L140.812 59.5078Z" fill="#A02724"/>
<path d="M135.28 55.4438C135.245 55.4516 135.209 55.4516 135.175 55.4438C135.152 55.43 135.133 55.412 135.118 55.3908C135.102 55.3695 135.091 55.3454 135.085 55.3199C135.079 55.2944 135.078 55.2679 135.083 55.2421C135.087 55.2162 135.096 55.1915 135.11 55.1692C135.382 54.7547 135.788 54.4464 136.261 54.2964C136.733 54.1464 137.243 54.1638 137.704 54.3456C137.729 54.3535 137.752 54.3663 137.772 54.3834C137.792 54.4005 137.808 54.4214 137.819 54.4449C137.831 54.4684 137.837 54.4939 137.838 54.5201C137.84 54.5462 137.836 54.5723 137.827 54.5968C137.809 54.6462 137.773 54.6868 137.726 54.7098C137.679 54.7328 137.625 54.7362 137.575 54.7195C137.2 54.5655 136.783 54.5466 136.395 54.6659C136.007 54.7852 135.673 55.0354 135.449 55.3737C135.429 55.3981 135.403 55.4172 135.373 55.4294C135.344 55.4417 135.312 55.4466 135.28 55.4438Z" fill="#263238"/>
<path d="M144.322 56.56C144.271 56.5603 144.221 56.5416 144.182 56.5075C143.598 55.9759 142.582 56.3673 142.57 56.3731C142.52 56.3904 142.466 56.3879 142.418 56.3662C142.37 56.3444 142.332 56.3051 142.313 56.2563C142.303 56.2318 142.299 56.2056 142.3 56.1794C142.301 56.1531 142.307 56.1273 142.318 56.1034C142.328 56.0795 142.344 56.058 142.363 56.0401C142.382 56.0222 142.405 56.0084 142.43 55.9993C142.476 55.9993 143.709 55.5144 144.457 56.2154C144.494 56.2526 144.515 56.303 144.515 56.3556C144.515 56.4081 144.494 56.4586 144.457 56.4958C144.421 56.5329 144.373 56.5557 144.322 56.56Z" fill="#263238"/>
<path d="M139.274 64.8387C138.594 64.8671 137.918 64.7158 137.315 64.3999C136.712 64.0841 136.203 63.6149 135.84 63.0396C135.829 63.0059 135.831 62.9698 135.845 62.9374C135.858 62.9049 135.882 62.8781 135.913 62.8616C135.944 62.8451 135.98 62.8398 136.015 62.8467C136.049 62.8536 136.08 62.8722 136.102 62.8994C136.442 63.4271 136.914 63.8564 137.472 64.1444C138.03 64.4325 138.653 64.5691 139.28 64.5408C139.319 64.5408 139.356 64.5562 139.383 64.5836C139.411 64.6109 139.426 64.6481 139.426 64.6868C139.426 64.7271 139.41 64.7657 139.382 64.7942C139.353 64.8227 139.314 64.8387 139.274 64.8387Z" fill="#263238"/>
<path d="M138.23 58.8905C138.23 59.3228 138.013 59.6732 137.721 59.6849C137.429 59.6966 137.184 59.352 137.172 58.9197C137.161 58.4875 137.383 58.137 137.675 58.1253C137.967 58.1136 138.218 58.4582 138.23 58.8905Z" fill="#263238"/>
<path d="M143.422 58.9374C143.422 59.3638 143.206 59.7201 142.914 59.7318C142.622 59.7435 142.377 59.3988 142.359 58.9666C142.342 58.5343 142.575 58.1838 142.868 58.1722C143.16 58.1605 143.411 58.5051 143.422 58.9374Z" fill="#263238"/>
<path d="M137.592 58.1375L138.918 57.7578C138.918 57.7578 138.678 58.4705 137.592 58.1375Z" fill="#263238"/>
<path d="M142.867 58.1714L143.843 58.0312C143.802 58.1208 143.74 58.1987 143.661 58.2577C143.583 58.3168 143.491 58.3551 143.393 58.369C143.296 58.383 143.197 58.3722 143.105 58.3377C143.013 58.3032 142.931 58.246 142.867 58.1714Z" fill="#263238"/>
<path d="M157.032 80.5762L152.459 90.6466L150.029 89.7646C150.029 89.7646 150.274 108.048 148.276 117.441H124.502L123.135 92.4867L121.891 95.0919L113.129 90.1735C113.129 90.1735 115.553 80.2432 119.338 78.4908C121.143 77.6555 124.993 77.013 128.953 76.5983C132.561 76.1895 136.193 76.0178 139.824 76.0842C139.824 76.0842 140.198 76.0842 140.858 76.0842C146.526 76.2963 152.066 77.8348 157.032 80.5762Z" fill="#581959"/>
<path d="M170.689 67.7111C169.787 66.429 169.188 64.9591 168.936 63.4119C168.69 61.7466 168.844 60.0464 169.386 58.4526L174.106 58.2891L174.69 62.4189C174.921 64.3357 174.441 66.2707 173.341 67.8572L170.689 67.7111Z" fill="#B55B52"/>
<path d="M87.9824 99.1375L85.5233 94.7507L82.5325 93.7109L80.4062 97.683L82.3047 100.288C82.3047 100.288 84.8106 102.415 86.6214 102.473L87.9824 99.1375Z" fill="#B55B52"/>
<path d="M140.828 76.0803C140.788 82.3772 136.851 89.2758 136.851 89.2758C133.346 85.8937 129.841 78.6388 128.924 76.5826C132.532 76.1739 136.164 76.0022 139.795 76.0686C139.795 76.0686 140.192 76.0569 140.828 76.0803Z" fill="#B55B52"/>
<path opacity="0.12" d="M121.886 95.0943L123.112 88.3359L123.136 92.495L121.886 95.0943Z" fill="black"/>
<path opacity="0.12" d="M152.47 90.6453L148.545 87.7188L150.04 89.7632L152.47 90.6453Z" fill="black"/>
<path d="M126.611 199.391L132.23 205.471L119.193 217.873L114.543 214.566L126.611 199.391Z" fill="#B55B52"/>
<path d="M120.331 217.574C120.647 219.467 121.108 221.576 123.795 225.279C124.379 226.103 122.826 227.645 121.067 226.015C119.309 224.385 116.786 221.827 115.512 220.653C113.439 218.731 112.592 218.094 110.903 216.599C110.877 216.58 110.854 216.559 110.833 216.535C110.753 216.451 110.69 216.352 110.648 216.243C110.606 216.135 110.585 216.02 110.588 215.903C110.591 215.787 110.616 215.673 110.664 215.567C110.711 215.46 110.778 215.364 110.863 215.284L114.56 212.288C114.645 212.221 114.752 212.189 114.86 212.196C114.968 212.204 115.069 212.251 115.144 212.329L119.858 216.686C120.106 216.925 120.272 217.236 120.331 217.574Z" fill="#263238"/>
<path d="M119.625 217.465C119.61 217.443 119.603 217.416 119.603 217.389C119.603 217.363 119.61 217.336 119.625 217.314C119.643 217.301 119.663 217.294 119.684 217.29C119.705 217.287 119.727 217.289 119.748 217.296C120.016 217.384 122.417 218.125 122.668 218.861C122.693 218.929 122.7 219.003 122.689 219.074C122.678 219.146 122.649 219.213 122.604 219.27C122.54 219.364 122.452 219.44 122.35 219.49C122.247 219.541 122.134 219.563 122.02 219.557C121.549 219.458 121.121 219.213 120.799 218.856C120.367 218.428 119.974 217.963 119.625 217.465ZM120.075 217.641C120.875 218.657 121.599 219.265 122.043 219.265C122.119 219.27 122.194 219.254 122.262 219.22C122.33 219.187 122.387 219.135 122.429 219.072C122.443 219.048 122.45 219.021 122.45 218.993C122.45 218.965 122.443 218.938 122.429 218.914C122.392 218.834 122.338 218.762 122.271 218.704C121.6 218.235 120.858 217.877 120.075 217.641Z" fill="#581959"/>
<path d="M119.589 217.413C119.583 217.391 119.583 217.368 119.59 217.347C119.596 217.325 119.608 217.306 119.624 217.29C119.665 217.25 120.723 216.28 121.622 216.356C121.891 216.377 122.14 216.503 122.317 216.706C122.568 216.992 122.528 217.197 122.452 217.29C122.119 217.81 120.372 217.746 119.677 217.495L119.63 217.466C119.614 217.451 119.6 217.433 119.589 217.413ZM121.616 216.619C121.007 216.677 120.433 216.931 119.981 217.343C120.752 217.524 122.025 217.471 122.224 217.162C122.224 217.162 122.288 217.063 122.125 216.876L122.066 216.817C121.943 216.703 121.784 216.633 121.616 216.619Z" fill="#581959"/>
<path d="M124.059 210.494L131.717 210.383L130.653 229.63L125.145 229.437L124.059 210.494Z" fill="#B55B52"/>
<path d="M131.95 228.208C133.51 229.435 134.287 230.726 138.656 231.678C139.632 231.894 139.661 234.178 137.354 234.161C135.046 234.143 132.587 233.939 130.928 233.939C128.212 233.939 127.178 234.061 125.028 234.061C124.901 234.059 124.775 234.032 124.659 233.981C124.542 233.93 124.436 233.857 124.348 233.765C124.259 233.673 124.19 233.565 124.143 233.446C124.097 233.328 124.074 233.201 124.076 233.074L124.45 228.202C124.456 228.098 124.503 228 124.581 227.93C124.658 227.86 124.76 227.824 124.865 227.829L131.051 227.869C131.379 227.884 131.694 228.003 131.95 228.208Z" fill="#263238"/>
<path d="M128.363 110.539C127.698 122.485 143.399 158.193 145.151 170.705C139.742 183.269 125.589 199.286 125.589 199.286L132.295 206.6C132.295 206.6 155.777 185.67 156.998 171.084C158.014 158.613 149.194 111.737 149.194 111.737L128.363 110.539Z" fill="#581959"/>
<path d="M128.363 110.539C127.698 122.485 143.399 158.193 145.151 170.705C139.742 183.269 125.589 199.286 125.589 199.286L132.295 206.6C132.295 206.6 155.777 185.67 156.998 171.084C158.014 158.613 149.194 111.737 149.194 111.737L128.363 110.539Z" fill="#263238"/>
<path d="M125.765 197.578L134.538 205.908L132.172 207.392L124.146 200.172L125.765 197.578Z" fill="#581959"/>
<path opacity="0.3" d="M133.416 133.214C137.096 144.581 141.816 156.959 144.024 165.411C144.427 156.217 144.117 139.838 137.686 130.948C134.684 126.759 133.498 128.845 133.416 133.214Z" fill="black"/>
<path d="M124.362 110.68C119.8 123.244 123.351 151.61 123.597 171.938C122.23 187.259 124.058 210.49 124.058 210.49L132.294 210.829C132.294 210.829 134.777 183.41 136.471 166.301C137.908 151.896 143.037 111.392 143.037 111.392L124.362 110.68Z" fill="#581959"/>
<path d="M124.105 110.234C119.543 122.793 123.351 151.603 123.596 171.93C122.23 187.252 124.058 210.483 124.058 210.483L132.294 210.822C132.294 210.822 134.777 183.403 136.471 166.294C137.908 151.889 143.036 111.385 143.036 111.385L124.105 110.234Z" fill="#263238"/>
<path d="M122.861 208.469L133.539 208.767L132.879 211.734L123.44 212.003L122.861 208.469Z" fill="#581959"/>
<path d="M134.013 228.595C133.522 229.068 132.26 228.841 131.513 228.671C131.487 228.663 131.464 228.649 131.446 228.629C131.427 228.61 131.414 228.586 131.407 228.56C131.403 228.536 131.406 228.511 131.415 228.488C131.424 228.465 131.44 228.446 131.46 228.432C131.635 228.309 133.212 227.263 133.896 227.538C133.971 227.57 134.037 227.622 134.086 227.687C134.135 227.753 134.166 227.83 134.176 227.912C134.202 228.012 134.204 228.116 134.184 228.217C134.164 228.318 134.121 228.413 134.059 228.496C134.055 228.533 134.039 228.568 134.013 228.595ZM131.875 228.455C132.844 228.654 133.563 228.624 133.826 228.385C133.881 228.323 133.919 228.248 133.936 228.167C133.952 228.086 133.946 228.002 133.919 227.923C133.919 227.887 133.908 227.851 133.887 227.821C133.866 227.79 133.837 227.767 133.802 227.754C133.458 227.602 132.523 228.064 131.875 228.473V228.455Z" fill="#581959"/>
<path d="M131.605 228.625C131.585 228.634 131.563 228.638 131.541 228.638C131.519 228.638 131.497 228.634 131.476 228.625C131.457 228.613 131.44 228.596 131.427 228.577C131.414 228.558 131.405 228.537 131.4 228.514C131.4 228.444 131.307 226.861 131.862 226.335C131.932 226.266 132.018 226.214 132.113 226.184C132.207 226.155 132.308 226.148 132.405 226.166C132.511 226.17 132.613 226.207 132.697 226.274C132.78 226.34 132.839 226.431 132.867 226.534C132.868 226.809 132.814 227.082 132.709 227.337C132.604 227.592 132.449 227.823 132.253 228.017C132.071 228.253 131.852 228.458 131.605 228.625ZM131.652 228.263C132.154 227.848 132.715 226.96 132.615 226.58C132.604 226.53 132.575 226.486 132.532 226.457C132.49 226.428 132.438 226.416 132.388 226.423C132.326 226.411 132.263 226.415 132.204 226.434C132.145 226.454 132.091 226.488 132.049 226.534L131.996 226.592C131.729 227.106 131.609 227.685 131.652 228.263Z" fill="#581959"/>
<path d="M129.579 75.2188H127.563V87.0883H129.579V75.2188Z" fill="#FAFAFA"/>
<path d="M124.859 75.2188H122.844V87.0883H124.859V75.2188Z" fill="#FAFAFA"/>
<path d="M135.205 83.8803C136.431 78.7076 133.232 73.5199 128.06 72.2934C122.887 71.0669 117.699 74.2659 116.473 79.4387C115.246 84.6114 118.445 89.799 123.618 91.0255C128.791 92.252 133.978 89.053 135.205 83.8803Z" stroke="#FAFAFA" stroke-width="0.312223" stroke-miterlimit="10"/>
<path d="M208.606 35.2315V40.407H71.9189V35.2315C71.9189 33.9839 72.4142 32.7872 73.2958 31.9045C74.1775 31.0217 75.3736 30.525 76.6212 30.5234H203.904C205.151 30.525 206.347 31.0217 207.229 31.9045C208.111 32.7872 208.606 33.9839 208.606 35.2315Z" fill="#581959"/>
<path d="M208.606 117.438V119.435C208.598 120.677 208.099 121.866 207.218 122.741C206.337 123.617 205.146 124.108 203.904 124.108H76.6447C75.4026 124.108 74.2109 123.617 73.3299 122.741C72.4489 121.866 71.9501 120.677 71.9424 119.435V117.438H208.606Z" fill="#581959"/>
<path d="M98.9287 38.0237H78.963C78.3893 38.0237 77.8389 37.7962 77.4327 37.3911C77.0265 36.9859 76.7974 36.4362 76.7959 35.8624C76.7959 35.2877 77.0242 34.7365 77.4306 34.33C77.8371 33.9236 78.3883 33.6953 78.963 33.6953H98.9287C99.2133 33.6953 99.4951 33.7514 99.758 33.8603C100.021 33.9692 100.26 34.1288 100.461 34.33C100.662 34.5313 100.822 34.7702 100.931 35.0331C101.04 35.296 101.096 35.5779 101.096 35.8624C101.094 36.4362 100.865 36.9859 100.459 37.3911C100.053 37.7962 99.5024 38.0237 98.9287 38.0237Z" stroke="white" stroke-width="0.156598" stroke-miterlimit="10"/>
<path d="M109.77 38.0237H106.85C106.277 38.0237 105.727 37.796 105.322 37.3907C104.916 36.9854 104.688 36.4357 104.688 35.8624C104.688 35.2887 104.916 34.7384 105.321 34.3321C105.726 33.9259 106.276 33.6969 106.85 33.6953H109.77C110.345 33.6953 110.896 33.9236 111.303 34.33C111.709 34.7365 111.938 35.2877 111.938 35.8624C111.936 36.4362 111.707 36.9859 111.301 37.3911C110.895 37.7962 110.344 38.0237 109.77 38.0237Z" stroke="white" stroke-width="0.156598" stroke-miterlimit="10"/>
<path d="M166.473 43.0625H83.9113C79.0593 43.0625 75.126 46.9958 75.126 51.8478V106.429C75.126 111.281 79.0593 115.215 83.9113 115.215H166.473C171.325 115.215 175.258 111.281 175.258 106.429V51.8478C175.258 46.9958 171.325 43.0625 166.473 43.0625Z" stroke="white" stroke-width="0.156598" stroke-miterlimit="10"/>
<path d="M105.886 49.2891H70.5984C67.9369 49.2891 65.7793 51.4466 65.7793 54.1082V66.6787C65.7793 69.3402 67.9369 71.4978 70.5984 71.4978H105.886C108.547 71.4978 110.705 69.3402 110.705 66.6787V54.1082C110.705 51.4466 108.547 49.2891 105.886 49.2891Z" fill="#581959"/>
<path d="M112.423 53.0821V67.6854C112.426 68.184 112.332 68.6784 112.144 69.1402C111.956 69.6021 111.679 70.0223 111.328 70.3767C110.978 70.7312 110.561 71.0128 110.101 71.2056C109.641 71.3983 109.148 71.4983 108.649 71.4998H95.1148C91.0259 72.9134 93.5844 78.5737 93.672 78.7781C92.8934 78.5115 92.1649 78.1167 91.5165 77.6098C88.5959 75.2733 89.0048 71.5057 89.0048 71.5057H71.2647C70.2592 71.5057 69.2949 71.1063 68.584 70.3953C67.873 69.6843 67.4736 68.7201 67.4736 67.7146V53.1113C67.4736 52.1059 67.873 51.1416 68.584 50.4307C69.2949 49.7197 70.2592 49.3203 71.2647 49.3203H108.649C109.647 49.3234 110.603 49.7203 111.31 50.4248C112.017 51.1293 112.416 52.0843 112.423 53.0821Z" fill="#581959"/>
<path opacity="0.2" d="M110.699 53.0802V67.6835C110.703 68.1845 110.607 68.6813 110.418 69.1451C110.228 69.6088 109.948 70.0303 109.595 70.3852C109.241 70.74 108.82 71.021 108.357 71.2121C107.894 71.4031 107.397 71.5002 106.896 71.4979H93.3912C90.4005 72.526 90.9613 75.8205 91.5162 77.6021C88.5955 75.2655 89.0044 71.4979 89.0044 71.4979H69.5645C69.0669 71.4979 68.5742 71.3998 68.1146 71.2092C67.655 71.0186 67.2375 70.7393 66.8859 70.3872C66.5343 70.0351 66.2556 69.6171 66.0658 69.1572C65.8759 68.6973 65.7785 68.2044 65.7793 67.7069V53.1036C65.7785 52.606 65.8759 52.1132 66.0658 51.6532C66.2556 51.1933 66.5343 50.7754 66.8859 50.4233C67.2375 50.0712 67.655 49.7918 68.1146 49.6012C68.5742 49.4106 69.0669 49.3125 69.5645 49.3125H106.896C107.393 49.3102 107.886 49.4059 108.346 49.594C108.806 49.7821 109.225 50.0589 109.578 50.4088C109.931 50.7586 110.212 51.1746 110.404 51.633C110.597 52.0914 110.697 52.5831 110.699 53.0802Z" fill="white"/>
<path d="M107.2 52.8203H69.0449V54.8414H107.2V52.8203Z" fill="#581959"/>
<path d="M107.2 56.5234H69.0449V58.5445H107.2V56.5234Z" fill="#581959"/>
<path d="M107.2 60.2422H69.0449V62.2633H107.2V60.2422Z" fill="#581959"/>
<path opacity="0.1" d="M107.2 52.8203H69.0449V54.8414H107.2V52.8203Z" fill="black"/>
<path opacity="0.1" d="M107.2 56.5234H69.0449V58.5445H107.2V56.5234Z" fill="black"/>
<path opacity="0.1" d="M107.2 60.2422H69.0449V62.2633H107.2V60.2422Z" fill="black"/>
</svg>
