<svg width="430" height="320" viewBox="0 0 430 320" fill="none" xmlns="http://www.w3.org/2000/svg">
<path d="M214.73 320.001C306.705 320.001 381.266 315.648 381.266 310.278C381.266 304.908 306.705 300.555 214.73 300.555C122.754 300.555 48.1934 304.908 48.1934 310.278C48.1934 315.648 122.754 320.001 214.73 320.001Z" fill="#F5F5F5"/>
<path d="M429.461 281.211H0V281.426H429.461V281.211Z" fill="#EBEBEB"/>
<path d="M116.074 295.031H87.627V295.246H116.074V295.031Z" fill="#EBEBEB"/>
<path d="M184.401 288.531H146.995V288.746H184.401V288.531Z" fill="#EBEBEB"/>
<path d="M86.7679 287.062H45.0586V287.277H86.7679V287.062Z" fill="#EBEBEB"/>
<path d="M242.129 289.961H212.677V290.176H242.129V289.961Z" fill="#EBEBEB"/>
<path d="M291.492 289.961H249.774V290.176H291.492V289.961Z" fill="#EBEBEB"/>
<path d="M361.005 293.586H280.541V293.801H361.005V293.586Z" fill="#EBEBEB"/>
<path d="M203.564 242.903H37.7152C36.4159 242.901 35.1707 242.383 34.2528 241.464C33.3349 240.544 32.8193 239.298 32.8193 237.999V4.8615C32.8306 3.5697 33.3512 2.33453 34.2679 1.42428C35.1845 0.514029 36.4233 0.00221292 37.7152 0H203.564C204.865 0 206.113 0.516717 207.032 1.43648C207.952 2.35624 208.469 3.6037 208.469 4.90444V237.999C208.469 239.299 207.952 240.547 207.032 241.467C206.113 242.386 204.865 242.903 203.564 242.903ZM37.7152 0.171785C36.4729 0.17406 35.2823 0.669156 34.4046 1.5484C33.527 2.42765 33.0341 3.6192 33.0341 4.8615V237.999C33.0341 239.241 33.527 240.433 34.4046 241.312C35.2823 242.191 36.4729 242.686 37.7152 242.688H203.564C204.807 242.684 205.997 242.188 206.876 241.31C207.754 240.431 208.25 239.241 208.254 237.999V4.8615C208.25 3.6191 207.754 2.42888 206.876 1.55037C205.997 0.671858 204.807 0.176311 203.564 0.171785H37.7152Z" fill="#EBEBEB"/>
<path d="M389.358 242.903H223.5C222.201 242.899 220.956 242.38 220.037 241.462C219.118 240.543 218.6 239.298 218.596 237.999V4.8615C218.609 3.56892 219.132 2.33376 220.05 1.42374C220.968 0.513729 222.207 0.00218878 223.5 0H389.358C390.648 0.00447026 391.885 0.517285 392.8 1.42729C393.715 2.3373 394.234 3.57118 394.245 4.8615V237.999C394.246 238.642 394.121 239.279 393.876 239.873C393.631 240.467 393.271 241.008 392.817 241.463C392.364 241.919 391.824 242.28 391.231 242.527C390.637 242.774 390.001 242.902 389.358 242.903ZM223.5 0.171785C222.258 0.176311 221.068 0.671858 220.189 1.55037C219.311 2.42888 218.815 3.6191 218.81 4.8615V237.999C218.815 239.241 219.311 240.431 220.189 241.31C221.068 242.188 222.258 242.684 223.5 242.688H389.358C390.6 242.684 391.791 242.188 392.669 241.31C393.548 240.431 394.043 239.241 394.048 237.999V4.8615C394.043 3.6191 393.548 2.42888 392.669 1.55037C391.791 0.671858 390.6 0.176311 389.358 0.171785H223.5Z" fill="#EBEBEB"/>
<path d="M188.98 85.2422H105.003V281.214H188.98V85.2422Z" fill="#E0E0E0"/>
<path d="M176.268 85.2422H92.291V281.214H176.268V85.2422Z" fill="#F0F0F0"/>
<path d="M168.761 234.445H100.434V269.919H168.761V234.445Z" fill="#E0E0E0"/>
<path d="M168.761 187.914H100.434V223.396H168.761V187.914Z" fill="#E0E0E0"/>
<path d="M168.761 141.398H100.434V176.881H168.761V141.398Z" fill="#E0E0E0"/>
<path d="M168.761 94.875H100.434V130.357H168.761V94.875Z" fill="#E0E0E0"/>
<path opacity="0.05" d="M114.709 94.875H100.434V130.357H114.709V94.875Z" fill="black"/>
<path opacity="0.05" d="M114.709 141.398H100.434V176.881H114.709V141.398Z" fill="black"/>
<path opacity="0.05" d="M114.709 187.914H100.434V223.396H114.709V187.914Z" fill="black"/>
<path opacity="0.05" d="M114.709 234.445H100.434V269.919H114.709V234.445Z" fill="black"/>
<path d="M111.531 20.4141H51.5352V80.4098H111.531V20.4141Z" fill="#E0E0E0"/>
<path d="M108.387 20.4141H48.3916V80.4098H108.387V20.4141Z" fill="#EBEBEB"/>
<path d="M101.49 27.3203H55.2969V73.5131H101.49V27.3203Z" fill="#F5F5F5"/>
<path d="M56.8258 27.3203H55.2969V73.5131H56.8258V27.3203Z" fill="#E0E0E0"/>
<path d="M85.373 56.959C88.9945 53.4298 89.0694 47.633 85.5402 44.0114C82.011 40.3899 76.2141 40.315 72.5926 43.8442C68.971 47.3734 68.8961 53.1702 72.4253 56.7918C75.9546 60.4134 81.7514 60.4882 85.373 56.959Z" fill="#FAFAFA"/>
<path d="M48.2369 266.689C48.2369 266.689 43.5043 262.609 40.2318 253.273C36.9593 243.936 29.375 233.234 29.375 233.234C29.375 233.234 39.2955 237.924 42.7914 246.848C42.7914 246.848 38.4968 228.759 29.375 222.145C29.375 222.145 45.6945 227.402 49.7916 244.417C49.7916 244.417 52.5144 230.906 48.0737 217.481C48.0737 217.481 56.431 227.986 57.4102 241.016C57.4102 241.016 58.5698 218.452 65.9994 211.812C65.9994 211.812 63.6632 232.238 65.9994 242.545C65.9994 242.545 69.3063 224.456 84.0883 221.931C84.0883 221.931 74.5543 233.406 74.9494 243.515C76.6122 240.023 79.1535 237.023 82.3245 234.808C85.4954 232.593 89.1872 231.24 93.0383 230.881C93.0383 230.881 82.4564 238.293 81.503 250.352C80.5496 262.412 80.5238 266.105 74.1077 267.857C67.6915 269.609 48.2369 266.689 48.2369 266.689Z" fill="#F5F5F5"/>
<path d="M37.9727 255.648V279.149C37.9727 279.149 40.9961 287.566 60.4163 288.648C79.8365 289.73 84.3716 279.363 84.3716 279.363V255.648H37.9727Z" fill="#E6E6E6"/>
<path d="M382.736 189.203H261.069V281.924H382.736V189.203Z" fill="#E0E0E0"/>
<path d="M352.442 189.203H230.775V281.924H352.442V189.203Z" fill="#EBEBEB"/>
<path d="M346.386 197.781H235.121V232.13H346.386V197.781Z" stroke="#E0E0E0" stroke-width="0.460239" stroke-miterlimit="10"/>
<path d="M346.386 237.852H235.121V272.2H346.386V237.852Z" stroke="#E0E0E0" stroke-width="0.460239" stroke-miterlimit="10"/>
<path d="M290.754 218.072C292.476 218.072 293.872 216.676 293.872 214.954C293.872 213.232 292.476 211.836 290.754 211.836C289.032 211.836 287.636 213.232 287.636 214.954C287.636 216.676 289.032 218.072 290.754 218.072Z" fill="#E0E0E0"/>
<path d="M290.754 260.759C292.476 260.759 293.872 259.363 293.872 257.641C293.872 255.919 292.476 254.523 290.754 254.523C289.032 254.523 287.636 255.919 287.636 257.641C287.636 259.363 289.032 260.759 290.754 260.759Z" fill="#E0E0E0"/>
<path d="M387.262 184.258H225.415V189.205H387.262V184.258Z" fill="#E0E0E0"/>
<path opacity="0.05" d="M387.262 184.258H357.036V189.205H387.262V184.258Z" fill="black"/>
<path d="M385.509 45.9688H250.762V122.155H385.509V45.9688Z" fill="#E0E0E0"/>
<path d="M381.988 45.9688H247.24V122.155H381.988V45.9688Z" fill="#F0F0F0"/>
<path d="M376.319 51.7266H252.497V116.773H376.319V51.7266Z" fill="#F5F5F5"/>
<path d="M253.846 51.7266H252.497V116.773H253.846V51.7266Z" fill="#E0E0E0"/>
<path d="M369.743 72.3316L354.087 66.4531L349.283 79.2465L364.939 85.1249L369.743 72.3316Z" fill="#FAFAFA"/>
<path d="M355.267 69.6619C355.595 69.6619 355.86 69.3965 355.86 69.0692C355.86 68.7419 355.595 68.4766 355.267 68.4766C354.94 68.4766 354.675 68.7419 354.675 69.0692C354.675 69.3965 354.94 69.6619 355.267 69.6619Z" fill="#E6E6E6"/>
<path d="M294.438 89.0938L327.747 92.4436L325.712 105.688L293.64 101.849L294.438 89.0938Z" fill="#FAFAFA"/>
<path d="M326.004 94.8739C326.004 94.9911 325.969 95.1057 325.904 95.2032C325.839 95.3006 325.746 95.3766 325.638 95.4214C325.53 95.4663 325.41 95.478 325.295 95.4552C325.18 95.4323 325.075 95.3759 324.992 95.293C324.909 95.2101 324.853 95.1045 324.83 94.9895C324.807 94.8746 324.819 94.7554 324.863 94.6471C324.908 94.5388 324.984 94.4463 325.082 94.3811C325.179 94.316 325.294 94.2812 325.411 94.2812C325.568 94.2812 325.719 94.3437 325.83 94.4548C325.941 94.566 326.004 94.7167 326.004 94.8739Z" fill="#E6E6E6"/>
<path d="M312.647 184.254L320.008 146.633H354.477L347.314 184.254H312.647Z" fill="#EBEBEB"/>
<path d="M317.896 179.541L323.41 151.352H349.238L343.869 179.541H317.896Z" fill="#FAFAFA"/>
<path d="M324.741 151.352L319.399 179.541H317.896L323.41 151.352H324.741Z" fill="#E6E6E6"/>
<path d="M354.477 146.633H355.903L349.237 184.254H347.313L354.477 146.633Z" fill="#E6E6E6"/>
<path d="M353.463 160.359L358.35 184.255H349.237L353.463 160.359Z" fill="#E0E0E0"/>
<path d="M278.462 38.8906V141.781C278.463 143.452 278.134 145.107 277.496 146.652C276.857 148.196 275.92 149.599 274.739 150.781C273.557 151.963 272.155 152.901 270.611 153.541C269.067 154.181 267.412 154.51 265.741 154.51H255.528V38.8906H278.462Z" fill="#581959"/>
<path opacity="0.8" d="M278.462 38.8906V141.781C278.463 143.452 278.134 145.107 277.496 146.652C276.857 148.196 275.92 149.599 274.739 150.781C273.557 151.963 272.155 152.901 270.611 153.541C269.067 154.181 267.412 154.51 265.741 154.51H255.528V38.8906H278.462Z" fill="white"/>
<path d="M278.462 31.073V141.779C278.463 143.451 278.135 145.106 277.496 146.65C276.857 148.194 275.921 149.598 274.739 150.78C273.558 151.962 272.155 152.9 270.611 153.54C269.067 154.179 267.413 154.509 265.741 154.509H85.9431C82.5671 154.509 79.3294 153.168 76.9422 150.78C74.555 148.393 73.2139 145.155 73.2139 141.779V31.073C73.2127 29.401 73.5412 27.7453 74.1805 26.2004C74.8198 24.6555 75.7574 23.2518 76.9397 22.0695C78.1219 20.8873 79.5256 19.9497 81.0705 19.3104C82.6154 18.6711 84.2712 18.3426 85.9431 18.3438H265.741C267.413 18.3438 269.067 18.6731 270.611 19.3129C272.155 19.9527 273.558 20.8904 274.739 22.0726C275.921 23.2547 276.857 24.658 277.496 26.2024C278.135 27.7467 278.463 29.4018 278.462 31.073Z" fill="white" stroke="#581959" stroke-width="0.460239" stroke-miterlimit="10"/>
<path d="M277.878 27.2508H73.7979C74.6112 24.6671 76.2275 22.4102 78.4118 20.8083C80.596 19.2064 83.2343 18.343 85.943 18.3438H265.741C268.448 18.3449 271.085 19.2091 273.267 20.8108C275.45 22.4126 277.065 24.6685 277.878 27.2508Z" fill="#581959"/>
<path d="M99.1534 24.6075C100.15 24.6075 100.957 23.7999 100.957 22.8037C100.957 21.8076 100.15 21 99.1534 21C98.1572 21 97.3496 21.8076 97.3496 22.8037C97.3496 23.7999 98.1572 24.6075 99.1534 24.6075Z" fill="white"/>
<path d="M105.596 24.6075C106.592 24.6075 107.399 23.7999 107.399 22.8037C107.399 21.8076 106.592 21 105.596 21C104.6 21 103.792 21.8076 103.792 22.8037C103.792 23.7999 104.6 24.6075 105.596 24.6075Z" fill="white"/>
<path d="M113.833 22.8045C113.833 23.1633 113.726 23.5141 113.527 23.8123C113.327 24.1105 113.044 24.3428 112.712 24.4797C112.38 24.6166 112.015 24.652 111.664 24.5814C111.312 24.5108 110.989 24.3373 110.736 24.083C110.483 23.8287 110.311 23.5049 110.242 23.1528C110.173 22.8007 110.21 22.436 110.348 22.105C110.487 21.774 110.721 21.4916 111.02 21.2935C111.319 21.0953 111.67 20.9905 112.029 20.9922C112.267 20.9922 112.502 21.0391 112.721 21.1303C112.941 21.2215 113.14 21.3551 113.307 21.5235C113.475 21.6919 113.608 21.8918 113.698 22.1116C113.788 22.3315 113.834 22.5669 113.833 22.8045Z" fill="white"/>
<path d="M278.462 31.0722V38.8884H73.1797V31.0722C73.1795 29.7759 73.3765 28.4871 73.7638 27.25H277.844C278.243 28.4853 278.451 29.7741 278.462 31.0722Z" fill="#581959"/>
<path opacity="0.5" d="M278.462 31.0722V38.8884H73.1797V31.0722C73.1795 29.7759 73.3765 28.4871 73.7638 27.25H277.844C278.243 28.4853 278.451 29.7741 278.462 31.0722Z" fill="white"/>
<path d="M97.3582 38.8906V154.51H85.6597C82.9085 154.533 80.2211 153.682 77.9845 152.08C75.7479 150.477 74.0775 148.207 73.2139 145.595V38.8906H97.3582Z" fill="#581959"/>
<path opacity="0.1" d="M97.3582 38.8906V154.51H85.6597C82.9085 154.533 80.2211 153.682 77.9845 152.08C75.7479 150.477 74.0775 148.207 73.2139 145.595V38.8906H97.3582Z" fill="black"/>
<path opacity="0.1" d="M247.481 47.0859H105.596V142.847H247.481V47.0859Z" fill="#581959"/>
<path opacity="0.2" d="M83.0144 51.9141H76.916V58.0124H83.0144V51.9141Z" fill="black"/>
<path opacity="0.2" d="M92.2478 51.9141H86.1494V58.0124H92.2478V51.9141Z" fill="black"/>
<path d="M190.732 94.5829C195.929 87.849 199.322 79.0107 198.617 70.3785C197.956 62.2789 191.42 57.3401 183.483 59.2812C180.133 60.1402 177.067 61.7721 173.975 63.3096C168.821 65.8864 163.393 68.0852 157.655 68.7809C151.918 69.4766 146.24 68.7809 140.649 70.9712C130.917 74.7676 128.212 87.2048 131.965 96.2235C135.298 104.229 143.234 110.413 151.677 112.131" stroke="#263238" stroke-width="0.460239" stroke-linecap="round" stroke-linejoin="round"/>
<path opacity="0.2" d="M83.0144 61.5781H76.916V67.6765H83.0144V61.5781Z" fill="black"/>
<path opacity="0.2" d="M92.2478 61.5781H86.1494V67.6765H92.2478V61.5781Z" fill="black"/>
<path opacity="0.2" d="M83.0144 71.25H76.916V77.3483H83.0144V71.25Z" fill="black"/>
<path opacity="0.2" d="M92.2478 71.25H86.1494V77.3483H92.2478V71.25Z" fill="black"/>
<path opacity="0.2" d="M83.0144 80.9219H76.916V87.0202H83.0144V80.9219Z" fill="black"/>
<path opacity="0.2" d="M92.2478 80.9219H86.1494V87.0202H92.2478V80.9219Z" fill="black"/>
<path opacity="0.2" d="M83.0144 90.5859H76.916V96.6843H83.0144V90.5859Z" fill="black"/>
<path opacity="0.2" d="M92.2478 90.5859H86.1494V96.6843H92.2478V90.5859Z" fill="black"/>
<path opacity="0.2" d="M83.0144 100.258H76.916V106.356H83.0144V100.258Z" fill="black"/>
<path opacity="0.2" d="M92.2478 100.258H86.1494V106.356H92.2478V100.258Z" fill="black"/>
<path d="M82.8172 109.657C82.8172 109.795 82.7762 109.93 82.6994 110.044C82.6225 110.159 82.5134 110.248 82.3857 110.3C82.2581 110.353 82.1178 110.366 81.9826 110.338C81.8474 110.311 81.7235 110.244 81.6265 110.146C81.5296 110.047 81.464 109.923 81.4381 109.787C81.4123 109.652 81.4273 109.511 81.4812 109.384C81.5352 109.257 81.6257 109.149 81.7413 109.074C81.8568 108.999 81.9921 108.959 82.1301 108.961C82.2211 108.961 82.3111 108.979 82.3951 109.014C82.479 109.049 82.5551 109.101 82.619 109.165C82.683 109.23 82.7334 109.307 82.7674 109.391C82.8014 109.475 82.8184 109.566 82.8172 109.657Z" fill="#263238"/>
<path d="M85.3163 109.657C85.3163 109.794 85.2755 109.929 85.199 110.043C85.1226 110.158 85.0139 110.247 84.8868 110.299C84.7596 110.352 84.6198 110.366 84.4848 110.339C84.3498 110.312 84.2259 110.246 84.1286 110.149C84.0313 110.051 83.965 109.927 83.9382 109.792C83.9113 109.657 83.9251 109.518 83.9778 109.39C84.0304 109.263 84.1196 109.155 84.234 109.078C84.3484 109.002 84.4829 108.961 84.6205 108.961C84.7122 108.96 84.8032 108.977 84.8881 109.012C84.9731 109.046 85.0502 109.097 85.1151 109.162C85.1799 109.227 85.2311 109.304 85.2657 109.389C85.3002 109.474 85.3174 109.565 85.3163 109.657Z" fill="#263238"/>
<path d="M87.8075 109.657C87.8075 109.795 87.7664 109.93 87.6896 110.044C87.6128 110.159 87.5036 110.248 87.376 110.3C87.2483 110.353 87.108 110.366 86.9728 110.338C86.8376 110.311 86.7137 110.244 86.6167 110.146C86.5198 110.047 86.4542 109.923 86.4284 109.787C86.4025 109.652 86.4175 109.511 86.4715 109.384C86.5255 109.257 86.616 109.149 86.7315 109.074C86.847 108.999 86.9824 108.959 87.1203 108.961C87.2113 108.961 87.3014 108.979 87.3853 109.014C87.4692 109.049 87.5454 109.101 87.6093 109.165C87.6732 109.23 87.7236 109.307 87.7576 109.391C87.7917 109.475 87.8086 109.566 87.8075 109.657Z" fill="#263238"/>
<path d="M172.729 103.135L171.638 103.9L170.985 99.1328L174.962 101.555L173.974 102.225L175.512 104.492L174.301 105.489L172.729 103.135Z" fill="#263238"/>
<path d="M256.045 155.539C256.045 155.539 251.664 176.686 248.701 182.088C245.738 187.491 228.748 187.242 228.748 187.242L209.079 186.263C209.079 186.263 205.334 174.006 221.37 180.362C221.37 180.362 234.898 177.785 240.06 173.491L245.471 151.305L256.045 155.539Z" fill="#FF8B7B"/>
<path d="M314.58 313.191H309.332L295.091 235.725L294.602 233.053L299.669 232.117L300.331 235.725L314.58 313.191Z" fill="#581959"/>
<path opacity="0.5" d="M314.58 313.191H309.332L295.091 235.725L294.602 233.053L299.669 232.117L300.331 235.725L314.58 313.191Z" fill="white"/>
<path d="M291.947 313.186H286.768L279.656 235.719L278.9 227.474L278.729 225.644L283.856 225.172L284.071 227.474L284.827 235.719L291.947 313.186Z" fill="#581959"/>
<path opacity="0.5" d="M291.947 313.186H286.768L279.656 235.719L278.9 227.474L278.729 225.644L283.856 225.172L284.071 227.474L284.827 235.719L291.947 313.186Z" fill="white"/>
<path d="M238.987 228.457L238.437 235.723L232.545 313.189H227.374L233.258 235.723L233.842 228.07L238.987 228.457Z" fill="#581959"/>
<path opacity="0.5" d="M238.987 228.457L238.437 235.723L232.545 313.189H227.374L233.258 235.723L233.842 228.07L238.987 228.457Z" fill="white"/>
<path d="M224.049 228.686L222.89 235.72L210.118 313.186H204.896L217.676 235.72L218.973 227.844L224.049 228.686Z" fill="#581959"/>
<path opacity="0.5" d="M224.049 228.686L222.89 235.72L210.118 313.186H204.896L217.676 235.72L218.973 227.844L224.049 228.686Z" fill="white"/>
<path d="M308.285 226.267L307.812 227.479L305.553 233.19C305.263 233.94 304.752 234.583 304.088 235.035C303.423 235.488 302.638 235.728 301.834 235.724H216.749C215.924 235.726 215.118 235.473 214.441 234.999C213.765 234.526 213.251 233.855 212.97 233.079L210.969 227.479L210.496 226.147C210.28 225.543 210.212 224.896 210.298 224.261C210.385 223.625 210.623 223.02 210.993 222.496C211.362 221.972 211.853 221.544 212.423 221.25C212.993 220.956 213.625 220.803 214.267 220.805H304.565C305.217 220.804 305.859 220.963 306.436 221.267C307.012 221.571 307.505 222.012 307.872 222.551C308.239 223.09 308.468 223.71 308.54 224.358C308.612 225.006 308.524 225.661 308.285 226.267Z" fill="#581959"/>
<path opacity="0.3" d="M307.812 227.477L305.553 233.188C305.263 233.938 304.752 234.581 304.088 235.033C303.424 235.486 302.638 235.726 301.834 235.722H216.749C215.924 235.724 215.118 235.471 214.441 234.997C213.765 234.524 213.251 233.853 212.97 233.077L210.969 227.477H307.812Z" fill="black"/>
<path d="M221.644 276.861L225.664 267.731C225.897 267.199 226.316 266.77 226.842 266.523C227.368 266.277 227.966 266.23 228.524 266.391L234.88 268.195C235.213 268.29 235.521 268.456 235.784 268.681C236.047 268.905 236.258 269.184 236.404 269.497C236.55 269.811 236.626 270.152 236.629 270.498C236.631 270.844 236.559 271.186 236.418 271.502C234.7 275.384 231.436 282.616 230.405 285.202C229.005 288.8 227.829 293.138 225.956 294.349C225.842 294.425 225.721 294.491 225.595 294.547C225.201 294.709 224.77 294.762 224.348 294.701C223.926 294.639 223.529 294.466 223.197 294.198C222.865 293.93 222.611 293.578 222.462 293.178C222.313 292.779 222.274 292.347 222.349 291.927C222.847 288.903 223.388 283.252 221.567 278.691C221.456 278.396 221.406 278.083 221.419 277.768C221.432 277.454 221.509 277.145 221.644 276.861Z" fill="#263238"/>
<path d="M256.354 190.08C256.354 190.08 212.935 184.153 199.819 196.487C199.819 196.487 191.694 207.576 195.602 229.281C198.158 242.676 203.711 255.32 211.844 266.266L223.242 256.577C223.242 256.577 213.098 231.591 216.534 216.131L232.304 215.194L254.919 199.734L257.29 193.326L256.354 190.08Z" fill="#263238"/>
<path d="M212.892 270.626L208.641 265.464L224.221 252.648L227.168 255.715L212.892 270.626Z" fill="#581959"/>
<path d="M299.034 189.607C299.034 189.607 300.236 201.976 296.311 211.029C292.386 220.082 278.514 223.397 269.161 222.796C259.807 222.195 247.739 221.422 242.611 222.865C242.611 222.865 235.972 260.511 224.505 287.963L210.625 286.76C210.625 286.76 218.166 233.627 219.377 221.285C220.588 208.942 219.979 207.104 227.52 201.074C235.061 195.044 273.687 186.893 299.034 189.607Z" fill="#263238"/>
<path d="M220.975 292.934L219.661 298.68L208.641 302.537L211.844 290.297L220.975 292.934Z" fill="#FF8B7B"/>
<path d="M208.495 302.174L217.857 298.695C218.402 298.494 219.002 298.497 219.545 298.704C220.088 298.911 220.538 299.308 220.812 299.821L223.938 305.636C224.108 305.942 224.209 306.281 224.234 306.63C224.259 306.979 224.207 307.329 224.083 307.657C223.959 307.984 223.765 308.28 223.514 308.524C223.264 308.769 222.963 308.955 222.632 309.071C218.638 310.523 211.192 313.237 208.641 314.319C205.085 315.831 201.151 318.004 198.978 317.497C198.844 317.469 198.712 317.432 198.583 317.386C198.191 317.214 197.853 316.941 197.603 316.594C197.354 316.247 197.202 315.84 197.163 315.414C197.124 314.989 197.201 314.561 197.384 314.175C197.567 313.789 197.851 313.459 198.205 313.22C200.721 311.502 205.153 307.929 207.155 303.445C207.28 303.154 207.464 302.891 207.694 302.672C207.925 302.454 208.197 302.284 208.495 302.174Z" fill="#263238"/>
<path d="M256.045 192.921C256.045 192.921 250.393 155.541 249.174 146.445C247.954 137.349 249.174 132.702 252.61 129.721C256.045 126.741 271.798 120.376 282.371 122.094C292.944 123.812 298.107 132.667 299.55 142.708L297.093 143.937C297.093 143.937 300.237 178.774 299.094 190.825L256.045 192.921Z" fill="#581959"/>
<path d="M252.6 129.695C252.6 129.695 244.243 137.073 244.243 151.332L257.273 156.322L252.6 129.695Z" fill="#581959"/>
<path d="M297.291 143.797C297.291 143.797 302.023 160.529 300.726 167.443C299.429 174.357 287.653 183.634 271.282 186.726C271.282 186.726 264.007 187.997 259.816 184.544L253.451 182.723L255.272 177.08C260.123 177.166 264.899 178.288 269.281 180.37C269.281 180.37 284.922 173.275 289.835 167.821C289.835 167.821 289.285 156.724 286.563 148.925L297.291 143.797Z" fill="#FF8B7B"/>
<path d="M226.437 287.959L208.168 285.211L207.507 290.957L224.084 294.341L226.437 287.959Z" fill="#581959"/>
<path d="M243.445 106.663C242.313 109.965 242.454 113.57 243.84 116.773C243.196 114.218 243.315 111.53 244.183 109.042C245.042 106.689 246.459 104.619 247.559 102.386C248.658 100.153 249.405 97.5501 248.675 95.1709C248.521 94.6985 248.177 94.1488 247.688 94.2261C247.198 94.3034 247.095 94.7157 246.957 95.085C246.484 96.0636 246.121 97.0921 245.875 98.1514C245.755 98.9673 245.875 99.7747 245.755 100.608C245.351 102.704 244.157 104.61 243.445 106.663Z" fill="#263238"/>
<path d="M248.504 99.4194C247.844 99.6684 247.267 100.097 246.839 100.658C246.411 101.218 246.149 101.887 246.082 102.589C244.801 101.764 243.849 100.518 243.389 99.0657C242.93 97.6135 242.992 96.0464 243.565 94.6352C245.549 89.4816 248.238 82.1722 256.243 83.2373C264.248 84.3024 281.031 86.673 275.019 104.556C269.006 122.438 263.045 100.596 263.045 100.596L248.504 99.4194Z" fill="#263238"/>
<path d="M266.016 132.843C258.724 132.388 261.816 126.1 262.151 123.773C262.239 122.757 262.018 121.739 261.515 120.852C261.175 120.194 260.76 119.577 260.278 119.014C257.083 119.014 253.544 118.585 251.01 116.438C248.176 114.076 247.051 109.669 246.587 106.173C246.223 102.94 246.16 99.6789 246.398 96.4333C246.398 95.9523 246.467 95.4799 246.484 95.0075C246.596 93.1436 246.716 91.2884 246.785 89.4675C246.785 89.4675 253.853 87.9128 260.167 89.3558C264.839 90.4209 268.12 94.3032 269.537 100.41C270.059 102.736 270.321 105.113 270.319 107.496C270.448 117.649 274.425 119.427 275.979 122.407C277.534 125.388 273.325 133.272 266.016 132.843Z" fill="#FF8B7B"/>
<path d="M252.986 108.372L251.269 101.836L250.092 108.707C250.092 108.707 251.045 109.489 252.986 108.372Z" fill="#FF5652"/>
<path d="M258.037 109.484C258.037 109.484 256.963 111.786 253.545 112.19" stroke="#263238" stroke-width="0.23012" stroke-linecap="round" stroke-linejoin="round"/>
<path d="M257.677 98.4129C257.211 97.8999 256.598 97.5425 255.922 97.3888C255.246 97.2352 254.54 97.2929 253.897 97.554" stroke="#263238" stroke-width="0.345179" stroke-linecap="round" stroke-linejoin="round"/>
<path d="M254.962 101.616C255.022 102.277 255.409 102.784 255.821 102.75C256.233 102.715 256.525 102.148 256.474 101.487C256.422 100.826 256.027 100.319 255.615 100.353C255.202 100.388 254.91 100.954 254.962 101.616Z" fill="#263238"/>
<path d="M247.369 103.492C247.429 104.153 247.816 104.66 248.228 104.625C248.64 104.591 248.932 104.024 248.881 103.363C248.829 102.701 248.434 102.186 248.022 102.229C247.61 102.272 247.369 102.83 247.369 103.492Z" fill="#263238"/>
<path d="M246.271 95.1059C249.025 94.4763 251.612 93.2606 253.855 91.5414C256.38 99.8901 267.134 100.191 269.822 100.191C268.414 94.0838 265.029 89.8407 260.374 88.7756C254.07 87.3327 246.631 88.999 246.631 88.999C246.563 90.8285 246.374 93.2506 246.271 95.1059Z" fill="#263238"/>
<path d="M255.615 100.358L253.854 100.023C253.854 100.023 254.31 101.303 255.615 100.358Z" fill="#263238"/>
<path d="M248.375 102.264L246.614 101.938C246.614 101.938 247.07 103.209 248.375 102.264Z" fill="#263238"/>
<path d="M271.618 84.5708C272.494 80.9417 270.116 77.2545 266.307 76.3351C262.498 75.4158 258.7 77.6124 257.824 81.2415C256.948 84.8706 259.326 88.5578 263.135 89.4772C266.944 90.3965 270.742 88.1999 271.618 84.5708Z" fill="#263238"/>
<path d="M251.552 92.7612L250.126 94.6336C250.126 94.6336 253.897 93.9808 254.73 91.4041C255.563 88.8273 252.419 90.8458 252.419 90.8458L251.552 92.7612Z" fill="#263238"/>
<path opacity="0.1" d="M265.098 116.969C264.175 118.489 262.957 119.808 261.516 120.851C261.176 120.193 260.761 119.576 260.279 119.013C261.979 118.576 263.603 117.887 265.098 116.969Z" fill="black"/>
<path d="M245.755 100.555C245.951 99.9434 246.357 99.4212 246.901 99.0802C247.444 98.7392 248.091 98.6012 248.727 98.6906" stroke="#263238" stroke-width="0.345179" stroke-linecap="round" stroke-linejoin="round"/>
<path d="M267.624 101.241C267.859 100.89 268.126 100.562 268.422 100.262C269.427 99.2395 271.068 97.8996 272.588 98.6469C274.426 99.5058 274.04 102.125 273.524 103.706C273.109 105.12 272.161 106.318 270.879 107.047C269.067 107.983 266.37 107.485 266.387 105.046C266.416 103.683 266.846 102.36 267.624 101.241Z" fill="#FF8B7B"/>
<path d="M269.538 98.4312C269.538 98.4312 266.532 103.499 267.76 107.982C268.988 112.466 268.31 114.579 267.459 116.958C267.459 116.958 267.794 110.147 266.386 107.69C264.238 103.937 267.244 98.4141 267.244 98.4141L269.538 98.4312Z" fill="#263238"/>
<path d="M257.926 83.3178C257.926 83.3178 265.708 84.2455 270.389 87.4407C270.389 87.3977 266.326 81.9951 257.926 83.3178Z" fill="#581959"/>
<path d="M161.855 184.254H210.814C211.311 184.254 211.802 184.141 212.249 183.924C212.696 183.706 213.088 183.389 213.394 182.998C213.7 182.606 213.913 182.15 214.017 181.664C214.121 181.177 214.112 180.674 213.992 180.191L205.283 145.482C205.106 144.773 204.697 144.143 204.121 143.693C203.545 143.244 202.835 142.999 202.104 143H153.146C152.649 143 152.158 143.113 151.711 143.33C151.264 143.548 150.872 143.865 150.566 144.256C150.26 144.648 150.047 145.104 149.943 145.59C149.839 146.077 149.848 146.58 149.968 147.063L158.626 181.772C158.804 182.49 159.221 183.126 159.807 183.577C160.394 184.027 161.116 184.266 161.855 184.254Z" fill="#263238"/>
<path d="M242.396 184.136H209.121V181.559H240.695C241.151 181.559 241.588 181.74 241.91 182.062C242.232 182.385 242.413 182.821 242.413 183.277V184.188L242.396 184.136Z" fill="#263238"/>
<path opacity="0.3" d="M161.855 184.254H210.814C211.311 184.254 211.802 184.141 212.249 183.924C212.696 183.706 213.088 183.389 213.394 182.998C213.7 182.606 213.913 182.15 214.017 181.664C214.121 181.177 214.112 180.674 213.992 180.191L205.283 145.482C205.106 144.773 204.697 144.143 204.121 143.693C203.545 143.244 202.835 142.999 202.104 143H153.146C152.649 143 152.158 143.113 151.711 143.33C151.264 143.548 150.872 143.865 150.566 144.256C150.26 144.648 150.047 145.104 149.943 145.59C149.839 146.077 149.848 146.58 149.968 147.063L158.626 181.772C158.804 182.49 159.221 183.126 159.807 183.577C160.394 184.027 161.116 184.266 161.855 184.254Z" fill="black"/>
<path d="M159.287 184.254H208.245C208.743 184.254 209.233 184.141 209.68 183.924C210.127 183.706 210.519 183.389 210.825 182.998C211.132 182.606 211.345 182.15 211.448 181.664C211.552 181.177 211.543 180.674 211.423 180.191L202.705 145.482C202.529 144.773 202.12 144.143 201.544 143.693C200.968 143.244 200.258 142.999 199.527 143H150.569C150.072 143 149.581 143.113 149.134 143.33C148.687 143.548 148.295 143.865 147.989 144.256C147.683 144.648 147.469 145.104 147.366 145.59C147.262 146.077 147.271 146.58 147.391 147.063L156.049 181.772C156.229 182.49 156.647 183.127 157.235 183.577C157.823 184.028 158.546 184.267 159.287 184.254Z" fill="#263238"/>
<path opacity="0.2" d="M159.287 184.254H208.245C208.743 184.254 209.233 184.141 209.68 183.924C210.127 183.706 210.519 183.389 210.825 182.998C211.132 182.606 211.345 182.15 211.448 181.664C211.552 181.177 211.543 180.674 211.423 180.191L202.705 145.482C202.529 144.773 202.12 144.143 201.544 143.693C200.968 143.244 200.258 142.999 199.527 143H150.569C150.072 143 149.581 143.113 149.134 143.33C148.687 143.548 148.295 143.865 147.989 144.256C147.683 144.648 147.469 145.104 147.366 145.59C147.262 146.077 147.271 146.58 147.391 147.063L156.049 181.772C156.229 182.49 156.647 183.127 157.235 183.577C157.823 184.028 158.546 184.267 159.287 184.254Z" fill="white"/>
<path opacity="0.3" d="M181.585 162.611C182.264 165.506 180.898 168.314 178.527 168.873C176.157 169.431 173.666 167.541 172.979 164.647C172.292 161.752 173.666 158.944 176.037 158.385C178.407 157.827 180.898 159.76 181.585 162.611Z" fill="black"/>
<path d="M147.408 187.268L129.345 299.289H125.343L143.509 186.633L147.408 187.268Z" fill="#581959"/>
<path opacity="0.5" d="M147.408 187.268L129.345 299.289H125.343L143.509 186.633L147.408 187.268Z" fill="white"/>
<path d="M173.983 299.287H169.972L152.519 187.258L156.427 186.648L173.983 299.287Z" fill="#581959"/>
<path opacity="0.5" d="M173.983 299.287H169.972L152.519 187.258L156.427 186.648L173.983 299.287Z" fill="white"/>
<path d="M215.658 187.268L197.595 299.289H193.584L211.75 186.633L215.658 187.268Z" fill="#581959"/>
<path opacity="0.5" d="M215.658 187.268L197.595 299.289H193.584L211.75 186.633L215.658 187.268Z" fill="white"/>
<path d="M275.945 299.287H271.942L254.48 187.258L258.389 186.648L275.945 299.287Z" fill="#581959"/>
<path opacity="0.5" d="M275.945 299.287H271.942L254.48 187.258L258.389 186.648L275.945 299.287Z" fill="white"/>
<path d="M280.868 183.445H114.881V188.659H280.868V183.445Z" fill="#581959"/>
<path opacity="0.3" d="M280.944 183.445H214.043V188.659H280.944V183.445Z" fill="black"/>
<path d="M274.915 183.451H247.498C247.498 183.045 247.659 182.656 247.946 182.37C248.233 182.083 248.621 181.922 249.027 181.922H273.377C273.784 181.922 274.173 182.083 274.462 182.369C274.75 182.656 274.913 183.044 274.915 183.451Z" fill="#263238"/>
<path d="M264.96 168.84L261.267 177.704C260.588 177.566 259.978 177.472 259.549 177.412L263.397 168.178C263.485 167.968 263.652 167.8 263.863 167.713C264.074 167.626 264.311 167.627 264.522 167.715C264.733 167.802 264.9 167.97 264.987 168.181C265.074 168.392 265.074 168.629 264.986 168.84H264.96Z" fill="#263238"/>
<path d="M267.572 161.9C272.315 161.9 276.161 157.447 276.161 151.954C276.161 146.461 272.315 142.008 267.572 142.008C262.828 142.008 258.982 146.461 258.982 151.954C258.982 157.447 262.828 161.9 267.572 161.9Z" fill="#263238"/>
<path d="M286.563 148.897L285.979 146.827L299.129 140.273L299.575 142.756L286.563 148.897Z" fill="#263238"/>
<path opacity="0.1" d="M285.978 146.821L281.992 140.852L288.322 155.642L285.978 146.821Z" fill="black"/>
<path d="M250.178 153.598L249.818 151.356L244.243 149.234V151.356L250.178 153.598Z" fill="#263238"/>
<path opacity="0.1" d="M250.179 153.597C250.067 153.168 248.701 143.797 248.701 143.797V153.039L250.179 153.597Z" fill="black"/>
<path d="M261.284 125.352C261.284 125.352 257.522 133.753 266.386 133.486C275.25 133.22 277.483 126.675 277.93 121.805L275.164 120.852C275.164 120.852 273.567 127.723 267.572 129.089C261.576 130.454 262.074 124.201 262.074 124.201L261.284 125.352Z" fill="#263238"/>
<path opacity="0.1" d="M210.917 293.827L220.271 296.026L220.803 293.681L211.458 291.766L210.917 293.827Z" fill="black"/>
</svg>
