<svg width="298" height="298" viewBox="0 0 298 298" fill="none" xmlns="http://www.w3.org/2000/svg">
<g clip-path="url(#clip0_1597_64186)">
<path d="M149 298C231.29 298 298 231.29 298 149C298 66.7096 231.29 0 149 0C66.7096 0 0 66.7096 0 149C0 231.29 66.7096 298 149 298Z" fill="#581959"/>
<path d="M112.99 157.359C112.919 164.945 114.684 172.434 118.135 179.189C121.587 185.944 126.622 191.763 132.81 196.149L156.97 196.749C161.534 196.848 165.956 195.161 169.294 192.047C172.632 188.933 174.623 184.639 174.84 180.079C174.948 177.85 174.608 175.622 173.84 173.527C173.072 171.431 171.892 169.511 170.37 167.879C168.848 166.247 167.014 164.936 164.977 164.024C162.941 163.112 160.742 162.618 158.51 162.569L113.31 161.459L112.99 157.359Z" fill="white"/>
<path style="mix-blend-mode:multiply" opacity="0.57" d="M112.99 157.359C112.919 164.945 114.684 172.434 118.135 179.189C121.587 185.944 126.622 191.763 132.81 196.149L156.97 196.749C161.534 196.848 165.956 195.161 169.294 192.047C172.632 188.933 174.623 184.639 174.84 180.079C174.948 177.85 174.608 175.622 173.84 173.527C173.072 171.431 171.892 169.511 170.37 167.879C168.848 166.247 167.014 164.936 164.977 164.024C162.941 163.112 160.742 162.618 158.51 162.569L113.31 161.459L112.99 157.359Z" fill="url(#paint0_linear_1597_64186)"/>
<path d="M72.0898 83.5084L79.5397 168.668C80.1666 175.901 83.4431 182.648 88.7402 187.613C94.0372 192.577 100.981 195.411 108.24 195.568L132.81 196.178C126.621 191.792 121.586 185.973 118.135 179.218C114.683 172.463 112.918 164.973 112.99 157.388L106.2 79.8884C106.012 77.6591 105.379 75.4901 104.338 73.5097C103.298 71.5294 101.87 69.7779 100.141 68.3588C98.4112 66.9398 96.4146 65.882 94.2691 65.2481C92.1236 64.6142 89.8728 64.4171 87.6498 64.6684C83.1113 65.1589 78.9441 67.4034 76.0372 70.9231C73.1303 74.4428 71.7138 78.959 72.0898 83.5084Z" fill="white"/>
<path d="M178.82 144.672C177.483 132.811 171.988 121.807 163.31 113.612C160.986 111.367 158.458 109.341 155.76 107.562L132.63 106.962C130.542 106.861 128.456 107.209 126.513 107.981C124.571 108.754 122.816 109.934 121.367 111.441C119.919 112.948 118.81 114.748 118.115 116.72C117.42 118.692 117.156 120.79 117.34 122.872C117.702 127.322 119.677 131.485 122.895 134.579C126.112 137.673 130.35 139.485 134.81 139.672L178.06 140.792L178.82 144.672Z" fill="#FB6E3A"/>
<path style="mix-blend-mode:multiply" opacity="0.57" d="M178.82 144.672C177.483 132.811 171.988 121.807 163.31 113.612C160.986 111.367 158.458 109.341 155.76 107.562L132.63 106.962C130.542 106.861 128.456 107.209 126.513 107.981C124.571 108.754 122.816 109.934 121.367 111.441C119.919 112.948 118.81 114.748 118.115 116.72C117.42 118.692 117.156 120.79 117.34 122.872C117.702 127.322 119.677 131.485 122.895 134.579C126.112 137.673 130.35 139.485 134.81 139.672L178.06 140.792L178.82 144.672Z" fill="url(#paint1_linear_1597_64186)"/>
<path d="M225.66 215.342L209.56 133.932C208.092 126.891 204.322 120.537 198.845 115.873C193.369 111.21 186.496 108.5 179.31 108.172L155.79 107.562C158.488 109.341 161.016 111.367 163.34 113.612C172.007 121.812 177.491 132.816 178.82 144.672L193.48 218.792C195.27 227.792 203.9 234.263 212.78 233.323C221.66 232.383 227.43 224.332 225.66 215.342Z" fill="#FB6E3A"/>
</g>
<defs>
<linearGradient id="paint0_linear_1597_64186" x1="157.927" y1="167.732" x2="107.545" y2="187.359" gradientUnits="userSpaceOnUse">
<stop stop-color="white" stop-opacity="0"/>
<stop offset="0.34" stop-color="#D3D3D3" stop-opacity="0.2"/>
<stop offset="0.82" stop-color="#5B5858" stop-opacity="0.75"/>
<stop offset="1" stop-color="#231F20"/>
</linearGradient>
<linearGradient id="paint1_linear_1597_64186" x1="134.972" y1="135.547" x2="179.434" y2="113.383" gradientUnits="userSpaceOnUse">
<stop stop-color="white" stop-opacity="0"/>
<stop offset="0.34" stop-color="#D3D3D3" stop-opacity="0.2"/>
<stop offset="0.82" stop-color="#5B5858" stop-opacity="0.75"/>
<stop offset="1" stop-color="#231F20"/>
</linearGradient>
<clipPath id="clip0_1597_64186">
<rect width="298" height="298" fill="white"/>
</clipPath>
</defs>
</svg>
